<svg width="81" height="72" viewBox="0 0 81 72" fill="none" xmlns="http://www.w3.org/2000/svg">
<path d="M56.6213 16.5997C56.6213 25.7652 49.1871 33.1994 40.0216 33.1994C30.8561 33.1994 23.4219 25.7652 23.4219 16.5997C23.4219 7.43422 30.8561 0 40.0216 0C49.1871 0 56.6213 7.43422 56.6213 16.5997Z" fill="#76CDD8"/>
<path d="M53.1598 67.9265H80.0962M0 67.9265H26.9363H0Z" stroke="#8A8B89" stroke-width="0.25"/>
<path d="M33.7091 67.2135H34.8293V66.0424C34.8293 65.686 34.6766 65.5332 34.3201 65.5332H34.2183C33.8619 65.5332 33.7091 65.686 33.7091 66.0424V67.2135ZM33.7091 67.9773V69.3012C33.7091 69.6577 33.8619 69.8104 34.2183 69.8104H34.371C34.7275 69.8104 34.8802 69.6577 34.8802 69.3012V68.6393H35.644V69.2503C35.644 70.1159 35.2367 70.5233 34.371 70.5233H34.2183C33.3527 70.5233 32.9453 70.1159 32.9453 69.3522V66.1442C32.9453 65.1768 33.3527 64.7694 34.2183 64.7694H34.371C35.2367 64.7694 35.644 65.1768 35.644 66.0424V67.9773H33.7091Z" fill="#3D4644"/>
<path d="M36.9163 69.505C37.12 69.7087 37.3745 69.8105 37.6291 69.8105C37.9347 69.8105 38.0874 69.6578 38.0874 69.3523V65.9916C38.0874 65.6861 37.9347 65.5333 37.6291 65.5333C37.3745 65.5333 37.12 65.6351 36.9163 65.8388V69.505ZM36.1016 64.8714H36.9163V65.2278C37.12 65.0241 37.4255 64.8204 37.8837 64.8204C38.5457 64.8204 38.9021 65.2787 38.9021 65.9407V69.4541C38.9021 70.1161 38.5457 70.5743 37.8837 70.5743C37.4255 70.5743 37.12 70.3706 36.9163 70.167V72.0001H36.1016V64.8714Z" fill="#3D4644"/>
<path d="M41.2964 69.5558V67.7227L40.5835 67.9773C40.278 68.0792 40.1762 68.2319 40.1762 68.5374V69.4031C40.1762 69.6577 40.3289 69.8104 40.5835 69.8104C40.7872 69.8104 40.9909 69.7086 41.2964 69.5558ZM39.3615 68.5374C39.3615 67.8246 39.6161 67.57 40.1762 67.3663L41.2455 67.0099V66.0424C41.2455 65.686 41.0927 65.5332 40.7363 65.5332H40.5835C40.2271 65.5332 40.0743 65.686 40.0743 66.0424V66.8571H39.3105V66.0424C39.3105 65.1768 39.7179 64.7694 40.5835 64.7694H40.7363C41.6019 64.7694 42.0093 65.1768 42.0093 66.0424V70.4724H41.1946V70.1159C40.9909 70.3196 40.6854 70.5233 40.2271 70.5233C39.6161 70.5233 39.3105 70.1669 39.3105 69.5558V68.5374H39.3615Z" fill="#3D4644"/>
<path d="M45.2671 70.4725H44.4524V65.9407C44.4524 65.6351 44.2996 65.5333 44.0959 65.5333C43.8923 65.5333 43.6377 65.6351 43.3831 65.8388V70.5234H42.5684V64.8714H43.3831V65.2278C43.6377 65.0241 43.8923 64.8204 44.3505 64.8204C44.7579 64.8204 45.0125 64.9732 45.1653 65.2787C45.4708 65.0241 45.7763 64.8204 46.2345 64.8204C46.8456 64.8204 47.1511 65.1769 47.1511 65.7879V70.4725H46.3364V65.9407C46.3364 65.6351 46.1836 65.5333 45.9799 65.5333C45.7763 65.5333 45.5217 65.6351 45.2671 65.8388V70.4725Z" fill="#3D4644"/>
<path d="M31.8766 65.3805V66.3989L30.5527 67.6719L31.8766 68.9448V69.9632L29.8398 68.0792V67.3154L31.8766 65.3805Z" fill="#76CDD8"/>
<path d="M50.2067 67.3154V68.0792L48.1699 69.9632V68.9448L49.4938 67.6719L48.1699 66.3989V65.3805L50.2067 67.3154Z" fill="#76CDD8"/>
<path d="M20.5723 48.5262H22.0998L22.3035 45.7256C22.3544 45.2673 22.3035 44.7072 22.3035 44.7072C22.3035 44.7072 22.5072 45.3692 22.66 45.7256L23.3219 47.5078H24.6458L25.3078 45.7256C25.4605 45.3182 25.6642 44.7072 25.6642 44.7072C25.6642 44.7072 25.6133 45.2673 25.6642 45.7256L25.8679 48.5262H27.3955L26.8863 42.314H25.2569L24.3403 44.9109C24.1875 45.3182 24.0348 45.9293 24.0348 45.9293C24.0348 45.9293 23.882 45.3182 23.7293 44.9109L22.8127 42.314H21.1833L20.5723 48.5262ZM29.4322 45.3691C29.4322 47.2022 30.8071 48.628 32.6911 48.628C34.5751 48.628 35.9499 47.2022 35.9499 45.3691C35.9499 43.587 34.5751 42.2122 32.6911 42.2122C30.8071 42.2122 29.4322 43.587 29.4322 45.3691ZM31.0107 45.3691C31.0107 44.3508 31.7745 43.587 32.6911 43.587C33.6076 43.587 34.3714 44.3508 34.3714 45.3691C34.3714 46.4385 33.6076 47.2023 32.6911 47.2023C31.7236 47.2532 31.0107 46.4385 31.0107 45.3691ZM38.2413 48.5262H40.5327C41.7547 48.5262 42.875 48.017 42.875 46.6931C42.875 46.1329 42.6204 45.5219 41.9075 45.3182C42.3658 45.0636 42.6204 44.5035 42.6204 43.9943C42.6204 42.925 41.7547 42.3649 40.5327 42.3649H38.2413V48.5262ZM39.7689 44.7072V43.6379H40.5327C40.94 43.6379 41.0928 43.8925 41.0928 44.1471C41.0928 44.4526 40.94 44.7072 40.5327 44.7072H39.7689ZM39.7689 47.2023V45.9293H40.6854C41.1437 45.9293 41.3474 46.2348 41.3474 46.5403C41.3474 46.8967 41.1437 47.2023 40.6854 47.2023H39.7689ZM45.2172 48.5262H46.7448V42.314H45.2172V48.5262ZM49.4945 48.5262H53.5171V47.2023H50.9711V42.314H49.4436V48.5262H49.4945ZM55.6557 48.5262H59.6784V47.2023H57.1833V46.0311H59.0673V44.7072H57.1833V43.6379H59.5256V42.3649H55.6557V48.5262Z" fill="#282829"/>
<path d="M5.44727 55.7058C5.44727 56.6224 6.10921 57.3862 7.07668 57.3862C7.53495 57.3862 8.29874 57.2334 8.29874 56.7751V56.4187H7.99323V56.6733C7.99323 57.0297 7.33127 57.1316 7.07668 57.1316C6.31289 57.1316 5.75277 56.5205 5.75277 55.7567C5.75277 54.993 6.31288 54.4329 7.02575 54.4329C7.33127 54.4329 7.89139 54.5347 7.89139 54.8911V55.1457H8.19691V54.7893C8.19691 54.2801 7.38219 54.1783 7.02575 54.1783C6.16012 54.0764 5.44727 54.7893 5.44727 55.7058ZM9.82632 55.7058C9.82632 56.6224 10.5392 57.3862 11.4557 57.3862C12.3723 57.3862 13.0852 56.6733 13.0852 55.7058C13.0852 54.7893 12.3723 54.0764 11.4557 54.0764C10.5901 54.0764 9.82632 54.7893 9.82632 55.7058ZM10.1828 55.7058C10.1828 54.9421 10.7429 54.3819 11.4557 54.3819C12.1686 54.3819 12.7287 54.9421 12.7287 55.7058C12.7287 56.4696 12.1686 57.0807 11.4557 57.0807C10.7429 57.1316 10.1828 56.5206 10.1828 55.7058ZM14.5109 57.3353H15.6311V57.0807H15.2238L15.3765 54.8911C15.3765 54.7893 15.3765 54.6875 15.3765 54.6875C15.3765 54.6875 15.4275 54.8402 15.4275 54.8911L16.2931 56.7751H16.5986L17.4642 54.8911C17.5151 54.7893 17.5151 54.6875 17.5151 54.6875C17.5151 54.6875 17.5151 54.8402 17.5151 54.8911L17.6679 57.0807H17.3115V57.3353H18.4317V57.0807H18.0243L17.8207 54.4329H18.228V54.1783H17.4642L16.5477 56.2659C16.4968 56.3678 16.4968 56.4696 16.4968 56.4696C16.4968 56.4696 16.4968 56.3678 16.4458 56.2659L15.5293 54.1783H14.7655V54.4329H15.1729L14.9692 57.0807H14.5618V57.3353H14.5109ZM19.9084 57.3353H21.0795V57.0807H20.6722V56.0623H21.385C21.5378 56.0623 21.6905 56.0623 21.8433 56.0113C22.1997 55.9095 22.4034 55.5531 22.4034 55.0948C22.4034 54.6874 22.1997 54.3819 21.8942 54.2292C21.7415 54.1782 21.5378 54.1273 21.3341 54.1273H19.9084V54.3819H20.3157V57.0297H19.9084V57.3353ZM20.6212 55.8077V54.4329H21.3341C21.4869 54.4329 21.6396 54.4838 21.7415 54.5347C21.9451 54.6365 22.0979 54.8402 22.0979 55.1457C22.0979 55.4512 21.9451 55.7058 21.7415 55.7567C21.6396 55.8077 21.4869 55.8077 21.3341 55.8077H20.6212ZM23.8801 57.3353H26.2224V56.6733H25.9168V57.0807H24.5929V55.8586H25.815V55.604H24.5929V54.4329H25.815V54.8402H26.1205V54.1783H23.8801V54.4329H24.2874V57.0807H23.8801V57.3353ZM28.4119 57.3353H29.583V57.0807H29.1757V54.4329H30.0413V54.9421H30.3468V54.1783H27.6481V54.9421H27.9536V54.4329H28.8702V57.0807H28.4628V57.3353H28.4119ZM31.7726 57.3353H34.1149V56.6733H33.8093V57.0807H32.4854V55.8586H33.7075V55.604H32.4854V54.4329H33.7075V54.8402H34.013V54.1783H31.7726V54.4329H32.1799V57.0807H31.7726V57.3353ZM35.6424 57.3353H36.8136V57.0807H36.4062V54.8402C36.4062 54.7384 36.4062 54.6365 36.4062 54.6365C36.4062 54.6365 36.4572 54.7384 36.5081 54.8402L38.2903 57.3353H38.5958V54.4329H39.0031V54.1783H37.832V54.4329H38.2393V56.6733C38.2393 56.7751 38.2393 56.877 38.2393 56.877C38.2393 56.877 38.1884 56.7751 38.1375 56.6733L36.3553 54.1783H35.6424V54.4329H36.0498V57.0807H35.6424V57.3353ZM40.4289 55.7058C40.4289 56.6224 41.0908 57.3862 42.0583 57.3862C42.5166 57.3862 43.2804 57.2334 43.2804 56.7751V56.4187H42.9748V56.6733C42.9748 57.0297 42.3129 57.1316 42.0583 57.1316C41.2945 57.1316 40.7344 56.5205 40.7344 55.7567C40.7344 54.993 41.2945 54.4329 42.0074 54.4329C42.3129 54.4329 42.873 54.5347 42.873 54.8911V55.1457H43.1785V54.7893C43.1785 54.2801 42.3638 54.1783 42.0074 54.1783C41.1417 54.0764 40.4289 54.7893 40.4289 55.7058ZM45.4699 57.3353H46.641V57.0807H46.2337V55.9604L47.1502 54.3819H47.4557V54.1273H46.4374V54.3819H46.7938L46.0809 55.5531C46.03 55.604 46.03 55.6549 46.03 55.6549C46.03 55.6549 45.9791 55.604 45.9791 55.5531L45.2662 54.3819H45.6226V54.1273H44.6043V54.3819H44.9098L45.8263 55.9604V57.0807H45.419V57.3353H45.4699ZM50.9692 55.7058C50.9692 56.6224 51.6311 57.3862 52.5986 57.3862C53.0569 57.3862 53.8207 57.2334 53.8207 56.7751V56.4187H53.5151V56.6733C53.5151 57.0297 52.8532 57.1316 52.5986 57.1316C51.8348 57.1316 51.2747 56.5205 51.2747 55.7567C51.2747 54.993 51.8348 54.4329 52.5477 54.4329C52.8532 54.4329 53.4133 54.5347 53.4133 54.8911V55.1457H53.7188V54.7893C53.7188 54.2801 52.9041 54.1783 52.5477 54.1783C51.6821 54.0764 50.9692 54.7893 50.9692 55.7058ZM55.3992 57.3353H57.7415V56.6733H57.4359V57.0807H56.112V55.8586H57.3341V55.604H56.112V54.4329H57.3341V54.8402H57.6396V54.1783H55.3992V54.4329H55.8065V57.0807H55.3992V57.3353ZM59.269 57.3353H60.4402V57.0807H60.0328V54.8402C60.0328 54.7384 60.0328 54.6365 60.0328 54.6365C60.0328 54.6365 60.0837 54.7384 60.1347 54.8402L61.9168 57.3353H62.2224V54.4329H62.6297V54.1783H61.4586V54.4329H61.8659V56.6733C61.8659 56.7751 61.8659 56.877 61.8659 56.877C61.8659 56.877 61.815 56.7751 61.7641 56.6733L59.9819 54.1783H59.269V54.4329H59.6764V57.0807H59.269V57.3353ZM64.7683 57.3353H65.9395V57.0807H65.5321V54.4329H66.3977V54.9421H66.7033V54.1783H64.0045V54.9421H64.31V54.4329H65.2266V57.0807H64.8192V57.3353H64.7683ZM68.129 57.3353H70.4713V56.6733H70.1658V57.0807H68.8419V55.8586H70.0639V55.604H68.8419V54.4329H70.0639V54.8402H70.3695V54.1783H68.129V54.4329H68.5364V57.0807H68.129V57.3353ZM71.9989 57.3353H73.17V57.0807H72.7627V56.0113H73.2209C73.4246 56.0113 73.4755 56.0623 73.5774 56.215L74.1375 57.1316C74.2393 57.3353 74.2903 57.3862 74.5958 57.3862H74.7485V57.1316H74.6467C74.5449 57.1316 74.4939 57.1316 74.443 57.0297L73.9338 56.1132C73.8829 56.0114 73.832 55.9604 73.832 55.9604C74.2903 55.8586 74.5448 55.5531 74.5448 55.0439C74.5448 54.6365 74.3412 54.3819 74.0357 54.2292C73.8829 54.1782 73.6792 54.1783 73.4755 54.1783H72.1007V54.4329H72.5081V57.0807H72.1007V57.3353H71.9989ZM72.7117 55.7058V54.4329H73.3228C73.4755 54.4329 73.6283 54.4328 73.7301 54.4838C73.9338 54.5856 74.0866 54.7384 74.0866 55.0439C74.0866 55.4512 73.832 55.7058 73.4246 55.7058H72.7117Z" fill="#282829"/>
<path d="M34.8301 8.14709H45.2176V25.0523H34.8301V8.14709Z" stroke="white" stroke-miterlimit="10"/>
<path d="M39.3598 9.62378H41.1419M38.4941 23.4229H42.0585H38.4941Z" stroke="black" stroke-miterlimit="10"/>
<path d="M36.3574 10.9476H43.6898V21.3861H36.3574V10.9476Z" stroke="white" stroke-miterlimit="10"/>
</svg>
