<svg width="24" height="24" viewBox="0 0 24 24" fill="none" xmlns="http://www.w3.org/2000/svg">
<g clip-path="url(#clip0)">
<path d="M5.12628 18.8725C3.6753 17.4216 3.6753 15.0627 5.12628 13.6117L8.52042 10.2176L6.90823 8.60538L3.51414 11.9995C1.1722 14.3414 1.17216 18.1428 3.51409 20.4847C5.85603 22.8267 9.65746 22.8267 11.9994 20.4847L15.3935 17.0906L13.7813 15.4785L10.3872 18.8725C8.93623 20.3235 6.57727 20.3235 5.12628 18.8725Z" fill="black"/>
<path d="M14.546 7.75657L7.75781 14.5448L9.45488 16.2419L16.2431 9.45364L14.546 7.75657Z" fill="black"/>
<path d="M11.9976 3.51527L8.60352 6.90936L10.2157 8.52155L13.6098 5.12746C15.0608 3.67648 17.4196 3.67649 18.8706 5.12747C20.3216 6.57845 20.3217 8.93737 18.8707 10.3883L15.4766 13.7824L17.0888 15.3946L20.4829 12.0005C22.8248 9.6586 22.8248 5.85718 20.4829 3.51524C18.1409 1.17331 14.3395 1.17334 11.9976 3.51527Z" fill="black"/>
</g>
<defs>
<clipPath id="clip0">
<rect width="24" height="24" fill="white"/>
</clipPath>
</defs>
</svg>
