<svg width="32" height="32" viewBox="0 0 32 32" fill="none" xmlns="http://www.w3.org/2000/svg">
<g clip-path="url(#clip0)">
<path d="M27.2814 25.3332H8.66139C7.88272 25.3332 7.14538 24.9945 6.63738 24.4025C6.12938 23.8105 5.90672 23.0305 6.02538 22.2612L8.07739 8.92784C8.27872 7.61717 9.38805 6.6665 10.7134 6.6665H29.3334C30.1121 6.6665 30.8494 7.00517 31.3574 7.59717C31.8654 8.18917 32.0881 8.96917 31.9694 9.7385L29.9174 23.0718C29.7161 24.3825 28.6068 25.3332 27.2814 25.3332ZM10.7134 7.99984C10.0507 7.99984 9.49605 8.4745 9.39605 9.1305L7.34405 22.4638C7.28538 22.8492 7.39605 23.2398 7.64938 23.5345C7.90272 23.8292 8.27205 23.9998 8.66139 23.9998H27.2814C27.9441 23.9998 28.4987 23.5252 28.5987 22.8692L30.6508 9.53584C30.7094 9.1505 30.5988 8.75984 30.3454 8.46517C30.0921 8.1705 29.7227 7.99984 29.3334 7.99984H10.7134Z" fill="black"/>
<path d="M18.9978 18.0001C18.8805 18.0001 18.7631 17.9695 18.6591 17.9081L8.08581 11.6815C7.76981 11.4948 7.66315 11.0868 7.84981 10.7681C8.03648 10.4508 8.44581 10.3468 8.76315 10.5321L19.0231 16.5748L30.7525 10.7108C31.1738 10.5001 31.7245 10.8348 31.7245 11.3068C31.7245 11.5988 31.5405 11.8468 31.2818 11.9375L19.2965 17.9308C19.2018 17.9761 19.0991 18.0001 18.9978 18.0001Z" fill="black"/>
<path d="M6 10.6668H0.666667C0.298667 10.6668 0 10.3682 0 10.0002C0 9.63216 0.298667 9.3335 0.666667 9.3335H6C6.368 9.3335 6.66667 9.63216 6.66667 10.0002C6.66667 10.3682 6.368 10.6668 6 10.6668Z" fill="black"/>
<path d="M4.66667 15.9998H0.666667C0.298667 15.9998 0 15.7012 0 15.3332C0 14.9652 0.298667 14.6665 0.666667 14.6665H4.66667C5.03467 14.6665 5.33333 14.9652 5.33333 15.3332C5.33333 15.7012 5.03467 15.9998 4.66667 15.9998Z" fill="black"/>
<path d="M3.33333 21.3333H0.666667C0.298667 21.3333 0 21.0347 0 20.6667C0 20.2987 0.298667 20 0.666667 20H3.33333C3.70133 20 4 20.2987 4 20.6667C4 21.0347 3.70133 21.3333 3.33333 21.3333Z" fill="black"/>
</g>
<defs>
<clipPath id="clip0">
<rect width="32" height="32" fill="white"/>
</clipPath>
</defs>
</svg>
