<svg width="24" height="24" viewBox="0 0 24 24" fill="none" xmlns="http://www.w3.org/2000/svg">
<g clip-path="url(#clip0)">
<path d="M12 0.499878C5.37 0.499878 0 5.77988 0 12.2919C0 17.5029 3.438 21.9219 8.205 23.4799C8.805 23.5909 9.025 23.2259 9.025 22.9129C9.025 22.6329 9.015 21.8909 9.01 20.9079C5.672 21.6189 4.968 19.3259 4.968 19.3259C4.422 17.9649 3.633 17.6009 3.633 17.6009C2.546 16.8699 3.717 16.8849 3.717 16.8849C4.922 16.9669 5.555 18.0999 5.555 18.0999C6.625 19.9029 8.364 19.3819 9.05 19.0809C9.158 18.3179 9.467 17.7989 9.81 17.5039C7.145 17.2089 4.344 16.1949 4.344 11.6769C4.344 10.3899 4.809 9.33788 5.579 8.51288C5.444 8.21488 5.039 7.01588 5.684 5.39188C5.684 5.39188 6.689 5.07588 8.984 6.60088C9.944 6.33888 10.964 6.20888 11.984 6.20288C13.004 6.20888 14.024 6.33888 14.984 6.60088C17.264 5.07588 18.269 5.39188 18.269 5.39188C18.914 7.01588 18.509 8.21488 18.389 8.51288C19.154 9.33788 19.619 10.3899 19.619 11.6769C19.619 16.2069 16.814 17.2039 14.144 17.4939C14.564 17.8479 14.954 18.5709 14.954 19.6759C14.954 21.2539 14.939 22.5219 14.939 22.9049C14.939 23.2139 15.149 23.5829 15.764 23.4649C20.565 21.9169 24 17.4949 24 12.2919C24 5.77988 18.627 0.499878 12 0.499878Z" fill="black"/>
</g>
<defs>
<clipPath id="clip0">
<rect width="24" height="24" fill="white"/>
</clipPath>
</defs>
</svg>
