<svg width="24" height="24" viewBox="0 0 24 24" fill="none" xmlns="http://www.w3.org/2000/svg">
<g clip-path="url(#clip0)">
<path d="M23.5 6.5H0.500016C0.224016 6.5 0 6.72402 0 7.00002C0 7.27602 0.224016 7.50003 0.500016 7.50003H23.5C23.776 7.50003 24 7.27602 24 7.00002C24 6.72402 23.776 6.5 23.5 6.5Z" fill="black"/>
<path d="M23.5 11.5H0.500016C0.224016 11.5 0 11.724 0 12C0 12.276 0.224016 12.5 0.500016 12.5H23.5C23.776 12.5 24 12.276 24 12C24 11.724 23.776 11.5 23.5 11.5Z" fill="black"/>
<path d="M23.5 16.5H0.500016C0.224016 16.5 0 16.724 0 17C0 17.276 0.224016 17.5 0.500016 17.5H23.5C23.776 17.5 24 17.276 24 17C24 16.724 23.776 16.5 23.5 16.5Z" fill="black"/>
</g>
<defs>
<clipPath id="clip0">
<rect width="24" height="24" fill="white"/>
</clipPath>
</defs>
</svg>
