<svg width="539" height="509" viewBox="0 0 539 509" fill="none" xmlns="http://www.w3.org/2000/svg">
<path d="M409.2 11.3652C411.221 11.3652 412.86 9.73437 412.86 7.72264C412.86 5.71091 411.221 4.08008 409.2 4.08008C407.179 4.08008 405.54 5.71091 405.54 7.72264C405.54 9.73437 407.179 11.3652 409.2 11.3652Z" fill="#A2D6FC" fill-opacity="0.72"/>
<path d="M135.583 357.443C137.099 357.443 138.328 356.22 138.328 354.711C138.328 353.202 137.099 351.979 135.583 351.979C134.067 351.979 132.838 353.202 132.838 354.711C132.838 356.22 134.067 357.443 135.583 357.443Z" fill="#A2D6FC" fill-opacity="0.72"/>
<path d="M190.658 371.518C195.097 371.518 198.696 367.936 198.696 363.517C198.696 359.099 195.097 355.517 190.658 355.517C186.218 355.517 182.619 359.099 182.619 363.517C182.619 367.936 186.218 371.518 190.658 371.518Z" fill="#A2D6FC" fill-opacity="0.72"/>
<path d="M8.31982 267.196C12.7594 267.196 16.3584 263.614 16.3584 259.196C16.3584 254.777 12.7594 251.195 8.31982 251.195C3.88024 251.195 0.28125 254.777 0.28125 259.196C0.28125 263.614 3.88024 267.196 8.31982 267.196Z" fill="#A2D6FC" fill-opacity="0.72"/>
<path d="M459.251 448.67C465.026 448.67 469.707 444.011 469.707 438.263C469.707 432.515 465.026 427.855 459.251 427.855C453.476 427.855 448.794 432.515 448.794 438.263C448.794 444.011 453.476 448.67 459.251 448.67Z" fill="#A2D6FC" fill-opacity="0.72"/>
<path d="M485.685 462.427C487.851 462.427 489.606 460.68 489.606 458.524C489.606 456.369 487.851 454.622 485.685 454.622C483.519 454.622 481.764 456.369 481.764 458.524C481.764 460.68 483.519 462.427 485.685 462.427Z" fill="#A2D6FC" fill-opacity="0.72"/>
<path d="M513.72 447.532C516.247 447.532 518.295 445.493 518.295 442.979C518.295 440.464 516.247 438.426 513.72 438.426C511.194 438.426 509.146 440.464 509.146 442.979C509.146 445.493 511.194 447.532 513.72 447.532Z" fill="#A2D6FC" fill-opacity="0.72"/>
<path d="M445.656 43.2406C450.114 43.2406 453.727 39.644 453.727 35.2075C453.727 30.7709 450.114 27.1743 445.656 27.1743C441.199 27.1743 437.585 30.7709 437.585 35.2075C437.585 39.644 441.199 43.2406 445.656 43.2406Z" fill="#A2D6FC" fill-opacity="0.72"/>
<path d="M155.255 276.202C157.782 276.202 159.83 274.163 159.83 271.648C159.83 269.134 157.782 267.095 155.255 267.095C152.729 267.095 150.681 269.134 150.681 271.648C150.681 274.163 152.729 276.202 155.255 276.202Z" fill="#A2D6FC" fill-opacity="0.72"/>
<path d="M110.243 65.6808C112.769 65.6808 114.818 63.6423 114.818 61.1276C114.818 58.613 112.769 56.5745 110.243 56.5745C107.716 56.5745 105.668 58.613 105.668 61.1276C105.668 63.6423 107.716 65.6808 110.243 65.6808Z" fill="#A2D6FC" fill-opacity="0.72"/>
<path d="M265.898 509C301.09 509 329.618 505.768 329.618 501.78C329.618 497.793 301.09 494.56 265.898 494.56C230.706 494.56 202.178 497.793 202.178 501.78C202.178 505.768 230.706 509 265.898 509Z" fill="#8EA2C0" fill-opacity="0.48"/>
<path d="M250.963 506.919C271.031 506.919 287.3 504.59 287.3 501.716C287.3 498.842 271.031 496.512 250.963 496.512C230.895 496.512 214.626 498.842 214.626 501.716C214.626 504.59 230.895 506.919 250.963 506.919Z" fill="#8EA2C0" fill-opacity="0.48"/>
<path d="M399.317 406.065C476.306 406.065 538.718 399.28 538.718 390.91C538.718 382.539 476.306 375.754 399.317 375.754C322.329 375.754 259.917 382.539 259.917 390.91C259.917 399.28 322.329 406.065 399.317 406.065Z" fill="#8EA2C0" fill-opacity="0.48"/>
<path d="M281.975 185.073C281.582 184.715 281.975 183.642 282.595 183.056C284.719 179.706 290.667 172.194 292.039 172.389C293.967 174.308 287.824 182.764 284.36 184.747C283.51 185.105 282.889 185.398 281.975 185.073Z" fill="#262F69"/>
<path d="M290.112 433.58C289.654 433.482 288.641 433.385 287.857 433.19C276.845 430.555 265.538 425.384 265.996 423.595C266.159 422.977 267.728 422.88 269.688 422.782C277.596 422.359 288.478 425.319 289.85 431.498C289.948 432.019 290.177 432.832 290.112 433.58Z" fill="#161616" fill-opacity="0.3"/>
<path d="M453.072 296.269H295.307V394.325H453.072V296.269Z" fill="#5287AD"/>
<path fill-rule="evenodd" clip-rule="evenodd" d="M430.918 281.373H316.188L295.308 296.268H453.105L430.918 281.373Z" fill="#5287AD"/>
<g style="mix-blend-mode:lighten">
<path d="M381.019 295.066C400.816 295.066 416.865 292.197 416.865 288.659C416.865 285.12 400.816 282.252 381.019 282.252C361.221 282.252 345.172 285.12 345.172 288.659C345.172 292.197 361.221 295.066 381.019 295.066Z" fill="#8BB8D8"/>
</g>
<path fill-rule="evenodd" clip-rule="evenodd" d="M453.103 394.325H336.381C353.994 341.866 388.534 340.565 401.147 296.269H453.103V394.325Z" fill="#8BB8D8"/>
<path d="M431.571 283.325C419.186 270.348 390.496 273.275 376.15 275.877C375.333 264.136 390.855 243.191 384.614 227.223C382.392 221.499 379.941 216.328 377.457 211.644C381.509 215.287 416.768 251.159 425.395 259.03C427.976 261.372 439.74 273.275 431.571 283.325Z" fill="#262F69"/>
<path d="M321.058 154.533C317.724 162.014 314.457 171.153 312.267 181.788C307.072 206.765 310.078 228.1 313.248 241.499C317.594 242.378 321.94 243.223 326.286 244.101C328.475 233.076 330.24 218.701 329.554 201.919C328.737 182.405 324.848 166.242 321.058 154.533Z" fill="#262F69"/>
<path d="M269.166 419.041C268.48 420.602 267.728 422.196 266.944 423.79C264.755 428.213 262.402 432.213 260.082 435.758C262.696 436.116 267.238 439.075 273.349 443.596C276.257 445.742 283.577 448.377 285.407 443.986C285.897 441.254 286.812 437.807 288.576 434.099C289.491 432.18 290.504 430.489 291.485 429.058C292.955 423.594 290.929 417.968 286.714 415.139C281.42 411.626 273.447 413.057 269.166 419.041Z" fill="#F7B2B2"/>
<path d="M278.578 446.003C281.421 446.718 284.329 446.556 285.408 443.986C285.898 441.254 286.813 437.807 288.577 434.099C289.492 432.18 290.505 430.489 291.486 429.058C292.041 427.042 292.106 424.993 291.747 423.074C282.891 433.026 279.362 440.214 278.578 446.003Z" fill="#F69797"/>
<path fill-rule="evenodd" clip-rule="evenodd" d="M219.301 483.664C218.746 484.445 218.027 485.616 217.471 487.144C217.177 487.925 216.327 490.266 216.622 492.836C217.177 497.812 221.686 500.869 223.19 501.747C225.771 503.275 228.091 503.568 230.999 503.926C231.784 504.023 235.313 504.414 240.051 503.666C244.103 503.015 246.979 501.844 249.233 500.934C252.436 499.6 257.86 497.324 263.186 492.608C263.448 492.38 266.454 488.803 272.499 481.648C275.212 478.461 277.63 475.566 281.42 472.184C282.989 470.785 284.328 469.679 285.309 468.931C285.799 468.378 286.289 467.663 286.747 466.85C288.413 463.63 287.923 460.378 287.629 458.979C283.871 460.28 280.08 461.581 276.323 462.915C256.945 469.647 237.96 476.574 219.301 483.664Z" fill="#8F1D3E"/>
<path fill-rule="evenodd" clip-rule="evenodd" d="M251.619 462.394C256.162 456.898 259.691 452.344 268.219 441.97C268.448 441.677 269.004 441.059 269.919 440.766C271.683 440.181 273.186 441.254 273.382 441.384C274.951 442.458 276.519 443.498 278.088 444.572C278.611 444.897 279.46 445.255 280.539 445.352C283.283 445.58 285.211 443.693 285.538 443.368C288.25 448.344 288.61 456.02 287.499 459.077C286.519 459.695 285.146 460.573 283.545 461.679C282.303 462.557 277.728 465.809 271.062 472.574C267.893 475.793 264.004 480.054 259.887 485.388C258.645 486.526 256.88 488.055 254.528 489.518C252.959 490.526 247.992 493.486 240.738 494.722C239.3 494.949 234.823 495.632 229.203 494.852C224.857 494.234 223.256 493.226 222.275 492.413C221.687 491.925 219.138 489.811 219.008 486.591C218.942 484.9 219.563 483.631 220.119 482.526C221.36 479.956 223.158 478.46 223.648 478.07C227.406 474.883 230.477 470.915 234.137 467.598C237.143 464.866 241.326 460.703 245.966 454.816C247.698 457.451 251.489 462.492 251.619 462.394Z" fill="#C63C56"/>
<path fill-rule="evenodd" clip-rule="evenodd" d="M234.137 467.597C235.248 467.467 242.044 467.272 246.946 470.785C255.344 476.183 259.036 481.615 260.245 485.062C259.2 486.135 257.631 487.599 255.573 489.03C250.769 492.347 246.292 493.518 243.874 494.136C237.96 495.6 233.254 495.307 231.947 495.209C228.679 494.949 226 494.299 224.072 493.681C223.32 493.323 221.981 492.575 220.837 491.111C220.379 490.526 219.366 489.225 219.105 487.209C218.811 485.192 219.432 483.631 219.791 482.818C220.379 481.387 221.164 480.476 222.732 478.753C223.811 477.549 224.072 477.452 226.425 475.175C228.026 473.614 228.124 473.452 230.346 471.273C231.294 470.362 232.568 469.094 234.137 467.597Z" fill="#E46379"/>
<path fill-rule="evenodd" clip-rule="evenodd" d="M270.081 440.571C270.375 440.506 270.833 440.441 271.388 440.506C272.238 440.604 272.891 440.896 273.349 441.222C273.872 441.612 274.395 442.002 274.95 442.36C275.113 442.49 275.277 442.588 275.44 442.718C272.695 447.694 260.213 464.085 251.619 474.297C250.181 475.566 248.024 475.403 246.913 474.07C245.965 472.931 245.933 471.143 246.978 469.874C254.658 460.15 262.369 450.36 270.081 440.571Z" fill="#E46379"/>
<path fill-rule="evenodd" clip-rule="evenodd" d="M234.038 467.695C235.966 465.614 237.927 463.435 239.855 461.093C246.913 452.54 252.207 444.019 256.258 436.213C256.553 435.888 257.01 435.465 257.631 435.107C259.853 433.741 262.238 434.099 263.023 434.229C265.833 434.685 269.329 437.189 270.212 440.604C266.225 446.62 261.944 452.409 257.566 457.873C254.004 462.329 250.475 466.654 246.946 470.817C245.573 469.939 243.351 468.736 240.345 468.085C237.731 467.5 235.541 467.533 234.038 467.695Z" fill="#8F1D3E"/>
<path fill-rule="evenodd" clip-rule="evenodd" d="M277.433 390.486C277.988 390.877 278.87 391.365 280.047 391.625C282.432 392.178 284.393 391.365 285.112 391.039C286.157 390.064 287.563 388.698 289.164 387.006C291.19 384.86 293.738 381.9 297.137 377.054C303.149 368.501 307.234 360.565 307.724 359.59C311.188 352.825 315.338 343.328 318.606 331.327C318.736 330.579 318.769 329.604 318.475 328.596C317.331 324.888 312.593 324.01 312.397 323.977C311.515 327.034 310.208 331.132 308.476 335.946C303.574 349.54 298.477 359.167 297.333 361.313C290.994 373.152 285.014 381.087 283.707 382.811C281.223 386.031 279.034 388.633 277.433 390.486Z" fill="#8F1D3E"/>
<path fill-rule="evenodd" clip-rule="evenodd" d="M290.797 320.009C290.372 324.627 290.307 328.758 289.882 333.376C289.588 333.896 289.098 334.677 288.444 335.555C285.405 339.393 281.451 340.824 280.046 341.312C279 341.669 277.464 342.125 275.569 342.32C276.059 344.401 276.746 347.491 277.464 351.264C278.87 358.614 279.556 362.289 279.36 365.411C279 370.745 277.268 375.395 276.027 378.68C275.34 380.534 274.654 382.063 274.131 383.136C273.87 383.721 273.478 384.827 273.707 386.161C274.164 389.185 277.236 390.519 277.464 390.616C278.902 388.892 280.863 386.486 283.118 383.559C283.118 383.559 288.836 376.046 293.542 368.273C298.541 360.045 305.861 345.605 312.266 324.953C310.991 324.14 309.553 323.261 307.92 322.578C301.221 319.716 294.653 319.489 290.797 320.009Z" fill="#C63C56"/>
<path fill-rule="evenodd" clip-rule="evenodd" d="M281.06 367.265C282.073 367.427 283.282 367.687 284.523 368.143C287.562 369.248 289.719 370.94 291.059 372.175C289.327 374.777 287.497 377.412 285.569 380.111C282.889 383.786 280.243 387.266 277.596 390.486C276.975 390.291 275.897 389.803 274.982 388.762C274.589 388.307 273.478 387.038 273.544 385.152C273.609 383.786 274.263 382.81 274.557 382.42C274.916 381.542 275.439 380.306 275.995 378.81C276.844 376.566 277.367 375.2 277.89 373.476C278.282 372.143 278.739 370.289 279.034 368.013C279.687 367.752 280.373 367.492 281.06 367.265Z" fill="#E46379"/>
<path fill-rule="evenodd" clip-rule="evenodd" d="M277.236 341.962C278.315 341.474 279.066 341.214 280.896 340.531C282.628 339.523 283.935 339.556 284.458 339.848C284.981 342.84 285.438 346.028 285.83 349.377C286.32 353.638 286.615 357.671 286.778 361.476C286.778 362.322 286.68 363.492 286.255 364.793C285.602 366.875 284.425 368.241 283.706 368.989C283.249 369.379 282.628 369.867 281.811 370.29C280.406 370.973 279.099 371.135 278.347 371.168C278.511 370.452 278.837 368.794 279.001 368.078C281.223 362.647 278.119 349.573 277.236 341.962Z" fill="#E46379"/>
<path d="M270.865 323.88C272.074 325.831 273.381 328.335 274.459 331.327C275.995 335.62 276.551 339.458 276.747 342.353C278.217 342.255 278.544 341.67 280.995 340.499C282.171 339.978 282.923 339.686 284.524 339.881C287.726 337.864 289.425 335.198 290.112 333.962C290.438 329.539 290.765 325.083 291.092 320.66C290.732 319.847 290.079 318.448 289.36 317.017C282.04 305.049 265.44 312.236 270.865 323.88Z" fill="#F7B2B2"/>
<path fill-rule="evenodd" clip-rule="evenodd" d="M279.001 367.98C279.72 367.818 280.765 367.492 281.746 366.679C284.425 364.468 284.098 360.728 284.066 360.337C284.131 357.768 282.497 344.369 281.484 341.377C281.059 340.303 280.177 339.718 279.262 339.425C277.138 338.742 275.243 339.815 274.916 340.011C275.308 341.832 279.262 361.833 279.262 363.947C279.295 365.443 279.197 366.809 279.001 367.98Z" fill="#8F1D3E"/>
<path fill-rule="evenodd" clip-rule="evenodd" d="M327.789 291.455C323.868 290.284 317.659 288.267 310.372 284.95C298.021 279.324 294.361 275.388 274.558 263.452C262.697 256.297 256.749 252.72 254.854 251.712C244.038 246.053 237.927 244.069 234.823 237.369C234.202 236.068 231.947 231.19 233.843 225.954C235.411 221.661 238.94 219.482 240.084 218.799C245.084 215.807 250.573 216.294 255.867 217.172C270.604 219.612 281.617 224.88 281.845 224.978C290.766 229.238 303.772 234.93 321.287 240.947C324.522 242.28 329.652 244.849 334.423 249.728C337.2 252.557 343.507 259.029 344.291 268.949C344.52 271.778 345.239 281.242 338.377 287.194C334.455 290.511 330.011 291.259 327.789 291.455Z" fill="#015B93"/>
<path fill-rule="evenodd" clip-rule="evenodd" d="M398.994 259.321C399.353 266.607 399.059 272.688 398.667 277.176C397.458 291.259 394.844 294.544 393.438 296.007C391.772 297.731 389.223 299.52 383.668 300.886C363.898 305.764 342.92 296.593 327.267 289.535C324.555 288.332 322.398 287.258 321.059 286.608C319.654 285.697 317.628 284.169 315.83 281.73C312.726 277.534 312.236 273.274 311.909 270.704C310.439 258.313 317.105 242.475 318.118 240.198C323.934 240.491 330.045 241.011 336.384 241.824C361.088 245.011 382.132 251.939 398.994 259.321Z" fill="#015B93"/>
<path d="M338.542 277.274L335.372 276.299C335.372 276.299 330.013 267.745 324.915 261.501C320.569 256.2 312.171 245.89 312.89 245.239C313.511 244.687 321.157 251.126 327.627 259.257C333.117 266.152 336.483 272.689 338.542 277.274Z" fill="#161616" fill-opacity="0.3"/>
<path d="M335.076 272.298C332.789 268.688 329.684 263.289 326.613 256.394C324.848 252.427 321.254 243.808 322.038 243.418C322.79 243.06 327.332 249.597 330.501 256.72C333.279 262.899 334.488 268.46 335.076 272.298Z" fill="#161616" fill-opacity="0.3"/>
<path d="M275.801 264.201C280.539 266.737 303.642 284.43 323.705 290.121C325.633 288.3 332.561 281.698 338.508 277.275C334.946 276.136 331.156 274.543 327.561 273.274C306.975 266.217 287.728 258.249 269.788 249.76C272.631 256.363 274.428 260.656 275.801 264.201Z" fill="#161616" fill-opacity="0.3"/>
<path fill-rule="evenodd" clip-rule="evenodd" d="M313.215 399.463C307.562 408.765 308.084 415.302 305.928 418.164C304.849 419.627 302.954 421.416 299.392 422.717C299.49 423.01 300.732 427.173 297.857 430.62C294.818 434.263 290.112 433.58 289.916 433.547C291.681 430.002 293.772 426.262 296.223 422.392C301.941 413.513 307.66 404.927 313.215 399.463Z" fill="#015B93"/>
<path fill-rule="evenodd" clip-rule="evenodd" d="M344.552 272.951C344.552 272.951 332.07 281.375 324.358 289.408C321.58 292.27 319.456 294.774 318.117 296.4C317.202 297.636 315.96 299.62 315.143 302.287C313.215 308.694 313.967 318.288 320.404 324.045C325.632 328.728 333.017 329.443 339.128 325.898C340.892 324.695 343.735 322.809 347.363 320.727C351.807 318.191 380.072 304.889 385.072 301.962C395.496 296.758 395.921 292.628 397.881 284.855C400.496 268.626 385.627 264.951 381.641 264.138C366.805 261.113 352.689 267.748 344.552 272.951Z" fill="#0178B4"/>
<path fill-rule="evenodd" clip-rule="evenodd" d="M315.665 300.92C313.573 307.262 310.469 316.498 306.417 327.523C303.476 335.524 298.477 348.663 283.118 384.373C278.772 394.52 272.956 407.855 265.963 423.596C268.74 423.531 273.903 423.726 279.687 426.263C284.818 428.507 288.183 431.629 289.981 433.58C292.856 428.897 297.529 421.482 303.705 412.636C314.684 396.862 317.429 395.171 323.246 385.382C331.382 371.689 335.238 359.493 336.97 353.151C340.369 340.63 341.316 329.605 341.414 321.247C341.382 318.515 340.924 314.222 338.669 309.603C336.284 304.79 329.912 295.619 322.56 296.627C321.285 296.789 318.54 297.472 315.665 300.92Z" fill="#0178B4"/>
<path fill-rule="evenodd" clip-rule="evenodd" d="M339.161 325.896C340.926 324.693 343.769 322.807 347.396 320.725C351.84 318.189 380.105 304.887 385.105 301.96C395.529 296.756 395.954 292.626 397.914 284.853C399.091 278.413 397.49 275.096 396.052 272.299C390.824 291.162 358.048 304.757 341.056 317.538C341.056 317.538 340.011 321.831 339.161 325.896Z" fill="#015B93"/>
<path fill-rule="evenodd" clip-rule="evenodd" d="M286.092 430.002C287.791 431.303 289.098 432.571 289.98 433.547C292.856 428.864 297.529 421.449 303.705 412.602C314.684 396.829 317.429 395.138 323.246 385.348C331.382 371.656 335.238 359.46 336.97 353.118C340.368 340.597 341.316 329.572 341.414 321.213C341.414 320.075 341.676 318.872 341.414 317.311C333.212 323.425 325.958 383.592 286.092 430.002Z" fill="#015B93"/>
<g style="mix-blend-mode:lighten">
<path d="M354.027 267.908C347.492 270.64 342.329 274.185 335.924 279.161C328.768 284.69 323.278 290.349 319.193 295.162C323.311 292.723 327.624 289.926 332.003 286.739C340.695 280.429 348.178 273.925 354.027 267.908Z" fill="white" fill-opacity="0.3"/>
</g>
<g style="mix-blend-mode:lighten">
<path d="M313.671 306.969C311.515 313.278 308.149 322.482 303.966 333.442C302.986 335.979 299.98 343.85 292.235 362.648C288.673 371.266 283.543 383.267 277.596 397.187C284.393 386.91 292.039 373.706 298.542 358.322C306.711 338.971 311.253 321.181 313.671 306.969Z" fill="white" fill-opacity="0.3"/>
</g>
<path d="M337.329 311.88C337.264 311.88 337.198 311.847 337.198 311.782C337.166 311.717 337.198 311.62 337.264 311.555C356.968 301.668 370.202 293.179 376.019 288.528C380.234 285.179 383.796 281.764 383.829 281.731C386.704 278.967 389.449 276.04 391.965 272.983C392.03 272.918 392.129 272.918 392.194 272.95C392.259 273.015 392.259 273.113 392.227 273.178C389.678 276.235 386.933 279.194 384.057 281.959C384.025 281.991 380.43 285.439 376.215 288.789C370.366 293.439 357.099 301.928 337.394 311.847C337.394 311.847 337.362 311.88 337.329 311.88Z" fill="#161616" fill-opacity="0.3"/>
<path d="M285.047 424.473C285.015 424.473 284.982 424.473 284.949 424.441C284.884 424.375 284.851 424.278 284.916 424.213C294.033 411.009 302.203 397.024 309.163 382.681C318.018 364.403 325.207 344.89 330.011 326.254C330.958 322.612 331.841 318.904 332.625 315.229C332.658 315.131 332.723 315.099 332.821 315.099C332.919 315.131 332.952 315.196 332.952 315.294C332.167 318.969 331.285 322.677 330.338 326.319C325.534 344.987 318.312 364.534 309.457 382.811C302.497 397.186 294.327 411.171 285.178 424.408C285.145 424.473 285.113 424.473 285.047 424.473Z" fill="#161616" fill-opacity="0.3"/>
<path d="M389.155 276.495C389.123 276.495 389.09 276.495 389.057 276.462C385.692 274.023 381.444 269.795 380.202 263.713C380.104 263.16 380.006 262.607 379.94 262.054C379.94 261.957 380.006 261.892 380.071 261.892C380.169 261.892 380.235 261.957 380.235 262.022C380.3 262.575 380.365 263.128 380.496 263.648C381.705 269.632 385.92 273.795 389.221 276.202C389.286 276.267 389.319 276.364 389.253 276.43C389.253 276.462 389.221 276.495 389.155 276.495Z" fill="#161616" fill-opacity="0.3"/>
<path fill-rule="evenodd" clip-rule="evenodd" d="M280.99 286.055C281.219 288.169 281.742 290.381 282.853 292.56C283.866 294.544 284.65 295.194 285.271 296.886C285.859 298.577 286.088 300.788 285.271 303.715C286.218 304.431 287.787 305.829 288.865 308.041C290.859 312.171 289.748 316.106 289.421 317.115C287.395 314.675 284.911 311.065 283.081 306.285C279.748 297.666 280.369 289.991 280.99 286.055Z" fill="#0178B4"/>
<path fill-rule="evenodd" clip-rule="evenodd" d="M243.805 217.465C240.701 217.823 237.989 220.36 236.943 221.368C232.532 225.531 231.748 230.962 231.388 233.369C231.159 234.865 230.8 238.312 232.368 245.045C234.296 253.403 237.433 259.387 237.924 260.298C242.858 269.697 254.393 293.016 270.209 324.53C272.496 323.912 274.881 323.132 277.365 322.254C281.874 320.66 285.894 318.871 289.423 317.05C288.083 314.318 286.188 310.09 284.521 304.724C280.992 293.276 281.711 287.097 279.293 276.169C277.594 268.429 275.404 263.127 272.431 256.037C269.097 247.972 255.831 216.034 243.805 217.465Z" fill="#0178B4"/>
<g style="mix-blend-mode:lighten">
<path d="M235.8 222.343C234.82 223.579 233.48 225.498 232.467 228.1C230.931 232.067 230.964 235.45 231.029 237.629C231.062 238.409 231.127 241.401 232.63 246.703C233.937 251.386 235.473 254.833 236.682 257.533C240.505 265.891 243.316 270.932 247.4 279.03C248.74 281.665 250.603 285.34 252.759 289.86C251.06 285.6 247.923 277.599 243.937 267.355C238.055 252.297 236.257 247.548 235.375 240.523C234.46 232.945 235.081 226.571 235.8 222.343Z" fill="white" fill-opacity="0.3"/>
</g>
<path d="M327.886 269.372C327.853 269.372 327.853 269.372 327.82 269.372C311.286 263.843 295.307 256.623 280.406 247.939C275.635 245.142 270.864 242.15 266.257 239.061C266.191 238.995 266.159 238.898 266.224 238.833C266.289 238.768 266.387 238.735 266.453 238.8C271.028 241.89 275.798 244.882 280.569 247.679C295.47 256.363 311.384 263.55 327.918 269.079C328.016 269.112 328.049 269.209 328.016 269.274C328.016 269.307 327.951 269.372 327.886 269.372Z" fill="#161616" fill-opacity="0.3"/>
<path fill-rule="evenodd" clip-rule="evenodd" d="M246.456 149.624C244.234 151.477 239.888 154.697 239.888 154.697C239.888 154.697 239.431 154.534 239.071 154.307C240.705 152.941 242.339 151.575 243.973 150.209C244.888 149.949 245.541 149.851 246.456 149.624Z" fill="#8F1D3E"/>
<path fill-rule="evenodd" clip-rule="evenodd" d="M243.973 151.021L246.326 149.753C246.587 149.623 246.685 149.298 246.555 149.07C244.561 145.135 230.347 117.198 228.713 113.88C228.55 113.555 228.223 113.392 227.863 113.425L225.38 113.75L243.973 151.021Z" fill="#8F1D3E"/>
<path fill-rule="evenodd" clip-rule="evenodd" d="M218.027 122.141L234.986 157.168C235.117 157.461 235.509 157.558 235.77 157.363L243.907 151.086C244.103 150.924 244.168 150.663 244.07 150.436L225.902 114.01C225.739 113.685 225.281 113.62 225.052 113.88L218.125 121.555C217.961 121.718 217.929 121.946 218.027 122.141Z" fill="#C63C56"/>
<path d="M252.011 169.397C252.109 169.039 252.044 168.876 251.946 168.811C251.554 168.388 249.953 169.267 249.561 169.527C250.116 170.242 250.672 170.99 251.227 171.706C251.488 170.925 251.75 170.177 252.011 169.397Z" fill="#262F69"/>
<path d="M239.987 179.74C238.223 177.756 234.857 172.845 233.06 170.861C229.923 166.405 229.302 161.039 227.178 153.786C226.067 151.022 224.956 148.323 223.812 145.688C223.518 141.753 223.224 137.818 222.93 133.915C222.439 132.517 221.655 130.305 221.067 128.711C220.413 126.793 220.871 126.142 221.459 125.166C222.243 123.865 223.322 122.109 223.975 120.841C225.184 118.564 226.622 115.54 226.622 115.54C226.622 115.54 227.733 114.141 228.191 114.271C229.661 114.662 229.89 115.702 230.119 117.166C229.857 118.402 229.432 120.06 229.073 120.743C227.929 122.857 227.047 125.004 225.903 127.15C227.08 125.492 228.681 123.605 230.805 121.751C232.014 120.678 233.19 119.8 234.269 119.052C234.367 119.02 235.902 118.499 236.752 119.28C237.667 120.06 237.667 122.109 236.098 123.605C234.857 124.939 233.648 126.272 232.406 127.606C231.197 129.199 230.021 130.793 228.812 132.354C228.681 133.33 228.517 134.305 228.387 135.281C229.726 134.305 231.197 133.265 232.831 132.256C234.53 131.216 236.197 130.305 237.732 129.557C239.007 129.167 240.281 128.776 241.523 128.354C242.405 128.126 243.32 128.321 243.81 128.907C244.529 129.752 244.333 131.346 243.059 132.256C241.131 133.2 239.235 134.143 237.308 135.053C236.098 136.452 232.569 139.607 232.569 139.607C232.569 139.607 236.393 137.395 238.059 136.159C239.039 135.801 240.02 135.444 241 135.086C241.686 134.826 242.372 134.565 243.059 134.338C243.451 134.305 244.137 134.273 244.464 134.663C244.987 135.248 244.693 136.679 243.385 137.915C241.98 138.924 240.575 139.932 239.137 140.94C238.353 142.208 237.536 143.477 236.752 144.713C237.406 146.046 238.092 147.835 238.484 150.014C238.713 151.25 238.811 152.388 238.811 153.364C239.889 154.502 241.196 156.063 242.405 158.112C243.385 159.836 244.039 161.429 244.464 162.763C245.967 168.357 249.3 168.942 251.98 171.349C251.359 172.585 248.875 177.203 243.908 178.894C242.438 179.284 241.131 179.74 239.987 179.74Z" fill="#F7B2B2"/>
<path d="M223.028 134.598C222.93 134.598 222.864 134.533 222.864 134.435V132.028C222.864 131.248 223.126 130.5 223.583 129.882C223.975 129.362 224.367 128.809 224.792 128.288C225.315 127.605 225.838 126.922 226.393 126.272C226.459 126.207 226.557 126.207 226.622 126.239C226.688 126.304 226.688 126.402 226.655 126.467C226.132 127.117 225.576 127.8 225.054 128.483C224.629 129.004 224.237 129.557 223.845 130.077C223.42 130.662 223.191 131.345 223.191 132.028V134.435C223.191 134.533 223.093 134.598 223.028 134.598Z" fill="#F69797"/>
<path d="M226.294 144.126C226.262 144.126 226.262 144.126 226.294 144.126C226.196 144.126 226.131 144.029 226.131 143.931C226.719 139.801 227.601 137.231 228.386 134.955C228.418 134.857 228.516 134.825 228.582 134.857C228.68 134.89 228.712 134.987 228.68 135.052C227.895 137.296 227.013 139.866 226.425 143.964C226.425 144.061 226.36 144.126 226.294 144.126Z" fill="#F69797"/>
<path d="M283.579 198.31C282.272 197.301 280.344 195.87 278.024 194.082C272.861 190.114 268.253 186.569 265.312 184.032C261.718 180.91 256.881 176.096 251.947 168.779C251.849 171.12 243.092 179.999 239.628 179.414C243.517 185.788 258.254 206.7 272.468 219.71C274.07 221.173 278.808 225.401 285.18 225.889C287.631 226.084 288.774 225.596 289.428 225.238C293.839 222.734 293.186 214.734 293.022 213.237C292.14 204.977 285.605 199.806 283.579 198.31Z" fill="#2C3C82"/>
<path d="M322.922 136.028C321.811 136.451 318.379 138.272 316.517 139.931C313.086 142.956 311.942 146.728 311.615 147.704C310.112 152.192 302.989 165.461 283.578 197.334C282.663 198.797 281.52 201.009 280.637 203.838C279.919 206.147 278.285 211.806 280.311 218.116C280.997 220.262 282.304 224.263 285.539 225.238C287.042 225.694 288.545 225.368 289.133 225.238C291.748 224.653 293.382 223.027 294.035 222.311C295.963 220.588 298.643 217.888 301.191 214.213C305.341 208.261 307.008 202.83 308.348 198.309C312.236 185.268 314.164 178.763 315.831 170.73C317.661 162.177 321.255 149.753 322.922 136.028Z" fill="#2C3C82"/>
<path d="M289.134 225.239C291.748 224.653 293.382 223.027 294.035 222.312C295.963 220.588 298.643 217.888 301.192 214.213C305.342 208.262 307.008 202.83 308.348 198.31C312.236 185.268 314.164 178.764 315.831 170.73C316.942 165.429 318.739 158.632 320.373 150.957C309.132 163.218 305.342 199.838 289.134 225.239Z" fill="#172A65"/>
<path d="M241.163 168.877C241.098 168.877 241.065 168.844 241.033 168.812C240.967 168.747 241 168.649 241.065 168.584C241.654 168.161 244.496 165.885 244.268 162.763C244.235 162.21 244.072 161.624 243.843 161.071C243.81 160.974 243.843 160.909 243.941 160.844C244.039 160.811 244.104 160.844 244.17 160.941C244.431 161.527 244.562 162.112 244.627 162.73C244.856 166.015 241.915 168.389 241.294 168.812C241.229 168.877 241.196 168.877 241.163 168.877Z" fill="#F69797"/>
<path d="M227.373 118.434C226.916 118.434 226.425 118.141 226.262 117.718C226.197 117.556 226.164 117.328 226.164 117.133C226.164 117.035 226.262 116.97 226.36 117.003C226.458 117.003 226.524 117.1 226.491 117.198C226.458 117.361 226.491 117.491 226.556 117.621C226.72 118.011 227.242 118.206 227.569 118.109C227.798 118.044 227.961 117.848 228.027 117.783C228.517 117.133 228.909 116.19 229.17 115.507C229.203 115.409 229.301 115.377 229.366 115.409C229.464 115.442 229.497 115.539 229.464 115.604C229.203 116.32 228.811 117.295 228.288 117.946C228.223 118.044 227.994 118.304 227.667 118.401C227.537 118.434 227.471 118.434 227.373 118.434Z" fill="#F69797"/>
<path d="M234.431 122.499C234.333 122.499 234.235 122.499 234.169 122.467C233.81 122.369 233.516 122.141 233.32 121.751C233.222 121.556 233.156 121.361 233.156 121.133C233.156 121.036 233.222 120.971 233.32 120.971C233.418 120.971 233.483 121.036 233.483 121.133C233.483 121.296 233.516 121.458 233.614 121.589C233.777 121.881 233.973 122.076 234.267 122.141C234.757 122.272 235.15 121.914 235.182 121.881L236.816 120.613C236.881 120.548 236.979 120.58 237.045 120.645C237.11 120.71 237.078 120.808 237.012 120.873L235.378 122.141C235.346 122.174 234.953 122.499 234.431 122.499Z" fill="#F69797"/>
<path d="M241.295 131.54C241.229 131.54 241.164 131.54 241.099 131.54C240.837 131.508 240.576 131.475 240.314 131.28C239.857 130.89 239.889 130.272 239.922 130.174C239.955 129.947 240.02 129.719 240.184 129.524C240.249 129.459 240.347 129.426 240.412 129.491C240.478 129.556 240.51 129.654 240.445 129.719C240.347 129.849 240.282 130.044 240.249 130.207C240.249 130.239 240.184 130.727 240.543 131.02C240.706 131.15 240.87 131.182 241.131 131.215C241.948 131.313 243.386 130.532 243.517 130.402C243.582 130.337 243.68 130.337 243.745 130.402C243.811 130.467 243.811 130.565 243.745 130.63C243.582 130.792 242.242 131.54 241.295 131.54Z" fill="#F69797"/>
<path d="M242.438 136.972C242.274 136.972 242.143 136.94 242.045 136.875C241.784 136.745 241.686 136.484 241.621 136.321C241.588 136.224 241.621 136.159 241.719 136.126C241.817 136.094 241.882 136.126 241.915 136.224C241.947 136.321 242.045 136.517 242.209 136.582C242.372 136.68 242.601 136.647 242.764 136.582C243.353 136.419 243.81 135.963 244.071 135.638C244.137 135.573 244.235 135.54 244.3 135.605C244.366 135.67 244.398 135.768 244.333 135.833C244.039 136.224 243.516 136.712 242.862 136.907C242.699 136.972 242.568 136.972 242.438 136.972Z" fill="#F69797"/>
<path d="M244.496 162.502C244.528 162.957 244.528 163.51 244.398 164.128C244.104 165.624 243.287 166.665 242.829 167.152C243.45 168.031 244.104 168.941 244.724 169.917C245.803 171.543 246.783 173.169 247.633 174.698C248.155 174.145 248.711 173.625 249.234 173.007C249.953 172.226 250.574 171.413 251.194 170.535C247.469 166.957 245.999 166.827 244.496 162.502Z" fill="#F69797"/>
<path d="M239.627 179.414C239.594 179.414 239.529 179.381 239.496 179.349C238.614 178.341 237.405 176.747 236.228 175.186C235.019 173.592 233.81 171.934 232.928 170.958C230.575 167.641 229.66 163.933 228.451 159.217C228.026 157.526 227.569 155.737 227.013 153.818C225.935 151.119 224.791 148.387 223.648 145.72C223.648 145.688 223.648 145.688 223.648 145.655L222.765 133.882L221.099 129.166C220.053 126.89 220.87 125.751 221.458 124.938C222.308 123.572 223.125 122.141 223.876 120.678C224.17 120.125 224.465 119.442 224.791 118.726C225.87 116.385 226.981 113.978 228.255 113.978C229.464 114.076 230.346 115.702 230.281 117.003C230.216 117.881 229.856 119.312 229.301 120.743C228.713 121.816 228.19 122.889 227.7 123.897C227.471 124.385 227.209 124.906 226.948 125.426C228.092 123.995 229.366 122.662 230.739 121.458C231.915 120.385 232.863 119.702 233.974 118.954C234.496 118.629 235.803 117.978 236.915 118.954C237.339 119.312 237.568 119.93 237.601 120.613C237.633 121.653 237.143 122.694 236.294 123.54L232.601 127.54C232.209 128.06 231.686 128.711 231.163 129.329C230.248 130.467 229.105 131.866 229.039 132.191L228.647 134.728C229.987 133.752 231.392 132.809 232.797 131.931C234.398 130.955 236.032 130.044 237.699 129.231L241.522 128.028C242.502 127.768 243.45 127.995 243.973 128.613C244.332 129.036 244.463 129.621 244.398 130.239C244.3 131.02 243.842 131.735 243.189 132.191L237.437 134.988C236.653 135.866 235.019 137.427 233.876 138.468C235.15 137.72 236.98 136.581 237.993 135.801L238.026 135.768C239.006 135.411 239.986 135.053 240.966 134.695L243.025 133.947H243.058C243.548 133.882 244.234 133.882 244.626 134.337C245.182 134.988 244.92 136.484 243.515 137.817L239.3 140.842L236.98 144.517C237.797 146.208 238.352 147.964 238.679 149.786C238.875 150.891 238.973 151.997 239.006 153.103C240.378 154.534 241.587 156.128 242.568 157.851C243.417 159.315 244.136 160.908 244.659 162.535C245.214 164.876 246.652 166.177 248.646 167.933C249.397 168.616 250.279 169.364 251.162 170.275C251.227 170.34 251.227 170.438 251.162 170.503C251.096 170.568 250.998 170.568 250.933 170.503C250.051 169.592 249.168 168.844 248.417 168.161C246.456 166.405 244.888 165.039 244.332 162.6C243.809 161.006 243.123 159.445 242.274 157.981C241.293 156.258 240.084 154.664 238.712 153.266C238.679 153.233 238.679 153.201 238.679 153.168C238.679 152.062 238.548 150.924 238.352 149.851C238.026 148.029 237.437 146.273 236.62 144.582C236.588 144.517 236.588 144.484 236.62 144.419L239.006 140.647C239.006 140.614 239.039 140.614 239.039 140.614L243.287 137.59C244.594 136.354 244.757 135.053 244.332 134.597C244.038 134.272 243.417 134.272 243.09 134.337L241.032 135.085C240.052 135.443 239.104 135.801 238.124 136.159C236.457 137.427 232.666 139.606 232.634 139.606C232.568 139.639 232.47 139.639 232.405 139.573C232.372 139.508 232.372 139.411 232.438 139.346C232.47 139.313 235.967 136.191 237.176 134.825C237.176 134.793 237.209 134.793 237.241 134.793L242.992 131.996C243.581 131.573 243.973 130.955 244.038 130.272C244.103 129.752 243.973 129.231 243.679 128.906C243.254 128.386 242.404 128.19 241.555 128.418L237.764 129.621C236.13 130.435 234.496 131.345 232.895 132.321C231.392 133.264 229.889 134.272 228.451 135.346C228.386 135.378 228.32 135.378 228.255 135.346C228.19 135.313 228.157 135.248 228.19 135.183L228.615 132.256C228.68 131.866 229.497 130.857 230.804 129.231C231.327 128.613 231.85 127.963 232.242 127.41L235.934 123.41C236.718 122.662 237.176 121.686 237.176 120.743C237.176 120.157 236.947 119.637 236.62 119.312C235.673 118.466 234.529 119.052 234.072 119.344C232.961 120.092 232.046 120.775 230.869 121.816C229.072 123.41 227.438 125.231 226 127.182C225.935 127.247 225.87 127.28 225.772 127.215C225.706 127.182 225.674 127.085 225.706 126.987C226.294 125.914 226.785 124.873 227.275 123.832C227.765 122.792 228.288 121.718 228.876 120.678C229.431 119.279 229.791 117.913 229.824 117.035C229.889 115.897 229.105 114.433 228.092 114.368C227.046 114.368 225.87 116.905 224.955 118.921C224.628 119.637 224.301 120.32 224.007 120.873C223.256 122.304 222.406 123.767 221.556 125.166C220.968 125.979 220.282 126.955 221.23 129.101L222.929 133.849V133.882L223.811 145.655C224.955 148.322 226.098 151.054 227.177 153.753C227.732 155.705 228.19 157.461 228.615 159.185C229.791 163.868 230.739 167.543 233.026 170.795C233.908 171.771 235.15 173.43 236.359 175.023C237.535 176.584 238.712 178.178 239.594 179.186C239.659 179.251 239.659 179.349 239.594 179.414C239.692 179.414 239.659 179.414 239.627 179.414Z" fill="#F69797"/>
<path d="M230.379 148.614C230.379 148.614 230.347 148.614 230.379 148.614C230.281 148.614 230.216 148.517 230.216 148.419C230.804 144.289 231.686 141.719 232.471 139.443C232.503 139.345 232.601 139.313 232.667 139.345C232.765 139.378 232.797 139.475 232.765 139.54C231.98 141.784 231.098 144.354 230.51 148.452C230.51 148.549 230.445 148.614 230.379 148.614Z" fill="#F69797"/>
<path fill-rule="evenodd" clip-rule="evenodd" d="M331.09 133.101C343.05 129.003 351.284 131.182 362.133 129.556C361.643 140.614 362.623 149.265 363.44 154.533C368.832 189.723 389.941 226.864 391.804 230.116C392.915 232.068 395.986 237.369 397.686 245.044C399.058 251.354 399.254 268.071 398.993 271.323C391.51 259.322 366.25 259.615 354.65 259.322C346.742 259.127 341.056 258.964 334.75 256.07C325.469 251.777 321.091 244.524 318.77 240.264C329.848 226.864 324.228 205.984 323.345 197.659C322.332 195.87 321.123 193.366 320.078 190.211C319.489 188.357 317.888 182.958 318.117 175.608C318.313 169.852 319.522 165.624 320.731 161.656C322.953 154.338 327.397 143.801 331.09 133.101Z" fill="white"/>
<path d="M331.091 133.101C333.477 132.288 332.496 132.483 334.62 132.06C333.313 138.987 331.418 142.89 329.131 149.362C312.171 193.918 336.32 201.464 328.673 252.394C323.412 248.362 320.504 243.451 318.805 240.263C329.882 226.864 324.262 205.984 323.379 197.659C322.366 195.87 321.157 193.366 320.112 190.211C319.524 188.357 317.922 182.958 318.151 175.608C318.347 169.852 319.556 165.624 320.765 161.656C322.955 154.338 327.399 143.801 331.091 133.101Z" fill="#A8ADBE"/>
<path d="M348.411 158.891C349.065 148.842 350.372 137.166 362.135 129.556C361.645 140.614 362.626 149.265 363.443 154.533C368.834 189.723 389.944 226.864 391.806 230.116C392.917 232.068 395.989 237.369 397.688 245.044C399.061 251.354 399.257 268.071 398.995 271.323C393.669 262.769 379.324 260.46 367.331 259.745C368.965 210.147 349.391 191.967 348.411 158.891Z" fill="#A8ADBE"/>
<path d="M322.89 180.422C323.543 190.796 327.987 194.276 335.928 198.472C341.548 202.765 335.013 207.383 334.163 207.188C321.387 206.342 321.093 184.682 322.89 180.422Z" fill="#A8ADBE"/>
<path d="M398.964 271.453C397.199 269.339 395.173 267.518 392.919 265.989C390.108 264.135 385.926 262.542 380.795 261.403C375.861 260.298 372.201 260.102 366.613 259.81C362.594 259.582 360.307 259.615 358.281 259.615C356.059 259.647 354.098 259.647 350.536 259.354C344.001 258.834 340.733 258.574 337.008 257.175C330.146 254.574 325.669 250.15 323.61 247.744C321.617 245.402 319.951 242.768 318.644 239.906L318.938 239.776C320.212 242.573 321.846 245.207 323.839 247.516C325.865 249.89 330.309 254.281 337.106 256.85C340.766 258.216 344.034 258.476 350.536 258.997C354.098 259.289 356.026 259.257 358.248 259.257C360.274 259.257 362.594 259.224 366.613 259.452C372.201 259.745 375.894 259.94 380.828 261.046C385.991 262.184 390.206 263.777 393.049 265.696C395.337 267.225 397.395 269.079 399.16 271.193L398.964 271.453Z" fill="#A8ADBE"/>
<path d="M334.094 132.126C333.179 134.597 331.709 138.435 329.846 143.151C321.416 164.649 318.899 168.356 316.481 177.235C313.835 186.829 313.573 194.147 313.214 203.839C312.691 217.856 315.828 238.996 315.828 238.996C315.828 238.996 310.175 237.142 307.364 235.971C305.796 229.727 304.129 220.328 304.75 209.042C305.469 196.163 308.802 188.488 313.54 171.088C315.762 162.99 318.703 151.152 321.383 136.776C323.736 135.313 332.166 132.288 334.094 132.126Z" fill="#2C3C82"/>
<path d="M284.093 347.439C284.542 347.385 284.84 346.805 284.759 346.146C284.678 345.486 284.248 344.996 283.799 345.05C283.35 345.105 283.052 345.684 283.133 346.344C283.214 347.003 283.644 347.494 284.093 347.439Z" fill="white"/>
<path d="M284.714 352.642C285.163 352.587 285.461 352.008 285.38 351.349C285.299 350.689 284.869 350.198 284.42 350.253C283.971 350.308 283.673 350.887 283.754 351.547C283.835 352.206 284.265 352.697 284.714 352.642Z" fill="white"/>
<path d="M285.204 357.785C285.655 357.76 285.991 357.201 285.954 356.538C285.917 355.874 285.52 355.357 285.069 355.382C284.617 355.407 284.281 355.965 284.319 356.629C284.356 357.292 284.752 357.81 285.204 357.785Z" fill="white"/>
<path d="M286.203 362.118C286.251 361.455 285.925 360.891 285.473 360.859C285.022 360.826 284.617 361.337 284.569 362C284.521 362.663 284.847 363.227 285.298 363.259C285.749 363.292 286.154 362.781 286.203 362.118Z" fill="white"/>
<path fill-rule="evenodd" clip-rule="evenodd" d="M279.198 363.397C279.133 363.397 279.067 363.364 279.035 363.299C279.002 363.202 279.035 363.137 279.133 363.071C280.342 362.551 284.067 361.932 285.211 361.9C285.276 361.9 285.374 361.965 285.374 362.062C285.374 362.16 285.309 362.225 285.211 362.225C284.067 362.258 280.44 362.844 279.263 363.364C279.231 363.364 279.231 363.397 279.198 363.397Z" fill="white"/>
<path fill-rule="evenodd" clip-rule="evenodd" d="M278.348 358.159C278.282 358.159 278.217 358.127 278.184 358.029C278.152 357.932 278.217 357.867 278.315 357.834C279.23 357.606 280.145 357.379 281.06 357.184C282.367 356.923 283.707 356.728 285.047 356.598C285.145 356.598 285.21 356.663 285.21 356.728C285.21 356.826 285.145 356.891 285.079 356.891C283.739 357.021 282.432 357.216 281.125 357.476C280.21 357.671 279.295 357.867 278.413 358.127C278.38 358.159 278.348 358.159 278.348 358.159Z" fill="white"/>
<path fill-rule="evenodd" clip-rule="evenodd" d="M277.466 353.151C277.4 353.151 277.335 353.119 277.302 353.054C277.27 352.956 277.302 352.891 277.4 352.858C278.413 352.501 279.426 352.176 280.472 351.915C281.812 351.558 283.184 351.297 284.557 351.135C284.655 351.135 284.72 351.2 284.753 351.265C284.753 351.362 284.687 351.427 284.622 351.46C283.282 351.655 281.91 351.915 280.57 352.241C279.557 352.501 278.544 352.826 277.531 353.184C277.498 353.151 277.466 353.151 277.466 353.151Z" fill="white"/>
<path fill-rule="evenodd" clip-rule="evenodd" d="M276.518 348.24C276.453 348.24 276.388 348.208 276.355 348.143C276.322 348.045 276.355 347.98 276.453 347.947C277.695 347.525 278.969 347.134 280.244 346.777C281.453 346.451 282.662 346.191 283.871 345.996C283.969 345.996 284.034 346.029 284.067 346.126C284.067 346.224 284.034 346.289 283.936 346.321C282.727 346.549 281.518 346.809 280.342 347.102C279.067 347.427 277.826 347.817 276.584 348.24C276.551 348.24 276.551 348.24 276.518 348.24Z" fill="white"/>
<path fill-rule="evenodd" clip-rule="evenodd" d="M282.301 346.516C282.236 346.516 282.203 346.484 282.17 346.419C280.929 344.207 279.36 342.646 277.563 341.768C276.877 341.443 276.288 341.248 275.7 341.085C274.753 340.825 273.87 340.532 272.792 339.687C272.106 339.134 270.668 337.995 270.341 336.076C269.982 334.125 270.929 331.914 272.629 330.678C275.177 328.824 278.543 329.93 280.144 330.873C282.759 332.434 284.229 335.621 284.229 339.817C284.229 342.061 283.608 344.337 282.399 346.386C282.399 346.484 282.366 346.516 282.301 346.516ZM275.896 330.027C274.851 330.027 273.772 330.287 272.825 330.97C271.224 332.141 270.341 334.223 270.668 336.044C270.995 337.833 272.335 338.939 272.988 339.459C274.001 340.272 274.851 340.532 275.766 340.792C276.354 340.955 276.975 341.15 277.694 341.475C279.491 342.353 281.027 343.849 282.301 345.996C283.379 344.077 283.935 341.931 283.935 339.849C283.902 335.784 282.53 332.694 279.981 331.166C279.066 330.645 277.498 330.027 275.896 330.027Z" fill="white"/>
<path fill-rule="evenodd" clip-rule="evenodd" d="M282.433 346.516C282.4 346.516 282.335 346.516 282.302 346.483C279.557 343.784 276.224 342.938 272.434 343.979C272.303 344.012 272.172 344.044 272.009 344.109C269.46 344.825 262.728 346.776 261.258 341.963C260.702 338.71 262.336 336.824 264.036 335.458C268.186 332.824 275.603 334.092 279.361 338.06C282.073 340.922 282.563 344.499 282.596 346.386C282.596 346.451 282.563 346.516 282.498 346.548C282.498 346.516 282.465 346.516 282.433 346.516ZM275.505 343.231C278.021 343.231 280.276 344.142 282.237 345.996C282.139 344.077 281.55 340.889 279.1 338.288C275.44 334.417 268.218 333.149 264.199 335.718C261.944 337.605 261.127 339.458 261.552 341.898C262.924 346.386 269.46 344.532 271.911 343.817C272.074 343.784 272.205 343.719 272.335 343.686C273.447 343.361 274.492 343.231 275.505 343.231Z" fill="white"/>
<path fill-rule="evenodd" clip-rule="evenodd" d="M282.367 346.419C282.335 346.419 282.335 346.419 282.367 346.419C282.269 346.419 282.204 346.354 282.204 346.256C282.269 343.427 281.616 340.662 280.309 338.321C277.205 332.694 270.473 329.279 263.905 330.027C259.82 330.483 256.716 332.466 254.853 334.06C254.788 334.125 254.69 334.125 254.625 334.028C254.559 333.962 254.559 333.865 254.657 333.8C256.553 332.174 259.69 330.157 263.872 329.702C270.571 328.954 277.433 332.434 280.603 338.158C281.91 340.532 282.596 343.329 282.531 346.256C282.498 346.354 282.433 346.419 282.367 346.419Z" fill="white"/>
<path fill-rule="evenodd" clip-rule="evenodd" d="M282.367 346.353H282.335C282.237 346.32 282.204 346.223 282.237 346.158C283.119 343.068 283.348 339.914 282.89 336.824C282.531 334.32 281.91 330.092 278.413 326.709C274.394 322.774 269.1 322.481 267.009 322.546C266.944 322.546 266.846 322.481 266.846 322.384C266.846 322.286 266.911 322.221 267.009 322.221C269.133 322.156 274.525 322.449 278.642 326.482C282.204 329.962 282.825 334.222 283.184 336.791C283.642 339.946 283.446 343.133 282.531 346.255C282.498 346.32 282.433 346.353 282.367 346.353Z" fill="white"/>
<path d="M270.463 446.96C271.094 446.084 271.212 445.093 270.727 444.747C270.243 444.402 269.339 444.832 268.708 445.709C268.077 446.586 267.958 447.576 268.443 447.922C268.928 448.267 269.832 447.837 270.463 446.96Z" fill="white"/>
<path d="M265.58 453.929C266.248 453.013 266.374 451.97 265.863 451.601C265.351 451.231 264.394 451.675 263.727 452.592C263.059 453.508 262.933 454.551 263.444 454.92C263.956 455.289 264.913 454.846 265.58 453.929Z" fill="white"/>
<path d="M260.052 461.1C260.736 460.173 260.865 459.11 260.341 458.727C259.817 458.344 258.838 458.785 258.154 459.712C257.47 460.639 257.34 461.701 257.864 462.084C258.388 462.468 259.368 462.027 260.052 461.1Z" fill="white"/>
<path d="M254.334 468.383C255.094 467.469 255.292 466.384 254.777 465.961C254.262 465.537 253.229 465.934 252.469 466.848C251.709 467.762 251.511 468.847 252.026 469.271C252.541 469.695 253.575 469.297 254.334 468.383Z" fill="white"/>
<path fill-rule="evenodd" clip-rule="evenodd" d="M253.285 467.988C253.252 467.988 253.22 467.988 253.187 467.956C249.266 465.029 243.024 463.175 238.025 463.5C237.927 463.5 237.861 463.435 237.861 463.338C237.861 463.24 237.927 463.175 238.025 463.175C243.122 462.85 249.429 464.736 253.416 467.696C253.481 467.761 253.514 467.858 253.448 467.923C253.383 467.956 253.35 467.988 253.285 467.988Z" fill="white"/>
<path fill-rule="evenodd" clip-rule="evenodd" d="M258.938 460.639C258.905 460.639 258.873 460.639 258.84 460.606C255.834 458.753 252.566 457.452 249.167 456.801C247.403 456.443 245.573 456.281 243.776 456.248C243.678 456.248 243.612 456.183 243.612 456.086C243.612 455.988 243.678 455.923 243.776 455.923C245.606 455.923 247.436 456.118 249.233 456.476C252.664 457.159 255.964 458.46 259.003 460.346C259.069 460.379 259.101 460.509 259.069 460.574C259.036 460.606 259.003 460.639 258.938 460.639Z" fill="white"/>
<path fill-rule="evenodd" clip-rule="evenodd" d="M264.199 453.548C264.167 453.548 264.134 453.548 264.101 453.516C261.226 451.727 258.154 450.394 254.919 449.581C253.024 449.093 251.227 448.995 249.625 448.93C249.397 448.93 249.135 448.898 248.907 448.898C248.809 448.898 248.743 448.8 248.743 448.735C248.743 448.638 248.841 448.573 248.907 448.573C249.135 448.573 249.364 448.605 249.625 448.605C251.227 448.703 253.057 448.8 254.984 449.288C258.252 450.101 261.389 451.435 264.265 453.256C264.33 453.288 264.363 453.418 264.33 453.483C264.297 453.516 264.265 453.548 264.199 453.548Z" fill="white"/>
<path fill-rule="evenodd" clip-rule="evenodd" d="M269.426 446.459C269.394 446.459 269.361 446.459 269.328 446.426C266.387 444.572 263.218 443.272 259.885 442.491C257.728 442.003 255.473 441.71 253.251 441.71C253.153 441.71 253.088 441.645 253.088 441.548C253.088 441.45 253.153 441.385 253.251 441.385C255.506 441.418 257.761 441.678 259.95 442.198C263.316 442.979 266.518 444.312 269.492 446.199C269.557 446.231 269.59 446.361 269.557 446.426C269.524 446.426 269.459 446.459 269.426 446.459Z" fill="white"/>
<path fill-rule="evenodd" clip-rule="evenodd" d="M268.48 445.808C268.447 445.808 268.447 445.808 268.415 445.808C268.349 445.776 268.284 445.711 268.317 445.646C269.166 439.304 267.271 434.555 262.729 431.531C262.369 431.303 261.847 431.043 261.226 430.783C260.049 430.262 258.579 429.579 257.468 428.474C254.69 425.091 254.004 421.416 255.54 418.391C256.945 415.66 259.984 413.903 263.088 414.066C266.944 414.456 270.016 416.375 271.944 419.562C275.179 424.961 274.525 432.571 272.532 437.352C271.584 440.279 270.245 443.109 268.611 445.743C268.578 445.776 268.545 445.808 268.48 445.808ZM262.729 414.359C259.886 414.359 257.141 415.985 255.834 418.522C254.952 420.213 254.069 423.758 257.697 428.213C258.742 429.254 260.18 429.905 261.324 430.425C261.945 430.718 262.467 430.945 262.86 431.205C267.336 434.198 269.297 438.783 268.676 444.898C270.114 442.458 271.323 439.889 272.173 437.19C274.133 432.474 274.787 424.961 271.617 419.66C269.754 416.538 266.781 414.716 263.023 414.326C262.99 414.359 262.86 414.359 262.729 414.359Z" fill="white"/>
<path fill-rule="evenodd" clip-rule="evenodd" d="M268.577 445.841C268.545 445.841 268.512 445.841 268.479 445.808C268.414 445.776 268.414 445.711 268.414 445.646C269.754 441.027 270.081 436.734 269.427 432.897C269.329 432.279 268.773 429.091 268.414 424.961C268.153 422.001 268.185 420.928 268.577 419.692C269.035 418.229 270.211 415.627 273.022 414.391C276.158 413.025 279.59 414.098 281.452 415.725C285.112 418.879 284.099 424.766 283.674 427.27C281.942 437.417 272.597 443.629 268.675 445.841C268.61 445.808 268.61 445.841 268.577 445.841ZM276.028 414.066C275.08 414.066 274.067 414.261 273.12 414.651C270.44 415.822 269.296 418.359 268.872 419.757C268.512 420.928 268.479 422.001 268.741 424.896C269.1 429.026 269.656 432.214 269.754 432.799C270.407 436.604 270.113 440.8 268.839 445.32C272.891 442.979 281.681 436.897 283.347 427.173C283.772 424.733 284.753 418.977 281.223 415.92C279.982 414.879 278.086 414.066 276.028 414.066Z" fill="white"/>
<path fill-rule="evenodd" clip-rule="evenodd" d="M268.545 445.873C268.512 445.873 268.512 445.873 268.48 445.873C268.382 445.841 268.349 445.743 268.382 445.678C271.094 438.295 268.61 430.002 262.369 425.546C256.683 421.481 249.069 421.318 242.991 425.124C242.926 425.156 242.828 425.156 242.763 425.058C242.73 424.993 242.73 424.896 242.828 424.831C249.037 420.961 256.781 421.156 262.565 425.254C268.937 429.807 271.486 438.23 268.708 445.775C268.676 445.841 268.61 445.873 268.545 445.873Z" fill="white"/>
<path fill-rule="evenodd" clip-rule="evenodd" d="M268.414 445.873C268.381 445.873 268.316 445.841 268.283 445.808C268.218 445.743 268.218 445.646 268.283 445.581C271.355 442.653 273.74 439.271 275.342 435.531C280.505 423.628 276.355 412.082 274.329 407.691C274.296 407.594 274.329 407.529 274.394 407.464C274.492 407.431 274.557 407.464 274.623 407.529C276.681 411.984 280.864 423.595 275.636 435.629C274.002 439.401 271.584 442.816 268.512 445.776C268.479 445.841 268.447 445.873 268.414 445.873Z" fill="white"/>
<path d="M357.263 114.336C356.936 115.832 356.708 117.653 356.675 119.669C356.642 124.125 357.753 127.702 358.701 130.044C357.688 131.378 356.119 133.166 353.93 134.955C349.682 138.37 345.663 139.606 344.225 139.996C341.382 140.777 336.448 142.143 334.226 139.703C333.572 138.988 333.278 138.142 333.278 137.297C333.638 135.931 333.899 134.597 334.095 132.906C334.651 127.865 333.932 123.54 333.082 120.515C335.99 115.214 339.356 111.896 341.643 109.978C344.748 107.376 346.055 101.099 348.898 101.457C352.133 101.912 355.923 109.652 357.263 114.336Z" fill="#F69797"/>
<path d="M334.094 126.079C333.866 123.965 333.474 122.078 333.049 120.517C335.957 115.216 346.022 101.101 348.832 101.491C350.466 101.719 353.995 104.841 355.531 107.41C353.668 120.972 337.231 125.493 334.094 126.079Z" fill="#161616" fill-opacity="0.3"/>
<path d="M360.465 65.4216C362.066 64.0881 364.484 62.2994 367.654 60.7058C370.856 59.1121 378.176 56.055 391.116 57.0957C403.697 58.1039 405.461 61.6815 424.806 66.2021C433.4 68.2185 437.714 69.2267 442.223 69.3243C449.379 69.5194 463.006 68.0884 479.834 54.3313C478.985 57.8763 477.253 62.8197 473.691 67.8933C466.339 78.2681 456.045 82.0732 452.059 83.3416C454.967 83.6669 459.084 83.797 463.855 82.8538C467.548 82.1383 470.619 80.9675 472.874 79.8942C470.129 82.8538 466.567 86.2687 462.091 89.5535C458.169 92.448 454.444 94.627 451.177 96.2857C453.791 96.3508 456.405 96.4158 459.019 96.4808C456.699 98.4973 453.17 101.132 448.432 103.246C435.132 109.165 422.519 106.335 416.277 104.969C395.495 100.351 382.718 86.2687 378.078 80.5772C377.228 79.1462 375.17 76.2191 371.314 74.2678C369.059 73.1295 366.968 72.7392 365.562 72.5766C363.863 70.2024 362.164 67.7957 360.465 65.4216Z" fill="#32313A"/>
<path fill-rule="evenodd" clip-rule="evenodd" d="M356.479 66.6903C356.805 66.2349 357.393 65.617 358.308 65.2267C360.792 64.186 363.373 66.0073 364.027 66.4951C364.615 66.9179 367.687 69.0644 367.393 72.3492C367.229 74.1055 366.184 75.3413 365.693 75.8617C364.942 74.6258 363.929 73.1948 362.622 71.7638C360.465 69.3571 358.21 67.731 356.479 66.6903Z" fill="white"/>
<path d="M318.442 88.6107C317.919 87.4399 316.645 84.9356 316.612 82.6265C316.547 77.1627 320.174 73.325 321.71 71.6988C327.232 65.8773 334.552 64.869 337.885 64.4137C342.231 63.8283 351.315 62.5599 359.387 68.6092C367.131 74.3982 368.601 82.9192 368.765 84.1225C370.399 94.4648 364.517 101.945 363.536 103.148C362.001 104.579 358.243 110.564 357.23 114.369C351.544 110.661 352.949 102.726 349.812 102.075C341.12 97.3268 340.368 92.4484 331.546 88.8384C328.768 87.7001 324.912 87.3423 318.442 88.6107Z" fill="#32313A"/>
<path d="M322.495 78.9186C321.743 78.4632 320.796 78.7885 320.469 79.6015C320.208 80.2845 319.946 80.9675 319.718 81.7155C318.508 85.3906 317.659 88.7079 317.495 91.7C317.365 96.0256 319.685 98.3997 319.685 98.3997L317.201 104.937C316.875 105.782 317.299 106.726 318.116 107.116L320.698 108.222C321.547 108.612 320.273 110.173 320.469 111.376C320.6 112.157 321.319 112.677 322.103 113.165C321.711 114.206 321.972 115.312 323.181 116.027C323.606 116.287 323.835 116.71 323.802 117.198C323.541 120.938 325.338 123.117 328.377 123.345C333.475 123.475 342.003 118.987 342.755 118.531C344.421 117.523 347.101 115.637 348.996 112.352C350.728 109.327 350.826 105.197 350.761 103.473C351.186 103.538 352.002 103.571 353.048 102.433C355.237 100.416 356.381 89.6836 351.251 89.9763C349.813 89.9763 348.865 90.8544 347.852 93.0009C347.297 94.3344 346.545 94.562 346.186 94.6921C344.095 87.1794 335.925 83.4067 332.886 82.8863C330.24 82.431 326.678 81.4228 322.495 78.9186Z" fill="#F7B2B2"/>
<path d="M326.616 98.166C327.335 98.105 327.858 97.3447 327.783 96.4677C327.708 95.5908 327.064 94.9293 326.344 94.9902C325.625 95.0512 325.103 95.8115 325.178 96.6885C325.253 97.5654 325.897 98.2269 326.616 98.166Z" fill="#353437"/>
<path d="M318.706 98.2046C318.87 98.6924 319.164 99.0827 319.393 99.2128C319.491 99.2453 319.753 97.9444 319.72 97.8468C319.491 97.1639 319.066 96.7085 318.804 96.8061C318.51 96.9037 318.477 97.5216 318.706 98.2046Z" fill="#353437"/>
<path d="M324.422 97.0006C324.389 97.0006 324.357 97.0006 324.324 97.0006C324.16 96.9356 324.062 96.773 324.095 96.5779C324.259 96.0575 324.52 95.6347 324.847 95.342C325.598 94.659 326.513 94.7566 327.428 94.8541C328.343 94.9517 329.225 95.2119 330.042 95.6672C330.206 95.7648 330.271 95.9599 330.173 96.1225C330.075 96.2852 329.879 96.3502 329.716 96.2526C328.964 95.8624 328.18 95.6022 327.33 95.5046C326.383 95.407 325.762 95.3745 325.272 95.8298C325.01 96.0575 324.814 96.3827 324.683 96.773C324.683 96.9031 324.553 97.0006 324.422 97.0006Z" fill="#353437"/>
<path d="M318.937 100.904C318.904 100.904 318.904 100.904 318.871 100.904C318.773 100.872 318.74 100.774 318.773 100.709L319.722 97.912C319.755 97.8144 319.853 97.7819 319.918 97.8144C320.017 97.847 320.049 97.9445 320.017 98.0096L319.068 100.807C319.1 100.872 319.035 100.904 318.937 100.904Z" fill="#F69797"/>
<path d="M323.801 93.489L324.291 93.0011C324.716 92.5783 325.337 92.3507 325.958 92.4482C326.644 92.5458 327.428 92.6759 328.278 92.9035C329.127 93.1637 330.01 93.4239 330.728 93.7166C330.924 93.8142 331.121 93.5215 330.957 93.3589C330.369 92.8385 329.552 92.2206 328.637 91.7002C327.493 91.0498 326.382 90.757 325.533 90.627C324.814 90.5294 324.062 90.8546 323.703 91.4725C323.637 91.6026 323.572 91.7327 323.507 91.8953C323.311 92.3507 323.245 92.7735 323.213 93.1312C323.115 93.554 323.539 93.7491 323.801 93.489Z" fill="#353437"/>
<path d="M321.515 108.222C321.417 108.222 321.319 108.222 321.221 108.222C321.057 108.189 320.927 108.059 320.927 107.864C320.959 107.702 321.09 107.539 321.286 107.571C322.103 107.669 322.822 107.311 323.051 106.726C323.181 106.401 323.116 106.075 323.018 105.848C322.953 105.685 323.051 105.49 323.214 105.425C323.378 105.36 323.574 105.457 323.639 105.62C323.77 105.945 323.868 106.433 323.672 106.921C323.378 107.734 322.495 108.222 321.515 108.222Z" fill="#161616" fill-opacity="0.3"/>
<path d="M322.363 113.36C322.232 113.36 322.134 113.36 322.004 113.36C321.807 113.36 321.677 113.198 321.677 113.035C321.677 112.84 321.84 112.71 322.004 112.71C323.245 112.742 324.454 112.547 325.565 112.092C326.056 111.897 326.546 111.637 327.003 111.311C327.167 111.214 327.363 111.246 327.461 111.409C327.559 111.572 327.526 111.767 327.363 111.864C326.872 112.19 326.35 112.482 325.827 112.677C324.781 113.133 323.605 113.36 322.363 113.36Z" fill="#161616" fill-opacity="0.3"/>
<path d="M318.446 97.7829C318.414 97.7829 318.381 97.7829 318.348 97.7829C318.185 97.7503 318.087 97.555 318.12 97.3923C318.25 96.9366 318.479 96.6436 318.838 96.5134C319.427 96.2855 320.08 96.6436 320.407 96.8715C320.57 96.9691 320.603 97.1644 320.505 97.3272C320.407 97.4899 320.211 97.5225 320.047 97.4248C319.753 97.2295 319.329 97.0342 319.067 97.1319C318.936 97.197 318.838 97.3272 318.773 97.555C318.708 97.6852 318.577 97.7829 318.446 97.7829Z" fill="#353437"/>
<path d="M318.838 93.2613C319.034 93.5865 318.87 94.0418 318.576 94.0418C318.51 94.0418 318.412 94.0418 318.347 94.0418C317.954 94.0743 317.921 94.2369 317.725 94.3345C317.496 94.1068 317.169 93.7166 317.201 93.0336C317.234 92.5783 317.332 92.3506 317.529 92.0254C317.758 92.0904 317.954 92.2856 318.249 92.5458C318.478 92.7409 318.674 93.0011 318.838 93.2613Z" fill="#353437"/>
<path d="M351.382 101.099C351.316 101.099 351.218 101.034 351.218 100.969C351.218 100.872 351.284 100.807 351.349 100.774C351.774 100.709 352.297 100.156 352.526 99.6682C352.558 99.6357 353.931 96.3509 353.179 93.9442C353.016 93.4238 352.297 92.0254 351.022 92.3506C350.826 92.3831 350.5 92.5132 350.14 92.8059C350.075 92.8709 349.977 92.8709 349.911 92.8059C349.846 92.7409 349.846 92.6433 349.911 92.5782C350.303 92.2205 350.728 92.0904 350.924 92.0579C352.427 91.6676 353.277 93.2612 353.473 93.8466C354.257 96.4159 352.82 99.7658 352.787 99.7983C352.558 100.384 351.97 101.002 351.382 101.099C351.414 101.099 351.382 101.099 351.382 101.099Z" fill="#F69797"/>
<path d="M350.141 97.6841C350.043 97.6841 349.977 97.6191 349.977 97.5215C349.977 97.424 350.043 97.3589 350.141 97.3589C350.501 97.3264 350.959 97.0987 351.09 96.741C351.221 96.3832 350.992 95.8954 350.403 95.4075C349.454 94.5945 349.486 93.7814 349.552 93.3586C349.585 93.261 349.65 93.2285 349.748 93.2285C349.846 93.261 349.879 93.3261 349.879 93.4237C349.814 93.7814 349.814 94.4644 350.599 95.1799C351.45 95.9604 351.483 96.5133 351.352 96.8711C351.188 97.3589 350.632 97.6516 350.141 97.6841Z" fill="#F69797"/>
<path d="M333.409 122.499C337.755 121.198 342.199 118.857 342.755 118.531C344.421 117.523 347.101 115.637 348.996 112.352C350.728 109.327 350.826 105.197 350.761 103.473C350.271 103.506 349.454 103.213 349.094 102.92C345.173 106.661 342.657 114.856 333.409 122.499Z" fill="#F69797"/>
<path d="M357.982 128.288C356.871 129.849 355.629 132.093 354.322 135.052C352.688 138.727 351.218 143.671 351.054 151.932C350.858 161.949 352.753 169.982 353.995 174.633C356.675 184.585 361.87 204.163 377.359 223.775C381.64 229.173 387.195 235.613 396.377 242.443C400.658 245.63 401.965 245.955 413.99 254.118C425.885 262.184 428.401 264.851 430.95 269.372C434.054 276.104 432.42 280.299 431.603 283.649C433.792 282.673 440.066 272.884 430.59 261.761C427.486 258.379 424.185 255.452 420.199 250.866C416.114 246.183 410.298 238.247 404.873 222.636C397.88 202.537 396.247 183.154 396.083 169.754C395.822 163.607 392.456 140.679 390.953 137.231C389.221 134.304 383.993 129.133 373.471 128.58C368.667 128.548 364.844 128.45 357.982 128.288Z" fill="#2C3C82"/>
<path d="M363.863 202.245C365.53 205.66 367.458 209.205 369.68 212.815C378.078 206.895 382.881 202.798 385.692 199.123C388.306 218.604 396.998 238.703 413.99 254.151C425.884 262.217 428.401 264.884 430.949 269.404C434.054 276.137 432.42 280.332 431.603 283.682C433.792 282.706 440.066 272.917 430.59 261.794C427.486 258.412 424.185 255.485 420.199 250.899C416.114 246.216 410.297 238.28 404.873 222.669C397.88 202.57 396.246 183.186 396.083 169.787C396.018 167.933 395.625 164.518 395.135 160.583C389.155 176.194 380.038 185.268 363.863 202.245Z" fill="#172A65"/>
<path d="M315.829 238.866C315.764 238.866 315.698 238.801 315.666 238.736C314.261 231.353 313.869 224.686 313.574 219.352C313.542 218.767 313.509 218.182 313.476 217.629C312.79 205.888 313.28 196.717 313.705 193.172C314.424 186.895 315.568 180.683 316.973 175.642C317.921 172.259 318.803 169.82 319.816 166.991C323.574 158.535 324.979 155.022 327.495 148.648C328.116 147.087 328.802 145.396 329.586 143.412C331.057 139.737 332.494 135.899 333.834 132.061C333.867 131.964 333.965 131.931 334.03 131.964C334.128 131.996 334.161 132.094 334.128 132.159C332.789 135.996 331.351 139.834 329.88 143.509C329.096 145.493 328.41 147.217 327.789 148.745C325.24 155.12 323.868 158.632 320.11 167.088C319.097 169.885 318.247 172.324 317.3 175.707C315.895 180.748 314.751 186.96 314.032 193.204C313.64 196.749 313.15 205.888 313.803 217.629C313.836 218.182 313.869 218.767 313.901 219.352C314.195 224.686 314.555 231.321 315.96 238.703C315.993 238.768 315.927 238.834 315.829 238.866Z" fill="#161616" fill-opacity="0.3"/>
<path d="M431.701 283.65H431.669C431.571 283.617 431.538 283.552 431.538 283.454C432.551 279.682 433.205 274.12 430.525 269.014C429.218 266.543 427.486 264.819 425.493 262.868C423.336 260.754 421.8 259.68 416.245 255.973C407.455 250.086 404.383 248.07 404.351 248.037C398.763 244.33 395.659 242.313 395.201 241.988C389.287 237.662 385.398 233.402 382.588 230.28C377.523 224.751 372.752 218.246 368.798 211.514C363.994 203.318 361.576 196.944 358.505 188.846C356.348 183.187 354.355 177.853 352.688 170.373C350.728 161.396 350.564 155.185 350.662 152.323C350.728 149.591 350.858 145.493 352.263 140.322C353.44 135.996 355.237 131.866 357.655 128.028C357.688 127.963 357.819 127.93 357.884 127.963C357.949 127.995 357.982 128.126 357.949 128.191C355.564 131.996 353.767 136.094 352.623 140.419C351.218 145.558 351.12 149.656 351.022 152.355C350.924 155.217 351.087 161.396 353.048 170.34C354.682 177.82 356.708 183.154 358.832 188.781C361.903 196.846 364.321 203.253 369.092 211.384C373.046 218.116 377.784 224.588 382.849 230.117C385.659 233.207 389.548 237.467 395.43 241.76C395.887 242.085 398.959 244.134 404.547 247.809C404.579 247.842 407.618 249.858 416.441 255.745C421.996 259.485 423.532 260.526 425.721 262.672C427.747 264.656 429.512 266.38 430.819 268.917C433.531 274.12 432.878 279.779 431.832 283.585C431.832 283.585 431.767 283.65 431.701 283.65Z" fill="#161616" fill-opacity="0.3"/>
<path d="M261.323 139.833C261.257 139.963 261.127 140.255 261.225 140.906C261.453 142.695 262.597 143.963 263.316 144.646C265.375 144.353 267.401 144.061 269.459 143.768C268.25 142.239 267.009 140.678 265.799 139.15C263.577 138.662 261.813 138.922 261.323 139.833Z" fill="#F69797"/>
<path d="M292.498 174.209C289.785 170.925 287.073 167.64 284.394 164.355C284.067 163.965 283.838 163.509 283.675 163.022C282.923 160.322 282.172 157.493 281.518 154.501C280.766 151.086 280.146 147.833 279.655 144.711C279.525 143.866 279.002 143.118 278.25 142.662C274.721 140.646 271.225 138.597 267.696 136.581C267.336 136.385 266.977 136.255 266.552 136.223L259.559 135.54C259.363 135.507 259.167 135.507 258.938 135.54C257.631 135.702 255.311 135.995 254.298 136.125C254.004 136.158 253.775 136.418 253.808 136.711C253.808 137.133 253.873 137.686 254.102 138.044C254.723 139.052 256.389 138.694 258.905 138.987C261.16 139.247 262.729 139.963 264.264 140.093C265.179 140.939 266.127 141.784 267.042 142.662C265.996 142.662 264.918 142.662 263.872 142.662C263.578 142.662 261.977 142.89 261.585 144.549C261.062 146.467 261.814 147.931 261.944 148.614C261.389 149.687 261.356 150.891 261.487 151.899C261.716 153.59 262.859 154.826 263.153 155.053C263.088 155.606 262.99 156.289 262.957 157.135C262.892 158.924 262.859 159.899 263.448 160.777C263.578 160.973 264.003 161.558 264.722 161.851C265.049 161.981 265.31 162.013 265.898 162.046C266.487 162.078 267.271 162.111 268.186 162.143C268.48 162.761 268.872 163.477 269.362 164.225C269.754 164.81 270.179 165.331 270.538 165.786L271.617 172.681C271.78 173.006 272.074 173.526 272.597 173.949C273.545 174.73 274.59 174.827 274.983 174.827C275.734 175.51 276.486 176.226 277.27 177.006C279.917 179.673 282.106 182.34 283.903 184.877C285.112 184.324 286.779 183.348 288.348 181.722C291.223 178.958 292.171 175.738 292.498 174.209Z" fill="#F7B2B2"/>
<path d="M271.289 143.867C271.256 143.867 271.256 143.867 271.223 143.867C270.766 143.672 270.276 143.509 269.753 143.347C268.805 143.086 267.825 142.923 266.812 142.858C266.714 142.858 266.648 142.793 266.648 142.695C266.648 142.598 266.714 142.533 266.812 142.533C267.825 142.598 268.838 142.761 269.818 143.021C270.308 143.151 270.831 143.347 271.321 143.542C271.419 143.574 271.452 143.672 271.419 143.77C271.419 143.835 271.354 143.867 271.289 143.867Z" fill="#F69797"/>
<path d="M270.44 149.33H270.407C268.643 148.777 266.813 148.484 264.983 148.484C264.035 148.484 263.055 148.549 262.107 148.679C262.009 148.679 261.944 148.647 261.911 148.549C261.911 148.451 261.944 148.386 262.042 148.354C263.022 148.224 264.002 148.158 264.983 148.158C266.845 148.191 268.708 148.484 270.505 149.037C270.603 149.07 270.636 149.168 270.603 149.233C270.571 149.265 270.505 149.33 270.44 149.33Z" fill="#F69797"/>
<path d="M270.798 155.412C269.295 155.152 267.759 155.022 266.256 155.022C265.243 155.022 264.197 155.087 263.184 155.217C263.086 155.217 263.021 155.152 262.988 155.087C262.988 154.989 263.054 154.924 263.119 154.891C264.132 154.761 265.178 154.696 266.223 154.696C267.759 154.696 269.295 154.826 270.798 155.087C270.896 155.087 270.961 155.184 270.929 155.282C270.961 155.38 270.896 155.412 270.798 155.412Z" fill="#F69797"/>
<path d="M334.747 202.537C336.871 200.391 339.746 197.334 342.883 193.463C346.314 189.268 353.013 180.942 358.535 169.136C364.45 156.517 366.672 149.655 366.672 149.655C367.195 148.029 368.6 143.638 372.227 139.28C375.397 135.475 377.946 134.467 379.089 134.077C379.743 133.849 382.619 133.003 385.625 133.751C391.343 135.215 393.99 141.785 395.069 144.451C400.852 158.794 391.866 177.039 389.513 181.755C381.017 198.992 368.339 209.562 356.902 219.059C349.941 224.88 343.7 229.173 339.289 232.035C338.439 232.523 336.838 233.239 334.714 233.336C334.714 233.336 331.315 233.499 328.505 231.71C324.617 229.206 323.342 221.075 326.871 212.229C329.551 209.042 332.165 205.789 334.747 202.537Z" fill="#485BA3"/>
<path d="M292.039 172.356C297.561 176.877 303.312 181.43 309.325 185.983C317.527 192.227 325.565 198.049 333.44 203.513C334.453 204.358 335.761 205.659 337.035 207.416C338.309 209.172 341.12 213.66 341.283 219.742C341.316 220.652 341.446 231.32 336.055 233.369C324.846 235.092 316.644 222.441 309.652 215.188C303.704 209.042 304.848 210.668 299.554 205.139C294.751 200.13 288.64 193.398 281.941 185.007C282.628 185.268 285.274 183.284 287.17 181.43C291.516 177.137 292.235 173.364 292.039 172.356Z" fill="#485BA3"/>
<path d="M283.347 184.259C283.282 184.259 283.249 184.227 283.217 184.194C281.387 181.722 279.394 179.348 277.204 177.202C276.485 176.486 275.734 175.771 274.982 175.088C274.492 175.055 272.074 174.795 271.453 172.291L270.473 166.111C270.44 166.014 270.407 165.884 270.342 165.819C269.983 165.363 269.623 164.876 269.296 164.388C268.872 163.737 268.479 163.087 268.153 162.404C267.434 162.371 266.682 162.339 265.963 162.306C265.408 162.274 265.081 162.241 264.722 162.111C264.199 161.884 263.741 161.493 263.349 160.973C262.696 160.03 262.761 158.956 262.826 157.233C262.859 156.582 262.924 155.899 263.022 155.249C262.598 154.859 261.552 153.623 261.356 152.029C261.192 150.761 261.356 149.655 261.813 148.679C261.781 148.582 261.748 148.419 261.683 148.289C261.421 147.508 261.029 146.208 261.454 144.614C261.813 142.988 263.382 142.63 263.872 142.63H266.617L264.199 140.386C263.48 140.321 262.728 140.126 261.944 139.898C261.062 139.67 260.049 139.41 258.872 139.28C258.121 139.183 257.435 139.15 256.846 139.15C255.441 139.085 254.396 139.053 253.938 138.272C253.677 137.882 253.611 137.264 253.611 136.841C253.611 136.451 253.873 136.125 254.265 136.093L258.905 135.508C259.101 135.475 259.33 135.475 259.559 135.508L266.551 136.191C266.976 136.223 267.368 136.353 267.76 136.581L278.315 142.663C279.132 143.118 279.655 143.898 279.786 144.809C280.308 148.061 280.929 151.346 281.648 154.598C282.302 157.428 283.021 160.29 283.805 163.119C283.936 163.575 284.164 164.03 284.491 164.388C285.7 165.851 286.844 167.217 287.955 168.583C289.099 169.949 290.21 171.315 291.419 172.779C291.484 172.844 291.451 172.941 291.386 173.006C291.321 173.071 291.223 173.039 291.157 172.974C289.948 171.51 288.805 170.144 287.693 168.778C286.55 167.412 285.439 166.046 284.23 164.583C283.903 164.16 283.642 163.705 283.511 163.184C282.727 160.387 281.975 157.493 281.354 154.663C280.635 151.444 280.014 148.126 279.492 144.874C279.361 144.061 278.871 143.378 278.152 142.955L267.597 136.743C267.27 136.548 266.911 136.451 266.519 136.386L259.526 135.703C259.33 135.67 259.134 135.67 258.97 135.703L254.33 136.288C254.101 136.321 253.971 136.483 253.971 136.711C253.971 137.101 254.036 137.654 254.265 137.979C254.657 138.597 255.539 138.662 256.912 138.695C257.5 138.727 258.186 138.76 258.97 138.857C260.147 138.987 261.192 139.248 262.075 139.508C262.859 139.703 263.611 139.931 264.329 139.996C264.362 139.996 264.395 140.028 264.427 140.028L267.205 142.598C267.27 142.63 267.27 142.728 267.238 142.76C267.205 142.793 267.14 142.858 267.074 142.858H263.905C263.905 142.858 262.173 142.955 261.781 144.614C261.356 146.143 261.748 147.346 262.009 148.126C262.075 148.322 262.107 148.484 262.14 148.614C262.14 148.647 262.14 148.679 262.14 148.712C261.683 149.622 261.519 150.696 261.683 151.932C261.879 153.525 262.957 154.696 263.316 154.989C263.349 155.021 263.382 155.086 263.382 155.151C263.284 155.834 263.218 156.517 263.186 157.2C263.12 159.054 263.088 159.932 263.643 160.745C263.97 161.233 264.395 161.591 264.852 161.753C265.146 161.884 265.408 161.916 265.996 161.949C266.748 161.981 267.499 162.014 268.251 162.046C268.316 162.046 268.381 162.079 268.381 162.144C268.741 162.859 269.133 163.542 269.558 164.193C269.884 164.68 270.211 165.136 270.603 165.591C270.701 165.721 270.799 165.884 270.799 166.046L271.78 172.226C272.368 174.6 274.786 174.763 275.08 174.763C275.113 174.763 275.146 174.763 275.178 174.795C275.962 175.511 276.714 176.226 277.466 176.974C279.622 179.153 281.681 181.527 283.478 183.999C283.544 184.064 283.511 184.162 283.445 184.227C283.445 184.259 283.38 184.259 283.347 184.259Z" fill="#F69797"/>
<path d="M254.265 137.979C254.167 137.979 254.102 137.914 254.102 137.817C254.102 137.719 254.167 137.654 254.232 137.654L256.226 137.459C256.291 137.426 256.487 137.361 256.65 137.199C256.846 136.971 256.879 136.613 256.716 136.321C256.683 136.223 256.716 136.158 256.814 136.093C256.912 136.06 256.977 136.093 257.042 136.191C257.239 136.613 257.173 137.069 256.912 137.394C256.716 137.654 256.454 137.752 256.291 137.784L254.265 137.979Z" fill="#F69797"/>
<path fill-rule="evenodd" clip-rule="evenodd" d="M490.423 210.462L465.229 229.845L467.516 235.081C467.614 235.602 468.039 236.025 468.66 236.025L501.075 235.342C501.892 235.309 502.415 234.496 502.088 233.781L492.024 210.689C491.697 209.974 490.978 209.876 490.423 210.462Z" fill="#8F1D3E"/>
<path fill-rule="evenodd" clip-rule="evenodd" d="M488.039 205.486L465.492 228.707C464.806 229.423 465.328 230.626 466.309 230.594L498.757 230.008C499.541 230.008 500.097 229.163 499.77 228.447L489.902 205.844C489.575 205.096 488.594 204.901 488.039 205.486Z" fill="#C63C56"/>
<path fill-rule="evenodd" clip-rule="evenodd" d="M416.801 126.084L415.723 123.905L402.979 130.637L403.992 132.946C404.057 133.044 404.122 133.109 404.253 133.174L415.853 138.052C416.278 138.215 416.638 137.987 416.67 137.532L416.834 126.279C416.866 126.214 416.834 126.149 416.801 126.084Z" fill="#8F1D3E"/>
<path fill-rule="evenodd" clip-rule="evenodd" d="M415.133 123.743L403.206 130.052C402.847 130.248 402.879 130.735 403.239 130.898L414.904 135.711C415.198 135.842 415.558 135.614 415.558 135.289L415.819 124.133C415.819 123.808 415.427 123.58 415.133 123.743Z" fill="#C63C56"/>
<path fill-rule="evenodd" clip-rule="evenodd" d="M405.822 395.211C405.822 395.211 389.353 391.113 388.47 390.56C388.176 392.056 387.948 393.324 387.653 394.82C387.621 394.918 387.621 395.048 387.653 395.178L391.607 409.618C391.738 410.041 392.261 410.204 392.588 409.944L404.809 399.926C404.94 399.829 405.005 399.699 405.005 399.569C405.266 398.105 405.822 395.211 405.822 395.211Z" fill="#8F1D3E"/>
<path fill-rule="evenodd" clip-rule="evenodd" d="M388.438 390.918L392.392 405.358C392.523 405.781 393.046 405.943 393.372 405.683L405.594 395.666C405.986 395.341 405.855 394.723 405.365 394.593L389.19 390.17C388.732 390.04 388.307 390.462 388.438 390.918Z" fill="#C63C56"/>
<path d="M192.753 194.099L175.892 181.741L172.951 184.115C172.624 184.278 172.428 184.603 172.559 184.993L178.833 205.287C178.996 205.775 179.617 205.97 180.009 205.645L192.884 195.14C193.308 194.815 193.21 194.327 192.753 194.099Z" fill="#A8ADBE"/>
<path fill-rule="evenodd" clip-rule="evenodd" d="M195.496 191.691L176.674 181.674C176.086 181.348 175.432 181.901 175.628 182.519L181.837 202.846C182 203.334 182.588 203.529 183.013 203.204L195.594 192.927C196.019 192.569 195.953 191.951 195.496 191.691Z" fill="white"/>
<path d="M371.348 8.54777L371.511 2.04321L332.887 2.40096L332.462 9.13319V9.16571C332.462 9.42589 332.593 9.75112 332.821 10.0113L354.65 36.1271C355.467 37.0052 356.382 36.615 356.806 35.8669L371.217 9.13319C371.315 8.93805 371.348 8.74291 371.348 8.54777Z" fill="#A8ADBE"/>
<path fill-rule="evenodd" clip-rule="evenodd" d="M370.236 0.904053L334.095 1.2618C333.017 1.2618 332.461 2.49767 333.147 3.34326L354.845 29.1013C355.401 29.7843 356.479 29.6867 356.936 28.9062L371.347 2.79037C371.837 1.91226 371.216 0.904053 370.236 0.904053Z" fill="white"/>
<path fill-rule="evenodd" clip-rule="evenodd" d="M208.551 321.741L206.46 323.498L217.341 335.466L219.596 333.71C219.694 333.612 219.727 333.515 219.76 333.352L221.916 319.4C221.982 318.912 221.622 318.587 221.132 318.652L208.747 321.579C208.682 321.611 208.584 321.676 208.551 321.741Z" fill="#8F1D3E"/>
<path fill-rule="evenodd" clip-rule="evenodd" d="M206.426 324.214L216.622 335.401C216.916 335.727 217.471 335.564 217.537 335.109L219.595 321.124C219.661 320.766 219.301 320.441 218.942 320.539L206.655 323.335C206.328 323.433 206.165 323.921 206.426 324.214Z" fill="#C63C56"/>
<path d="M189.633 406.269L186.43 403.602L171.235 422.954L174.438 425.848C174.568 425.946 174.764 426.011 175.026 426.011L196.822 425.523C197.606 425.458 197.737 424.84 197.54 424.352L189.829 406.562C189.829 406.432 189.731 406.334 189.633 406.269Z" fill="#A8ADBE"/>
<path fill-rule="evenodd" clip-rule="evenodd" d="M185.348 403.764L171.166 421.912C170.742 422.432 171.134 423.213 171.82 423.213L193.387 422.66C193.942 422.66 194.335 422.074 194.106 421.554L186.721 403.992C186.492 403.374 185.74 403.276 185.348 403.764Z" fill="white"/>
</svg>
