<svg width="388" height="572" viewBox="0 0 388 572" fill="none" xmlns="http://www.w3.org/2000/svg">
<path fill-rule="evenodd" clip-rule="evenodd" d="M266.207 543.669C319.313 540.61 356.333 533.729 356.333 525.731C356.333 514.89 288.325 506.102 204.432 506.102C120.539 506.102 52.5303 514.89 52.5303 525.731C52.5303 535.638 109.324 543.83 183.132 545.168C183.183 545.221 183.234 545.272 183.284 545.323C186.121 548.164 193.526 554.916 205.352 559.012C207.556 559.784 212.004 562.475 215.341 564.493C216.467 565.174 217.467 565.778 218.21 566.207C228.765 565.147 252.177 553.968 266.207 543.669Z" fill="#8EA2C0" fill-opacity="0.48"/>
<path d="M232.248 557.056C251.848 546.246 267.801 534.992 276.606 524.624C262.422 523.886 248.201 523.148 234.016 522.411C234.348 532.077 231.953 547.426 232.248 557.056Z" fill="#353437"/>
<path d="M206.9 537.575C257.036 537.575 297.68 531.562 297.68 524.145C297.68 516.727 257.036 510.714 206.9 510.714C156.764 510.714 116.12 516.727 116.12 524.145C116.12 531.562 156.764 537.575 206.9 537.575Z" fill="#353437"/>
<path d="M201.301 498.686V422.385H213.569V498.576L201.301 498.686Z" fill="white" fill-opacity="0.48"/>
<path d="M292.67 522.521C234.532 530.048 177.758 529.716 122.126 522.521C120.615 522.521 119.399 521.304 119.399 519.791V515.954C119.399 514.626 120.32 513.519 121.647 513.26L200.084 498.908C200.232 498.871 200.416 498.871 200.563 498.871H213.79C213.937 498.871 214.121 498.871 214.269 498.908L293.149 512.818C294.438 513.039 295.396 514.183 295.396 515.511V519.828C295.396 521.304 294.18 522.521 292.67 522.521Z" fill="#ADB6C4"/>
<g style="mix-blend-mode:lighten">
<path d="M292.67 522.521C234.532 530.048 177.758 529.716 122.126 522.521C120.615 522.521 119.399 521.304 119.399 519.791V515.954C119.399 514.626 120.32 513.519 121.647 513.26L200.084 498.908C200.232 498.871 200.416 498.871 200.563 498.871H213.79C213.937 498.871 214.121 498.871 214.269 498.908L293.149 512.818C294.438 513.039 295.396 514.183 295.396 515.511V519.828C295.396 521.304 294.18 522.521 292.67 522.521Z" fill="white"/>
</g>
<path d="M291.97 517.355C281.543 522.669 247.611 526.543 207.379 526.543C167.074 526.543 133.105 522.632 122.752 517.319C122.605 517.245 120.137 516.027 119.768 514.699C119.51 515.031 119.437 515.843 119.437 515.843C119.437 515.843 119.437 519.053 119.437 520.012C119.437 526.985 158.858 532.926 207.416 532.926C255.975 532.926 295.433 527.17 295.433 520.197C295.507 519.348 295.433 517.097 295.433 514.994C295.396 514.81 295.322 514.625 295.249 514.478C294.512 515.917 292.559 517.023 291.97 517.355Z" fill="#A8ADBE"/>
<path d="M278.006 432.421C288.027 432.421 297.017 426.148 300.517 416.74C306.301 401.059 314.738 377.371 318.017 363.572C321.075 350.695 316.544 337.191 306.375 328.742L292.485 317.23C288.47 313.909 286.112 308.928 286.075 303.726L285.854 254.432C285.854 252.551 286.591 250.78 287.88 249.451C293.775 243.437 299.67 237.423 305.564 231.409C306.854 230.081 307.591 228.31 307.591 226.428V176.359C307.075 165.401 294.585 163.298 290.238 167.689L274.58 188.683C270.564 192.705 265.185 194.955 259.548 194.955H167.442C162.358 194.955 157.421 193.11 153.552 189.753L130.084 165.401C120.284 161.785 113.726 167.91 113.726 173.924V226.797C113.726 228.568 114.389 230.265 115.568 231.593L131.815 249.525C132.994 250.816 133.657 252.514 133.657 254.285C133.731 269.08 133.842 289.558 133.915 301.291C133.952 307.12 131.263 312.655 126.657 316.234L113.91 326.122C103.962 333.833 98.9519 346.378 100.831 358.849C102.931 372.722 108.715 397.332 112.878 414.231C115.531 424.967 125.147 432.531 136.2 432.531L278.006 432.421Z" fill="#8BB8D8"/>
<path d="M136.789 408.807L282.096 409.877C286.37 409.877 290.312 407.59 292.412 403.863C300.002 390.322 304.975 376.154 308.365 361.617C311.239 349.33 306.486 336.527 296.391 329C294.328 327.451 292.191 325.975 290.017 324.573C283.828 320.588 279.996 313.762 279.996 306.383V247.238C279.996 245.541 280.659 243.917 281.875 242.736C287.328 237.276 292.744 231.852 298.196 226.391C299.375 225.211 300.075 223.587 300.075 221.89V172.965C300.075 167.32 293.259 164.479 289.244 168.427L269.643 187.761C265.959 191.414 260.985 193.443 255.791 193.443H170.721C166.042 193.443 161.474 191.783 157.9 188.72L131.668 166.324C127.542 162.819 121.168 165.734 121.168 171.157V222.222C121.168 223.809 121.758 225.358 122.863 226.539L137.858 242.773C138.926 243.954 139.553 245.467 139.553 247.053C139.663 266.867 139.737 286.643 139.847 306.457C139.884 313.43 136.568 319.998 130.895 324.056C127.616 326.418 124.558 328.853 121.721 331.362C114.5 337.819 110.558 347.227 111.184 356.894C112.216 373.497 115.347 385.71 121.426 399.62C125.184 406.372 132.074 408.807 136.789 408.807Z" fill="#5287AD"/>
<path d="M234.384 294.724C241.31 296.753 261.868 303.062 276.274 323.798C290.524 344.291 289.663 365.69 289.145 372.231C289.279 372.258 289.412 372.287 289.543 372.318L289.684 372.317C289.673 372.326 289.662 372.336 289.651 372.345C291.743 372.869 293.35 373.967 294.437 375.638C298.969 382.427 293.737 396.816 291.306 402.683C289.39 407.258 284.969 410.21 279.995 410.21H279.921L138.741 409.213C133.509 409.177 128.867 405.819 127.209 400.838C125.662 396.263 124.667 391.54 124.446 387.481C124.151 382.464 124.999 378.589 126.878 375.933C128.693 373.402 131.472 372.076 135.114 371.989C134.395 371.988 133.676 371.986 132.957 371.985C132.33 366.377 132.072 357.78 134.43 347.707C134.651 346.858 138.409 331.399 148.762 318.633C167.331 295.683 203.473 285.721 234.384 294.724ZM133.143 372.915L133.101 372.922C130.67 373.357 128.758 374.509 127.43 376.376C123.525 381.836 125.109 392.462 127.872 400.617C129.457 405.302 133.804 408.476 138.741 408.512H139.22L279.884 409.509H279.958C284.637 409.509 288.8 406.741 290.605 402.424C293 396.669 298.121 382.574 293.811 376.044C292.715 374.398 291.071 373.364 288.892 372.942C278.525 380.692 252.687 384.127 212.094 384.235C188.4 385.067 143.674 379.764 133.143 372.915Z" fill="#2D638A"/>
<path d="M235.637 374.788H187.668C178.384 374.788 170.205 368.552 167.774 359.587L161.842 337.965C159.779 330.402 165.452 322.912 173.3 322.912H248.827C256.417 322.912 262.053 329.922 260.432 337.338L255.827 358.517C253.764 367.999 245.364 374.788 235.637 374.788Z" fill="#174062"/>
<path d="M190.653 383.865C189.179 379.326 195.626 377.924 196.179 377.85C200.711 376.633 204.763 377.408 209.774 374.161C210.327 369.844 210.658 364.9 210.511 359.439C210.216 349.034 208.705 341.507 206.605 334.903C201.521 333.87 192.9 332.505 186.268 332.431C170.131 332.283 159.226 335.641 150.605 339.183C148.394 340.511 146 342.504 144.342 345.455C138.484 355.934 145.41 372.648 156.463 380.802C170.647 391.244 188.958 384.492 190.653 383.865Z" fill="#174062"/>
<path d="M215.263 336.268C213.937 341.47 212.758 347.927 212.316 355.417C211.911 362.723 212.353 369.106 213.053 374.308C214.563 375.194 215.926 375.71 216.958 376.042C221.011 377.26 222.926 376.19 228.49 377.26C230.7 377.703 231.879 378.145 232.653 378.477C234.679 379.4 236.153 380.581 237.074 381.429C239.284 382.536 242.711 384.012 247.132 384.861C250.264 385.488 263.232 387.997 273.843 380.212C275.869 378.699 279.959 375.636 282.169 369.917C284.674 363.424 283.274 357.52 282.427 354.938C282.427 354.938 280.585 349.255 275.316 344.385C266.99 336.637 244.221 332.984 215.263 336.268Z" fill="#174062"/>
<path d="M188.331 482.342C186.121 484.149 186.231 484.666 186.231 485.33C186.268 486.068 188.81 486.363 190.395 486.363C196.547 485.662 213.421 486.289 221.269 483.338C219.574 480.423 217.621 478.873 216.369 478.062C210.695 474.372 191.684 479.574 188.331 482.342Z" fill="#174062"/>
<path d="M238.547 486.215C235.378 492.081 231.252 498.723 225.799 505.585C221.967 510.419 218.136 514.588 214.525 518.093C213.825 518.831 211.173 521.488 207.673 521.266C203.178 521.008 198.757 516.101 198.609 509.238C201.373 504.331 204.173 499.313 206.936 494.258C210.473 487.838 213.899 481.455 217.215 475.109C224.362 478.836 231.436 482.525 238.547 486.215Z" fill="#F79797"/>
<path fill-rule="evenodd" clip-rule="evenodd" d="M233.538 514.552C233.28 514.256 232.727 513.703 231.806 513.445C229.927 512.928 228.38 514.33 228.269 514.441C227.791 514.81 227.275 515.253 226.796 515.806C224.622 518.278 224.29 521.267 224.217 522.669C227.275 523.997 230.738 523.185 232.543 520.824C234.606 518.167 233.648 514.847 233.538 514.552Z" fill="#A82248"/>
<path fill-rule="evenodd" clip-rule="evenodd" d="M198.98 527.687C198.501 527.17 197.395 525.916 197.137 523.997C196.88 521.968 197.69 520.381 198.132 519.57C198.98 517.946 199.716 517.725 200.932 516.028C202.001 514.515 201.853 513.334 202.148 512.338C202.516 512.116 203.806 511.637 204.469 511.489C206.201 511.083 208.595 511.305 210.474 512.965C213.017 515.216 212.722 518.426 212.685 518.721C212.353 520.381 211.874 522.706 211.101 525.473C209.48 531.192 208.669 531.782 208.301 531.967C205.132 533.664 199.311 528.019 198.98 527.687Z" fill="#A82248"/>
<path d="M174 530.934C174.368 536.321 183.1 546.135 186.379 549.124C189.216 551.411 196.621 557.684 201.153 557.536C203.29 549.972 193.011 540.01 191.463 538.387C181.405 528.757 174.958 528.499 174 530.934Z" fill="#353437"/>
<path fill-rule="evenodd" clip-rule="evenodd" d="M177.057 525.473C176.247 526.027 175.694 526.617 175.326 527.06C174.847 527.687 173.741 529.163 173.962 530.971C175.362 528.978 185.31 532.779 190.763 538.83C192.9 541.043 200.305 550.194 201.115 557.536C201.779 557.536 202.515 557.425 203.252 557.13C205.242 556.282 206.015 555.064 206.2 554.658C206.384 553.441 206.568 551.227 206.458 549.124C205.794 539.199 198.5 532.816 197.026 531.561C188.736 524.661 179.084 525.289 177.057 525.473Z" fill="#A82248"/>
<path fill-rule="evenodd" clip-rule="evenodd" d="M198.869 505.66C200.232 506.509 201.558 507.985 202.295 509.313C203.4 511.342 204.911 514.774 200.711 518.316C200.711 518.316 197.1 520.64 199.163 524.035C199.458 524.662 202.848 528.794 203.953 529.532C205.537 530.602 206.348 530.602 207.6 529.975C209.737 528.019 210.658 524.588 210.658 520.419C211.727 518.869 214.858 517.578 215.079 526.802C215.116 537.207 215.116 542.409 212.132 547.648C211.137 549.419 209.332 552.039 206.237 554.659C206.016 552.74 205.537 550.01 204.395 546.91C201.3 538.572 195.59 533.923 193.379 532.189C190.874 530.196 187.3 527.429 181.847 526.285C179.674 525.842 177.868 525.769 176.542 525.806C177.279 524.772 178.458 523.186 180.374 521.526C185.753 516.766 189.658 516.434 194.89 511.859C196.032 510.863 197.726 508.354 198.869 505.66Z" fill="#CF5B6F"/>
<path fill-rule="evenodd" clip-rule="evenodd" d="M202.368 509.276C203.363 513.814 197.689 517.245 196.547 519.09C195.663 520.455 195.736 521.821 196.142 523.186C196.584 524.698 198.942 528.388 202.884 531.893C204.136 533.037 208.005 533.48 209.368 530.823C209.184 530.307 208.852 529.163 208.668 528.646C208.558 528.831 208.115 529.532 207.526 529.901C205.573 531.008 203.51 529.2 203.252 528.978C201.447 527.134 200.342 525.695 200.084 525.363C199.2 524.219 197.873 521.562 199.605 519.422C199.936 519.016 201.742 517.504 202.294 516.803C202.589 516.434 203.473 515.29 203.584 513.63C203.694 512.08 202.663 509.792 202.368 509.276Z" fill="#A82248"/>
<path fill-rule="evenodd" clip-rule="evenodd" d="M179.342 525.953C180.632 524.809 186.637 519.09 197.8 519.828C198.574 519.164 201.005 516.397 201.263 516.138C199.569 515.954 197.616 515.88 195.442 516.028C190.174 516.397 187.411 517.024 184.61 518.389C183.395 519.127 180.447 521.193 178.937 522.817C178.089 523.776 177.058 524.957 176.542 525.805C176.874 525.842 178.126 525.842 179.342 525.953Z" fill="#A82248"/>
<path fill-rule="evenodd" clip-rule="evenodd" d="M190.652 514.957C191.979 514.736 193.452 514.552 195.037 514.478C197.689 514.33 200.084 514.441 202.11 514.699C202.295 514.441 202.552 514.072 202.737 513.592C203.031 512.817 203.068 512.08 203.031 511.674C202.11 511.6 201.116 511.526 200.084 511.452C198.426 511.379 196.842 511.379 195.405 511.452C194.963 511.895 194.447 512.338 193.894 512.817C192.716 513.703 191.647 514.404 190.652 514.957Z" fill="#A82248"/>
<path fill-rule="evenodd" clip-rule="evenodd" d="M184.978 527.17C185.567 527.613 191.02 528.978 193.599 527.871C194.851 527.207 196.399 527.465 197.393 528.499C198.02 529.163 201.52 533.295 202.441 534.07C203.509 534.955 203.251 536.579 202.772 537.87C201.851 540.674 202.515 542.667 202.883 543.847C200.23 541.486 197.541 538.977 194.814 536.357C191.609 533.332 187.814 530.159 184.978 527.17Z" fill="#A82248"/>
<path d="M199.353 519.207C199.646 518.79 199.531 518.205 199.097 517.901C198.663 517.597 198.074 517.689 197.781 518.107C197.489 518.525 197.604 519.11 198.038 519.414C198.472 519.718 199.061 519.625 199.353 519.207Z" fill="white"/>
<path d="M201.166 517.319C201.482 516.919 201.414 516.338 201.014 516.022C200.614 515.706 200.033 515.774 199.717 516.174C199.401 516.574 199.469 517.154 199.869 517.471C200.269 517.787 200.85 517.719 201.166 517.319Z" fill="white"/>
<path d="M202.614 515.671C202.904 515.252 202.8 514.676 202.381 514.385C201.962 514.094 201.388 514.198 201.097 514.617C200.807 515.036 200.911 515.612 201.33 515.903C201.748 516.194 202.323 516.09 202.614 515.671Z" fill="white"/>
<path d="M203.542 513.964C203.83 513.543 203.722 512.968 203.302 512.68C202.881 512.391 202.307 512.499 202.019 512.92C201.731 513.341 201.839 513.916 202.26 514.204C202.68 514.493 203.254 514.385 203.542 513.964Z" fill="white"/>
<path fill-rule="evenodd" clip-rule="evenodd" d="M208.929 529.865C208.855 529.865 208.818 529.828 208.781 529.754C206.166 524.957 201.892 521.415 199.571 519.497C199.202 519.165 198.871 518.906 198.613 518.685C198.539 518.611 198.539 518.501 198.613 518.427C198.687 518.353 198.797 518.353 198.871 518.427C199.129 518.648 199.423 518.906 199.829 519.239C202.15 521.157 206.497 524.736 209.113 529.606C209.15 529.68 209.113 529.791 209.039 529.865C208.966 529.865 208.929 529.865 208.929 529.865Z" fill="white"/>
<path fill-rule="evenodd" clip-rule="evenodd" d="M210.364 527.429C210.29 527.429 210.216 527.392 210.216 527.318C208.08 523.186 203.474 519.422 201.264 517.578C200.895 517.283 200.564 517.024 200.379 516.84C200.306 516.766 200.306 516.655 200.379 516.581C200.453 516.508 200.564 516.508 200.637 516.581C200.858 516.766 201.153 517.024 201.522 517.319C203.732 519.164 208.374 522.965 210.548 527.171C210.585 527.245 210.548 527.355 210.474 527.429C210.437 527.429 210.401 527.429 210.364 527.429Z" fill="white"/>
<path fill-rule="evenodd" clip-rule="evenodd" d="M211.727 525.215C211.654 525.215 211.58 525.178 211.58 525.105C209.959 521.895 204.211 516.434 201.817 515.438C201.706 515.401 201.669 515.29 201.706 515.179C201.743 515.069 201.854 515.032 201.964 515.069C204.469 516.102 210.217 521.563 211.912 524.92C211.948 524.994 211.912 525.105 211.838 525.178C211.801 525.215 211.764 525.215 211.727 525.215Z" fill="white"/>
<path fill-rule="evenodd" clip-rule="evenodd" d="M212.833 522.152C212.759 522.152 212.722 522.116 212.686 522.079C210.107 518.205 205.796 515.142 202.885 513.74C202.812 513.703 202.738 513.592 202.812 513.482C202.849 513.408 202.959 513.334 203.07 513.408C206.017 514.847 210.401 517.946 213.017 521.894C213.091 521.968 213.054 522.079 212.98 522.152C212.907 522.152 212.87 522.152 212.833 522.152Z" fill="white"/>
<path fill-rule="evenodd" clip-rule="evenodd" d="M189.067 516.36C188.073 516.36 187.188 516.102 186.452 515.622C185.31 514.847 184.757 513.519 184.941 512.08C185.199 509.903 187.004 508.022 189.731 507.025C194.667 505.513 199.089 506.656 201.815 510.162C202.552 511.121 203.104 512.191 203.436 513.408C203.436 513.482 203.436 513.556 203.399 513.593C203.362 513.63 203.289 513.667 203.215 513.63C199.31 512.56 196.51 513.667 193.525 515.106C191.941 515.917 190.394 516.36 189.067 516.36ZM193.857 506.73C192.567 506.73 191.241 506.952 189.841 507.357C187.262 508.317 185.567 510.088 185.31 512.117C185.162 513.408 185.641 514.626 186.673 515.327C188.22 516.397 190.652 516.176 193.378 514.774C196.252 513.408 199.125 512.265 202.994 513.187C202.662 512.154 202.183 511.195 201.52 510.383C199.641 507.985 196.989 506.73 193.857 506.73Z" fill="white"/>
<path fill-rule="evenodd" clip-rule="evenodd" d="M203.658 513.925C203.621 513.925 203.547 513.888 203.511 513.851C203.474 513.814 203.4 513.74 203.326 513.63C202.7 512.818 200.821 510.309 196.953 512.006C194.816 513.076 192.716 513.15 191.132 512.228C189.953 511.527 189.253 510.383 189.216 509.055C189.105 506.177 191.426 504.996 192.421 504.627C196.068 503.299 199.458 505.697 200.379 506.435C203.363 508.87 203.805 512.338 203.842 513.704C203.842 513.777 203.805 513.851 203.732 513.888C203.695 513.925 203.658 513.925 203.658 513.925ZM199.458 511.084C201.558 511.084 202.811 512.412 203.4 513.15C203.253 511.711 202.663 508.796 200.121 506.73C199.2 505.992 195.995 503.705 192.532 504.959C191.61 505.291 189.474 506.398 189.547 509.018C189.584 510.235 190.247 511.268 191.316 511.896C192.789 512.744 194.779 512.67 196.805 511.674C197.8 511.268 198.684 511.084 199.458 511.084Z" fill="white"/>
<path fill-rule="evenodd" clip-rule="evenodd" d="M178.937 516.397C178.9 516.397 178.863 516.397 178.826 516.36C178.752 516.286 178.716 516.176 178.789 516.102C179.637 514.774 180.668 513.63 181.81 512.634C185.937 509.092 193.195 506.767 199.347 509.903C201.005 510.752 202.479 512.006 203.768 513.556C203.842 513.63 203.805 513.741 203.732 513.814C203.658 513.888 203.547 513.851 203.474 513.777C202.258 512.228 200.821 511.047 199.2 510.199C193.452 507.247 186.231 509.313 182.068 512.892C180.926 513.851 179.931 514.995 179.084 516.286C179.084 516.36 179.01 516.397 178.937 516.397Z" fill="white"/>
<path fill-rule="evenodd" clip-rule="evenodd" d="M210.29 536.984C210.658 538.719 211.248 542.666 209.553 547.131C208.521 549.861 207.048 551.78 205.942 552.924C206.016 553.514 206.09 554.067 206.2 554.658C206.753 554.178 207.342 553.662 207.932 553.108C209.258 551.78 210.29 550.452 211.1 549.271C211.321 548.09 211.469 546.762 211.506 545.249C211.579 541.855 210.953 539.051 210.29 536.984Z" fill="#A82248"/>
<path d="M187.597 481.529C191.023 487.432 206.976 514.219 209.665 521.783C209.85 522.3 210.144 522.964 210.623 523.739C220.165 541.117 234.571 532.262 232.987 520.196C233.281 518.721 225.287 496.398 223.629 492.34C222.081 488.539 219.908 483.595 216.997 477.876C213.681 477.36 209.518 477.028 204.728 477.397C197.47 477.913 191.576 479.832 187.597 481.529Z" fill="#F7B2B2"/>
<path d="M208.671 479.315C212.466 479.647 214.345 479.647 218.139 479.979C220.203 484.112 222.229 488.539 224.182 493.225C227.645 501.527 230.371 509.46 232.508 516.765C232.545 517.503 232.397 518.057 232.176 518.389C231.034 520.307 228.345 520.787 223.518 519.2C222.597 515.695 213.055 487.765 208.671 479.315Z" fill="#F79797"/>
<path fill-rule="evenodd" clip-rule="evenodd" d="M193.489 203.846C198.905 202.555 206.016 201.448 214.416 201.559C221.011 201.67 226.758 202.518 231.4 203.514C231.142 201.928 230.516 199.677 228.932 197.463C222.484 188.35 204.247 186.69 196.916 195.176C195.7 196.578 193.931 199.234 193.489 203.846Z" fill="#A82248"/>
<path fill-rule="evenodd" clip-rule="evenodd" d="M93.1695 224.176C92.9116 223.918 92.8379 223.512 92.7643 222.959C92.5064 221.04 93.2064 219.417 93.4274 218.974C94.3485 216.981 105.033 195.692 108.901 197.5C110.154 198.091 110.007 200.821 109.785 204.031C109.749 204.584 108.864 215.985 100.133 221.889C98.1064 223.291 94.2748 225.283 93.1695 224.176Z" fill="#A82248"/>
<path d="M96.3737 223.881C94.5685 222.368 89.4842 219.49 85.4684 215.985C83.7736 214.509 82.7052 212.48 82.4104 210.229C78.7999 167.024 89.4105 130.533 89.4105 127.434C89.4473 120.018 88.8947 108.949 88.9316 101.496C88.9316 99.1344 90.8842 97.2158 93.279 97.2527C98.2527 97.0682 101.421 97.1051 106.284 97.2158C107.279 97.2158 108.237 97.6585 108.79 98.7654C109.711 99.0606 110.448 99.6509 110.19 100.905C111.59 101.643 111.848 103.156 111.479 104.743C111.811 104.816 113.284 105.185 114.132 106.403C115.09 107.842 114.942 109.871 113.653 111.347L110.669 118.099C110.227 120.645 110.521 123.265 109.269 125.737C107.758 128.762 106.358 129.426 104.737 130.496C104.037 130.939 103.89 131.493 103.705 132.636C101.569 145.993 102.49 177.17 107.574 195.692C108.679 198.017 111.111 199.382 114.427 200.231C117.779 215.653 99.3948 223.77 96.3737 223.881Z" fill="#F7B2B2"/>
<g style="mix-blend-mode:lighten">
<path d="M82.4104 210.23C78.7999 167.024 89.4105 130.533 89.4105 127.434C89.4473 120.018 88.8947 108.949 88.9316 101.496C88.9316 99.1345 90.8842 97.2159 93.279 97.2528C94.4211 97.2159 95.4527 97.179 96.4474 97.1421C95.6369 97.3635 94.4211 97.9169 93.3526 98.4335C92.0632 99.0607 91.2895 100.426 91.4368 101.865C91.8789 107.03 92.9105 119.686 93.5 128.32C89.3368 163.666 84.4368 174.957 82.4104 210.23Z" fill="white" fill-opacity="0.3"/>
</g>
<path d="M100.794 110.314C101.126 110.13 101.494 109.908 101.862 109.65C102.526 109.133 103.041 108.617 103.373 108.137C104.11 108.174 104.883 108.211 105.62 108.211C105.547 108.617 105.436 109.06 105.362 109.465C105.031 109.465 104.662 109.539 104.22 109.724C102.857 110.351 102.452 111.827 102.378 112.085C101.826 111.532 101.31 110.904 100.794 110.314Z" fill="#F79797"/>
<path d="M103.521 113.413C103.963 113.376 106.726 113.192 108.568 112.786C108.9 112.712 109.415 112.601 109.857 112.196C110.41 111.716 110.594 111.126 110.668 110.904C110.852 110.351 111.036 109.723 111.184 109.059C111.515 107.362 111.515 105.886 111.405 104.706C111.663 104.742 111.994 104.816 112.4 104.964C112.805 105.148 113.136 105.333 113.357 105.517C113.505 105.628 113.689 105.812 113.873 106.034C114.721 107.141 114.573 108.543 114.5 109.318C114.352 110.646 113.836 111.679 113.431 112.306C106.394 114.963 107.868 121.088 104.921 123.818C105.215 122.674 105.473 120.866 105.252 118.689C104.957 116.365 104.11 114.52 103.521 113.413Z" fill="#F79797"/>
<path d="M104.848 130.644C104.775 130.644 104.738 130.607 104.701 130.533C104.664 130.46 104.701 130.349 104.775 130.275C105.843 129.685 107.796 128.32 109.048 125.848C109.785 124.372 110.19 122.674 110.154 121.014C110.227 120.018 110.411 119.059 110.669 118.136C111.001 116.955 111.48 115.922 112.401 114.078C112.548 113.745 112.696 113.45 112.843 113.192C113.248 112.417 113.58 111.716 113.985 110.683C114.28 109.798 115.127 106.772 112.917 105.407C112.475 105.149 111.996 104.964 111.443 104.89C111.369 104.89 111.332 104.853 111.296 104.78C111.259 104.743 111.259 104.669 111.296 104.595C111.296 104.595 112.106 101.939 110.043 101.016C109.969 100.979 109.896 100.869 109.932 100.795C110.08 100.463 110.08 100.168 109.932 99.8724C109.638 99.2452 108.754 98.9869 108.754 98.95C108.68 98.9131 108.643 98.8762 108.643 98.8024C108.643 98.7655 108.422 97.5111 106.322 97.3266C103.411 97.1052 96.2271 97.179 93.3902 97.4004C90.5902 97.6586 89.927 99.0607 89.4481 100.61C89.1902 101.939 89.1902 102.824 89.1165 103.931V104.042C89.1165 104.152 89.0059 104.226 88.9323 104.226C88.8217 104.226 88.748 104.152 88.748 104.042V103.931C88.7849 102.787 88.8217 101.902 89.0796 100.537C89.5954 98.9131 90.3323 97.3266 93.3534 97.0683C96.1902 96.8469 103.411 96.7731 106.322 96.9945C108.385 97.179 108.827 98.2859 108.938 98.6548C109.196 98.7655 109.932 99.0976 110.227 99.7248C110.375 100.057 110.411 100.389 110.301 100.758C110.927 101.09 111.369 101.57 111.59 102.234C111.885 103.119 111.738 104.079 111.664 104.521C112.18 104.595 112.659 104.78 113.064 105.038C113.69 105.407 115.606 106.957 114.28 110.757C113.838 111.827 113.506 112.491 113.101 113.303C112.954 113.561 112.843 113.856 112.659 114.188C111.701 116.144 111.259 117.066 110.964 118.173C110.706 119.095 110.559 120.018 110.485 120.977C110.522 122.711 110.117 124.445 109.343 125.958C108.053 128.504 106.027 129.906 104.922 130.533C104.885 130.644 104.885 130.644 104.848 130.644Z" fill="#F79797"/>
<path d="M110.152 101.126C110.115 101.126 110.115 101.126 110.152 101.126C107.315 100.757 99.3573 100.315 96.152 100.499C96.0415 100.499 95.9678 100.425 95.9678 100.315C95.9678 100.204 96.0415 100.13 96.152 100.13C99.6152 99.9088 107.684 100.388 110.226 100.757C110.336 100.757 110.41 100.868 110.373 100.979C110.299 101.053 110.226 101.126 110.152 101.126Z" fill="#F79797"/>
<path d="M108.716 99.0232C103.816 98.6174 99.2478 98.6174 96.3004 98.6912C96.1899 98.6912 96.1162 98.6174 96.1162 98.5067C96.1162 98.396 96.1899 98.3222 96.3004 98.3222C99.2847 98.2484 103.853 98.2484 108.753 98.6543C108.864 98.6543 108.937 98.765 108.937 98.8388C108.901 98.9494 108.827 99.0232 108.716 99.0232Z" fill="#F79797"/>
<path d="M103.448 113.598C103.337 113.598 103.263 113.524 103.263 113.413C103.263 113.302 103.337 113.229 103.448 113.229C104.221 113.192 106.506 112.933 108.2 112.712C109.232 112.565 110.079 111.863 110.448 110.904C110.89 109.65 111.148 108.395 111.221 107.104C111.258 106.329 111.258 105.554 111.148 104.779C111 103.562 110.079 102.639 108.864 102.492C106.727 102.234 104.553 102.049 102.416 101.975C99.7266 101.828 98.1792 101.828 96.0055 101.865C95.895 101.865 95.8213 101.791 95.8213 101.68C95.8213 101.569 95.895 101.496 96.0055 101.496C98.1792 101.459 99.7634 101.459 102.453 101.606C104.627 101.717 106.8 101.901 108.937 102.123C110.337 102.27 111.406 103.377 111.553 104.742C111.627 105.554 111.664 106.329 111.627 107.141C111.553 108.469 111.295 109.76 110.853 111.015C110.485 112.122 109.49 112.933 108.311 113.081C106.542 113.302 104.258 113.561 103.448 113.598C103.485 113.598 103.448 113.598 103.448 113.598Z" fill="#F79797"/>
<path d="M104.921 124.077H104.884C104.773 124.04 104.736 123.966 104.736 123.855C105.547 120.645 104.847 115.627 103.263 113.561C102.121 112.011 100.868 110.499 99.5416 109.06C99.4679 108.986 99.4679 108.875 99.5416 108.801C99.6153 108.728 99.7258 108.728 99.7995 108.801C101.089 110.24 102.378 111.753 103.521 113.34C105.178 115.553 105.878 120.608 105.031 123.966C105.068 124.003 104.994 124.077 104.921 124.077Z" fill="#F79797"/>
<path d="M102.415 112.085C102.305 112.085 102.231 111.974 102.231 111.863C102.268 111.605 102.452 110.351 103.705 109.687C104.294 109.391 104.847 109.318 105.289 109.318L105.4 108.321C105.105 108.358 104.81 108.358 104.552 108.358C104.184 108.358 103.852 108.285 103.521 108.211C103.079 108.764 102.6 109.244 102.047 109.687C101.752 109.945 101.421 110.203 101.089 110.425C101.015 110.498 100.905 110.461 100.831 110.388C100.757 110.314 100.794 110.203 100.868 110.129C101.2 109.908 101.531 109.687 101.826 109.428C102.379 108.986 102.894 108.469 103.336 107.916C103.373 107.842 103.447 107.842 103.521 107.842C103.889 107.916 104.221 107.989 104.589 107.989C104.921 107.989 105.289 107.989 105.621 107.916C105.694 107.916 105.731 107.916 105.768 107.952C105.805 107.989 105.842 108.063 105.805 108.1L105.621 109.502C105.621 109.613 105.51 109.687 105.436 109.65C105.031 109.613 104.479 109.65 103.889 109.945C102.821 110.535 102.636 111.605 102.6 111.827C102.6 112.011 102.526 112.085 102.415 112.085Z" fill="#F79797"/>
<path d="M103.521 108.248C103.484 108.248 103.447 108.248 103.411 108.211C103.042 107.99 102.711 107.731 102.379 107.473C101.79 106.956 101.311 106.366 100.942 105.665C100.905 105.591 100.942 105.481 101.016 105.407C101.09 105.37 101.2 105.407 101.274 105.481C101.605 106.145 102.084 106.698 102.6 107.178C102.895 107.436 103.226 107.657 103.558 107.879C103.632 107.916 103.669 108.026 103.632 108.137C103.632 108.211 103.595 108.248 103.521 108.248Z" fill="#F79797"/>
<path d="M105.438 108.543C105.401 108.543 105.364 108.543 105.327 108.506C105.253 108.432 105.216 108.322 105.29 108.248C105.548 107.842 105.88 107.473 106.211 107.141C106.801 106.588 107.501 106.182 108.274 105.887C108.385 105.85 108.459 105.887 108.495 105.997C108.532 106.108 108.495 106.182 108.385 106.219C107.648 106.477 107.022 106.883 106.432 107.399C106.101 107.695 105.806 108.064 105.548 108.432C105.548 108.506 105.474 108.543 105.438 108.543Z" fill="#F79797"/>
<path d="M106.434 110.646C106.361 110.646 106.324 110.609 106.287 110.572C106.139 110.388 105.992 110.203 105.807 110.056C105.623 109.871 105.401 109.724 105.143 109.613C105.069 109.576 105.032 109.466 105.069 109.355C105.106 109.281 105.217 109.244 105.327 109.281C105.586 109.429 105.844 109.576 106.028 109.798C106.213 109.982 106.397 110.167 106.545 110.351C106.619 110.425 106.582 110.536 106.508 110.609C106.545 110.646 106.471 110.646 106.434 110.646Z" fill="#F79797"/>
<path d="M95.3057 223.143C95.2689 223.143 95.232 223.143 95.1952 223.106C93.6478 222.11 92.1373 221.04 90.6267 220.007C89.0057 218.863 87.3846 217.719 85.8004 216.539C83.774 215.026 82.7793 213.218 82.374 210.082C81.7108 204.621 81.674 199.788 81.6003 194.216L81.5635 192.556C81.5635 192.445 81.6372 192.372 81.7477 192.372C81.8214 192.372 81.9319 192.445 81.9319 192.556L81.9687 194.216C82.0424 199.788 82.0793 204.621 82.7424 210.045C83.1845 213.07 84.1056 214.805 86.0583 216.28C87.6425 217.461 89.2636 218.605 90.8846 219.749C92.3952 220.819 93.9425 221.852 95.4531 222.848C95.5268 222.922 95.5636 223.033 95.4899 223.106C95.4162 223.106 95.3426 223.143 95.3057 223.143Z" fill="#F79797"/>
<path d="M106.579 192.224C106.505 192.224 106.432 192.15 106.395 192.076C104.59 182.889 103.374 173.48 102.784 164.145C102.416 158.021 102.305 151.785 102.453 145.66C102.453 145.55 102.526 145.476 102.637 145.476C102.748 145.476 102.821 145.55 102.821 145.66C102.674 151.785 102.784 158.021 103.153 164.145C103.742 173.48 104.921 182.852 106.727 192.002C106.763 192.113 106.69 192.224 106.579 192.224Z" fill="#F79797"/>
<path fill-rule="evenodd" clip-rule="evenodd" d="M152.19 203.44C138.264 204.4 131.632 202.038 123.49 200.636C115.974 199.345 111.774 199.308 108.937 197.353C110.337 206.724 103.816 214.694 101.864 217.018C100.243 218.937 97.4793 221.704 93.2793 224.139C95.4162 225.8 117.411 239.488 148.838 249.524C153.554 251 156.612 252.55 157.827 253.952C159.08 250.041 160.996 245.687 161.364 240.337C162.58 223.18 155.985 209.934 152.19 203.44Z" fill="#CF5B6F"/>
<path fill-rule="evenodd" clip-rule="evenodd" d="M111.775 223.844C113.432 224.804 116.233 226.353 119.769 228.088C129.754 232.958 138.301 237.017 149.022 236.906C151.343 236.869 155.064 236.648 159.633 235.43C159.78 237.607 159.817 240.079 159.633 242.809C159.338 247.163 158.528 250.89 157.68 253.952C156.98 253.399 156.133 252.734 155.064 252.144C153.996 251.554 152.964 251.111 152.117 250.853C148.949 249.893 144.97 248.602 140.364 246.942C131.927 243.879 124.964 240.854 119.769 238.419C115.238 236.315 109.969 233.807 104.111 230.56C105.327 229.895 109.269 226.87 111.775 223.844Z" fill="#BA3952"/>
<path fill-rule="evenodd" clip-rule="evenodd" d="M108.938 197.353C109.822 197.427 110.817 197.574 111.885 197.832C113.359 198.201 114.612 198.681 115.643 199.124C116.122 199.087 116.749 199.05 117.522 199.198C118.591 199.419 119.364 199.862 119.807 200.194C119.843 200.452 119.917 200.858 119.954 201.338C121.28 212.775 113.322 222.11 111.775 223.918C110.191 225.763 107.722 228.309 104.112 230.707C102.564 230.227 100.612 229.453 98.5485 228.235C96.2274 226.87 94.4958 225.394 93.2432 224.14C93.7958 223.808 94.5695 223.365 95.4537 222.738C96.6327 221.926 99.1011 220.118 101.754 217.092C103.301 215.321 106.285 211.816 107.943 206.798C108.754 204.4 108.938 202.518 109.012 201.891C109.196 200.083 109.085 198.533 108.938 197.353Z" fill="#A82248"/>
<path fill-rule="evenodd" clip-rule="evenodd" d="M99.2124 228.051C99.1387 228.051 99.1018 228.014 99.065 227.977C99.0282 227.903 99.0282 227.793 99.1387 227.719C101.681 226.169 103.965 224.324 105.955 222.184C112.07 215.654 114.097 207.942 114.723 202.666C114.723 202.556 114.834 202.482 114.944 202.519C115.055 202.519 115.128 202.629 115.091 202.74C114.465 208.09 112.402 215.875 106.212 222.48C104.186 224.62 101.865 226.501 99.3229 228.088C99.2861 228.051 99.2492 228.051 99.2124 228.051Z" fill="#911835"/>
<path fill-rule="evenodd" clip-rule="evenodd" d="M121.908 212.738C121.871 212.738 121.871 212.738 121.834 212.738C121.724 212.701 121.687 212.591 121.724 212.517C123.126 208.975 123.384 204.658 123.2 203.219C123.2 203.108 123.273 203.034 123.347 202.998C123.458 202.998 123.532 203.071 123.569 203.145C123.753 204.584 123.532 209.012 122.093 212.628C122.056 212.701 121.982 212.738 121.908 212.738Z" fill="#911835"/>
<path fill-rule="evenodd" clip-rule="evenodd" d="M107.833 231.777C107.759 231.777 107.723 231.74 107.686 231.703C107.612 231.63 107.649 231.519 107.723 231.445C115.165 226.316 118.407 220.413 120.396 215.838C120.433 215.727 120.544 215.69 120.654 215.727C120.765 215.764 120.802 215.875 120.765 215.985C118.738 220.598 115.459 226.575 107.944 231.74C107.907 231.777 107.87 231.777 107.833 231.777Z" fill="#911835"/>
<path fill-rule="evenodd" clip-rule="evenodd" d="M270.159 218.9C269.791 227.238 269.201 236.094 268.207 245.355C267.322 253.583 266.254 261.441 265.038 268.858C269.275 271.809 272.812 274.503 275.575 276.68C278.043 278.635 282.133 281.882 287.107 286.494C292.117 291.143 292.412 291.918 295.433 294.316C299.67 297.674 303.686 299.703 306.449 300.921C305.454 295.054 303.76 282.325 311.681 262.622C309.433 260.482 305.602 255.427 301.549 250.963C292.744 241.296 290.238 236.573 282.944 229.415C280.18 226.759 275.943 222.922 270.159 218.9Z" fill="#CF5B6F"/>
<path fill-rule="evenodd" clip-rule="evenodd" d="M265.812 269.337C266.99 270.26 268.759 271.625 270.859 273.248C275.98 277.27 278.559 279.262 281.322 281.587C283.643 283.542 286.885 286.42 290.643 290.11C292.043 291.401 293.48 292.73 294.88 294.021C294.585 292.25 294.328 290.294 294.217 288.118C294.033 284.391 294.291 281.07 294.696 278.303C291.233 276.089 287.549 273.507 283.754 270.444C277.417 265.316 272.296 260.113 268.243 255.39C267.727 258.084 267.248 260.814 266.769 263.581C266.438 265.5 266.106 267.419 265.812 269.337Z" fill="#BA3952"/>
<path fill-rule="evenodd" clip-rule="evenodd" d="M303.869 253.472C304.79 253.841 307.038 254.874 308.659 257.273C309.58 258.638 309.948 259.929 310.133 260.815C310.759 261.184 311.348 261.552 311.975 261.921C311.459 263.36 310.759 265.353 310.022 267.825C308.622 272.4 307.554 276.68 307.075 279.004C305.343 287.491 306.006 296.752 306.448 301.327C305.122 300.958 303.575 300.441 301.917 299.593C298.527 297.895 296.243 295.682 294.806 294.058C294.401 291.107 294.18 287.786 294.327 284.244C294.769 270.518 299.964 259.855 303.869 253.472Z" fill="#A82248"/>
<path fill-rule="evenodd" clip-rule="evenodd" d="M300.813 295.127C300.702 295.127 300.628 295.053 300.628 294.943C300.444 289.63 300.886 284.28 301.992 279.077C303.171 273.469 305.05 268.082 307.628 262.954C307.665 262.88 307.776 262.843 307.886 262.88C307.96 262.917 307.997 263.027 307.96 263.138C305.381 268.23 303.502 273.617 302.323 279.151C301.255 284.317 300.776 289.63 300.997 294.943C300.997 295.053 300.923 295.127 300.813 295.127Z" fill="#911835"/>
<path fill-rule="evenodd" clip-rule="evenodd" d="M296.759 259.781C296.722 259.781 296.685 259.781 296.685 259.744C296.611 259.707 296.574 259.597 296.611 259.486C297.164 258.379 297.79 257.309 298.453 256.276C299.043 255.391 299.632 254.505 300.295 253.693C300.369 253.62 300.48 253.583 300.553 253.656C300.627 253.73 300.664 253.841 300.59 253.915C299.964 254.726 299.337 255.612 298.748 256.461C298.085 257.494 297.459 258.564 296.906 259.634C296.869 259.744 296.832 259.781 296.759 259.781Z" fill="#911835"/>
<path fill-rule="evenodd" clip-rule="evenodd" d="M291.38 287.047C291.27 287.047 291.196 286.973 291.196 286.863C290.717 281.439 291.086 276.052 292.301 270.849C292.928 268.156 293.812 265.499 294.88 262.954C294.917 262.843 295.028 262.806 295.138 262.843C295.249 262.88 295.286 262.991 295.249 263.101C294.18 265.647 293.333 268.267 292.67 270.923C291.454 276.089 291.086 281.439 291.565 286.826C291.565 286.936 291.491 287.01 291.38 287.047Z" fill="#911835"/>
<path d="M311.053 189.974C310.869 190.048 308.916 190.786 308.695 192.409C308.585 193.184 308.916 193.811 309.285 194.512C309.653 195.176 310.39 196.32 311.864 197.316C311.606 194.881 311.311 192.409 311.053 189.974Z" fill="#F79797"/>
<path d="M313.485 202.372C313.191 204.032 312.822 206.615 312.712 208.681C312.564 211.817 313.228 213.072 313.817 214.142C313.338 218.569 316.543 222.96 317.317 223.956C316.985 232.959 316.838 237.534 315.843 244.729C314.775 253.399 313.559 256.683 311.754 262.218C307.406 273.582 304.017 285.167 306.375 300.996C307.333 301.586 310.133 302.878 311.828 303.652C312.785 304.095 313.817 304.353 314.849 304.464C318.091 304.759 321.443 304.612 324.87 304.058C326.086 303.874 327.191 303.283 328.075 302.398C330.691 299.668 332.496 295.203 333.307 290.702C333.307 290.702 335.444 274.504 332.975 248.345C331.17 237.054 330.875 221.41 330.875 221.41C330.875 221.41 332.901 203.884 335.701 192.742C336.07 190.307 335.517 188.868 333.749 187.871C330.249 186.322 323.249 183.444 319.27 182.042C317.612 181.23 315.475 181.931 315.512 184.514C313.559 184.44 312.306 185.658 312.159 187.466C309.506 188.683 310.649 191.598 311.312 192.299C310.98 192.483 310.906 192.963 311.017 194.365C311.275 196.911 311.57 198.387 311.791 200.195C311.901 201.154 313.154 202.077 313.485 202.372Z" fill="#F7B2B2"/>
<path d="M320.412 202.297C320.191 202.297 319.712 202.297 319.38 202.371C319.049 202.445 318.791 202.555 318.607 202.666C318.607 202.408 318.57 201.965 318.349 201.522C317.907 200.6 317.022 200.268 316.801 200.157C316.838 199.899 316.838 199.567 316.765 199.235C316.543 198.054 315.733 197.316 315.401 197.058C315.917 197.279 319.933 197.574 320.559 197.427C320.375 197.833 319.565 199.751 320.412 202.297Z" fill="#F79797"/>
<path d="M311.312 192.483C311.238 192.483 311.201 192.446 311.164 192.409C309.912 190.638 310.317 189.273 310.648 188.609C310.98 187.945 311.57 187.465 312.048 187.354C312.085 186.284 312.417 185.473 313.043 184.956C313.817 184.292 314.848 184.255 315.364 184.292C315.475 183.443 315.806 182.373 316.654 181.857C317.354 181.414 318.312 181.414 319.454 181.82C323.838 183.48 330.801 186.284 333.749 187.65C333.859 187.686 333.896 187.797 333.822 187.908C333.786 188.019 333.675 188.055 333.564 187.982C330.617 186.616 323.691 183.812 319.306 182.152C318.275 181.783 317.427 181.783 316.838 182.152C316.064 182.632 315.77 183.702 315.696 184.476C315.696 184.513 315.659 184.587 315.622 184.587C315.585 184.624 315.548 184.624 315.475 184.624C315.07 184.587 314.001 184.513 313.264 185.178C312.712 185.657 312.417 186.432 312.38 187.465C312.38 187.576 312.306 187.65 312.196 187.65C311.827 187.65 311.275 188.055 310.943 188.72C310.648 189.31 310.28 190.528 311.422 192.151C311.496 192.225 311.459 192.335 311.385 192.409C311.385 192.483 311.348 192.483 311.312 192.483Z" fill="#F79797"/>
<path d="M326.27 187.538H326.234L325.792 187.428C322.77 186.727 317.207 185.472 315.439 184.66C315.328 184.623 315.291 184.513 315.328 184.402C315.365 184.291 315.476 184.255 315.586 184.291C317.318 185.066 322.881 186.321 325.865 187.022L326.307 187.132C326.418 187.169 326.455 187.243 326.455 187.354C326.418 187.465 326.344 187.538 326.27 187.538Z" fill="#F79797"/>
<path d="M323.47 190.011C323.47 190.011 323.47 189.974 323.47 190.011C321.443 189.715 318.643 189.125 316.175 188.572C314.664 188.24 313.264 187.944 312.196 187.723C312.085 187.686 312.012 187.612 312.049 187.502C312.085 187.391 312.159 187.354 312.27 187.354C313.375 187.575 314.775 187.871 316.286 188.203C318.754 188.756 321.517 189.346 323.507 189.642C323.617 189.642 323.691 189.752 323.654 189.863C323.654 189.937 323.543 190.011 323.47 190.011Z" fill="#F79797"/>
<path d="M316.91 205.323C316.873 205.323 316.836 205.323 316.8 205.286L312.71 202.002C312.084 201.522 311.678 200.785 311.605 200.01L310.794 193.737C310.721 193.147 310.905 192.557 311.31 192.077C311.715 191.634 312.268 191.376 312.857 191.376C313.226 191.376 314.368 191.597 315.805 191.856C317.426 192.151 319.452 192.52 320.779 192.63C320.889 192.63 320.963 192.741 320.926 192.815C320.926 192.926 320.815 192.999 320.742 192.963C319.415 192.815 317.389 192.483 315.731 192.188C314.368 191.929 313.152 191.745 312.821 191.745C312.342 191.745 311.863 191.966 311.531 192.335C311.199 192.704 311.052 193.184 311.126 193.7L311.936 199.973C312.01 200.674 312.378 201.301 312.931 201.707L317.021 204.991C317.094 205.065 317.131 205.175 317.057 205.249C317.021 205.286 316.984 205.323 316.91 205.323Z" fill="#F79797"/>
<path d="M318.643 202.851C318.532 202.851 318.459 202.777 318.459 202.666C318.459 202.334 318.348 201.485 317.685 200.858C317.427 200.6 317.132 200.415 316.801 200.305C316.727 200.268 316.69 200.194 316.69 200.12C316.727 199.751 316.69 199.161 316.396 198.534C316.101 197.833 315.622 197.39 315.29 197.168C315.217 197.132 315.18 197.021 315.217 196.947C315.253 196.873 315.327 196.836 315.438 196.836C316.653 197.058 318.901 197.427 320.448 197.279C320.559 197.279 320.632 197.353 320.632 197.464C320.632 197.574 320.559 197.648 320.448 197.648C319.085 197.759 317.243 197.537 315.99 197.316C316.248 197.574 316.506 197.943 316.727 198.386C316.985 199.013 317.059 199.604 317.059 200.01C317.39 200.157 317.685 200.342 317.943 200.6C318.717 201.338 318.827 202.297 318.827 202.666C318.827 202.777 318.753 202.851 318.643 202.851Z" fill="#F79797"/>
<path d="M317.242 209.677C317.168 209.677 317.094 209.64 317.058 209.566C316.1 206.614 316.652 203.736 318.384 202.666C318.9 202.334 319.563 202.15 320.263 202.15C320.373 202.15 320.447 202.223 320.447 202.334C320.447 202.445 320.373 202.519 320.263 202.519C319.6 202.519 319.047 202.666 318.568 202.961C316.984 203.958 316.505 206.651 317.389 209.455C317.426 209.566 317.352 209.64 317.279 209.677H317.242Z" fill="#F79797"/>
<path d="M333.048 250.373C332.937 250.373 332.864 250.3 332.864 250.189C332.79 249.119 332.606 247.569 332.422 245.577C331.795 239.6 330.801 230.597 330.764 221.373C331.943 209.123 335.148 194.254 335.516 192.594C335.553 192.483 335.627 192.446 335.737 192.446C335.848 192.483 335.885 192.557 335.885 192.667C335.516 194.328 332.311 209.197 331.169 221.41C331.243 230.597 332.201 239.6 332.827 245.54C333.048 247.495 333.195 249.082 333.269 250.152C333.232 250.3 333.158 250.373 333.048 250.373C333.085 250.373 333.048 250.373 333.048 250.373Z" fill="#F79797"/>
<path d="M306.927 278.857C306.927 278.857 306.891 278.857 306.927 278.857C306.78 278.82 306.743 278.746 306.743 278.636C307.996 272.216 309.248 268.821 310.538 265.205C311.827 261.626 313.191 257.937 314.591 250.963C315.806 244.617 316.691 235.799 317.206 223.992C313.338 219.048 313.559 215.506 313.633 214.178C312.638 212.37 312.343 210.599 312.601 208.09C312.601 207.979 312.712 207.905 312.785 207.942C312.896 207.942 312.97 208.053 312.933 208.127C312.675 210.562 312.97 212.296 313.964 214.067C313.964 214.104 314.001 214.141 314.001 214.178C313.927 215.506 313.67 218.937 317.538 223.845C317.575 223.881 317.575 223.918 317.575 223.955C317.059 235.799 316.212 244.691 314.959 251.074C313.559 258.048 312.196 261.774 310.906 265.353C309.617 268.932 308.364 272.326 307.112 278.71C307.075 278.783 307.001 278.857 306.927 278.857Z" fill="#F79797"/>
<path d="M329.217 301.364C329.18 301.364 329.143 301.364 329.106 301.328C329.033 301.254 328.996 301.143 329.069 301.069C330.543 298.819 331.648 296.383 332.385 293.838C332.717 292.731 332.938 291.624 333.122 290.517C333.417 287.713 333.638 284.798 333.785 281.957C334.043 276.533 333.97 272.401 333.859 267.973C333.748 263.509 333.564 258.971 333.27 254.469C333.27 254.358 333.343 254.285 333.454 254.285C333.564 254.285 333.638 254.358 333.638 254.469C333.933 258.971 334.117 263.509 334.227 267.973C334.338 272.401 334.412 276.533 334.154 281.957C334.006 284.835 333.785 287.713 333.491 290.554C333.306 291.698 333.085 292.841 332.754 293.948C332.017 296.531 330.875 299.003 329.364 301.291C329.327 301.328 329.291 301.364 329.217 301.364Z" fill="#F79797"/>
<path d="M318.277 304.795C316.951 304.795 315.588 304.721 314.262 304.574C313.746 304.5 313.267 304.389 312.825 304.205L307.741 302.028C307.63 301.991 307.593 301.88 307.63 301.77C307.667 301.659 307.777 301.622 307.888 301.659L312.972 303.836C313.414 304.02 313.856 304.131 314.335 304.205C315.809 304.389 317.32 304.463 318.793 304.426C321.114 304.389 323.435 304.131 325.683 303.615C325.793 303.578 325.867 303.651 325.904 303.762C325.941 303.873 325.867 303.947 325.757 303.984C323.472 304.5 321.114 304.758 318.793 304.795C318.609 304.795 318.425 304.795 318.277 304.795Z" fill="#F79797"/>
<path fill-rule="evenodd" clip-rule="evenodd" d="M212.574 199.825C235.011 198.977 255.606 210.857 259.622 213.071C257.153 241.518 254.722 270.002 252.253 298.449C224.327 298.449 196.4 298.449 168.437 298.449C165.747 268.932 163.058 233.143 160.368 203.589C191.279 206.836 194.816 199.936 212.574 199.825Z" fill="white"/>
<path d="M194.889 202.261C193.6 204.474 193.268 206.282 193.121 207.574C193.01 208.533 192.937 210.156 194.337 215.912C195.184 219.381 195.405 219.602 195.7 220.93C196.068 222.775 196.584 226.871 191.905 238.345C190.579 241.592 189.916 243.216 188.221 246.426C185.2 252.218 181.773 261.701 180.152 277.824C182.547 277.898 189.805 277.972 192.2 278.083C192.2 254.211 200.084 239.415 201.189 231.815C202.221 223.845 197.321 216.687 196.805 215.359C196.179 213.698 194.521 208.976 197.1 206.541C197.837 205.323 197.579 203.7 197.947 201.56C197.395 201.744 195.405 202.15 194.889 202.261Z" fill="#A8ADBE"/>
<path d="M223 200.084C224.695 200.379 226.426 200.711 228.195 201.08C229.042 201.264 229.89 201.449 230.7 201.633C231.069 202.519 231.584 203.958 231.916 205.729C233.169 212.223 230.995 216.798 229.705 222.923C228.6 228.236 228.637 232.221 228.711 237.165C228.784 242.515 229.668 250.521 233.721 260.225C234.716 262.549 235.674 265.132 236.521 267.973C238.474 274.467 239.248 280.407 239.469 285.278C236.484 285.351 230.442 285.425 227.458 285.536C229.779 270.703 226.242 262.476 224.658 249.599C222.558 227.756 228.932 216.687 229.595 214.141C230.811 209.824 230.663 205.876 227.9 203.7C227.09 202.556 224.363 200.932 223 200.084Z" fill="#A8ADBE"/>
<path d="M212.5 218.089C212.427 218.089 212.353 218.089 212.242 218.089C210.363 218.089 206.495 218.016 202.184 215.876C200.49 215.027 198.905 213.883 197.505 212.592C197.432 212.518 197.432 212.407 197.505 212.334C197.579 212.26 197.69 212.26 197.763 212.334C199.127 213.625 200.711 214.732 202.369 215.58C206.569 217.72 210.4 217.757 212.242 217.757C216.7 217.794 220.053 216.65 221.306 216.134C223.627 215.211 225.764 213.883 227.643 212.223C227.716 212.149 227.827 212.149 227.901 212.223C227.974 212.297 227.974 212.407 227.901 212.481C225.985 214.141 223.811 215.507 221.453 216.429C220.2 216.946 216.885 218.089 212.5 218.089Z" fill="#A8ADBE"/>
<path fill-rule="evenodd" clip-rule="evenodd" d="M196.585 227.054C196.216 230.67 194.927 234.065 193.048 238.05C185.274 255.28 174 279.964 186.121 332.357C163.095 273.581 187.853 243.141 191.832 237.459C195.295 232.035 195.774 228.825 196.585 227.054Z" fill="#A82248"/>
<path fill-rule="evenodd" clip-rule="evenodd" d="M194.375 214.4C201.007 224.878 192.607 235.799 191.022 238.604C176.691 258.712 169.101 289.89 186.38 332.579C180.78 332.431 173.559 332.763 165.306 334.534C157.864 336.158 151.675 338.482 146.922 340.659C146.922 292.657 165.527 284.945 157.717 253.547C158.49 250.263 159.117 246.647 159.448 242.736C160.848 225.948 156.096 212.075 152.08 203.478C156.759 203.183 161.659 203.035 166.78 202.999C173.338 202.962 179.527 203.146 185.385 203.478C187.67 207.279 192.091 210.636 194.375 214.4Z" fill="#BA3952"/>
<path fill-rule="evenodd" clip-rule="evenodd" d="M155.247 337.337C152.116 338.407 149.316 339.551 146.921 340.695C146.921 292.693 165.526 284.981 157.716 253.583C158.489 250.299 159.116 246.683 159.447 242.772C159.668 240.152 159.742 237.569 159.668 235.097C167.332 261.921 175.326 277.787 155.247 337.337Z" fill="#911835"/>
<path fill-rule="evenodd" clip-rule="evenodd" d="M195.073 215.58C194.336 215.248 193.194 214.805 191.721 214.657C187.263 214.178 183.799 216.65 182.215 217.793C180.668 218.937 179.415 220.192 178.457 221.409C178.052 221.963 177.168 221.557 177.315 220.893C177.499 219.933 177.72 218.863 178.015 217.756C179.047 213.772 180.336 210.894 180.778 209.898C181.626 208.09 182.805 205.839 184.499 203.441L192.568 209.455C192.826 210.267 193.121 211.152 193.452 212.074C193.968 213.366 194.521 214.546 195.073 215.58Z" fill="#911835"/>
<path fill-rule="evenodd" clip-rule="evenodd" d="M232.174 209.898C231.695 211.005 231.106 212.518 230.442 214.326C230.442 214.326 229.079 218.163 228.232 221.705C226.021 230.892 226.942 241.555 227.016 242.072C227.384 245.946 228.195 251.074 230.111 256.941C230.7 258.564 231.253 260.188 231.842 261.848C236.595 276.053 239.321 289.779 240.758 302.656C240.943 304.279 241.09 305.902 241.237 307.563C242.232 318.964 242.306 329.774 241.716 339.958C247.464 339.109 252.327 339.072 255.937 339.22C260.948 339.441 265.038 339.663 269.901 341.692C272.59 342.799 274.653 344.127 276.017 345.123C276.532 341.692 276.901 338.002 277.011 334.091C274.543 293.358 264.043 287.971 265.848 268.194C267.322 261.737 270.859 241.076 270.859 219.491C268.28 217.499 265.443 215.543 262.274 213.588C252.879 207.869 243.779 204.548 236.3 202.556C234.974 204.991 233.574 207.426 232.174 209.898Z" fill="#BA3952"/>
<path fill-rule="evenodd" clip-rule="evenodd" d="M263.01 339.774C265.257 340.106 267.505 340.659 269.936 341.692C272.626 342.799 274.689 344.128 276.052 345.124C276.568 341.692 276.936 338.003 277.047 334.092C274.579 293.358 264.078 287.971 265.884 268.195C266.436 265.76 267.284 261.332 268.131 255.576C251.552 284.503 274.321 320.329 263.01 339.774Z" fill="#911835"/>
<path fill-rule="evenodd" clip-rule="evenodd" d="M239.8 272.142C239.727 272.142 239.653 272.069 239.616 271.995C239.211 270.113 238.695 268.231 238.143 266.35C237.185 263.176 236.264 260.889 235.821 259.745L235.711 259.487C234.495 256.498 231.621 248.529 230.811 239.305C230.516 235.836 230.516 232.294 230.811 228.715C230.811 228.605 230.921 228.531 230.995 228.531C231.106 228.531 231.179 228.641 231.179 228.715C230.885 232.257 230.885 235.799 231.179 239.231C231.99 248.381 234.864 256.314 236.079 259.302L236.19 259.561C236.632 260.668 237.59 262.992 238.548 266.165C239.1 268.047 239.616 269.929 240.022 271.81C240.058 271.921 239.985 271.995 239.874 272.032C239.8 272.142 239.8 272.142 239.8 272.142Z" fill="#911835"/>
<path fill-rule="evenodd" clip-rule="evenodd" d="M230.332 215.285C231.511 214.695 232.948 214.178 234.606 214.068C239.395 213.699 243.116 216.687 245.106 218.717C245.548 219.196 246.322 218.754 246.211 218.126C245.99 216.982 245.695 215.802 245.327 214.547C243.89 209.751 241.79 205.987 239.948 203.331C237.627 204.475 235.306 205.618 232.948 206.762C232.69 207.869 232.395 209.013 232.027 210.194C231.511 212.001 230.958 213.699 230.332 215.285Z" fill="#911835"/>
<path fill-rule="evenodd" clip-rule="evenodd" d="M197.727 189.752C195.258 191.523 185.716 194.475 180.005 215.248C179.858 215.801 180.484 216.244 180.963 215.912C184.058 213.55 190.063 210.672 194.521 214.473C189.548 202.186 195.221 192.556 197.727 189.752Z" fill="#CF5B6F"/>
<path fill-rule="evenodd" clip-rule="evenodd" d="M230.48 214.362C231.217 212.96 237.664 210.451 242.527 213.845C242.969 214.177 243.596 213.772 243.485 213.255C241.275 202.075 234.68 194.438 233.685 193.442C232.211 191.966 229.669 189.863 225.948 188.166C225.948 190.269 236.412 202.887 230.48 214.362Z" fill="#CF5B6F"/>
<path fill-rule="evenodd" clip-rule="evenodd" d="M198.391 197.98C192.422 204.326 193.748 211.595 194.485 214.362C187.964 201.67 195.296 191.634 198.649 189.014C198.538 192.003 198.464 194.992 198.391 197.98Z" fill="#A82248"/>
<path fill-rule="evenodd" clip-rule="evenodd" d="M225.433 196.025C226.243 196.43 227.459 197.131 228.491 198.349C229.006 198.939 230.222 200.563 230.812 204.732C231.106 206.872 231.327 210.23 230.443 214.436C237.885 199.198 227.533 189.605 225.543 188.313C225.543 190.859 225.506 193.442 225.433 196.025Z" fill="#A82248"/>
<path fill-rule="evenodd" clip-rule="evenodd" d="M186.121 332.615C186.047 332.615 185.974 332.578 185.937 332.505C168.105 286.163 178.053 256.941 189.547 240.559C195.074 232.441 199.569 224.324 194.263 214.362C190.837 207.721 190.763 200.637 194.116 194.438C195.037 192.741 196.179 191.191 197.579 189.826C197.653 189.752 197.763 189.752 197.837 189.826C197.911 189.9 197.911 190.011 197.837 190.084C196.474 191.45 195.332 192.962 194.448 194.623C191.169 200.711 191.242 207.647 194.595 214.178C200.011 224.324 195.442 232.552 189.842 240.78C178.384 257.088 168.474 286.2 186.269 332.394C186.305 332.505 186.269 332.578 186.158 332.615C186.158 332.615 186.158 332.615 186.121 332.615Z" fill="#911835"/>
<path fill-rule="evenodd" clip-rule="evenodd" d="M241.901 340.031C241.79 340.031 241.716 339.958 241.716 339.847C242.122 332.025 242.122 324.166 241.716 316.381C241.053 303.393 239.432 293.431 238.769 289.742C238.032 285.572 236.706 279.078 234.68 271.847C233.832 268.747 233.058 266.054 231.806 262.364C231.364 261.11 231.032 260.114 230.701 259.228C230.148 257.679 229.706 256.461 229.19 254.579C228.674 252.771 227.937 249.857 227.385 246.388C226.058 237.976 226.611 231.15 226.906 228.604C227.311 225.099 227.679 222.074 228.969 218.495C229.079 218.162 229.227 217.83 229.374 217.388C229.816 216.244 230.406 214.657 231.179 212.333C231.916 210.082 232.285 208.975 232.469 208.09C233.316 204.105 232.764 200.71 232.469 199.419C231.769 196.172 230.406 193.811 229.411 192.372C228.527 191.117 227.495 189.974 226.353 188.977C226.279 188.904 226.279 188.793 226.353 188.719C226.427 188.645 226.537 188.645 226.611 188.719C227.79 189.752 228.858 190.896 229.743 192.187C230.774 193.663 232.137 196.062 232.874 199.382C233.169 200.674 233.722 204.179 232.874 208.2C232.69 209.086 232.322 210.23 231.548 212.48C230.774 214.805 230.185 216.391 229.743 217.535C229.595 217.941 229.448 218.31 229.337 218.605C228.048 222.147 227.716 225.136 227.311 228.641C227.016 231.187 226.464 237.976 227.79 246.351C228.343 249.82 229.079 252.698 229.595 254.505C230.148 256.387 230.553 257.605 231.106 259.154C231.401 260.04 231.769 260.999 232.211 262.291C233.464 265.98 234.201 268.674 235.085 271.773C237.111 279.005 238.437 285.535 239.174 289.705C239.837 293.394 241.459 303.393 242.122 316.381C242.527 324.166 242.527 332.062 242.122 339.884C242.085 339.958 242.011 340.031 241.901 340.031Z" fill="#911835"/>
<path d="M210.143 475.142C214.306 468.058 233.98 400.611 238.069 380.835C241.496 368.327 242.638 364.637 245.438 356.446C249.859 342.942 259.733 340.396 268.464 341.872C277.748 343.459 282.133 352.092 283.164 354.159C288.322 364.969 282.427 377.219 281.212 382.126C280.143 384.709 265.517 436.585 236.117 491.561C229.743 483.259 216.516 476.876 210.143 475.142Z" fill="#2E4B77"/>
<path d="M277.271 346.266C280.661 349.292 282.503 352.944 283.129 354.162C288.287 364.973 282.393 377.222 281.177 382.129C280.108 384.712 265.482 436.589 236.082 491.564C234.866 489.978 233.429 488.465 231.845 487.063C243.561 468.393 277.382 391.095 281.435 363.46C282.54 354.678 279.961 351.358 277.271 346.266Z" fill="#174062"/>
<path d="M210.144 475.145C214.307 468.061 233.465 400.467 237.591 380.654C241.018 368.146 241.902 364.05 244.702 355.859C249.123 342.355 259.734 340.363 268.465 341.876C238.07 342.503 237.702 438.544 221.196 479.757C216.959 477.507 212.907 475.883 210.144 475.145Z" fill="#174062"/>
<path d="M236.043 491.712C236.007 491.712 235.933 491.675 235.896 491.638C231.475 486.214 225.249 481.676 217.401 478.06C217.291 478.023 217.254 477.913 217.327 477.802C217.364 477.691 217.475 477.654 217.585 477.728C225.47 481.344 231.733 485.956 236.228 491.38C236.301 491.454 236.264 491.564 236.191 491.638C236.117 491.712 236.08 491.712 236.043 491.712Z" fill="#828282" fill-opacity="0.3"/>
<path d="M235.307 379.953C235.749 380.506 236.449 381.318 236.338 382.167C236.191 383.237 235.233 383.458 234.128 385.045C233.686 385.672 232.986 386.705 232.912 388.07C232.875 388.882 233.059 389.62 233.354 390.21C233.723 390.985 233.649 391.944 233.059 392.608C232.802 392.904 232.58 393.236 232.433 393.641C231.917 394.896 232.249 396.003 232.433 397.552C232.58 398.733 232.617 400.393 232.286 402.533C234.017 399.914 235.196 397.552 236.044 395.671C238.181 390.874 240.575 385.45 238.254 382.093C237.444 380.949 236.081 380.248 235.307 379.953Z" fill="#174062"/>
<path d="M139.553 358.369C139.811 379.953 148.284 400.431 150.827 407.699C154.327 417.661 173.006 464.003 186.232 485.366C186.416 483.743 195.995 479.942 207.564 479.463C212.022 479.278 215.706 479.758 218.211 480.201C216.185 474.482 213.385 466.401 210.143 456.661C206.68 446.33 200.674 427.107 195.038 403.604C187.264 368.995 177.795 344.754 170.095 339.588C149.353 329.626 138.816 346.82 139.553 358.369Z" fill="#2E4B77"/>
<path d="M139.553 358.368C139.811 379.953 148.284 400.43 150.827 407.699C154.327 417.661 173.006 464.003 186.232 485.366C186.343 484.517 152.779 410.614 139.553 358.368Z" fill="#507BBC"/>
<path d="M219.021 473.707C218.948 472.673 218.653 469.906 216.958 466.881C215.632 464.519 214.711 464.224 213.016 461.937C211.874 460.387 210.4 457.952 209.442 454.41C209.442 454.484 209.442 454.52 209.442 454.594C201.668 430.796 191.426 390.284 189.916 380.063C184.905 353.793 178.2 341.949 169.689 338.444C162.8 335.64 156.426 337.005 153.884 337.706C180.705 346.783 195.258 446.256 208.484 479.315C209.626 479.204 214.821 479.425 218.174 480.163H218.211C218.211 480.127 218.211 480.127 218.174 480.09C218.69 478.724 219.242 476.474 219.021 473.707Z" fill="#174062"/>
<path d="M191.023 380.691C190.839 380.913 190.544 381.355 190.544 381.909C190.544 382.831 191.392 383.717 192.644 384.012C193.528 384.307 194.044 384.75 194.376 385.119C195.592 386.558 195.555 389.03 194.339 391.576C193.971 392.314 194.081 393.199 194.634 393.826C196.439 395.856 194.413 399.102 195.334 404.342C193.897 401.095 191.281 394.638 189.144 388.292C188.555 386.521 187.597 383.68 189.034 381.909C189.549 381.171 190.397 380.839 191.023 380.691Z" fill="#174062"/>
<path d="M186.27 485.513C186.233 485.513 186.196 485.513 186.159 485.476C186.085 485.402 186.049 485.292 186.122 485.218C186.601 484.554 187.522 483.853 188.591 483.336C189.954 482.524 198.022 479.13 209.37 479.13C212.612 479.093 215.449 479.499 218.101 479.868C218.212 479.868 218.286 479.979 218.249 480.089C218.249 480.2 218.138 480.274 218.028 480.237C215.412 479.868 212.575 479.462 209.37 479.499C198.096 479.499 190.138 482.82 188.775 483.631C187.743 484.148 186.859 484.812 186.417 485.439C186.38 485.513 186.343 485.513 186.27 485.513Z" fill="#828282" fill-opacity="0.3"/>
<path d="M197.652 187.575C197.909 192.741 197.983 196.984 197.909 200.821C197.946 202.26 197.467 203.182 196.952 203.736C196.399 204.326 196.288 205.212 196.694 205.876C201.336 213.698 209.81 214.141 212.057 214.141C214.71 214.141 223.589 213.919 228.378 205.728C228.82 204.99 228.636 204.031 227.973 203.441C227.273 202.813 226.536 201.928 226.499 200.489C226.426 195.729 226.536 191.745 226.573 187.243C216.994 187.354 207.194 187.465 197.652 187.575Z" fill="#F79797"/>
<path d="M197.651 187.575C197.799 190.748 197.909 195.36 197.909 195.36C199.125 196.91 200.415 198.349 201.778 199.714C204.062 201.928 207.12 203.109 210.288 203.109L213.825 203.072C217.067 203.035 220.162 201.743 222.373 199.382C224.067 197.611 225.615 195.803 226.462 194.733C226.499 192.261 226.536 189.863 226.573 187.28C216.994 187.354 207.194 187.465 197.651 187.575Z" fill="#828282" fill-opacity="0.3"/>
<path d="M232.284 164.625C232.947 162.965 233.868 160.419 234.494 157.172C235.268 153.187 236.005 149.276 234.494 144.886C233.979 143.447 232.763 139.831 229.336 137.875C227.752 136.953 226.242 136.732 225.247 136.658C224.694 135.551 223.994 134.407 223.036 133.337C218.136 127.803 210.657 128.282 208.889 128.43C208.042 128.577 206.973 128.651 205.794 128.504C202.257 128.098 199.826 126.032 198.757 124.999C198.61 125.7 198.499 126.622 198.499 127.618C198.499 129.168 198.794 130.459 199.089 131.382C197.726 131.271 195.92 131.345 193.931 131.898C188.368 133.522 185.347 138.06 184.389 139.61C184.941 139.499 185.568 139.425 186.268 139.425C187.778 139.425 189.031 139.72 189.952 140.052C189.031 140.643 187.815 141.565 186.783 143.041C184.057 146.878 184.499 151.379 184.647 152.523C184.904 152.228 185.273 151.933 185.715 151.638C186.82 150.937 187.889 150.863 188.478 150.863C188.257 151.97 188.073 153.298 188.073 154.737C188.036 159.57 189.731 163.297 190.836 165.326C204.652 165.068 218.468 164.847 232.284 164.625Z" fill="#32313A"/>
<path d="M193.342 163.961C193.269 163.924 192.09 163.445 191.021 164.035C190.211 164.478 189.769 165.363 189.879 166.249C189.879 167.393 190.469 173.37 190.763 174.846C191.095 176.432 192.753 176.875 193.674 176.543C193.563 172.337 193.453 168.167 193.342 163.961Z" fill="#828282" fill-opacity="0.3"/>
<path d="M230.001 164.034C230.075 163.998 231.217 163.518 232.286 164.071C233.096 164.514 233.538 165.363 233.428 166.285C233.428 167.429 232.912 173.406 232.654 174.882C232.47 176.579 230.701 176.948 229.78 176.616C229.891 172.41 229.964 168.241 230.001 164.034Z" fill="#828282" fill-opacity="0.3"/>
<path d="M194.006 154.737C193.122 158.389 192.938 165.658 193.048 172.927C193.159 180.638 196.143 188.017 201.338 193.699L202.959 195.47C204.948 197.647 207.749 198.865 210.696 198.865H212.87C215.854 198.865 218.691 197.61 220.68 195.397C221.196 194.843 221.712 194.253 222.264 193.662C227.533 187.87 230.443 180.269 230.443 172.447C230.407 166.912 230.222 160.714 229.633 156.213C229.007 151.564 224.954 148.501 224.107 148.132C222.08 146.583 222.412 144.664 222.375 144.221C221.97 144.848 221.307 145.66 220.275 146.435C218.359 147.874 216.406 148.132 214.012 148.39C212.317 148.575 209.849 148.686 206.901 148.28C205.87 148.058 202.664 147.579 199.164 149.276C195.812 150.789 194.522 153.814 194.006 154.737Z" fill="#F7B2B2"/>
<path d="M193.047 169.754C193.047 170.787 193.047 171.857 193.084 172.927C193.194 180.638 196.178 188.017 201.373 193.699L202.994 195.47C202.958 195.434 199.715 181.192 193.047 169.754Z" fill="#F79797"/>
<path d="M220.681 195.36C221.196 194.807 221.712 194.216 222.265 193.626C227.239 188.165 230.112 181.118 230.407 173.739C230.407 173.296 230.407 169.939 230.407 169.496C225.175 178.24 222.486 188.202 220.681 195.36Z" fill="#F79797"/>
<g style="mix-blend-mode:lighten">
<path d="M211.467 196.282C213.502 196.282 215.152 195.605 215.152 194.77C215.152 193.934 213.502 193.257 211.467 193.257C209.433 193.257 207.783 193.934 207.783 194.77C207.783 195.605 209.433 196.282 211.467 196.282Z" fill="white" fill-opacity="0.3"/>
</g>
<path d="M211.541 179.532C211.136 179.532 210.767 179.384 210.436 179.126L209.883 178.646C209.81 178.572 209.699 178.609 209.662 178.646C209.331 178.978 208.778 179.015 208.41 178.683L207.599 177.945C207.452 177.797 207.452 177.576 207.562 177.428C207.71 177.281 207.931 177.281 208.078 177.392L208.889 178.129C208.962 178.203 209.073 178.203 209.11 178.129C209.441 177.797 209.994 177.76 210.362 178.056L210.915 178.535C211.283 178.83 211.799 178.83 212.167 178.535L212.72 178.056C213.089 177.76 213.604 177.76 213.936 178.093C214.01 178.166 214.046 178.166 214.083 178.166C214.12 178.166 214.157 178.166 214.194 178.129L214.968 177.318C215.115 177.17 215.336 177.17 215.483 177.318C215.631 177.465 215.631 177.687 215.483 177.834L214.71 178.646C214.525 178.83 214.304 178.904 214.083 178.941C213.825 178.941 213.604 178.867 213.42 178.683C213.346 178.609 213.236 178.609 213.162 178.646L212.61 179.126C212.352 179.421 211.946 179.532 211.541 179.532Z" fill="#828282" fill-opacity="0.3"/>
<path d="M205.462 183.811C205.609 184.402 206.125 186.099 207.783 187.354C210.399 189.346 213.494 188.387 213.678 188.35C215.888 187.612 217.546 185.656 217.952 183.332C216.552 183.664 214.93 183.922 213.162 184.07C210.215 184.291 207.599 184.107 205.462 183.811Z" fill="white"/>
<path d="M211.062 184.549C210.214 184.549 209.33 184.512 208.483 184.401C207.083 184.253 205.683 183.958 204.32 183.552C204.135 183.479 204.025 183.294 204.062 183.11C204.099 182.925 204.32 182.814 204.504 182.851C205.83 183.22 207.157 183.515 208.52 183.663C211.983 184.032 215.483 183.626 218.909 182.445C219.093 182.372 219.315 182.482 219.388 182.667C219.462 182.851 219.351 183.073 219.167 183.147C216.515 184.106 213.788 184.549 211.062 184.549Z" fill="#828282" fill-opacity="0.3"/>
<path d="M196.842 161.932C197.948 161.858 199.09 161.784 200.195 161.71C200.711 161.673 201.227 161.747 201.742 161.895C203.069 162.301 204.874 162.854 206.09 163.223C206.642 163.371 207.195 163.039 207.048 162.596C206.827 161.784 206.053 161.12 205.021 160.862C204.506 160.714 203.916 160.566 203.363 160.419C202.111 160.087 200.711 160.124 199.495 160.566C198.574 160.899 197.653 161.231 196.695 161.6C196.474 161.636 196.548 161.932 196.842 161.932Z" fill="#353437"/>
<path d="M226.278 161.489C225.173 161.415 224.031 161.342 222.926 161.268C222.41 161.231 221.894 161.305 221.378 161.452C220.052 161.858 218.247 162.412 217.031 162.781C216.478 162.928 215.926 162.596 216.073 162.153C216.294 161.342 217.068 160.678 218.099 160.419C218.615 160.272 219.205 160.124 219.757 159.977C221.01 159.644 222.41 159.681 223.626 160.124C224.547 160.456 225.468 160.788 226.426 161.157C226.684 161.231 226.573 161.526 226.278 161.489Z" fill="#353437"/>
<path d="M204.248 166.507C204.322 167.503 203.511 168.389 202.48 168.463C201.448 168.536 200.564 167.762 200.49 166.728C202.259 166.876 202.811 166.765 204.248 166.507Z" fill="#353437"/>
<path d="M201.889 167.024C200.562 167.024 199.31 166.766 198.425 166.36C198.241 166.286 198.167 166.065 198.241 165.88C198.315 165.696 198.536 165.622 198.72 165.696C200.304 166.471 203.399 166.581 205.499 165.511C205.683 165.401 205.904 165.474 205.978 165.659C206.089 165.843 206.015 166.065 205.831 166.138C204.689 166.766 203.252 167.024 201.889 167.024Z" fill="#353437"/>
<path d="M218.762 166.507C218.689 167.503 219.499 168.389 220.531 168.463C221.562 168.536 222.447 167.762 222.52 166.728C220.752 166.876 220.199 166.765 218.762 166.507Z" fill="#353437"/>
<path d="M221.085 167.024C219.721 167.024 218.285 166.766 217.106 166.138C216.921 166.028 216.848 165.806 216.958 165.659C217.069 165.474 217.29 165.401 217.437 165.511C219.5 166.581 222.632 166.471 224.216 165.696C224.4 165.622 224.621 165.696 224.695 165.88C224.769 166.065 224.695 166.286 224.511 166.36C223.7 166.766 222.448 167.024 221.085 167.024Z" fill="#353437"/>
<path d="M212.869 214.399C212.132 214.399 211.543 214.363 211.1 214.326C209.627 214.215 207.195 214.067 204.358 212.85C200.674 211.263 198.279 208.644 196.916 206.725C196.842 206.651 196.879 206.54 196.953 206.467C197.027 206.393 197.137 206.43 197.211 206.504C198.537 208.385 200.895 210.931 204.469 212.481C207.232 213.698 209.664 213.846 211.1 213.92C212.427 213.994 215.19 214.178 218.543 213.108C221.122 212.296 222.927 211.079 223.811 210.451C225.469 209.197 226.906 207.684 228.011 205.913C228.048 205.839 228.195 205.803 228.269 205.839C228.343 205.876 228.38 206.024 228.343 206.098C227.201 207.906 225.764 209.455 224.069 210.71C223.185 211.374 221.306 212.591 218.69 213.44C216.406 214.252 214.379 214.399 212.869 214.399Z" fill="#A8ADBE"/>
<path fill-rule="evenodd" clip-rule="evenodd" d="M215.116 558.053C215.632 554.548 216 550.71 216.148 546.578C212.942 548.644 211.985 547.131 212.169 546.578C212.279 543.774 212.095 541.523 211.911 539.937C211.358 535.066 211.064 532.631 210.327 530.491C210.106 529.901 209.663 528.646 209.848 527.06C209.995 525.842 210.474 524.846 210.842 524.256C210.548 523.813 210.327 523.296 210.069 522.817C209.553 523.555 208.779 524.846 208.521 526.432C208.374 527.392 208.448 528.093 208.89 530.417C209.516 533.332 209.774 534.476 210.106 536.136C210.548 538.387 210.621 540.084 210.732 541.781C211.027 547.279 210.29 551.559 209.995 553.072C209.553 555.359 208.853 558.274 207.527 561.521C207.232 562.074 206.937 562.886 206.9 563.845C206.79 566.834 209.111 568.826 209.479 569.122C209.442 568.199 209.479 566.797 209.958 565.211C210.179 564.473 210.842 562.517 213.016 560.045C213.753 559.307 214.416 558.68 215.116 558.053Z" fill="#CF5B6F"/>
<path fill-rule="evenodd" clip-rule="evenodd" d="M216.187 546.578C212.981 548.644 212.023 547.131 212.208 546.578C212.318 543.774 212.134 541.523 211.95 539.937C211.397 535.066 211.102 532.631 210.365 530.491C210.144 529.901 209.702 528.646 209.887 527.06C210.034 525.842 210.513 524.846 210.881 524.256C210.587 523.813 210.365 523.296 210.108 522.817C209.592 523.555 208.818 524.846 208.56 526.432C208.413 527.392 208.487 528.167 208.929 530.454C209.002 530.712 209.039 530.971 209.113 531.229C209.665 533.554 209.997 536.026 210.218 538.276C210.292 539.162 210.402 539.973 210.439 540.785C210.697 544.807 210.587 548.054 210.513 549.013C210.402 550.304 211.765 550.969 213.239 550.489C214.602 550.083 216.113 548.57 216.187 546.578Z" fill="#A82248"/>
<path fill-rule="evenodd" clip-rule="evenodd" d="M211.764 545.766C211.764 544.807 211.764 543.811 211.727 542.778C211.506 537.28 210.622 532.373 209.517 528.277C209.369 527.798 209.185 526.986 209.406 525.99C209.811 524.108 211.285 523.112 211.875 522.743C212.611 522.263 214.638 520.935 216.664 521.784C218.285 522.485 218.875 524.145 218.985 524.551C219.243 525.51 219.575 526.875 219.832 528.499C220.238 530.934 220.754 533.738 220.459 537.243C220.275 539.641 219.98 542.445 218.138 545.028C216.996 546.615 215.817 547.426 215.338 547.648C213.753 548.386 211.69 548.902 211.764 545.766Z" fill="#A82248"/>
<path fill-rule="evenodd" clip-rule="evenodd" d="M246.028 528.535C244.075 522.743 240.17 519.311 238.659 517.983C237.222 516.729 235.675 515.659 235.491 515.511C234.349 514.736 233.28 514.109 232.433 513.666C232.543 514.625 232.617 516.692 231.438 517.466C230.996 517.762 230.554 517.725 229.117 517.577C224.806 517.208 216.259 517.835 218.064 523.702C218.285 524.772 222.154 536.284 217.475 545.176C216.517 546.615 215.817 547.242 214.527 547.943C214.196 552.518 213.643 556.429 212.906 560.192C212.943 560.119 213.017 560.082 213.054 560.008C214.859 557.979 216.738 556.687 219.685 554.99C224.438 552.223 245.143 542.519 247.022 532.41C246.801 530.491 246.359 529.495 246.028 528.535Z" fill="#CF5B6F"/>
<path d="M213.348 572C215.264 571.594 216.296 571.299 217.733 570.708C222.08 568.864 225.248 566.724 228.527 564.325C235.859 558.938 239.543 556.245 243.228 551.817C246.433 547.943 247.796 545.176 248.533 542.483C249.196 540.084 249.343 537.981 249.343 536.505C248.422 538.387 246.764 541.413 243.964 544.438C237.996 550.895 212.869 566.355 212.317 567.277C211.322 569.011 210.806 570.598 213.348 572Z" fill="#353437"/>
<path fill-rule="evenodd" clip-rule="evenodd" d="M247.022 532.41C245.364 540.822 227.864 549.714 222.006 553.182C208.338 560.857 208.153 560.562 207.048 563.07C206.495 564.805 207.527 569.527 213.311 571.999C210.99 570.339 211.911 569.011 214.085 567.609C216.259 566.207 229.964 557.757 234.127 554.953C234.385 554.806 237.848 552.444 242.048 548.902C244.406 546.91 246.248 545.176 247.685 542.445C248.348 541.154 248.754 539.973 248.975 539.162C249.159 538.571 249.38 537.686 249.306 536.616C249.122 534.217 247.464 532.779 247.022 532.41Z" fill="#A82248"/>
<path fill-rule="evenodd" clip-rule="evenodd" d="M209.074 557.057C210.142 556.356 211.1 555.691 212.168 554.953C213.2 554.289 214.195 553.588 215.226 552.924C216.147 552.297 217.363 552.408 218.211 553.146C218.211 553.146 218.211 553.146 218.247 553.146C219.168 553.92 220.605 553.994 221.858 553.256C219.905 554.511 217.953 555.765 215.963 557.13C212.795 559.27 209.884 561.3 206.974 563.44C206.974 562.443 207.563 561.632 207.932 560.562C208.337 559.381 208.779 558.2 209.074 557.057Z" fill="#A82248"/>
<path fill-rule="evenodd" clip-rule="evenodd" d="M239.36 527.761C236.559 527.023 233.023 526.322 228.896 526.137C225.617 525.99 222.707 526.174 220.238 526.469C220.57 528.646 220.901 530.823 221.233 533C223.444 532.816 225.912 532.705 228.602 532.853C234.496 533.111 239.507 534.365 243.302 535.62C241.975 533 240.686 530.38 239.36 527.761Z" fill="#A82248"/>
<path fill-rule="evenodd" clip-rule="evenodd" d="M242.97 539.051C240.281 538.313 237.149 537.686 233.649 537.243C228.933 536.69 224.733 536.69 221.233 536.911C220.901 538.719 220.57 540.527 220.238 542.298C222.633 542.113 225.433 542.04 228.565 542.298C231.954 542.556 234.938 543.146 237.37 543.774C238.475 543.036 239.728 542.113 240.981 541.006C241.754 540.342 242.381 539.678 242.97 539.051Z" fill="#A82248"/>
<path fill-rule="evenodd" clip-rule="evenodd" d="M234.274 514.662C234.68 516.323 235.159 518.057 235.748 519.791C238.032 526.912 241.201 532.815 244.259 537.538C244.738 536.985 246.469 534.918 247.022 532.409C246.948 531.782 246.801 530.934 246.543 529.974C245.659 526.654 244.185 524.403 243.375 523.185C240.317 518.61 236.043 515.769 234.274 514.662Z" fill="#A82248"/>
<path fill-rule="evenodd" clip-rule="evenodd" d="M213.164 550.563C213.496 550.526 220.975 549.308 222.043 537.464C222.706 529.901 220.68 522.226 219.648 519.053C218.764 519.68 217.733 520.787 217.88 522.558C217.917 522.964 218.433 524.883 218.469 524.993C218.801 526.063 220.238 532.52 219.28 539.826C218.838 542.113 217.88 547.131 213.569 548.201C213.422 548.718 213.201 550.083 213.164 550.563Z" fill="#A82248"/>
<path fill-rule="evenodd" clip-rule="evenodd" d="M210.548 543.7C210.695 543.811 210.917 543.995 211.064 544.253C211.286 544.807 211.101 545.508 210.585 546.024C210.585 545.139 210.585 544.512 210.548 543.7Z" fill="white"/>
<path fill-rule="evenodd" clip-rule="evenodd" d="M210.217 538.313C210.401 538.424 210.66 538.572 210.807 538.94C211.102 539.531 210.955 540.269 210.401 540.859C210.327 539.974 210.291 539.162 210.217 538.313Z" fill="white"/>
<path fill-rule="evenodd" clip-rule="evenodd" d="M209.629 533.885C209.74 533.922 210.293 534.143 210.441 534.697C210.625 535.213 210.404 535.804 209.961 536.173C209.887 535.619 209.666 534.106 209.629 533.885Z" fill="white"/>
<path fill-rule="evenodd" clip-rule="evenodd" d="M208.636 528.905C208.746 528.941 208.968 529.052 209.189 529.31C209.263 529.421 209.632 529.827 209.521 530.417C209.447 530.823 209.189 531.081 209.078 531.192C208.968 530.676 208.857 530.159 208.746 529.569C208.71 529.347 208.673 529.126 208.636 528.905Z" fill="white"/>
<path d="M220.938 541.615C221.069 540.934 220.769 540.304 220.268 540.208C219.767 540.112 219.256 540.585 219.125 541.266C218.995 541.946 219.295 542.576 219.795 542.672C220.296 542.768 220.808 542.295 220.938 541.615Z" fill="white"/>
<path d="M221.702 535.941C221.786 535.253 221.443 534.646 220.937 534.584C220.431 534.522 219.953 535.03 219.869 535.718C219.786 536.405 220.128 537.013 220.634 537.075C221.141 537.137 221.619 536.629 221.702 535.941Z" fill="white"/>
<path d="M220.665 531.909C221.173 531.875 221.548 531.287 221.502 530.595C221.456 529.904 221.006 529.371 220.497 529.405C219.989 529.439 219.614 530.027 219.66 530.719C219.706 531.41 220.156 531.943 220.665 531.909Z" fill="white"/>
<path d="M220.029 526.713C220.533 526.636 220.857 526.018 220.752 525.333C220.647 524.648 220.153 524.156 219.649 524.233C219.145 524.311 218.821 524.929 218.926 525.613C219.031 526.298 219.525 526.791 220.029 526.713Z" fill="white"/>
<path fill-rule="evenodd" clip-rule="evenodd" d="M211.027 544.954C210.99 544.954 210.916 544.918 210.879 544.881C210.806 544.807 210.806 544.696 210.916 544.622C212.795 542.999 218.432 541.117 219.98 540.97C220.09 540.97 220.164 541.043 220.164 541.117C220.164 541.228 220.09 541.302 220.016 541.302C218.543 541.449 212.943 543.294 211.174 544.844C211.101 544.954 211.064 544.954 211.027 544.954Z" fill="white"/>
<path fill-rule="evenodd" clip-rule="evenodd" d="M210.807 539.789C210.77 539.789 210.696 539.752 210.659 539.715C210.586 539.641 210.622 539.531 210.696 539.457C212.575 537.981 218.654 535.767 220.791 535.435C220.901 535.435 220.975 535.472 221.012 535.583C221.012 535.693 220.938 535.767 220.865 535.804C218.838 536.099 212.759 538.313 210.954 539.752C210.88 539.789 210.844 539.789 210.807 539.789Z" fill="white"/>
<path fill-rule="evenodd" clip-rule="evenodd" d="M210.291 534.956C210.254 534.956 210.181 534.919 210.144 534.882C210.07 534.808 210.107 534.698 210.181 534.624C212.686 532.594 218.617 530.454 220.57 530.233C220.681 530.233 220.754 530.307 220.791 530.381C220.791 530.491 220.717 530.565 220.644 530.602C218.765 530.823 212.833 532.963 210.438 534.919C210.365 534.956 210.328 534.956 210.291 534.956Z" fill="white"/>
<path fill-rule="evenodd" clip-rule="evenodd" d="M209.225 530.159C209.188 530.159 209.151 530.159 209.114 530.122C209.04 530.048 209.004 529.938 209.077 529.864C210.293 528.277 217.956 525.473 219.762 525.252C219.872 525.252 219.946 525.326 219.983 525.399C219.983 525.51 219.909 525.584 219.835 525.621C217.846 525.879 210.477 528.72 209.372 530.122C209.335 530.122 209.298 530.159 209.225 530.159Z" fill="white"/>
<path fill-rule="evenodd" clip-rule="evenodd" d="M233.761 530.86C232.729 530.86 231.587 530.528 230.519 529.716C228.308 528.277 225.913 527.17 223.408 526.469C221.861 526.063 220.313 525.768 218.692 525.657C218.618 525.657 218.582 525.62 218.545 525.547C218.508 525.473 218.508 525.399 218.582 525.362C219.503 524.108 220.645 523.038 221.897 522.226C226.024 519.496 232.434 518.647 236.008 521.931C237.887 523.886 239.361 526.986 237.261 529.384C236.413 530.232 235.161 530.86 233.761 530.86ZM219.061 525.288C220.571 525.436 222.045 525.694 223.482 526.1C226.061 526.801 228.492 527.908 230.74 529.384C233.061 531.155 235.64 530.528 236.966 529.089C238.219 527.65 238.587 525.067 235.75 522.152C233.024 519.68 227.203 519.163 222.082 522.521C220.939 523.259 219.945 524.181 219.061 525.288Z" fill="white"/>
<path fill-rule="evenodd" clip-rule="evenodd" d="M229.893 536.173C228.788 536.173 227.793 535.841 227.13 535.619C221.972 533.848 219.54 527.945 218.767 525.51C218.73 525.436 218.767 525.325 218.877 525.288C220.646 524.587 223.372 523.886 226.504 524.55C229.93 525.288 234.72 527.871 234.72 531.339C234.72 533.073 233.614 534.844 231.993 535.693C231.33 536.062 230.593 536.173 229.893 536.173ZM219.172 525.583C219.983 528.056 222.34 533.59 227.241 535.287C228.235 535.619 230.114 536.283 231.846 535.361C233.32 534.623 234.351 532.926 234.351 531.339C234.351 528.056 229.709 525.583 226.393 524.882C223.483 524.292 220.904 524.919 219.172 525.583Z" fill="white"/>
<path fill-rule="evenodd" clip-rule="evenodd" d="M225.285 545.618C225.248 545.618 225.248 545.618 225.211 545.618C223.443 544.77 220.164 542.74 218.248 538.645C216.811 535.582 216.59 532.151 217.511 528.461C217.806 527.318 218.211 526.211 218.764 525.141C218.801 525.067 218.911 525.03 219.022 525.067C219.096 525.104 219.132 525.215 219.096 525.325C218.58 526.358 218.175 527.428 217.88 528.572C216.959 532.188 217.217 535.509 218.617 538.497C220.459 542.445 223.664 544.438 225.396 545.286C225.469 545.323 225.543 545.434 225.469 545.544C225.432 545.581 225.359 545.618 225.285 545.618Z" fill="white"/>
<path fill-rule="evenodd" clip-rule="evenodd" d="M236.305 536.21C229.71 536.21 224.663 531.672 222.931 530.085C221.384 528.683 219.984 527.06 218.805 525.289C218.731 525.215 218.768 525.104 218.842 525.03C218.915 524.994 219.026 524.994 219.1 525.067C220.242 526.801 221.605 528.388 223.152 529.79C225.031 531.487 230.705 536.579 237.963 535.73C239.879 535.509 241.794 534.845 243.6 533.775C243.673 533.738 243.784 533.738 243.858 533.849C243.895 533.923 243.895 534.033 243.784 534.107C241.942 535.177 239.989 535.841 238 536.099C237.447 536.173 236.858 536.21 236.305 536.21Z" fill="white"/>
<path fill-rule="evenodd" clip-rule="evenodd" d="M147.4 275.168L148.69 274.061C148.985 273.803 149.316 273.692 149.685 273.692H275.317C275.833 273.692 276.312 273.877 276.681 274.246C277.012 274.541 277.344 274.873 277.675 275.168H147.4Z" fill="#087CB6"/>
<path fill-rule="evenodd" clip-rule="evenodd" d="M271.927 339.59C274.027 318.522 276.127 297.454 278.227 276.423C278.301 275.649 277.748 274.984 277.048 274.984H148.1C147.4 274.984 146.847 275.649 146.921 276.423C149.094 297.491 151.231 318.559 153.405 339.59C153.479 340.254 153.994 340.771 154.584 340.771H270.748C271.375 340.734 271.89 340.254 271.927 339.59Z" fill="#DCF8FF"/>
<path fill-rule="evenodd" clip-rule="evenodd" d="M271.927 339.59C274.027 318.522 276.127 297.454 278.227 276.423C278.301 275.649 277.748 274.984 277.048 274.984H256.306C208.153 331.178 189.289 305.608 152.263 328.558C152.631 332.248 153.036 335.937 153.405 339.627C153.478 340.291 153.994 340.808 154.584 340.808H270.748C271.374 340.734 271.89 340.254 271.927 339.59Z" fill="#A0CAD9"/>
<path fill-rule="evenodd" clip-rule="evenodd" d="M270.306 344.055H154.952C154.068 344.055 153.368 343.354 153.368 342.468V342.32C153.368 341.435 154.068 340.734 154.952 340.734H270.306C271.19 340.734 271.89 341.435 271.89 342.32V342.468C271.854 343.354 271.154 344.055 270.306 344.055Z" fill="#087CB6"/>
<path d="M213.974 314.094C217.596 314.094 220.532 312.062 220.532 309.556C220.532 307.049 217.596 305.018 213.974 305.018C210.352 305.018 207.416 307.049 207.416 309.556C207.416 312.062 210.352 314.094 213.974 314.094Z" fill="#087CB6"/>
<path fill-rule="evenodd" clip-rule="evenodd" d="M213.974 305.018C210.363 305.018 207.416 307.047 207.416 309.556C207.416 310.404 207.748 311.216 208.374 311.917C211.911 310.7 215.595 309.15 219.463 307.084C218.285 305.829 216.258 305.018 213.974 305.018Z" fill="#6AB4CE"/>
<path d="M255.938 9.69868L205.427 22.5017V31.9472C205.206 32.7958 205.575 33.7182 206.533 34.1241L255.607 54.3064C256.823 54.823 258.149 53.9006 258.149 52.6092V11.1376C258.186 9.77247 257.154 9.18213 255.938 9.69868Z" fill="#A8ADBE"/>
<path fill-rule="evenodd" clip-rule="evenodd" d="M255.644 0.622294L206.569 20.9153C205.059 21.5426 205.059 23.6826 206.569 24.3098L255.644 44.6028C256.859 45.1194 258.186 44.197 258.186 42.9056V2.31953C258.186 1.02815 256.859 0.105744 255.644 0.622294Z" fill="white"/>
<path d="M387.853 322.001L385.532 317.278L358.084 331.889L360.295 336.907C360.405 337.091 360.589 337.276 360.884 337.386L385.937 347.976C386.821 348.308 387.595 347.828 387.669 346.869L388 322.443C387.963 322.296 387.926 322.111 387.853 322.001Z" fill="#A8ADBE"/>
<path fill-rule="evenodd" clip-rule="evenodd" d="M384.205 316.909L358.489 330.634C357.715 331.04 357.789 332.147 358.563 332.479L383.689 342.921C384.353 343.179 385.089 342.736 385.089 341.998L385.642 317.831C385.716 317.056 384.905 316.54 384.205 316.909Z" fill="white"/>
<path d="M23.8296 146.4L21.0664 165.586L24.3085 166.915C24.5664 167.099 24.9349 167.099 25.1928 166.841L39.0824 152.783C39.414 152.451 39.3034 151.861 38.8613 151.676L24.6401 145.81C24.198 145.625 23.8296 145.884 23.8296 146.4Z" fill="#A8ADBE"/>
<path fill-rule="evenodd" clip-rule="evenodd" d="M20.6992 145.182L20.7361 164.959C20.7361 165.586 21.4729 165.881 21.915 165.439L35.8415 151.418C36.1731 151.086 36.0625 150.495 35.6204 150.311L21.6203 144.555C21.1782 144.371 20.6992 144.703 20.6992 145.182Z" fill="white"/>
</svg>
