<svg width="200" height="356" viewBox="0 0 200 356" fill="none" xmlns="http://www.w3.org/2000/svg">
<path fill-rule="evenodd" clip-rule="evenodd" d="M124.109 338.353C157.189 336.447 180.249 332.161 180.249 327.179C180.249 320.427 137.886 314.952 85.6297 314.952C33.3731 314.952 -8.98926 320.427 -8.98926 327.179C-8.98926 333.35 26.3869 338.453 72.362 339.287C72.3937 339.319 72.4253 339.351 72.4566 339.383C74.2236 341.153 78.8364 345.359 86.2031 347.91C87.5757 348.391 90.3465 350.067 92.4248 351.324C93.1264 351.748 93.749 352.125 94.2123 352.391C100.787 351.731 115.37 344.768 124.109 338.353Z" fill="#8EA2C0" fill-opacity="0.48"/>
<path d="M102.956 346.692C115.165 339.958 125.102 332.948 130.587 326.49C121.751 326.03 112.893 325.57 104.058 325.111C104.264 331.132 102.773 340.693 102.956 346.692Z" fill="#353437"/>
<path d="M87.1676 334.557C118.397 334.557 143.714 330.812 143.714 326.191C143.714 321.571 118.397 317.826 87.1676 317.826C55.9378 317.826 30.6211 321.571 30.6211 326.191C30.6211 330.812 55.9378 334.557 87.1676 334.557Z" fill="#353437"/>
<path d="M83.6797 310.333V262.805H91.3217V310.264L83.6797 310.333Z" fill="white" fill-opacity="0.48"/>
<path d="M140.593 325.18C104.38 329.869 69.0154 329.662 34.3623 325.18C33.4214 325.18 32.6641 324.422 32.6641 323.479V321.089C32.6641 320.262 33.2378 319.572 34.064 319.411L82.9225 310.471C83.0143 310.448 83.129 310.448 83.2208 310.448H91.4595C91.5513 310.448 91.6661 310.448 91.7579 310.471L140.892 319.136C141.695 319.274 142.292 319.986 142.292 320.813V323.502C142.292 324.422 141.534 325.18 140.593 325.18Z" fill="#ADB6C4"/>
<g style="mix-blend-mode:lighten">
<path d="M140.593 325.18C104.38 329.869 69.0154 329.662 34.3623 325.18C33.4214 325.18 32.6641 324.422 32.6641 323.479V321.089C32.6641 320.262 33.2378 319.572 34.064 319.411L82.9225 310.471C83.0143 310.448 83.129 310.448 83.2208 310.448H91.4595C91.5513 310.448 91.6661 310.448 91.7579 310.471L140.892 319.136C141.695 319.274 142.292 319.986 142.292 320.813V323.502C142.292 324.422 141.534 325.18 140.593 325.18Z" fill="white"/>
</g>
<path d="M140.157 321.962C133.662 325.272 112.526 327.685 87.4659 327.685C62.3596 327.685 41.2006 325.249 34.7519 321.939C34.6601 321.893 33.1226 321.135 32.8931 320.308C32.7324 320.514 32.6865 321.02 32.6865 321.02C32.6865 321.02 32.6865 323.02 32.6865 323.617C32.6865 327.961 57.242 331.661 87.4888 331.661C117.736 331.661 142.314 328.076 142.314 323.732C142.36 323.203 142.314 321.801 142.314 320.491C142.291 320.377 142.245 320.262 142.199 320.17C141.74 321.066 140.524 321.755 140.157 321.962Z" fill="#A8ADBE"/>
<path d="M131.459 269.056C137.701 269.056 143.301 265.149 145.481 259.289C149.084 249.521 154.339 234.766 156.382 226.171C158.286 218.15 155.464 209.738 149.13 204.475L140.478 197.305C137.977 195.236 136.508 192.134 136.485 188.893L136.347 158.188C136.347 157.016 136.806 155.913 137.609 155.085C141.281 151.339 144.953 147.593 148.625 143.847C149.428 143.02 149.887 141.916 149.887 140.744V109.557C149.566 102.731 141.786 101.421 139.078 104.156L129.325 117.233C126.823 119.738 123.473 121.14 119.962 121.14H62.589C59.422 121.14 56.3468 119.991 53.9372 117.9L39.3186 102.731C33.2142 100.479 29.1292 104.294 29.1292 108.04V140.974C29.1292 142.077 29.5423 143.135 30.2767 143.962L40.3972 155.131C41.1316 155.936 41.5447 156.993 41.5447 158.096C41.5906 167.312 41.6594 180.068 41.7053 187.376C41.7283 191.007 40.053 194.455 37.1844 196.684L29.244 202.843C23.0477 207.647 19.9267 215.461 21.0971 223.229C22.4052 231.871 26.0082 247.2 28.6014 257.726C30.2537 264.414 36.2434 269.125 43.1282 269.125L131.459 269.056Z" fill="#8BB8D8"/>
<path d="M43.4958 254.348L134.007 255.015C136.669 255.015 139.124 253.59 140.433 251.268C145.16 242.834 148.258 234.008 150.37 224.953C152.16 217.3 149.199 209.325 142.911 204.637C141.626 203.671 140.295 202.752 138.941 201.879C135.085 199.397 132.699 195.145 132.699 190.548V153.707C132.699 152.65 133.112 151.639 133.869 150.903C137.266 147.502 140.639 144.123 144.036 140.722C144.77 139.986 145.206 138.975 145.206 137.918V107.443C145.206 103.927 140.96 102.157 138.459 104.616L126.25 116.659C123.955 118.934 120.857 120.198 117.621 120.198H64.6319C61.7174 120.198 58.8717 119.164 56.6456 117.257L40.3059 103.306C37.7356 101.123 33.7654 102.938 33.7654 106.317V138.125C33.7654 139.113 34.1326 140.078 34.8211 140.814L44.1613 150.926C44.8269 151.662 45.217 152.604 45.217 153.592C45.2859 165.934 45.3317 178.252 45.4006 190.594C45.4235 194.938 43.3581 199.029 39.824 201.557C37.7815 203.028 35.8767 204.545 34.1097 206.107C29.6117 210.129 27.1561 215.99 27.5462 222.011C28.1888 232.354 30.1395 239.961 33.9261 248.625C36.2669 252.831 40.5583 254.348 43.4958 254.348Z" fill="#5287AD"/>
<path d="M104.287 183.286C108.602 184.55 121.407 188.48 130.38 201.396C139.257 214.161 138.72 227.49 138.397 231.565C138.481 231.581 138.564 231.599 138.645 231.619L138.734 231.618C138.727 231.624 138.72 231.63 138.713 231.636C140.016 231.962 141.017 232.646 141.694 233.687C144.517 237.915 141.258 246.879 139.743 250.533C138.55 253.383 135.796 255.221 132.698 255.221H132.652L44.7114 254.601C41.4526 254.578 38.5611 252.486 37.5283 249.384C36.5645 246.534 35.9449 243.592 35.8072 241.064C35.6236 237.938 36.1514 235.525 37.3218 233.87C38.4528 232.294 40.1837 231.468 42.4525 231.414C42.0047 231.413 41.5565 231.412 41.1084 231.411C40.7183 227.918 40.5576 222.563 42.0264 216.289C42.1641 215.76 44.5049 206.13 50.9535 198.178C62.5199 183.883 85.0329 177.678 104.287 183.286ZM41.2244 231.991L41.1981 231.995C39.6841 232.266 38.493 232.983 37.666 234.146C35.2334 237.548 36.2203 244.167 37.9414 249.246C38.9282 252.165 41.6362 254.141 44.7114 254.164H45.0097L132.629 254.785H132.675C135.59 254.785 138.183 253.061 139.307 250.372C140.799 246.787 143.989 238.007 141.304 233.939C140.622 232.915 139.597 232.271 138.24 232.007C131.782 236.835 115.688 238.974 90.403 239.042C75.6441 239.56 47.784 236.257 41.2244 231.991Z" fill="#2D638A"/>
<path d="M105.069 233.158H75.1891C69.406 233.158 64.3113 229.274 62.7966 223.689L59.1018 210.221C57.8167 205.509 61.3508 200.844 66.239 200.844H113.285C118.012 200.844 121.523 205.211 120.513 209.83L117.645 223.022C116.36 228.929 111.127 233.158 105.069 233.158Z" fill="#174062"/>
<path d="M77.0478 238.811C76.1299 235.984 80.1459 235.111 80.4902 235.065C83.3129 234.307 85.8373 234.789 88.9584 232.767C89.3026 230.078 89.5092 226.998 89.4174 223.597C89.2338 217.116 88.2929 212.427 86.9848 208.313C83.8178 207.67 78.4477 206.819 74.3169 206.773C64.2652 206.681 57.4723 208.773 52.1022 210.979C50.7253 211.807 49.2336 213.048 48.2009 214.886C44.552 221.413 48.8664 231.824 55.7511 236.904C64.5865 243.408 75.9922 239.202 77.0478 238.811Z" fill="#174062"/>
<path d="M92.3776 209.163C91.5514 212.404 90.817 216.426 90.5416 221.091C90.2892 225.642 90.5646 229.618 91.0006 232.859C91.9415 233.41 92.7906 233.732 93.4332 233.939C95.9576 234.697 97.151 234.031 100.616 234.697C101.993 234.973 102.728 235.249 103.21 235.456C104.472 236.03 105.39 236.766 105.963 237.294C107.34 237.984 109.475 238.903 112.228 239.432C114.179 239.822 122.257 241.385 128.867 236.536C130.129 235.594 132.676 233.686 134.053 230.124C135.614 226.079 134.742 222.401 134.214 220.793C134.214 220.793 133.066 217.253 129.785 214.22C124.598 209.393 110.416 207.118 92.3776 209.163Z" fill="#174062"/>
<path d="M75.6016 300.152C74.2247 301.278 74.2935 301.6 74.2935 302.014C74.3165 302.473 75.9 302.657 76.8868 302.657C80.7193 302.22 91.2299 302.611 96.1181 300.773C95.0624 298.957 93.8461 297.992 93.0659 297.486C89.5317 295.188 77.69 298.428 75.6016 300.152Z" fill="#174062"/>
<path d="M106.88 302.565C104.906 306.219 102.336 310.356 98.9393 314.631C96.5526 317.641 94.1659 320.238 91.9169 322.422C91.4809 322.881 89.8286 324.536 87.6484 324.398C84.8486 324.237 82.0947 321.181 82.0029 316.906C83.7241 313.849 85.4682 310.724 87.1894 307.575C89.3925 303.576 91.5268 299.6 93.5922 295.647C98.0443 297.968 102.451 300.266 106.88 302.565Z" fill="#F79797"/>
<path fill-rule="evenodd" clip-rule="evenodd" d="M103.76 320.216C103.6 320.032 103.255 319.687 102.682 319.526C101.511 319.204 100.547 320.078 100.478 320.147C100.18 320.377 99.8589 320.652 99.5605 320.997C98.2065 322.537 98 324.399 97.9541 325.272C99.8589 326.099 102.016 325.594 103.141 324.123C104.426 322.468 103.829 320.4 103.76 320.216Z" fill="#A82248"/>
<path fill-rule="evenodd" clip-rule="evenodd" d="M82.233 328.398C81.9347 328.076 81.2462 327.294 81.0856 326.099C80.9249 324.835 81.4298 323.847 81.7052 323.341C82.233 322.33 82.692 322.192 83.4493 321.135C84.1148 320.193 84.023 319.457 84.2066 318.837C84.4361 318.699 85.2393 318.4 85.6524 318.308C86.731 318.055 88.2227 318.193 89.3931 319.227C90.9766 320.629 90.793 322.629 90.7701 322.813C90.5635 323.847 90.2652 325.295 89.7833 327.019C88.7735 330.581 88.2686 330.949 88.0391 331.064C86.0655 332.121 82.4396 328.604 82.233 328.398Z" fill="#A82248"/>
<path d="M66.6738 330.42C66.9033 333.775 72.3422 339.889 74.3847 341.75C76.1518 343.175 80.7645 347.082 83.5873 346.991C84.9183 342.279 78.5155 336.074 77.5517 335.063C71.2866 329.064 67.2705 328.903 66.6738 330.42Z" fill="#353437"/>
<path fill-rule="evenodd" clip-rule="evenodd" d="M68.5775 327.018C68.0727 327.363 67.7284 327.731 67.4989 328.007C67.2006 328.397 66.5121 329.317 66.6498 330.443C67.5219 329.202 73.7181 331.569 77.1146 335.338C78.4456 336.717 83.0584 342.417 83.5633 346.99C83.9764 346.99 84.4353 346.921 84.8943 346.737C86.1336 346.209 86.6155 345.45 86.7302 345.198C86.845 344.439 86.9597 343.06 86.8909 341.75C86.4778 335.568 81.9339 331.592 81.0159 330.811C75.8524 326.513 69.8397 326.903 68.5775 327.018Z" fill="#A82248"/>
<path fill-rule="evenodd" clip-rule="evenodd" d="M82.164 314.677C83.0131 315.206 83.8392 316.125 84.2982 316.953C84.9867 318.217 85.9276 320.354 83.3114 322.56C83.3114 322.56 81.0624 324.008 82.3476 326.123C82.5311 326.513 84.6425 329.087 85.3309 329.547C86.3177 330.214 86.8226 330.214 87.6029 329.823C88.9339 328.605 89.5077 326.467 89.5077 323.87C90.1732 322.905 92.1239 322.101 92.2616 327.846C92.2845 334.327 92.2845 337.568 90.4256 340.831C89.806 341.935 88.6815 343.566 86.7538 345.198C86.6161 344.003 86.3177 342.302 85.6063 340.372C83.6786 335.178 80.1215 332.282 78.7446 331.202C77.184 329.961 74.958 328.237 71.5615 327.525C70.2075 327.249 69.083 327.203 68.2568 327.226C68.7158 326.582 69.4502 325.594 70.6435 324.56C73.9941 321.595 76.4267 321.388 79.6855 318.538C80.3969 317.918 81.4525 316.355 82.164 314.677Z" fill="#CF5B6F"/>
<path fill-rule="evenodd" clip-rule="evenodd" d="M84.3436 316.929C84.9632 319.756 81.4291 321.893 80.7177 323.043C80.1669 323.893 80.2128 324.743 80.4652 325.594C80.7406 326.536 82.2094 328.834 84.6649 331.018C85.4452 331.73 87.8548 332.006 88.7039 330.351C88.5892 330.029 88.3827 329.317 88.2679 328.995C88.1991 329.11 87.9237 329.547 87.5565 329.776C86.3402 330.466 85.055 329.34 84.8944 329.202C83.7699 328.053 83.0814 327.156 82.9208 326.95C82.37 326.237 81.5438 324.582 82.6224 323.249C82.829 322.997 83.9535 322.054 84.2977 321.618C84.4813 321.388 85.0321 320.675 85.1009 319.641C85.1698 318.676 84.5272 317.251 84.3436 316.929Z" fill="#A82248"/>
<path fill-rule="evenodd" clip-rule="evenodd" d="M70.001 327.317C70.8042 326.605 74.5449 323.043 81.4984 323.502C81.9804 323.089 83.495 321.365 83.6557 321.204C82.6 321.089 81.3837 321.043 80.0297 321.135C76.748 321.365 75.0268 321.756 73.2827 322.606C72.5254 323.066 70.6894 324.353 69.7485 325.364C69.2207 325.961 68.5781 326.697 68.2568 327.225C68.4634 327.248 69.2436 327.248 70.001 327.317Z" fill="#A82248"/>
<path fill-rule="evenodd" clip-rule="evenodd" d="M77.0449 320.468C77.8711 320.33 78.7891 320.216 79.7759 320.17C81.4282 320.078 82.9199 320.147 84.1821 320.307C84.2968 320.147 84.4575 319.917 84.5722 319.618C84.7558 319.135 84.7788 318.676 84.7558 318.423C84.1821 318.377 83.5625 318.331 82.9199 318.285C81.8872 318.239 80.9004 318.239 80.0054 318.285C79.73 318.561 79.4087 318.837 79.0644 319.135C78.3301 319.687 77.6645 320.124 77.0449 320.468Z" fill="#A82248"/>
<path fill-rule="evenodd" clip-rule="evenodd" d="M73.5117 328.076C73.8789 328.351 77.2754 329.202 78.8818 328.512C79.6621 328.099 80.6259 328.26 81.2455 328.903C81.6357 329.317 83.8158 331.891 84.3896 332.373C85.0551 332.925 84.8944 333.936 84.5961 334.741C84.0224 336.487 84.4355 337.728 84.665 338.464C83.0126 336.993 81.3373 335.43 79.6391 333.798C77.6425 331.914 75.2788 329.937 73.5117 328.076Z" fill="#A82248"/>
<path d="M82.4661 323.115C82.6483 322.855 82.5767 322.491 82.3064 322.301C82.036 322.112 81.6691 322.17 81.487 322.43C81.3049 322.69 81.3764 323.055 81.6468 323.244C81.9172 323.433 82.284 323.375 82.4661 323.115Z" fill="white"/>
<path d="M83.595 321.939C83.792 321.69 83.7496 321.328 83.5004 321.131C83.2513 320.934 82.8896 320.976 82.6926 321.226C82.4956 321.475 82.5379 321.836 82.7871 322.033C83.0363 322.23 83.398 322.188 83.595 321.939Z" fill="white"/>
<path d="M84.4968 320.912C84.6777 320.651 84.6129 320.293 84.352 320.111C84.0912 319.93 83.7331 319.995 83.5522 320.256C83.3713 320.517 83.4361 320.876 83.6969 321.057C83.9577 321.238 84.3159 321.174 84.4968 320.912Z" fill="white"/>
<path d="M85.076 319.85C85.2553 319.587 85.1882 319.229 84.9263 319.049C84.6643 318.87 84.3066 318.937 84.1273 319.199C83.9481 319.461 84.0151 319.819 84.2771 319.999C84.5391 320.179 84.8968 320.112 85.076 319.85Z" fill="white"/>
<path fill-rule="evenodd" clip-rule="evenodd" d="M88.4309 329.754C88.385 329.754 88.362 329.731 88.3391 329.685C86.7097 326.697 84.0476 324.491 82.6018 323.296C82.3723 323.089 82.1658 322.928 82.0051 322.79C81.9592 322.744 81.9592 322.675 82.0051 322.629C82.051 322.583 82.1199 322.583 82.1658 322.629C82.3264 322.767 82.51 322.928 82.7624 323.135C84.2082 324.33 86.9162 326.559 88.5456 329.593C88.5685 329.639 88.5456 329.708 88.4997 329.754C88.4538 329.754 88.4309 329.754 88.4309 329.754Z" fill="white"/>
<path fill-rule="evenodd" clip-rule="evenodd" d="M89.3249 328.236C89.279 328.236 89.2331 328.213 89.2331 328.168C87.9021 325.593 85.0334 323.249 83.6565 322.1C83.427 321.916 83.2205 321.755 83.1057 321.64C83.0598 321.594 83.0598 321.526 83.1057 321.48C83.1516 321.434 83.2205 321.434 83.2664 321.48C83.404 321.594 83.5876 321.755 83.8171 321.939C85.1941 323.088 88.0856 325.456 89.4396 328.076C89.4626 328.122 89.4396 328.19 89.3937 328.236C89.3708 328.236 89.3478 328.236 89.3249 328.236Z" fill="white"/>
<path fill-rule="evenodd" clip-rule="evenodd" d="M90.1736 326.858C90.1277 326.858 90.0818 326.835 90.0818 326.789C89.072 324.789 85.492 321.388 84.0003 320.767C83.9315 320.744 83.9085 320.675 83.9315 320.606C83.9544 320.537 84.0233 320.514 84.0921 320.537C85.6526 321.181 89.2327 324.582 90.2883 326.674C90.3113 326.72 90.2883 326.789 90.2424 326.835C90.2195 326.858 90.1966 326.858 90.1736 326.858Z" fill="white"/>
<path fill-rule="evenodd" clip-rule="evenodd" d="M90.8627 324.95C90.8168 324.95 90.7939 324.927 90.7709 324.904C89.1645 322.491 86.4794 320.583 84.6665 319.71C84.6206 319.687 84.5747 319.618 84.6206 319.549C84.6435 319.503 84.7124 319.457 84.7812 319.503C86.6171 320.399 89.3481 322.33 90.9775 324.789C91.0234 324.835 91.0004 324.904 90.9545 324.95C90.9086 324.95 90.8857 324.95 90.8627 324.95Z" fill="white"/>
<path fill-rule="evenodd" clip-rule="evenodd" d="M76.0588 321.342C75.4392 321.342 74.8884 321.181 74.4294 320.882C73.718 320.4 73.3737 319.572 73.4885 318.676C73.6491 317.32 74.7736 316.148 76.4719 315.527C79.547 314.585 82.3009 315.298 83.9992 317.481C84.4581 318.078 84.8024 318.745 85.0089 319.503C85.0089 319.549 85.0089 319.595 84.986 319.618C84.963 319.641 84.9171 319.664 84.8712 319.641C82.4386 318.975 80.6945 319.664 78.8356 320.561C77.8488 321.066 76.885 321.342 76.0588 321.342ZM79.0422 315.344C78.2389 315.344 77.4128 315.481 76.5407 315.734C74.9343 316.332 73.8786 317.435 73.718 318.699C73.6262 319.503 73.9245 320.262 74.5671 320.699C75.531 321.365 77.0456 321.227 78.7438 320.354C80.5338 319.503 82.3239 318.791 84.7335 319.366C84.527 318.722 84.2286 318.124 83.8156 317.619C82.6452 316.125 80.9928 315.344 79.0422 315.344Z" fill="white"/>
<path fill-rule="evenodd" clip-rule="evenodd" d="M85.1468 319.825C85.1239 319.825 85.078 319.802 85.055 319.779C85.0321 319.756 84.9862 319.71 84.9403 319.641C84.5502 319.136 83.3798 317.573 80.9701 318.63C79.6391 319.297 78.331 319.343 77.3442 318.768C76.6098 318.331 76.1738 317.619 76.1508 316.791C76.082 314.999 77.5278 314.263 78.1474 314.034C80.4193 313.206 82.5307 314.7 83.1044 315.16C84.9633 316.677 85.2386 318.837 85.2616 319.687C85.2616 319.733 85.2386 319.779 85.1927 319.802C85.1698 319.825 85.1468 319.825 85.1468 319.825ZM82.5307 318.056C83.8387 318.056 84.619 318.883 84.9862 319.343C84.8944 318.446 84.5272 316.631 82.9437 315.344C82.37 314.884 80.3734 313.459 78.2162 314.24C77.6425 314.447 76.3115 315.137 76.3574 316.768C76.3803 317.527 76.7934 318.17 77.4589 318.561C78.3769 319.09 79.6161 319.044 80.8783 318.423C81.4979 318.17 82.0487 318.056 82.5307 318.056Z" fill="white"/>
<path fill-rule="evenodd" clip-rule="evenodd" d="M69.7487 321.365C69.7257 321.365 69.7028 321.365 69.6798 321.342C69.6339 321.296 69.611 321.227 69.6569 321.181C70.1847 320.354 70.8273 319.641 71.5387 319.021C74.109 316.814 78.6299 315.367 82.4624 317.32C83.4951 317.849 84.4131 318.63 85.2163 319.595C85.2622 319.641 85.2393 319.71 85.1934 319.756C85.1475 319.802 85.0786 319.779 85.0327 319.733C84.2754 318.768 83.3804 318.033 82.3706 317.504C78.7906 315.665 74.2926 316.952 71.6993 319.182C70.9879 319.779 70.3683 320.492 69.8404 321.296C69.8404 321.342 69.7945 321.365 69.7487 321.365Z" fill="white"/>
<path fill-rule="evenodd" clip-rule="evenodd" d="M89.2783 334.189C89.5078 335.269 89.875 337.728 88.8193 340.509C88.1767 342.21 87.2588 343.405 86.5703 344.117C86.6162 344.485 86.6621 344.83 86.731 345.197C87.0752 344.899 87.4424 344.577 87.8096 344.232C88.6357 343.405 89.2783 342.577 89.7832 341.842C89.9209 341.107 90.0127 340.279 90.0356 339.337C90.0815 337.222 89.6914 335.476 89.2783 334.189Z" fill="#A82248"/>
<path d="M75.1436 299.646C77.2778 303.323 87.2148 320.008 88.89 324.72C89.0048 325.042 89.1884 325.455 89.4867 325.938C95.4305 336.763 104.404 331.247 103.417 323.732C103.6 322.812 98.6204 308.908 97.5877 306.38C96.6239 304.013 95.2699 300.933 93.4569 297.371C91.3915 297.049 88.7982 296.842 85.8149 297.072C81.2939 297.394 77.6221 298.589 75.1436 299.646Z" fill="#F7B2B2"/>
<path d="M88.2705 298.267C90.6343 298.474 91.8047 298.474 94.1684 298.681C95.4536 301.255 96.7158 304.013 97.9321 306.931C100.089 312.102 101.787 317.044 103.119 321.594C103.141 322.054 103.05 322.399 102.912 322.605C102.201 323.801 100.525 324.099 97.519 323.111C96.9452 320.928 91.0014 303.53 88.2705 298.267Z" fill="#F79797"/>
<path fill-rule="evenodd" clip-rule="evenodd" d="M78.8145 126.679C82.188 125.874 86.6171 125.185 91.8495 125.254C95.9574 125.323 99.5374 125.851 102.429 126.472C102.268 125.483 101.878 124.082 100.891 122.703C96.8753 117.026 85.5156 115.992 80.9487 121.278C80.1914 122.151 79.0898 123.806 78.8145 126.679Z" fill="#A82248"/>
<path fill-rule="evenodd" clip-rule="evenodd" d="M16.3246 139.342C16.1639 139.181 16.118 138.928 16.0721 138.584C15.9115 137.388 16.3475 136.377 16.4852 136.101C17.059 134.86 23.7142 121.599 26.1238 122.726C26.9041 123.093 26.8123 124.794 26.6746 126.793C26.6517 127.138 26.1009 134.24 20.662 137.917C19.3998 138.79 17.0131 140.031 16.3246 139.342Z" fill="#A82248"/>
<path d="M18.3207 139.157C17.1962 138.215 14.0292 136.422 11.5278 134.239C10.4721 133.32 9.80658 132.056 9.62299 130.654C7.37398 103.741 13.9833 81.0112 13.9833 79.0807C14.0063 74.4612 13.662 67.5664 13.685 62.9239C13.685 61.453 14.9013 60.2579 16.393 60.2809C19.4911 60.166 21.4647 60.1889 24.494 60.2579C25.1136 60.2579 25.7103 60.5337 26.0545 61.2232C26.6282 61.407 27.0872 61.7748 26.9266 62.5562C27.7986 63.0158 27.9593 63.9581 27.7298 64.9464C27.9363 64.9923 28.8543 65.2221 29.3821 65.9806C29.9788 66.8769 29.887 68.1409 29.0838 69.0602L27.2249 73.2661C26.9495 74.8519 27.1331 76.4836 26.3528 78.0235C25.4119 79.9081 24.5399 80.3217 23.5301 80.9882C23.0941 81.264 23.0023 81.6088 22.8875 82.3212C21.5565 90.641 22.1302 110.061 25.2972 121.599C25.9857 123.046 27.5003 123.897 29.5657 124.425C31.6541 134.032 20.2025 139.088 18.3207 139.157Z" fill="#F7B2B2"/>
<g style="mix-blend-mode:lighten">
<path d="M9.62299 130.653C7.37398 103.741 13.9833 81.011 13.9833 79.0804C14.0063 74.4609 13.662 67.5661 13.685 62.9236C13.685 61.4527 14.9013 60.2576 16.393 60.2806C17.1044 60.2576 17.747 60.2347 18.3666 60.2117C17.8617 60.3496 17.1044 60.6943 16.4389 61.0161C15.6356 61.4068 15.1537 62.2571 15.2455 63.1534C15.5209 66.371 16.1635 74.2541 16.5307 79.632C13.9374 101.649 10.8852 108.682 9.62299 130.653Z" fill="white" fill-opacity="0.3"/>
</g>
<path d="M21.0742 68.4173C21.2808 68.3023 21.5102 68.1644 21.7397 68.0036C22.1528 67.6818 22.4741 67.3601 22.6807 67.0613C23.1396 67.0843 23.6216 67.1072 24.0805 67.1072C24.0346 67.3601 23.9658 67.6358 23.9199 67.8887C23.7134 67.8887 23.4839 67.9346 23.2085 68.0495C22.3594 68.4402 22.1069 69.3595 22.061 69.5204C21.7168 69.1757 21.3955 68.785 21.0742 68.4173Z" fill="#F79797"/>
<path d="M22.7725 70.348C23.0478 70.325 24.769 70.2101 25.9165 69.9573C26.123 69.9113 26.4443 69.8424 26.7197 69.5896C27.0639 69.2908 27.1787 68.9231 27.2246 68.7852C27.3393 68.4404 27.4541 68.0497 27.5459 67.636C27.7524 66.5788 27.7524 65.6595 27.6836 64.9241C27.8442 64.9471 28.0507 64.993 28.3032 65.085C28.5556 65.1999 28.7622 65.3148 28.8999 65.4297C28.9917 65.4986 29.1064 65.6136 29.2211 65.7514C29.749 66.4409 29.6572 67.3143 29.6113 67.7969C29.5195 68.6243 29.1982 69.2678 28.9458 69.6585C24.5625 71.3133 25.4804 75.1284 23.6445 76.8291C23.8281 76.1166 23.9888 74.9905 23.8511 73.6345C23.6675 72.1866 23.1396 71.0375 22.7725 70.348Z" fill="#F79797"/>
<path d="M23.599 81.081C23.5531 81.081 23.5302 81.0581 23.5072 81.0121C23.4843 80.9661 23.5072 80.8972 23.5531 80.8512C24.2187 80.4835 25.435 79.6331 26.2152 78.0933C26.6742 77.174 26.9267 76.1168 26.9037 75.0826C26.9496 74.462 27.0644 73.8645 27.225 73.2899C27.4315 72.5545 27.7299 71.911 28.3036 70.7618C28.3954 70.555 28.4872 70.3711 28.579 70.2102C28.8314 69.7276 29.038 69.2909 29.2904 68.6474C29.474 68.0958 30.0018 66.2113 28.6249 65.3609C28.3495 65.2 28.0512 65.0851 27.7069 65.0391C27.661 65.0391 27.6381 65.0162 27.6151 64.9702C27.5922 64.9472 27.5922 64.9013 27.6151 64.8553C27.6151 64.8553 28.12 63.2005 26.8349 62.626C26.789 62.603 26.7431 62.534 26.766 62.4881C26.8578 62.2812 26.8578 62.0974 26.766 61.9135C26.5824 61.5228 26.0316 61.3619 26.0316 61.3389C25.9857 61.316 25.9628 61.293 25.9628 61.247C25.9628 61.224 25.8251 60.4426 24.517 60.3277C22.704 60.1898 18.229 60.2358 16.4619 60.3737C14.7178 60.5345 14.3047 61.4079 14.0063 62.3732C13.8457 63.2005 13.8457 63.7521 13.7998 64.4416V64.5105C13.7998 64.5795 13.731 64.6255 13.6851 64.6255C13.6162 64.6255 13.5703 64.5795 13.5703 64.5105V64.4416C13.5933 63.7291 13.6162 63.1776 13.7769 62.3272C14.0981 61.316 14.5571 60.3277 16.4389 60.1668C18.206 60.0289 22.704 59.983 24.517 60.1209C25.8022 60.2358 26.0775 60.9253 26.1464 61.1551C26.307 61.224 26.766 61.4309 26.9496 61.8216C27.0414 62.0284 27.0644 62.2353 26.9955 62.4651C27.3856 62.6719 27.661 62.9707 27.7987 63.3844C27.9823 63.936 27.8905 64.5335 27.8446 64.8093C28.1659 64.8553 28.4642 64.9702 28.7167 65.1311C29.1068 65.3609 30.3002 66.3262 29.474 68.6934C29.1986 69.3599 28.9921 69.7736 28.7396 70.2792C28.6478 70.4401 28.579 70.6239 28.4642 70.8308C27.8676 72.0489 27.5922 72.6234 27.4086 73.3129C27.2479 73.8875 27.1561 74.462 27.1102 75.0596C27.1332 76.1398 26.8808 77.22 26.3988 78.1622C25.5956 79.748 24.3334 80.6214 23.6449 81.0121C23.622 81.081 23.622 81.081 23.599 81.081Z" fill="#F79797"/>
<path d="M26.9037 62.6946C26.8808 62.6946 26.8808 62.6946 26.9037 62.6946C25.1367 62.4648 20.1797 62.189 18.1831 62.3039C18.1143 62.3039 18.0684 62.2579 18.0684 62.189C18.0684 62.12 18.1143 62.074 18.1831 62.074C20.3403 61.9362 25.3662 62.2349 26.9496 62.4648C27.0185 62.4648 27.0644 62.5337 27.0414 62.6027C26.9955 62.6486 26.9496 62.6946 26.9037 62.6946Z" fill="#F79797"/>
<path d="M26.0097 61.3846C22.9575 61.1318 20.1118 61.1318 18.2759 61.1778C18.207 61.1778 18.1611 61.1318 18.1611 61.0629C18.1611 60.9939 18.207 60.9479 18.2759 60.9479C20.1348 60.902 22.9804 60.902 26.0327 61.1548C26.1015 61.1548 26.1474 61.2237 26.1474 61.2697C26.1245 61.3386 26.0786 61.3846 26.0097 61.3846Z" fill="#F79797"/>
<path d="M22.727 70.4627C22.6582 70.4627 22.6123 70.4167 22.6123 70.3478C22.6123 70.2788 22.6582 70.2329 22.727 70.2329C23.2089 70.2099 24.6318 70.049 25.6874 69.9111C26.33 69.8192 26.8578 69.3825 27.0873 68.785C27.3627 68.0035 27.5234 67.2221 27.5693 66.4177C27.5922 65.9351 27.5922 65.4525 27.5234 64.9698C27.4316 64.2114 26.8578 63.6369 26.1005 63.5449C24.7695 63.384 23.4155 63.2691 22.0844 63.2232C20.4092 63.1312 19.4453 63.1312 18.0913 63.1542C18.0225 63.1542 17.9766 63.1083 17.9766 63.0393C17.9766 62.9704 18.0225 62.9244 18.0913 62.9244C19.4453 62.9014 20.4321 62.9014 22.1074 62.9933C23.4614 63.0623 24.8154 63.1772 26.1464 63.3151C27.0185 63.407 27.684 64.0965 27.7758 64.9469C27.8217 65.4525 27.8447 65.9351 27.8217 66.4407C27.7758 67.2681 27.6152 68.0725 27.3398 68.8539C27.1103 69.5434 26.4907 70.049 25.7563 70.1409C24.6547 70.2788 23.2319 70.4397 22.727 70.4627C22.75 70.4627 22.727 70.4627 22.727 70.4627Z" fill="#F79797"/>
<path d="M23.6448 76.9902H23.6218C23.553 76.9672 23.53 76.9213 23.53 76.8523C24.0349 74.8528 23.5989 71.7272 22.612 70.4402C21.9006 69.4749 21.1204 68.5326 20.2942 67.6363C20.2483 67.5903 20.2483 67.5214 20.2942 67.4754C20.3401 67.4294 20.4089 67.4294 20.4548 67.4754C21.258 68.3717 22.0613 69.314 22.7727 70.3023C23.8054 71.6812 24.2414 74.8298 23.7136 76.9213C23.7365 76.9443 23.6906 76.9902 23.6448 76.9902Z" fill="#F79797"/>
<path d="M22.0841 69.5204C22.0152 69.5204 21.9693 69.4515 21.9693 69.3825C21.9923 69.2217 22.107 68.4403 22.8873 68.0266C23.2545 67.8427 23.5987 67.7967 23.8741 67.7967L23.943 67.1762C23.7594 67.1992 23.5758 67.1992 23.4151 67.1992C23.1856 67.1992 22.9791 67.1532 22.7726 67.1073C22.4972 67.452 22.1988 67.7508 21.8546 68.0266C21.671 68.1874 21.4645 68.3483 21.2579 68.4862C21.212 68.5322 21.1432 68.5092 21.0973 68.4632C21.0514 68.4173 21.0743 68.3483 21.1202 68.3024C21.3268 68.1645 21.5333 68.0266 21.7169 67.8657C22.0611 67.5899 22.3824 67.2681 22.6578 66.9234C22.6808 66.8774 22.7267 66.8774 22.7726 66.8774C23.0021 66.9234 23.2086 66.9694 23.4381 66.9694C23.6446 66.9694 23.8741 66.9694 24.0807 66.9234C24.1266 66.9234 24.1495 66.9234 24.1725 66.9464C24.1954 66.9694 24.2184 67.0153 24.1954 67.0383L24.0807 67.9117C24.0807 67.9806 24.0118 68.0266 23.9659 68.0036C23.7135 67.9806 23.3692 68.0036 23.0021 68.1874C22.3365 68.5552 22.2218 69.2217 22.1988 69.3596C22.1988 69.4745 22.1529 69.5204 22.0841 69.5204Z" fill="#F79797"/>
<path d="M22.7727 67.1305C22.7497 67.1305 22.7268 67.1305 22.7038 67.1075C22.4743 66.9696 22.2678 66.8087 22.0612 66.6479C21.6941 66.3261 21.3957 65.9584 21.1662 65.5217C21.1433 65.4757 21.1662 65.4068 21.2121 65.3608C21.258 65.3378 21.3269 65.3608 21.3728 65.4068C21.5793 65.8205 21.8776 66.1652 22.1989 66.464C22.3825 66.6249 22.5891 66.7628 22.7956 66.9007C22.8415 66.9236 22.8645 66.9926 22.8415 67.0615C22.8415 67.1075 22.8186 67.1305 22.7727 67.1305Z" fill="#F79797"/>
<path d="M23.9664 67.3142C23.9435 67.3142 23.9205 67.3142 23.8976 67.2913C23.8517 67.2453 23.8287 67.1764 23.8746 67.1304C24.0353 66.8776 24.2418 66.6478 24.4484 66.4409C24.8155 66.0962 25.2516 65.8434 25.7335 65.6595C25.8023 65.6365 25.8482 65.6595 25.8712 65.7284C25.8941 65.7974 25.8712 65.8434 25.8023 65.8663C25.3434 66.0272 24.9532 66.28 24.586 66.6018C24.3795 66.7856 24.1959 67.0155 24.0353 67.2453C24.0353 67.2913 23.9894 67.3142 23.9664 67.3142Z" fill="#F79797"/>
<path d="M24.5879 68.6245C24.5419 68.6245 24.5189 68.6015 24.496 68.5785C24.404 68.4636 24.3121 68.3487 24.1972 68.2568C24.0823 68.1419 23.9444 68.0499 23.7835 67.981C23.7375 67.958 23.7145 67.8891 23.7375 67.8201C23.7605 67.7742 23.8295 67.7512 23.8984 67.7742C24.0593 67.8661 24.2202 67.958 24.3351 68.0959C24.45 68.2108 24.5649 68.3257 24.6568 68.4406C24.7028 68.4866 24.6798 68.5556 24.6339 68.6015C24.6568 68.6245 24.6109 68.6245 24.5879 68.6245Z" fill="#F79797"/>
<path d="M17.6547 138.698C17.6318 138.698 17.6088 138.698 17.5859 138.675C16.622 138.055 15.6811 137.388 14.7402 136.745C13.7304 136.032 12.7207 135.32 11.7339 134.584C10.4717 133.642 9.85205 132.516 9.59961 130.562C9.18652 127.161 9.16357 124.15 9.11768 120.68L9.09473 119.646C9.09473 119.577 9.14062 119.531 9.20947 119.531C9.25537 119.531 9.32422 119.577 9.32422 119.646L9.34717 120.68C9.39306 124.15 9.41601 127.161 9.8291 130.539C10.1045 132.424 10.6782 133.504 11.8945 134.424C12.8813 135.159 13.8911 135.871 14.9008 136.584C15.8417 137.25 16.8056 137.894 17.7465 138.514C17.7924 138.56 17.8154 138.629 17.7695 138.675C17.7236 138.675 17.6777 138.698 17.6547 138.698Z" fill="#F79797"/>
<path d="M24.676 119.439C24.6301 119.439 24.5842 119.393 24.5613 119.347C23.4368 113.624 22.6795 107.764 22.3123 101.949C22.0828 98.1339 22.014 94.2499 22.1057 90.4347C22.1057 90.3658 22.1516 90.3198 22.2205 90.3198C22.2893 90.3198 22.3352 90.3658 22.3352 90.4347C22.2434 94.2499 22.3123 98.1339 22.5418 101.949C22.909 107.764 23.6433 113.601 24.7678 119.301C24.7908 119.37 24.7449 119.439 24.676 119.439Z" fill="#F79797"/>
<path fill-rule="evenodd" clip-rule="evenodd" d="M53.0891 126.425C44.4143 127.023 40.2835 125.552 35.2118 124.679C30.5302 123.874 27.914 123.851 26.1469 122.633C27.019 128.471 22.957 133.435 21.7407 134.883C20.7309 136.078 19.0097 137.802 16.3936 139.319C17.7246 140.353 31.4252 148.879 51.0007 155.131C53.9382 156.05 55.843 157.015 56.6003 157.889C57.3806 155.453 58.5739 152.741 58.8034 149.408C59.5607 138.721 55.4528 130.47 53.0891 126.425Z" fill="#CF5B6F"/>
<path fill-rule="evenodd" clip-rule="evenodd" d="M27.9121 139.135C28.9448 139.733 30.6889 140.698 32.892 141.778C39.1112 144.812 44.4354 147.34 51.1136 147.271C52.5594 147.248 54.8772 147.11 57.7229 146.352C57.8147 147.708 57.8376 149.247 57.7229 150.948C57.5393 153.66 57.0344 155.981 56.5066 157.889C56.0706 157.544 55.5427 157.13 54.8772 156.763C54.2117 156.395 53.5691 156.119 53.0413 155.958C51.0677 155.361 48.5892 154.556 45.7205 153.522C40.4652 151.615 36.1278 149.73 32.892 148.213C30.0693 146.903 26.7876 145.34 23.1387 143.318C23.896 142.904 26.3515 141.02 27.9121 139.135Z" fill="#BA3952"/>
<path fill-rule="evenodd" clip-rule="evenodd" d="M26.1464 122.634C26.6972 122.68 27.3168 122.771 27.9823 122.932C28.9003 123.162 29.6806 123.461 30.3231 123.737C30.6215 123.714 31.0116 123.691 31.4935 123.783C32.1591 123.921 32.641 124.196 32.9164 124.403C32.9393 124.564 32.9852 124.817 33.0082 125.116C33.8343 132.24 28.8773 138.055 27.9135 139.181C26.9267 140.33 25.3891 141.916 23.1401 143.41C22.1762 143.111 20.9599 142.628 19.6748 141.87C18.229 141.02 17.1504 140.1 16.3701 139.319C16.7144 139.112 17.1963 138.836 17.7471 138.446C18.4814 137.94 20.019 136.814 21.6713 134.929C22.6352 133.826 24.4941 131.643 25.5268 128.517C26.0317 127.023 26.1464 125.851 26.1923 125.46C26.3071 124.334 26.2382 123.369 26.1464 122.634Z" fill="#A82248"/>
<path fill-rule="evenodd" clip-rule="evenodd" d="M20.0879 141.755C20.042 141.755 20.0191 141.732 19.9961 141.709C19.9732 141.664 19.9732 141.595 20.042 141.549C21.6255 140.583 23.0484 139.434 24.2876 138.101C28.0972 134.033 29.3594 129.23 29.7495 125.943C29.7495 125.874 29.8183 125.828 29.8872 125.851C29.956 125.851 30.0019 125.92 29.979 125.989C29.5889 129.322 28.3037 134.171 24.4483 138.285C23.1861 139.618 21.7403 140.79 20.1568 141.778C20.1338 141.755 20.1109 141.755 20.0879 141.755Z" fill="#911835"/>
<path fill-rule="evenodd" clip-rule="evenodd" d="M34.2251 132.217C34.2021 132.217 34.2021 132.217 34.1791 132.217C34.1102 132.194 34.0872 132.125 34.1102 132.079C34.9835 129.873 35.1444 127.184 35.0295 126.288C35.0295 126.219 35.0755 126.173 35.1214 126.15C35.1904 126.15 35.2363 126.196 35.2593 126.242C35.3742 127.138 35.2363 129.896 34.34 132.148C34.317 132.194 34.2711 132.217 34.2251 132.217Z" fill="#911835"/>
<path fill-rule="evenodd" clip-rule="evenodd" d="M25.4586 144.076C25.4127 144.076 25.3898 144.053 25.3668 144.03C25.3209 143.984 25.3439 143.915 25.3898 143.869C30.0255 140.675 32.045 136.997 33.2842 134.148C33.3072 134.079 33.376 134.056 33.4449 134.079C33.5137 134.102 33.5367 134.171 33.5137 134.24C32.2515 137.112 30.2091 140.836 25.5275 144.053C25.5045 144.076 25.4816 144.076 25.4586 144.076Z" fill="#911835"/>
<path fill-rule="evenodd" clip-rule="evenodd" d="M126.57 136.055C126.34 141.249 125.973 146.765 125.354 152.533C124.803 157.659 124.137 162.554 123.38 167.173C126.019 169.012 128.222 170.69 129.943 172.046C131.481 173.264 134.028 175.286 137.126 178.159C140.247 181.055 140.431 181.538 142.313 183.031C144.952 185.123 147.453 186.387 149.175 187.145C148.555 183.491 147.499 175.562 152.433 163.289C151.033 161.956 148.647 158.808 146.122 156.027C140.638 150.005 139.077 147.064 134.533 142.605C132.812 140.95 130.173 138.56 126.57 136.055Z" fill="#CF5B6F"/>
<path fill-rule="evenodd" clip-rule="evenodd" d="M123.862 167.472C124.597 168.047 125.698 168.897 127.006 169.908C130.196 172.413 131.803 173.654 133.524 175.102C134.97 176.32 136.989 178.113 139.33 180.411C140.202 181.216 141.097 182.043 141.969 182.848C141.786 181.744 141.625 180.526 141.556 179.17C141.441 176.849 141.602 174.781 141.854 173.057C139.697 171.678 137.402 170.069 135.038 168.162C131.091 164.967 127.901 161.726 125.377 158.785C125.056 160.462 124.757 162.163 124.459 163.887C124.252 165.082 124.046 166.277 123.862 167.472Z" fill="#BA3952"/>
<path fill-rule="evenodd" clip-rule="evenodd" d="M147.568 157.59C148.142 157.82 149.542 158.463 150.551 159.957C151.125 160.808 151.355 161.612 151.469 162.164C151.86 162.393 152.227 162.623 152.617 162.853C152.296 163.749 151.86 164.991 151.401 166.53C150.529 169.38 149.863 172.046 149.565 173.494C148.486 178.78 148.899 184.549 149.175 187.399C148.348 187.169 147.384 186.847 146.352 186.318C144.24 185.261 142.818 183.882 141.923 182.871C141.67 181.032 141.532 178.964 141.624 176.758C141.9 168.208 145.135 161.566 147.568 157.59Z" fill="#A82248"/>
<path fill-rule="evenodd" clip-rule="evenodd" d="M145.664 183.537C145.596 183.537 145.55 183.491 145.55 183.422C145.435 180.112 145.71 176.78 146.399 173.539C147.133 170.046 148.304 166.69 149.91 163.496C149.933 163.45 150.002 163.427 150.071 163.45C150.117 163.473 150.139 163.542 150.117 163.611C148.51 166.782 147.34 170.138 146.605 173.585C145.94 176.803 145.641 180.112 145.779 183.422C145.779 183.491 145.733 183.537 145.664 183.537Z" fill="#911835"/>
<path fill-rule="evenodd" clip-rule="evenodd" d="M143.139 161.52C143.116 161.52 143.093 161.52 143.093 161.497C143.047 161.474 143.024 161.405 143.047 161.336C143.391 160.646 143.781 159.98 144.195 159.336C144.562 158.785 144.929 158.233 145.342 157.727C145.388 157.682 145.457 157.659 145.503 157.704C145.549 157.75 145.571 157.819 145.526 157.865C145.135 158.371 144.745 158.923 144.378 159.451C143.965 160.095 143.575 160.761 143.231 161.428C143.208 161.497 143.185 161.52 143.139 161.52Z" fill="#911835"/>
<path fill-rule="evenodd" clip-rule="evenodd" d="M139.789 178.503C139.72 178.503 139.674 178.457 139.674 178.389C139.376 175.01 139.605 171.655 140.363 168.414C140.753 166.736 141.304 165.082 141.969 163.496C141.992 163.427 142.061 163.404 142.13 163.427C142.199 163.45 142.222 163.519 142.199 163.588C141.533 165.174 141.005 166.805 140.592 168.46C139.835 171.678 139.605 175.01 139.904 178.366C139.904 178.435 139.858 178.48 139.789 178.503Z" fill="#911835"/>
<path d="M152.046 118.037C151.931 118.083 150.715 118.543 150.577 119.554C150.508 120.037 150.715 120.427 150.944 120.864C151.174 121.278 151.633 121.99 152.551 122.611C152.39 121.094 152.206 119.554 152.046 118.037Z" fill="#F79797"/>
<path d="M153.559 125.759C153.376 126.793 153.146 128.402 153.077 129.689C152.986 131.642 153.399 132.424 153.766 133.09C153.467 135.848 155.464 138.583 155.946 139.204C155.739 144.812 155.648 147.661 155.028 152.143C154.362 157.544 153.605 159.589 152.481 163.037C149.773 170.115 147.661 177.332 149.13 187.192C149.727 187.559 151.471 188.364 152.527 188.846C153.123 189.122 153.766 189.283 154.408 189.352C156.428 189.536 158.516 189.444 160.651 189.099C161.408 188.984 162.096 188.616 162.647 188.065C164.276 186.364 165.401 183.583 165.906 180.779C165.906 180.779 167.237 170.69 165.699 154.395C164.575 147.363 164.391 137.618 164.391 137.618C164.391 137.618 165.653 126.701 167.398 119.76C167.627 118.244 167.283 117.347 166.181 116.727C164.001 115.761 159.641 113.969 157.162 113.095C156.13 112.59 154.799 113.027 154.821 114.635C153.605 114.589 152.825 115.348 152.733 116.474C151.081 117.232 151.792 119.048 152.205 119.485C151.999 119.6 151.953 119.898 152.022 120.772C152.182 122.357 152.366 123.277 152.504 124.403C152.572 125 153.353 125.575 153.559 125.759Z" fill="#F7B2B2"/>
<path d="M157.874 125.713C157.736 125.713 157.438 125.713 157.231 125.759C157.025 125.805 156.864 125.874 156.75 125.943C156.75 125.782 156.727 125.506 156.589 125.231C156.313 124.656 155.763 124.449 155.625 124.38C155.648 124.219 155.648 124.013 155.602 123.806C155.464 123.07 154.959 122.611 154.753 122.45C155.074 122.588 157.576 122.771 157.966 122.68C157.851 122.932 157.346 124.127 157.874 125.713Z" fill="#F79797"/>
<path d="M152.206 119.6C152.16 119.6 152.137 119.577 152.114 119.554C151.334 118.451 151.586 117.601 151.793 117.187C151.999 116.773 152.367 116.474 152.665 116.405C152.688 115.739 152.894 115.233 153.285 114.912C153.766 114.498 154.409 114.475 154.73 114.498C154.799 113.969 155.006 113.303 155.534 112.981C155.97 112.705 156.566 112.705 157.278 112.958C160.009 113.992 164.346 115.739 166.182 116.589C166.251 116.612 166.274 116.681 166.228 116.75C166.205 116.819 166.136 116.842 166.067 116.796C164.231 115.946 159.917 114.199 157.186 113.165C156.543 112.935 156.015 112.935 155.648 113.165C155.166 113.464 154.983 114.13 154.937 114.613C154.937 114.636 154.914 114.682 154.891 114.682C154.868 114.705 154.845 114.705 154.799 114.705C154.547 114.682 153.881 114.636 153.422 115.049C153.078 115.348 152.894 115.831 152.871 116.474C152.871 116.543 152.826 116.589 152.757 116.589C152.527 116.589 152.183 116.842 151.976 117.256C151.793 117.624 151.563 118.382 152.275 119.393C152.321 119.439 152.298 119.508 152.252 119.554C152.252 119.6 152.229 119.6 152.206 119.6Z" fill="#F79797"/>
<path d="M161.524 116.52H161.501L161.225 116.451C159.344 116.014 155.878 115.233 154.777 114.727C154.708 114.704 154.685 114.636 154.708 114.567C154.731 114.498 154.8 114.475 154.868 114.498C155.947 114.98 159.412 115.762 161.271 116.198L161.547 116.267C161.615 116.29 161.638 116.336 161.638 116.405C161.615 116.474 161.57 116.52 161.524 116.52Z" fill="#F79797"/>
<path d="M159.779 118.06C159.779 118.06 159.779 118.037 159.779 118.06C158.517 117.876 156.773 117.508 155.235 117.164C154.295 116.957 153.422 116.773 152.757 116.635C152.688 116.612 152.642 116.566 152.665 116.497C152.688 116.428 152.734 116.405 152.803 116.405C153.491 116.543 154.363 116.727 155.304 116.934C156.842 117.279 158.563 117.646 159.802 117.83C159.871 117.83 159.917 117.899 159.894 117.968C159.894 118.014 159.825 118.06 159.779 118.06Z" fill="#F79797"/>
<path d="M155.692 127.598C155.67 127.598 155.647 127.598 155.624 127.575L153.076 125.53C152.686 125.231 152.434 124.771 152.388 124.289L151.883 120.382C151.837 120.014 151.952 119.646 152.204 119.347C152.457 119.072 152.801 118.911 153.168 118.911C153.398 118.911 154.109 119.049 155.004 119.209C156.014 119.393 157.276 119.623 158.102 119.692C158.171 119.692 158.217 119.761 158.194 119.807C158.194 119.876 158.125 119.922 158.079 119.899C157.253 119.807 155.991 119.6 154.958 119.416C154.109 119.255 153.352 119.14 153.145 119.14C152.847 119.14 152.548 119.278 152.342 119.508C152.135 119.738 152.044 120.037 152.089 120.359L152.594 124.266C152.64 124.702 152.87 125.093 153.214 125.346L155.761 127.391C155.807 127.437 155.83 127.506 155.784 127.552C155.761 127.575 155.738 127.598 155.692 127.598Z" fill="#F79797"/>
<path d="M156.771 126.058C156.702 126.058 156.656 126.012 156.656 125.943C156.656 125.736 156.588 125.208 156.175 124.817C156.014 124.656 155.83 124.541 155.624 124.472C155.578 124.449 155.555 124.403 155.555 124.357C155.578 124.127 155.555 123.76 155.371 123.369C155.188 122.932 154.889 122.657 154.683 122.519C154.637 122.496 154.614 122.427 154.637 122.381C154.66 122.335 154.706 122.312 154.775 122.312C155.532 122.45 156.932 122.679 157.896 122.588C157.965 122.588 158.01 122.634 158.01 122.702C158.01 122.771 157.965 122.817 157.896 122.817C157.047 122.886 155.899 122.748 155.119 122.611C155.28 122.771 155.44 123.001 155.578 123.277C155.738 123.668 155.784 124.035 155.784 124.288C155.991 124.38 156.175 124.495 156.335 124.656C156.817 125.116 156.886 125.713 156.886 125.943C156.886 126.012 156.84 126.058 156.771 126.058Z" fill="#F79797"/>
<path d="M155.899 130.31C155.853 130.31 155.807 130.287 155.784 130.241C155.187 128.402 155.531 126.61 156.61 125.943C156.931 125.736 157.344 125.621 157.781 125.621C157.849 125.621 157.895 125.667 157.895 125.736C157.895 125.805 157.849 125.851 157.781 125.851C157.367 125.851 157.023 125.943 156.725 126.127C155.738 126.747 155.44 128.425 155.99 130.172C156.013 130.241 155.968 130.287 155.922 130.31H155.899Z" fill="#F79797"/>
<path d="M165.745 155.66C165.676 155.66 165.63 155.614 165.63 155.545C165.584 154.878 165.47 153.913 165.355 152.672C164.965 148.949 164.345 143.341 164.322 137.596C165.057 129.965 167.053 120.703 167.283 119.669C167.306 119.6 167.352 119.577 167.42 119.577C167.489 119.6 167.512 119.646 167.512 119.715C167.283 120.749 165.286 130.011 164.575 137.619C164.621 143.341 165.217 148.949 165.607 152.649C165.745 153.867 165.837 154.856 165.883 155.522C165.86 155.614 165.814 155.66 165.745 155.66C165.768 155.66 165.745 155.66 165.745 155.66Z" fill="#F79797"/>
<path d="M149.475 173.402C149.475 173.402 149.452 173.402 149.475 173.402C149.383 173.379 149.36 173.333 149.36 173.264C150.141 169.265 150.921 167.151 151.724 164.899C152.527 162.669 153.376 160.371 154.248 156.027C155.006 152.074 155.557 146.582 155.878 139.227C153.468 136.147 153.606 133.941 153.652 133.114C153.032 131.988 152.849 130.884 153.009 129.322C153.009 129.253 153.078 129.207 153.124 129.23C153.193 129.23 153.239 129.299 153.216 129.345C153.055 130.861 153.239 131.942 153.858 133.045C153.858 133.068 153.881 133.091 153.881 133.114C153.835 133.941 153.675 136.078 156.084 139.135C156.107 139.158 156.107 139.181 156.107 139.204C155.786 146.582 155.258 152.12 154.478 156.096C153.606 160.44 152.757 162.761 151.954 164.991C151.15 167.22 150.37 169.334 149.59 173.31C149.567 173.356 149.521 173.402 149.475 173.402Z" fill="#F79797"/>
<path d="M163.358 187.422C163.335 187.422 163.312 187.422 163.289 187.399C163.243 187.353 163.22 187.284 163.266 187.238C164.184 185.836 164.873 184.319 165.332 182.734C165.538 182.044 165.676 181.355 165.791 180.665C165.974 178.918 166.112 177.103 166.204 175.333C166.364 171.955 166.318 169.381 166.25 166.623C166.181 163.842 166.066 161.015 165.882 158.211C165.882 158.142 165.928 158.096 165.997 158.096C166.066 158.096 166.112 158.142 166.112 158.211C166.296 161.015 166.41 163.842 166.479 166.623C166.548 169.381 166.594 171.955 166.433 175.333C166.341 177.126 166.204 178.918 166.02 180.688C165.905 181.401 165.768 182.113 165.561 182.803C165.102 184.411 164.391 185.951 163.45 187.376C163.427 187.399 163.404 187.422 163.358 187.422Z" fill="#F79797"/>
<path d="M156.544 189.559C155.718 189.559 154.869 189.513 154.043 189.421C153.721 189.375 153.423 189.306 153.148 189.191L149.981 187.835C149.912 187.812 149.889 187.743 149.912 187.674C149.935 187.606 150.004 187.583 150.073 187.606L153.24 188.962C153.515 189.076 153.79 189.145 154.089 189.191C155.007 189.306 155.948 189.352 156.865 189.329C158.311 189.306 159.757 189.145 161.157 188.824C161.226 188.801 161.272 188.847 161.295 188.916C161.318 188.984 161.272 189.03 161.203 189.053C159.78 189.375 158.311 189.536 156.865 189.559C156.751 189.559 156.636 189.559 156.544 189.559Z" fill="#F79797"/>
<path fill-rule="evenodd" clip-rule="evenodd" d="M90.7014 124.174C104.677 123.645 117.506 131.046 120.007 132.424C118.47 150.144 116.955 167.887 115.418 185.606C98.0222 185.606 80.6268 185.606 63.2085 185.606C61.5332 167.22 59.8579 144.927 58.1826 126.518C77.4369 128.54 79.64 124.243 90.7014 124.174Z" fill="white"/>
<path d="M79.6855 125.691C78.8823 127.07 78.6757 128.196 78.5839 129C78.5151 129.598 78.4692 130.609 79.3412 134.194C79.8691 136.355 80.0068 136.493 80.1904 137.32C80.4199 138.469 80.7411 141.02 77.8266 148.168C77.0004 150.19 76.5874 151.202 75.5317 153.201C73.6499 156.809 71.5156 162.716 70.5059 172.759C71.9975 172.805 76.5185 172.851 78.0102 172.92C78.0102 158.05 82.9213 148.834 83.6098 144.1C84.2523 139.136 81.2001 134.677 80.8788 133.85C80.4887 132.815 79.456 129.874 81.0624 128.357C81.5214 127.598 81.3608 126.587 81.5903 125.254C81.246 125.369 80.0068 125.622 79.6855 125.691Z" fill="#A8ADBE"/>
<path d="M97.1953 124.335C98.251 124.519 99.3296 124.726 100.431 124.955C100.959 125.07 101.487 125.185 101.992 125.3C102.221 125.852 102.542 126.748 102.749 127.851C103.529 131.896 102.175 134.746 101.372 138.561C100.684 141.871 100.707 144.353 100.752 147.433C100.798 150.765 101.349 155.752 103.873 161.797C104.493 163.245 105.09 164.853 105.618 166.623C106.834 170.668 107.316 174.368 107.454 177.402C105.595 177.448 101.831 177.494 99.9721 177.563C101.418 168.324 99.2148 163.199 98.228 155.178C96.9199 141.572 100.89 134.677 101.303 133.091C102.061 130.402 101.969 127.943 100.248 126.587C99.7427 125.875 98.0444 124.864 97.1953 124.335Z" fill="#A8ADBE"/>
<path d="M90.6559 135.551C90.61 135.551 90.5641 135.551 90.4953 135.551C89.3249 135.551 86.9152 135.505 84.2302 134.172C83.1745 133.643 82.1877 132.931 81.3157 132.126C81.2698 132.08 81.2698 132.011 81.3157 131.965C81.3616 131.919 81.4304 131.919 81.4763 131.965C82.3254 132.77 83.3122 133.459 84.3449 133.988C86.9611 135.321 89.3478 135.344 90.4953 135.344C93.2721 135.367 95.3605 134.654 96.1408 134.332C97.5866 133.758 98.9176 132.931 100.088 131.896C100.134 131.85 100.203 131.85 100.249 131.896C100.295 131.942 100.295 132.011 100.249 132.057C99.0553 133.091 97.7013 133.942 96.2326 134.516C95.4523 134.838 93.3869 135.551 90.6559 135.551Z" fill="#A8ADBE"/>
<path fill-rule="evenodd" clip-rule="evenodd" d="M80.7421 141.135C80.5126 143.387 79.7094 145.501 78.539 147.983C73.6967 158.716 66.6743 174.092 74.2246 206.727C59.8814 170.116 75.3032 151.155 77.7817 147.616C79.9389 144.237 80.2372 142.238 80.7421 141.135Z" fill="#A82248"/>
<path fill-rule="evenodd" clip-rule="evenodd" d="M79.365 133.252C83.4958 139.779 78.2635 146.582 77.2767 148.329C68.3495 160.854 63.622 180.274 74.3851 206.865C70.8968 206.773 66.3988 206.98 61.2582 208.084C56.6225 209.095 52.7671 210.543 49.8066 211.899C49.8066 181.998 61.3959 177.195 56.5307 157.637C57.0126 155.591 57.4028 153.339 57.6093 150.903C58.4814 140.446 55.521 131.804 53.0195 126.449C55.934 126.265 58.9863 126.173 62.1762 126.15C66.2611 126.127 70.1166 126.242 73.7654 126.449C75.1883 128.816 77.9422 130.908 79.365 133.252Z" fill="#BA3952"/>
<path fill-rule="evenodd" clip-rule="evenodd" d="M54.9931 209.829C53.0425 210.496 51.2983 211.208 49.8066 211.921C49.8066 182.02 61.3959 177.217 56.5307 157.659C57.0126 155.613 57.4028 153.361 57.6093 150.925C57.747 149.293 57.7929 147.684 57.747 146.145C62.5204 162.853 67.5004 172.735 54.9931 209.829Z" fill="#911835"/>
<path fill-rule="evenodd" clip-rule="evenodd" d="M79.8011 133.987C79.3422 133.78 78.6307 133.504 77.7128 133.412C74.9359 133.113 72.7787 134.653 71.7919 135.366C70.8281 136.078 70.0478 136.859 69.4511 137.618C69.1987 137.963 68.6479 137.71 68.7397 137.296C68.8544 136.699 68.9921 136.032 69.1757 135.343C69.8183 132.86 70.6215 131.068 70.8969 130.447C71.4247 129.321 72.1591 127.919 73.2148 126.425L78.2406 130.171C78.4013 130.677 78.5848 131.229 78.7914 131.803C79.1127 132.608 79.4569 133.343 79.8011 133.987Z" fill="#911835"/>
<path fill-rule="evenodd" clip-rule="evenodd" d="M102.91 130.448C102.612 131.137 102.245 132.08 101.832 133.206C101.832 133.206 100.982 135.596 100.455 137.802C99.0776 143.525 99.6514 150.167 99.6973 150.489C99.9267 152.902 100.432 156.096 101.625 159.751C101.992 160.762 102.336 161.773 102.704 162.807C105.664 171.656 107.362 180.205 108.257 188.226C108.372 189.237 108.464 190.249 108.556 191.283C109.175 198.384 109.221 205.118 108.854 211.462C112.434 210.933 115.463 210.91 117.712 211.002C120.833 211.14 123.381 211.278 126.41 212.542C128.085 213.231 129.37 214.059 130.22 214.679C130.541 212.542 130.77 210.244 130.839 207.807C129.302 182.435 122.761 179.079 123.886 166.76C124.804 162.738 127.007 149.868 127.007 136.423C125.4 135.182 123.633 133.964 121.66 132.746C115.807 129.184 110.139 127.115 105.48 125.874C104.654 127.391 103.782 128.908 102.91 130.448Z" fill="#BA3952"/>
<path fill-rule="evenodd" clip-rule="evenodd" d="M122.118 211.347C123.518 211.554 124.918 211.899 126.432 212.542C128.108 213.232 129.393 214.059 130.242 214.68C130.563 212.542 130.793 210.244 130.862 207.808C129.324 182.435 122.784 179.079 123.908 166.761C124.252 165.244 124.78 162.486 125.308 158.901C114.981 176.919 129.163 199.235 122.118 211.347Z" fill="#911835"/>
<path fill-rule="evenodd" clip-rule="evenodd" d="M107.66 169.22C107.614 169.22 107.568 169.174 107.545 169.128C107.293 167.956 106.972 166.784 106.627 165.611C106.031 163.635 105.457 162.21 105.182 161.498L105.113 161.337C104.355 159.475 102.565 154.511 102.061 148.765C101.877 146.605 101.877 144.398 102.061 142.169C102.061 142.1 102.129 142.054 102.175 142.054C102.244 142.054 102.29 142.123 102.29 142.169C102.106 144.375 102.106 146.582 102.29 148.719C102.795 154.419 104.585 159.36 105.342 161.222L105.411 161.383C105.687 162.072 106.283 163.52 106.88 165.497C107.224 166.669 107.545 167.841 107.798 169.013C107.821 169.082 107.775 169.128 107.706 169.151C107.66 169.22 107.66 169.22 107.66 169.22Z" fill="#911835"/>
<path fill-rule="evenodd" clip-rule="evenodd" d="M101.763 133.803C102.497 133.436 103.392 133.114 104.425 133.045C107.408 132.815 109.726 134.677 110.965 135.941C111.241 136.239 111.723 135.964 111.654 135.573C111.516 134.861 111.332 134.125 111.103 133.344C110.208 130.356 108.9 128.012 107.752 126.357C106.307 127.069 104.861 127.782 103.392 128.494C103.231 129.184 103.048 129.896 102.818 130.632C102.497 131.758 102.153 132.815 101.763 133.803Z" fill="#911835"/>
<path fill-rule="evenodd" clip-rule="evenodd" d="M81.4525 117.899C79.915 119.002 73.9712 120.841 70.414 133.78C70.3223 134.125 70.7124 134.4 71.0107 134.194C72.9384 132.723 76.6791 130.93 79.456 133.297C76.3579 125.644 79.892 119.646 81.4525 117.899Z" fill="#CF5B6F"/>
<path fill-rule="evenodd" clip-rule="evenodd" d="M101.854 133.228C102.313 132.355 106.329 130.792 109.358 132.907C109.634 133.113 110.024 132.861 109.955 132.539C108.578 125.575 104.47 120.818 103.851 120.197C102.933 119.278 101.349 117.968 99.0312 116.911C99.0312 118.221 105.549 126.081 101.854 133.228Z" fill="#CF5B6F"/>
<path fill-rule="evenodd" clip-rule="evenodd" d="M81.866 123.024C78.1483 126.977 78.9745 131.505 79.4334 133.228C75.3715 125.322 79.9383 119.071 82.0267 117.439C81.9578 119.301 81.9119 121.162 81.866 123.024Z" fill="#A82248"/>
<path fill-rule="evenodd" clip-rule="evenodd" d="M98.7109 121.806C99.2158 122.059 99.9731 122.496 100.616 123.254C100.937 123.622 101.694 124.633 102.062 127.23C102.245 128.563 102.383 130.655 101.832 133.275C106.468 123.783 100.019 117.807 98.7798 117.003C98.7798 118.589 98.7568 120.198 98.7109 121.806Z" fill="#A82248"/>
<path fill-rule="evenodd" clip-rule="evenodd" d="M74.2237 206.888C74.1778 206.888 74.1319 206.865 74.1089 206.819C63.0016 177.953 69.1978 159.751 76.3579 149.546C79.8003 144.49 82.6001 139.434 79.2954 133.229C77.1611 129.092 77.1152 124.679 79.2036 120.818C79.7773 119.761 80.4887 118.795 81.3608 117.945C81.4067 117.899 81.4756 117.899 81.5215 117.945C81.5674 117.991 81.5674 118.06 81.5215 118.106C80.6723 118.956 79.9609 119.899 79.4101 120.933C77.3677 124.725 77.4136 129.046 79.5019 133.114C82.8755 139.434 80.0298 144.559 76.5415 149.684C69.4044 159.842 63.2311 177.976 74.3155 206.75C74.3384 206.819 74.3155 206.865 74.2466 206.888C74.2466 206.888 74.2466 206.888 74.2237 206.888Z" fill="#911835"/>
<path fill-rule="evenodd" clip-rule="evenodd" d="M108.969 211.507C108.9 211.507 108.854 211.462 108.854 211.393C109.107 206.52 109.107 201.625 108.854 196.776C108.441 188.686 107.431 182.48 107.018 180.182C106.559 177.585 105.733 173.54 104.471 169.036C103.943 167.105 103.461 165.427 102.681 163.129C102.405 162.348 102.199 161.727 101.992 161.176C101.648 160.21 101.373 159.452 101.052 158.28C100.73 157.154 100.271 155.338 99.927 153.178C99.1008 147.937 99.4451 143.686 99.6287 142.1C99.8811 139.917 100.111 138.032 100.914 135.803C100.983 135.596 101.074 135.389 101.166 135.113C101.442 134.401 101.809 133.412 102.291 131.965C102.75 130.563 102.979 129.873 103.094 129.322C103.622 126.839 103.278 124.725 103.094 123.921C102.658 121.898 101.809 120.427 101.189 119.531C100.638 118.75 99.9958 118.037 99.2844 117.417C99.2385 117.371 99.2385 117.302 99.2844 117.256C99.3303 117.21 99.3992 117.21 99.4451 117.256C100.179 117.899 100.845 118.612 101.396 119.416C102.038 120.335 102.887 121.829 103.346 123.898C103.53 124.702 103.874 126.885 103.346 129.391C103.232 129.942 103.002 130.655 102.52 132.056C102.038 133.504 101.671 134.493 101.396 135.205C101.304 135.458 101.212 135.688 101.143 135.872C100.34 138.078 100.134 139.94 99.8811 142.123C99.6975 143.709 99.3533 147.937 100.179 153.155C100.524 155.315 100.983 157.108 101.304 158.234C101.648 159.406 101.901 160.164 102.245 161.13C102.428 161.681 102.658 162.279 102.933 163.083C103.714 165.381 104.173 167.059 104.723 168.99C105.986 173.494 106.812 177.562 107.271 180.159C107.684 182.457 108.694 188.686 109.107 196.776C109.359 201.625 109.359 206.543 109.107 211.416C109.084 211.462 109.038 211.507 108.969 211.507Z" fill="#911835"/>
<path d="M89.1875 295.668C91.7807 291.256 104.036 249.243 106.583 236.925C108.717 229.134 109.429 226.835 111.173 221.733C113.927 213.322 120.077 211.736 125.516 212.655C131.299 213.643 134.03 219.021 134.673 220.308C137.885 227.042 134.214 234.672 133.456 237.729C132.791 239.338 123.68 271.651 105.367 305.896C101.396 300.725 93.1577 296.749 89.1875 295.668Z" fill="#2E4B77"/>
<path d="M131.001 215.391C133.113 217.275 134.26 219.551 134.65 220.309C137.863 227.043 134.191 234.673 133.434 237.73C132.768 239.339 123.658 271.652 105.344 305.897C104.587 304.908 103.692 303.966 102.705 303.093C110.003 291.463 131.07 243.315 133.594 226.101C134.283 220.631 132.677 218.562 131.001 215.391Z" fill="#174062"/>
<path d="M89.1885 295.67C91.7817 291.257 103.715 249.153 106.286 236.811C108.42 229.02 108.971 226.469 110.715 221.367C113.469 212.955 120.078 211.714 125.517 212.656C106.584 213.047 106.354 272.871 96.0732 298.542C93.4341 297.14 90.9097 296.129 89.1885 295.67Z" fill="#174062"/>
<path d="M105.322 305.989C105.299 305.989 105.253 305.966 105.23 305.943C102.476 302.564 98.5976 299.737 93.7094 297.485C93.6406 297.462 93.6176 297.393 93.6635 297.324C93.6865 297.255 93.7553 297.232 93.8242 297.278C98.7353 299.53 102.637 302.403 105.436 305.782C105.482 305.828 105.459 305.897 105.413 305.943C105.368 305.988 105.345 305.989 105.322 305.989Z" fill="#828282" fill-opacity="0.3"/>
<path d="M104.862 236.375C105.138 236.719 105.574 237.225 105.505 237.753C105.413 238.42 104.816 238.558 104.128 239.546C103.853 239.937 103.416 240.58 103.371 241.431C103.348 241.936 103.462 242.396 103.646 242.764C103.875 243.246 103.83 243.844 103.462 244.258C103.302 244.441 103.164 244.648 103.072 244.901C102.751 245.682 102.957 246.372 103.072 247.337C103.164 248.073 103.187 249.107 102.98 250.44C104.059 248.808 104.793 247.337 105.321 246.165C106.652 243.177 108.144 239.799 106.698 237.708C106.193 236.995 105.344 236.558 104.862 236.375Z" fill="#174062"/>
<path d="M45.2169 222.93C45.3775 236.375 50.6558 249.13 52.2393 253.658C54.4194 259.863 66.0546 288.729 74.2933 302.036C74.4081 301.025 80.3748 298.658 87.5808 298.359C90.3576 298.244 92.6525 298.543 94.2131 298.818C92.9509 295.256 91.2068 290.223 89.1872 284.156C87.03 277.72 83.2893 265.746 79.7781 251.106C74.9359 229.549 69.038 214.449 64.2416 211.232C51.3213 205.026 44.7579 215.736 45.2169 222.93Z" fill="#2E4B77"/>
<path d="M45.2158 222.929C45.3765 236.374 50.6547 249.13 52.2382 253.657C54.4184 259.863 66.0536 288.729 74.2924 302.036C74.3611 301.507 53.4545 255.473 45.2158 222.929Z" fill="#507BBC"/>
<path d="M94.7175 294.773C94.6716 294.13 94.488 292.406 93.4323 290.522C92.6062 289.051 92.0324 288.867 90.9768 287.442C90.2654 286.477 89.3474 284.96 88.7507 282.753C88.7507 282.799 88.7507 282.822 88.7507 282.868C83.9085 268.045 77.5286 242.81 76.5877 236.443C73.4667 220.08 69.2899 212.702 63.9887 210.519C59.6972 208.772 55.727 209.623 54.1436 210.059C70.8505 215.713 79.9153 277.674 88.154 298.267C88.8655 298.198 92.1013 298.336 94.1896 298.795H94.2126C94.2126 298.772 94.2126 298.772 94.1896 298.749C94.5109 297.899 94.8552 296.497 94.7175 294.773Z" fill="#174062"/>
<path d="M77.2782 236.835C77.1635 236.973 76.9799 237.248 76.9799 237.593C76.9799 238.168 77.5077 238.719 78.288 238.903C78.8387 239.087 79.16 239.363 79.3666 239.593C80.1239 240.489 80.1009 242.029 79.3436 243.615C79.1141 244.074 79.183 244.626 79.5272 245.017C80.6517 246.281 79.3895 248.303 79.9633 251.567C79.0682 249.544 77.4389 245.522 76.1078 241.569C75.7406 240.466 75.1439 238.696 76.039 237.593C76.3602 237.133 76.8881 236.927 77.2782 236.835Z" fill="#174062"/>
<path d="M74.316 302.128C74.2931 302.128 74.2701 302.128 74.2472 302.105C74.2013 302.059 74.1783 301.99 74.2242 301.944C74.5226 301.53 75.0963 301.094 75.7618 300.772C76.6109 300.266 81.6368 298.152 88.7051 298.152C90.7246 298.129 92.4917 298.382 94.144 298.612C94.2129 298.612 94.2588 298.68 94.2358 298.749C94.2358 298.818 94.167 298.864 94.0981 298.841C92.4687 298.612 90.7017 298.359 88.7051 298.382C81.6827 298.382 76.7257 300.45 75.8766 300.956C75.234 301.278 74.6832 301.691 74.4078 302.082C74.3849 302.128 74.3619 302.128 74.316 302.128Z" fill="#828282" fill-opacity="0.3"/>
<path d="M81.4065 116.543C81.5672 119.761 81.6131 122.404 81.5672 124.794C81.5901 125.69 81.2918 126.265 80.9705 126.609C80.6263 126.977 80.5574 127.529 80.8099 127.942C83.7015 132.815 88.9797 133.091 90.3796 133.091C92.032 133.091 97.5627 132.953 100.546 127.85C100.821 127.391 100.707 126.793 100.294 126.426C99.8576 126.035 99.3986 125.483 99.3757 124.587C99.3298 121.622 99.3986 119.14 99.4216 116.336C93.4548 116.405 87.3504 116.474 81.4065 116.543Z" fill="#F79797"/>
<path d="M81.4053 116.543C81.4971 118.519 81.5659 121.392 81.5659 121.392C82.3232 122.358 83.1265 123.254 83.9756 124.104C85.3984 125.483 87.3032 126.219 89.2768 126.219L91.4799 126.196C93.4994 126.173 95.4271 125.368 96.8041 123.897C97.8597 122.794 98.8236 121.668 99.3514 121.002C99.3744 119.462 99.3973 117.968 99.4203 116.359C93.4535 116.405 87.3491 116.474 81.4053 116.543Z" fill="#828282" fill-opacity="0.3"/>
<path d="M102.977 102.248C103.39 101.213 103.964 99.6275 104.354 97.6051C104.836 95.1229 105.295 92.6868 104.354 89.9519C104.033 89.0555 103.276 86.8032 101.141 85.5852C100.155 85.0106 99.2137 84.8727 98.5941 84.8267C98.2498 84.1372 97.8138 83.4248 97.2171 82.7583C94.1649 79.3109 89.5062 79.6097 88.4047 79.7016C87.8768 79.7935 87.2113 79.8395 86.477 79.7476C84.2738 79.4948 82.7592 78.2077 82.0937 77.5642C82.0019 78.0009 81.933 78.5754 81.933 79.196C81.933 80.1612 82.1166 80.9656 82.3002 81.5402C81.4511 81.4713 80.3266 81.5172 79.0874 81.862C75.6221 82.8732 73.7402 85.7001 73.1436 86.6653C73.4878 86.5964 73.8779 86.5504 74.314 86.5504C75.2549 86.5504 76.0351 86.7343 76.6089 86.9411C76.0351 87.3088 75.2778 87.8834 74.6352 88.8027C72.937 91.1929 73.2124 93.9968 73.3042 94.7093C73.4648 94.5254 73.6943 94.3415 73.9697 94.1577C74.6582 93.721 75.3237 93.675 75.6909 93.675C75.5532 94.3645 75.4385 95.1919 75.4385 96.0882C75.4155 99.0989 76.4712 101.42 77.1596 102.684C85.7655 102.523 94.3714 102.385 102.977 102.248Z" fill="#32313A"/>
<path d="M78.7204 101.834C78.6745 101.811 77.9401 101.512 77.2746 101.88C76.7697 102.156 76.4943 102.707 76.5632 103.259C76.5632 103.971 76.9304 107.694 77.114 108.614C77.3205 109.602 78.3532 109.878 78.9269 109.671C78.8581 107.051 78.7892 104.454 78.7204 101.834Z" fill="#828282" fill-opacity="0.3"/>
<path d="M101.557 101.88C101.603 101.857 102.314 101.558 102.979 101.903C103.484 102.178 103.76 102.707 103.691 103.282C103.691 103.994 103.37 107.717 103.209 108.636C103.094 109.694 101.993 109.924 101.419 109.717C101.488 107.097 101.534 104.5 101.557 101.88Z" fill="#828282" fill-opacity="0.3"/>
<path d="M79.1342 96.0879C78.5834 98.3632 78.4686 102.891 78.5375 107.418C78.6063 112.222 80.4652 116.818 83.701 120.358L84.7108 121.461C85.95 122.817 87.6942 123.575 89.5301 123.575H90.8841C92.7429 123.575 94.51 122.794 95.7493 121.415C96.0706 121.07 96.3918 120.702 96.7361 120.335C100.018 116.726 101.831 111.992 101.831 107.12C101.808 103.672 101.693 99.8111 101.326 97.0072C100.936 94.1114 98.4114 92.2038 97.8835 91.974C96.6213 91.0087 96.8279 89.8136 96.8049 89.5378C96.5525 89.9285 96.1394 90.4342 95.4968 90.9168C94.3035 91.8131 93.0872 91.974 91.5955 92.1349C90.5398 92.2498 89.0023 92.3187 87.1663 92.0659C86.5238 91.928 84.5272 91.6293 82.347 92.6865C80.2587 93.6288 79.4555 95.5133 79.1342 96.0879Z" fill="#F7B2B2"/>
<path d="M78.5371 105.442C78.5371 106.086 78.5371 106.752 78.5601 107.419C78.6289 112.222 80.4878 116.819 83.7236 120.358L84.7334 121.461C84.7104 121.438 82.6909 112.567 78.5371 105.442Z" fill="#F79797"/>
<path d="M95.749 121.392C96.0703 121.048 96.3916 120.68 96.7358 120.312C99.834 116.911 101.624 112.521 101.808 107.925C101.808 107.649 101.808 105.557 101.808 105.281C98.5488 110.728 96.8735 116.934 95.749 121.392Z" fill="#F79797"/>
<g style="mix-blend-mode:lighten">
<path d="M90.0107 121.967C91.2782 121.967 92.3056 121.545 92.3056 121.024C92.3056 120.504 91.2782 120.082 90.0107 120.082C88.7433 120.082 87.7158 120.504 87.7158 121.024C87.7158 121.545 88.7433 121.967 90.0107 121.967Z" fill="white" fill-opacity="0.3"/>
</g>
<path d="M90.0569 111.532C89.8044 111.532 89.5749 111.44 89.3684 111.28L89.0242 110.981C88.9783 110.935 88.9094 110.958 88.8865 110.981C88.6799 111.188 88.3357 111.211 88.1062 111.004L87.6013 110.544C87.5095 110.452 87.5095 110.314 87.5784 110.222C87.6702 110.13 87.8079 110.13 87.8997 110.199L88.4045 110.659C88.4504 110.705 88.5193 110.705 88.5422 110.659C88.7488 110.452 89.093 110.429 89.3225 110.613L89.6667 110.912C89.8962 111.096 90.2175 111.096 90.447 110.912L90.7912 110.613C91.0207 110.429 91.342 110.429 91.5486 110.636C91.5945 110.682 91.6174 110.682 91.6404 110.682C91.6633 110.682 91.6863 110.682 91.7092 110.659L92.1911 110.153C92.2829 110.061 92.4206 110.061 92.5124 110.153C92.6042 110.245 92.6042 110.383 92.5124 110.475L92.0305 110.981C91.9157 111.096 91.7781 111.142 91.6404 111.165C91.4797 111.165 91.342 111.119 91.2273 111.004C91.1814 110.958 91.1125 110.958 91.0666 110.981L90.7224 111.28C90.5617 111.463 90.3093 111.532 90.0569 111.532Z" fill="#828282" fill-opacity="0.3"/>
<path d="M86.2715 114.199C86.3633 114.566 86.6846 115.624 87.7173 116.405C89.3467 117.646 91.2744 117.049 91.3891 117.026C92.7661 116.566 93.7988 115.348 94.0512 113.9C93.1792 114.107 92.1694 114.268 91.0678 114.36C89.2319 114.497 87.6025 114.383 86.2715 114.199Z" fill="white"/>
<path d="M89.7583 114.658C89.2304 114.658 88.6797 114.635 88.1518 114.566C87.2798 114.474 86.4077 114.29 85.5586 114.037C85.4438 113.991 85.375 113.876 85.398 113.761C85.4209 113.646 85.5586 113.577 85.6733 113.6C86.4995 113.83 87.3257 114.014 88.1748 114.106C90.332 114.336 92.5122 114.083 94.6464 113.348C94.7612 113.302 94.8989 113.371 94.9448 113.486C94.9907 113.6 94.9218 113.738 94.8071 113.784C93.1547 114.382 91.4565 114.658 89.7583 114.658Z" fill="#828282" fill-opacity="0.3"/>
<path d="M80.9004 100.57C81.5888 100.524 82.3003 100.478 82.9887 100.432C83.31 100.409 83.6313 100.455 83.9526 100.547C84.7788 100.799 85.9033 101.144 86.6606 101.374C87.0048 101.466 87.3491 101.259 87.2573 100.983C87.1196 100.478 86.6376 100.064 85.9951 99.9031C85.6738 99.8112 85.3066 99.7193 84.9624 99.6273C84.1821 99.4205 83.31 99.4435 82.5527 99.7193C81.979 99.9261 81.4053 100.133 80.8086 100.363C80.6709 100.386 80.7168 100.57 80.9004 100.57Z" fill="#353437"/>
<path d="M99.2372 100.294C98.5487 100.248 97.8373 100.202 97.1488 100.156C96.8275 100.133 96.5062 100.179 96.1849 100.271C95.3588 100.524 94.2343 100.869 93.477 101.099C93.1327 101.191 92.7885 100.984 92.8803 100.708C93.018 100.202 93.4999 99.7886 94.1425 99.6277C94.4638 99.5358 94.8309 99.4439 95.1752 99.3519C95.9554 99.1451 96.8275 99.1681 97.5848 99.4439C98.1586 99.6507 98.7323 99.8576 99.329 100.087C99.4896 100.133 99.4208 100.317 99.2372 100.294Z" fill="#353437"/>
<path d="M85.5146 103.42C85.5605 104.04 85.0557 104.592 84.4131 104.638C83.7705 104.684 83.2197 104.201 83.1738 103.558C84.2754 103.65 84.6196 103.581 85.5146 103.42Z" fill="#353437"/>
<path d="M84.0444 103.742C83.2183 103.742 82.438 103.581 81.8872 103.328C81.7725 103.282 81.7266 103.144 81.7725 103.029C81.8184 102.914 81.9561 102.868 82.0708 102.914C83.0576 103.397 84.9853 103.466 86.2934 102.799C86.4082 102.731 86.5459 102.777 86.5918 102.891C86.6606 103.006 86.6147 103.144 86.5 103.19C85.7886 103.581 84.8935 103.742 84.0444 103.742Z" fill="#353437"/>
<path d="M94.5556 103.42C94.5097 104.04 95.0146 104.592 95.6572 104.638C96.2997 104.684 96.8505 104.201 96.8964 103.558C95.7949 103.65 95.4506 103.581 94.5556 103.42Z" fill="#353437"/>
<path d="M96.0021 103.742C95.1529 103.742 94.2579 103.581 93.5236 103.19C93.4088 103.121 93.3629 102.983 93.4318 102.891C93.5006 102.777 93.6383 102.731 93.7301 102.799C95.0152 103.466 96.9659 103.397 97.9527 102.914C98.0675 102.868 98.2052 102.914 98.2511 103.029C98.297 103.144 98.2511 103.282 98.1363 103.328C97.6314 103.581 96.8512 103.742 96.0021 103.742Z" fill="#353437"/>
<path d="M90.8858 133.252C90.4268 133.252 90.0596 133.229 89.7842 133.206C88.8663 133.137 87.3516 133.045 85.5846 132.287C83.2897 131.298 81.798 129.667 80.9488 128.471C80.9029 128.426 80.9259 128.357 80.9718 128.311C81.0177 128.265 81.0865 128.288 81.1324 128.334C81.9586 129.506 83.4273 131.092 85.6534 132.057C87.3746 132.815 88.8892 132.907 89.7842 132.953C90.6104 132.999 92.3316 133.114 94.4199 132.447C96.0264 131.942 97.1509 131.183 97.7017 130.793C98.7344 130.011 99.6294 129.069 100.318 127.966C100.341 127.92 100.433 127.897 100.478 127.92C100.524 127.943 100.547 128.035 100.524 128.081C99.813 129.207 98.918 130.172 97.8623 130.954C97.3115 131.367 96.1411 132.126 94.5117 132.654C93.0889 133.16 91.8267 133.252 90.8858 133.252Z" fill="#A8ADBE"/>
<path fill-rule="evenodd" clip-rule="evenodd" d="M92.2851 347.312C92.6063 345.129 92.8358 342.739 92.9276 340.165C90.9311 341.452 90.3344 340.509 90.4491 340.165C90.518 338.418 90.4032 337.016 90.2885 336.028C89.9443 332.994 89.7607 331.477 89.3017 330.144C89.164 329.776 88.8886 328.995 89.0033 328.007C89.0951 327.248 89.3935 326.628 89.623 326.26C89.4394 325.984 89.3017 325.663 89.141 325.364C88.8198 325.823 88.3378 326.628 88.1772 327.616C88.0854 328.214 88.1313 328.65 88.4067 330.098C88.7968 331.914 88.9574 332.626 89.164 333.661C89.4394 335.062 89.4853 336.12 89.5541 337.177C89.7377 340.601 89.2787 343.267 89.0951 344.21C88.8198 345.634 88.3837 347.45 87.5576 349.473C87.374 349.817 87.1904 350.323 87.1674 350.92C87.0986 352.782 88.5444 354.023 88.7739 354.207C88.7509 353.632 88.7739 352.759 89.0722 351.771C89.2099 351.311 89.623 350.093 90.977 348.553C91.4359 348.094 91.849 347.703 92.2851 347.312Z" fill="#CF5B6F"/>
<path fill-rule="evenodd" clip-rule="evenodd" d="M92.9516 340.165C90.9551 341.452 90.3584 340.509 90.4731 340.165C90.542 338.418 90.4272 337.016 90.3125 336.028C89.9682 332.994 89.7847 331.477 89.3257 330.144C89.188 329.776 88.9126 328.995 89.0273 328.007C89.1191 327.248 89.4175 326.628 89.647 326.26C89.4634 325.984 89.3257 325.663 89.165 325.364C88.8437 325.823 88.3618 326.628 88.2012 327.616C88.1094 328.214 88.1553 328.696 88.4307 330.121C88.4766 330.282 88.4995 330.443 88.5454 330.604C88.8896 332.052 89.0962 333.592 89.2339 334.993C89.2798 335.545 89.3486 336.051 89.3716 336.556C89.5322 339.061 89.4634 341.084 89.4175 341.681C89.3486 342.486 90.1977 342.9 91.1157 342.601C91.9648 342.348 92.9057 341.406 92.9516 340.165Z" fill="#A82248"/>
<path fill-rule="evenodd" clip-rule="evenodd" d="M90.1966 339.659C90.1966 339.061 90.1966 338.441 90.1736 337.797C90.0359 334.373 89.4851 331.316 88.7967 328.765C88.7049 328.467 88.5901 327.961 88.7278 327.34C88.9802 326.168 89.8982 325.548 90.2654 325.318C90.7244 325.019 91.9866 324.192 93.2488 324.72C94.2585 325.157 94.6257 326.191 94.6946 326.444C94.8552 327.042 95.0618 327.892 95.2224 328.903C95.4748 330.42 95.7961 332.167 95.6125 334.35C95.4978 335.844 95.3142 337.591 94.1667 339.199C93.4553 340.188 92.721 340.693 92.4226 340.831C91.4358 341.291 90.1507 341.613 90.1966 339.659Z" fill="#A82248"/>
<path fill-rule="evenodd" clip-rule="evenodd" d="M111.54 328.926C110.324 325.318 107.891 323.18 106.951 322.353C106.056 321.572 105.092 320.905 104.977 320.813C104.266 320.331 103.6 319.94 103.072 319.664C103.141 320.262 103.187 321.549 102.453 322.031C102.177 322.215 101.902 322.192 101.007 322.1C98.3217 321.87 92.9975 322.261 94.122 325.915C94.2597 326.582 96.6694 333.752 93.7549 339.291C93.1582 340.188 92.7222 340.578 91.9189 341.015C91.7124 343.865 91.3682 346.301 90.9092 348.645C90.9321 348.599 90.978 348.576 91.001 348.53C92.1255 347.266 93.2959 346.462 95.1318 345.405C98.0922 343.681 110.99 337.636 112.16 331.339C112.022 330.144 111.747 329.524 111.54 328.926Z" fill="#CF5B6F"/>
<path d="M91.1832 356C92.3765 355.747 93.0191 355.563 93.9141 355.196C96.6221 354.046 98.5957 352.713 100.638 351.22C105.205 347.864 107.5 346.186 109.795 343.428C111.791 341.015 112.641 339.292 113.1 337.614C113.513 336.12 113.604 334.81 113.604 333.891C113.031 335.063 111.998 336.947 110.254 338.832C106.536 342.854 90.8848 352.484 90.5406 353.058C89.921 354.138 89.5997 355.127 91.1832 356Z" fill="#353437"/>
<path fill-rule="evenodd" clip-rule="evenodd" d="M112.16 331.339C111.127 336.579 100.227 342.118 96.5777 344.278C88.0636 349.059 87.9488 348.875 87.2604 350.438C86.9161 351.518 87.5587 354.46 91.1617 356C89.7159 354.965 90.2896 354.138 91.6436 353.265C92.9976 352.391 101.535 347.128 104.128 345.382C104.289 345.29 106.446 343.819 109.062 341.612C110.531 340.371 111.678 339.291 112.573 337.59C112.986 336.786 113.239 336.051 113.376 335.545C113.491 335.177 113.629 334.626 113.583 333.959C113.468 332.465 112.435 331.569 112.16 331.339Z" fill="#A82248"/>
<path fill-rule="evenodd" clip-rule="evenodd" d="M88.521 346.692C89.1865 346.255 89.7832 345.841 90.4487 345.382C91.0913 344.968 91.7109 344.531 92.3535 344.118C92.9272 343.727 93.6845 343.796 94.2123 344.256C94.2123 344.256 94.2123 344.256 94.2353 344.256C94.809 344.738 95.704 344.784 96.4843 344.325C95.268 345.106 94.0517 345.887 92.8125 346.738C90.8388 348.071 89.0259 349.335 87.2129 350.668C87.2129 350.047 87.5801 349.542 87.8096 348.875C88.062 348.14 88.3374 347.404 88.521 346.692Z" fill="#A82248"/>
<path fill-rule="evenodd" clip-rule="evenodd" d="M107.387 328.443C105.643 327.984 103.44 327.547 100.87 327.432C98.8271 327.34 97.0141 327.455 95.4766 327.639C95.6831 328.995 95.8896 330.351 96.0962 331.707C97.4731 331.592 99.0107 331.523 100.686 331.615C104.358 331.776 107.479 332.557 109.843 333.339C109.016 331.707 108.213 330.075 107.387 328.443Z" fill="#A82248"/>
<path fill-rule="evenodd" clip-rule="evenodd" d="M109.636 335.476C107.961 335.016 106.01 334.626 103.83 334.35C100.893 334.005 98.2763 334.005 96.0962 334.143C95.8896 335.269 95.6831 336.395 95.4766 337.499C96.9682 337.384 98.7124 337.338 100.663 337.499C102.774 337.659 104.633 338.027 106.148 338.418C106.836 337.958 107.617 337.384 108.397 336.694C108.879 336.28 109.269 335.867 109.636 335.476Z" fill="#A82248"/>
<path fill-rule="evenodd" clip-rule="evenodd" d="M104.22 320.285C104.472 321.319 104.771 322.399 105.138 323.479C106.561 327.915 108.534 331.592 110.439 334.534C110.737 334.189 111.816 332.902 112.16 331.339C112.114 330.949 112.022 330.42 111.862 329.822C111.311 327.754 110.393 326.352 109.888 325.594C107.983 322.744 105.321 320.974 104.22 320.285Z" fill="#A82248"/>
<path fill-rule="evenodd" clip-rule="evenodd" d="M91.0684 342.646C91.2749 342.624 95.9336 341.865 96.5991 334.488C97.0122 329.776 95.75 324.996 95.1074 323.019C94.5566 323.41 93.914 324.099 94.0058 325.203C94.0288 325.455 94.3501 326.651 94.373 326.719C94.5796 327.386 95.4746 331.408 94.8779 335.959C94.6025 337.383 94.0058 340.509 91.3208 341.176C91.229 341.497 91.0913 342.348 91.0684 342.646Z" fill="#A82248"/>
<path fill-rule="evenodd" clip-rule="evenodd" d="M89.4404 338.372C89.5324 338.441 89.6703 338.555 89.7622 338.716C89.9001 339.061 89.7852 339.498 89.4634 339.819C89.4634 339.268 89.4634 338.877 89.4404 338.372Z" fill="white"/>
<path fill-rule="evenodd" clip-rule="evenodd" d="M89.2334 335.016C89.3483 335.085 89.5092 335.177 89.6011 335.407C89.785 335.774 89.6931 336.234 89.3483 336.602C89.3023 336.05 89.2794 335.544 89.2334 335.016Z" fill="white"/>
<path fill-rule="evenodd" clip-rule="evenodd" d="M88.8682 332.258C88.9371 332.281 89.2819 332.419 89.3738 332.763C89.4887 333.085 89.3508 333.453 89.075 333.683C89.029 333.338 88.8911 332.396 88.8682 332.258Z" fill="white"/>
<path fill-rule="evenodd" clip-rule="evenodd" d="M88.249 329.156C88.318 329.179 88.4559 329.247 88.5938 329.408C88.6397 329.477 88.8696 329.73 88.8006 330.098C88.7546 330.351 88.5938 330.511 88.5248 330.58C88.4559 330.259 88.3869 329.937 88.318 329.569C88.295 329.431 88.272 329.293 88.249 329.156Z" fill="white"/>
<path d="M95.9125 337.072C95.9939 336.648 95.8069 336.256 95.495 336.196C95.1831 336.136 94.8643 336.431 94.783 336.855C94.7017 337.279 94.8886 337.671 95.2005 337.731C95.5124 337.791 95.8312 337.496 95.9125 337.072Z" fill="white"/>
<path d="M96.3875 333.539C96.4396 333.11 96.2263 332.732 95.9109 332.693C95.5956 332.655 95.2978 332.971 95.2457 333.399C95.1936 333.828 95.407 334.206 95.7223 334.245C96.0376 334.283 96.3354 333.967 96.3875 333.539Z" fill="white"/>
<path d="M95.7415 331.027C96.0584 331.005 96.292 330.639 96.2632 330.208C96.2345 329.778 95.9543 329.446 95.6373 329.467C95.3204 329.488 95.0868 329.855 95.1155 330.285C95.1443 330.716 95.4245 331.048 95.7415 331.027Z" fill="white"/>
<path d="M95.3452 327.791C95.6592 327.742 95.8607 327.357 95.7953 326.931C95.73 326.504 95.4225 326.198 95.1085 326.246C94.7945 326.294 94.593 326.679 94.6584 327.106C94.7238 327.532 95.0313 327.839 95.3452 327.791Z" fill="white"/>
<path fill-rule="evenodd" clip-rule="evenodd" d="M89.739 339.153C89.7161 339.153 89.6702 339.13 89.6472 339.107C89.6013 339.061 89.6013 338.992 89.6702 338.946C90.8406 337.935 94.3518 336.763 95.3156 336.671C95.3845 336.671 95.4304 336.717 95.4304 336.763C95.4304 336.832 95.3845 336.877 95.3386 336.877C94.4206 336.969 90.9324 338.119 89.8308 339.084C89.7849 339.153 89.762 339.153 89.739 339.153Z" fill="white"/>
<path fill-rule="evenodd" clip-rule="evenodd" d="M89.6022 335.935C89.5792 335.935 89.5333 335.912 89.5104 335.889C89.4645 335.843 89.4874 335.774 89.5333 335.728C90.7037 334.809 94.4903 333.43 95.8213 333.223C95.8902 333.223 95.9361 333.246 95.959 333.315C95.959 333.384 95.9131 333.43 95.8672 333.453C94.6051 333.637 90.8185 335.016 89.694 335.912C89.6481 335.935 89.6251 335.935 89.6022 335.935Z" fill="white"/>
<path fill-rule="evenodd" clip-rule="evenodd" d="M89.2799 332.925C89.257 332.925 89.2111 332.902 89.1881 332.879C89.1422 332.833 89.1652 332.764 89.2111 332.718C90.7716 331.454 94.4664 330.121 95.6827 329.983C95.7515 329.983 95.7974 330.029 95.8204 330.075C95.8204 330.144 95.7745 330.19 95.7286 330.213C94.5582 330.351 90.8634 331.684 89.3717 332.902C89.3258 332.925 89.3028 332.925 89.2799 332.925Z" fill="white"/>
<path fill-rule="evenodd" clip-rule="evenodd" d="M88.6158 329.937C88.5929 329.937 88.5699 329.937 88.547 329.914C88.5011 329.868 88.4781 329.799 88.524 329.753C89.2814 328.765 94.0548 327.018 95.1793 326.88C95.2481 326.88 95.294 326.926 95.3169 326.972C95.3169 327.041 95.271 327.087 95.2252 327.11C93.9859 327.271 89.3961 329.041 88.7076 329.914C88.6847 329.914 88.6617 329.937 88.6158 329.937Z" fill="white"/>
<path fill-rule="evenodd" clip-rule="evenodd" d="M103.9 330.373C103.258 330.373 102.546 330.166 101.881 329.661C100.504 328.765 99.0121 328.075 97.4516 327.638C96.4877 327.386 95.5239 327.202 94.5141 327.133C94.4682 327.133 94.4452 327.11 94.4223 327.064C94.3994 327.018 94.3994 326.972 94.4452 326.949C95.019 326.168 95.7304 325.501 96.5107 324.995C99.081 323.295 103.074 322.766 105.3 324.812C106.471 326.03 107.389 327.96 106.08 329.454C105.553 329.983 104.772 330.373 103.9 330.373ZM94.7436 326.903C95.6845 326.995 96.6025 327.156 97.4975 327.409C99.1039 327.845 100.619 328.535 102.018 329.454C103.464 330.557 105.071 330.166 105.897 329.27C106.677 328.374 106.907 326.765 105.14 324.949C103.441 323.41 99.8153 323.088 96.6254 325.179C95.914 325.639 95.2944 326.213 94.7436 326.903Z" fill="white"/>
<path fill-rule="evenodd" clip-rule="evenodd" d="M101.491 333.683C100.803 333.683 100.183 333.476 99.7698 333.338C96.5569 332.235 95.0423 328.557 94.5604 327.041C94.5374 326.995 94.5604 326.926 94.6292 326.903C95.7308 326.466 97.429 326.029 99.3797 326.443C101.514 326.903 104.497 328.511 104.497 330.672C104.497 331.752 103.809 332.855 102.799 333.384C102.386 333.614 101.927 333.683 101.491 333.683ZM94.8128 327.087C95.3177 328.626 96.7864 332.074 99.8386 333.131C100.458 333.338 101.629 333.752 102.707 333.177C103.625 332.717 104.268 331.66 104.268 330.672C104.268 328.626 101.376 327.087 99.3108 326.65C97.4978 326.282 95.8914 326.673 94.8128 327.087Z" fill="white"/>
<path fill-rule="evenodd" clip-rule="evenodd" d="M98.6209 339.566C98.5979 339.566 98.5979 339.566 98.575 339.566C97.4734 339.038 95.431 337.774 94.2376 335.222C93.3426 333.315 93.2049 331.178 93.7786 328.879C93.9622 328.167 94.2147 327.477 94.5589 326.811C94.5818 326.765 94.6507 326.742 94.7195 326.765C94.7654 326.788 94.7884 326.857 94.7654 326.926C94.4442 327.569 94.1917 328.236 94.0081 328.948C93.4344 331.201 93.595 333.269 94.4671 335.131C95.6145 337.59 97.6111 338.831 98.6897 339.359C98.7356 339.382 98.7815 339.451 98.7356 339.52C98.7127 339.543 98.6668 339.566 98.6209 339.566Z" fill="white"/>
<path fill-rule="evenodd" clip-rule="evenodd" d="M105.484 333.706C101.377 333.706 98.2325 330.879 97.1539 329.891C96.19 329.018 95.318 328.006 94.5836 326.903C94.5377 326.857 94.5607 326.788 94.6066 326.742C94.6525 326.719 94.7213 326.719 94.7672 326.765C95.4786 327.846 96.3277 328.834 97.2916 329.707C98.462 330.764 101.996 333.936 106.517 333.407C107.71 333.269 108.904 332.856 110.028 332.189C110.074 332.166 110.143 332.166 110.189 332.235C110.212 332.281 110.212 332.35 110.143 332.396C108.996 333.063 107.779 333.476 106.54 333.637C106.196 333.683 105.829 333.706 105.484 333.706Z" fill="white"/>
<path fill-rule="evenodd" clip-rule="evenodd" d="M50.1035 171.104L50.9067 170.415C51.0903 170.254 51.2969 170.185 51.5264 170.185H129.783C130.104 170.185 130.402 170.3 130.632 170.53C130.838 170.714 131.045 170.921 131.251 171.104H50.1035Z" fill="#087CB6"/>
<path fill-rule="evenodd" clip-rule="evenodd" d="M127.671 211.233C128.979 198.11 130.287 184.986 131.595 171.886C131.641 171.404 131.297 170.99 130.861 170.99H50.5393C50.1032 170.99 49.759 171.404 49.8049 171.886C51.1589 185.009 52.4899 198.133 53.8439 211.233C53.8898 211.646 54.2111 211.968 54.5783 211.968H126.937C127.327 211.945 127.648 211.646 127.671 211.233Z" fill="#DCF8FF"/>
<path fill-rule="evenodd" clip-rule="evenodd" d="M127.67 211.233C128.978 198.11 130.287 184.986 131.595 171.886C131.641 171.404 131.296 170.99 130.86 170.99H117.94C87.9455 205.993 76.1956 190.066 53.1318 204.361C53.3613 206.659 53.6138 208.957 53.8433 211.256C53.8892 211.669 54.2104 211.991 54.5776 211.991H126.936C127.326 211.945 127.647 211.646 127.67 211.233Z" fill="#A0CAD9"/>
<path fill-rule="evenodd" clip-rule="evenodd" d="M126.661 214.013H54.8071C54.2563 214.013 53.8203 213.577 53.8203 213.025V212.933C53.8203 212.382 54.2563 211.945 54.8071 211.945H126.661C127.211 211.945 127.647 212.382 127.647 212.933V213.025C127.624 213.577 127.188 214.013 126.661 214.013Z" fill="#087CB6"/>
<path d="M91.5732 195.351C93.8293 195.351 95.6581 194.086 95.6581 192.524C95.6581 190.963 93.8293 189.698 91.5732 189.698C89.3172 189.698 87.4883 190.963 87.4883 192.524C87.4883 194.086 89.3172 195.351 91.5732 195.351Z" fill="#087CB6"/>
<path fill-rule="evenodd" clip-rule="evenodd" d="M91.5732 189.698C89.3242 189.698 87.4883 190.962 87.4883 192.524C87.4883 193.053 87.6948 193.559 88.085 193.995C90.2881 193.237 92.583 192.272 94.9926 190.985C94.2582 190.203 92.9961 189.698 91.5732 189.698Z" fill="#6AB4CE"/>
<path d="M117.713 5.74479L86.2497 13.7198V19.6033C86.112 20.1319 86.3415 20.7065 86.9381 20.9593L117.506 33.5308C118.264 33.8526 119.09 33.278 119.09 32.4736V6.64111C119.113 5.79075 118.47 5.42303 117.713 5.74479Z" fill="#A8ADBE"/>
<path fill-rule="evenodd" clip-rule="evenodd" d="M117.53 0.0909278L86.9615 12.7314C86.0206 13.1221 86.0206 14.4551 86.9615 14.8458L117.53 27.4863C118.287 27.808 119.113 27.2334 119.113 26.4291V1.14813C119.113 0.343737 118.287 -0.230829 117.53 0.0909278Z" fill="white"/>
<path d="M199.883 200.277L198.437 197.335L181.34 206.437L182.717 209.562C182.786 209.677 182.9 209.792 183.084 209.861L198.689 216.457C199.24 216.664 199.722 216.365 199.768 215.768L199.974 200.553C199.952 200.461 199.929 200.346 199.883 200.277Z" fill="#A8ADBE"/>
<path fill-rule="evenodd" clip-rule="evenodd" d="M197.611 197.105L181.592 205.654C181.11 205.907 181.156 206.596 181.638 206.803L197.289 213.307C197.703 213.468 198.162 213.192 198.162 212.733L198.506 197.679C198.552 197.197 198.047 196.875 197.611 197.105Z" fill="white"/>
</svg>
