<svg width="300" height="326" viewBox="0 0 300 326" fill="none" xmlns="http://www.w3.org/2000/svg">
<path d="M262.193 7.21542C263.488 7.21542 264.538 6.17071 264.538 4.882C264.538 3.59329 263.488 2.54858 262.193 2.54858C260.898 2.54858 259.849 3.59329 259.849 4.882C259.849 6.17071 260.898 7.21542 262.193 7.21542Z" fill="#A2D6FC" fill-opacity="0.72"/>
<path d="M86.9156 228.913C87.8867 228.913 88.674 228.129 88.674 227.163C88.674 226.196 87.8867 225.413 86.9156 225.413C85.9445 225.413 85.1572 226.196 85.1572 227.163C85.1572 228.129 85.9445 228.913 86.9156 228.913Z" fill="#A2D6FC" fill-opacity="0.72"/>
<path d="M122.196 237.929C125.04 237.929 127.346 235.634 127.346 232.804C127.346 229.973 125.04 227.678 122.196 227.678C119.352 227.678 117.047 229.973 117.047 232.804C117.047 235.634 119.352 237.929 122.196 237.929Z" fill="#A2D6FC" fill-opacity="0.72"/>
<path d="M5.39071 171.1C8.23469 171.1 10.5402 168.806 10.5402 165.975C10.5402 163.145 8.23469 160.85 5.39071 160.85C2.54672 160.85 0.241211 163.145 0.241211 165.975C0.241211 168.806 2.54672 171.1 5.39071 171.1Z" fill="#A2D6FC" fill-opacity="0.72"/>
<path d="M294.256 287.353C297.956 287.353 300.955 284.368 300.955 280.686C300.955 277.004 297.956 274.019 294.256 274.019C290.557 274.019 287.558 277.004 287.558 280.686C287.558 284.368 290.557 287.353 294.256 287.353Z" fill="#A2D6FC" fill-opacity="0.72"/>
<path d="M285.548 27.6348C288.404 27.6348 290.719 25.3309 290.719 22.4888C290.719 19.6467 288.404 17.3428 285.548 17.3428C282.693 17.3428 280.378 19.6467 280.378 22.4888C280.378 25.3309 282.693 27.6348 285.548 27.6348Z" fill="#A2D6FC" fill-opacity="0.72"/>
<path d="M99.5175 176.869C101.136 176.869 102.448 175.564 102.448 173.953C102.448 172.342 101.136 171.036 99.5175 171.036C97.899 171.036 96.5869 172.342 96.5869 173.953C96.5869 175.564 97.899 176.869 99.5175 176.869Z" fill="#A2D6FC" fill-opacity="0.72"/>
<path d="M70.6826 42.0101C72.3011 42.0101 73.6132 40.7042 73.6132 39.0933C73.6132 37.4824 72.3011 36.1765 70.6826 36.1765C69.064 36.1765 67.752 37.4824 67.752 39.0933C67.752 40.7042 69.064 42.0101 70.6826 42.0101Z" fill="#A2D6FC" fill-opacity="0.72"/>
<path d="M170.395 326C192.939 326 211.214 323.929 211.214 321.374C211.214 318.82 192.939 316.749 170.395 316.749C147.852 316.749 129.576 318.82 129.576 321.374C129.576 323.929 147.852 326 170.395 326Z" fill="#8EA2C0" fill-opacity="0.48"/>
<path d="M160.828 324.666C173.684 324.666 184.106 323.174 184.106 321.333C184.106 319.492 173.684 318 160.828 318C147.972 318 137.551 319.492 137.551 321.333C137.551 323.174 147.972 324.666 160.828 324.666Z" fill="#8EA2C0" fill-opacity="0.48"/>
<path d="M255.863 260.06C305.182 260.06 345.163 255.713 345.163 250.351C345.163 244.989 305.182 240.642 255.863 240.642C206.544 240.642 166.563 244.989 166.563 250.351C166.563 255.713 206.544 260.06 255.863 260.06Z" fill="#8EA2C0" fill-opacity="0.48"/>
<path d="M180.693 118.492C180.442 118.263 180.693 117.575 181.091 117.2C182.452 115.054 186.262 110.242 187.141 110.367C188.376 111.596 184.44 117.013 182.222 118.284C181.677 118.513 181.28 118.7 180.693 118.492Z" fill="#262F69"/>
<path d="M185.906 277.685C185.613 277.623 184.964 277.56 184.462 277.435C177.408 275.748 170.165 272.435 170.458 271.289C170.562 270.894 171.567 270.831 172.823 270.769C177.889 270.498 184.86 272.394 185.739 276.352C185.802 276.685 185.948 277.206 185.906 277.685Z" fill="#161616" fill-opacity="0.3"/>
<path d="M290.298 189.724H189.234V252.539H290.298V189.724Z" fill="#5287AD"/>
<path fill-rule="evenodd" clip-rule="evenodd" d="M276.107 180.182H202.611L189.235 189.724H290.32L276.107 180.182Z" fill="#5287AD"/>
<g style="mix-blend-mode:lighten">
<path d="M244.141 188.953C256.823 188.953 267.104 187.116 267.104 184.849C267.104 182.582 256.823 180.745 244.141 180.745C231.459 180.745 221.178 182.582 221.178 184.849C221.178 187.116 231.459 188.953 244.141 188.953Z" fill="#8BB8D8"/>
</g>
<path fill-rule="evenodd" clip-rule="evenodd" d="M290.32 252.539H215.548C226.831 218.933 248.957 218.1 257.037 189.724H290.32V252.539Z" fill="#8BB8D8"/>
<path d="M276.525 181.432C268.592 173.119 250.213 174.994 241.023 176.661C240.5 169.14 250.443 155.723 246.445 145.493C245.021 141.826 243.451 138.514 241.86 135.514C244.456 137.847 267.043 160.827 272.569 165.869C274.223 167.369 281.758 174.994 276.525 181.432Z" fill="#262F69"/>
<path d="M205.73 98.9287C203.595 103.721 201.502 109.575 200.099 116.388C196.771 132.388 198.697 146.055 200.727 154.639C203.511 155.202 206.295 155.743 209.079 156.306C210.482 149.243 211.612 140.034 211.173 129.284C210.649 116.784 208.158 106.429 205.73 98.9287Z" fill="#262F69"/>
<path d="M172.489 268.372C172.05 269.372 171.568 270.393 171.066 271.414C169.663 274.247 168.156 276.81 166.67 279.081C168.345 279.31 171.254 281.206 175.169 284.102C177.032 285.477 181.721 287.164 182.893 284.352C183.207 282.602 183.793 280.393 184.923 278.018C185.51 276.789 186.158 275.706 186.786 274.789C187.728 271.289 186.431 267.684 183.73 265.872C180.339 263.622 175.231 264.539 172.489 268.372Z" fill="#F7B2B2"/>
<path d="M178.519 285.644C180.34 286.102 182.203 285.998 182.894 284.352C183.208 282.602 183.794 280.393 184.924 278.018C185.51 276.789 186.159 275.706 186.787 274.789C187.143 273.497 187.185 272.185 186.955 270.956C181.282 277.331 179.021 281.935 178.519 285.644Z" fill="#F69797"/>
<path fill-rule="evenodd" clip-rule="evenodd" d="M140.546 309.77C140.19 310.27 139.729 311.02 139.373 311.999C139.185 312.499 138.641 313.999 138.829 315.645C139.185 318.832 142.074 320.791 143.037 321.353C144.69 322.333 146.177 322.52 148.04 322.749C148.542 322.812 150.803 323.062 153.838 322.583C156.434 322.166 158.276 321.416 159.72 320.832C161.772 319.978 165.246 318.52 168.658 315.499C168.826 315.353 170.752 313.061 174.624 308.478C176.362 306.436 177.911 304.582 180.339 302.415C181.344 301.519 182.202 300.811 182.83 300.332C183.144 299.978 183.458 299.519 183.751 298.998C184.819 296.936 184.505 294.852 184.316 293.957C181.909 294.79 179.481 295.623 177.074 296.477C164.66 300.79 152.498 305.228 140.546 309.77Z" fill="#8F1D3E"/>
<path fill-rule="evenodd" clip-rule="evenodd" d="M161.249 296.144C164.158 292.623 166.419 289.706 171.882 283.06C172.029 282.872 172.385 282.477 172.971 282.289C174.101 281.914 175.064 282.602 175.19 282.685C176.195 283.372 177.199 284.039 178.204 284.727C178.539 284.935 179.083 285.164 179.774 285.227C181.533 285.373 182.768 284.164 182.977 283.956C184.714 287.143 184.945 292.06 184.233 294.019C183.605 294.415 182.726 294.977 181.7 295.685C180.905 296.248 177.974 298.331 173.704 302.665C171.673 304.727 169.182 307.457 166.545 310.873C165.749 311.603 164.619 312.582 163.112 313.519C162.107 314.165 158.925 316.061 154.278 316.853C153.357 316.999 150.489 317.436 146.889 316.936C144.105 316.54 143.079 315.894 142.451 315.374C142.074 315.061 140.441 313.707 140.358 311.644C140.316 310.561 140.713 309.748 141.069 309.04C141.865 307.394 143.016 306.436 143.33 306.186C145.737 304.144 147.705 301.602 150.049 299.477C151.975 297.727 154.655 295.06 157.627 291.289C158.737 292.977 161.165 296.206 161.249 296.144Z" fill="#C63C56"/>
<path fill-rule="evenodd" clip-rule="evenodd" d="M150.05 299.477C150.762 299.394 155.116 299.269 158.256 301.519C163.636 304.977 166.001 308.457 166.776 310.665C166.106 311.352 165.101 312.29 163.782 313.207C160.705 315.332 157.837 316.082 156.288 316.478C152.5 317.415 149.485 317.228 148.648 317.165C146.555 316.999 144.838 316.582 143.603 316.186C143.122 315.957 142.263 315.478 141.531 314.54C141.238 314.165 140.589 313.332 140.421 312.04C140.233 310.748 140.631 309.748 140.861 309.227C141.238 308.311 141.74 307.727 142.745 306.623C143.436 305.852 143.603 305.79 145.11 304.331C146.136 303.331 146.199 303.227 147.622 301.831C148.229 301.248 149.046 300.435 150.05 299.477Z" fill="#E46379"/>
<path fill-rule="evenodd" clip-rule="evenodd" d="M173.076 282.164C173.264 282.122 173.557 282.081 173.913 282.122C174.457 282.185 174.876 282.372 175.169 282.581C175.504 282.831 175.839 283.081 176.195 283.31C176.299 283.393 176.404 283.456 176.509 283.539C174.75 286.727 166.754 297.227 161.249 303.769C160.328 304.581 158.946 304.477 158.234 303.623C157.627 302.894 157.606 301.748 158.276 300.935C163.195 294.706 168.136 288.435 173.076 282.164Z" fill="#E46379"/>
<path fill-rule="evenodd" clip-rule="evenodd" d="M149.986 299.539C151.221 298.206 152.477 296.81 153.712 295.31C158.234 289.831 161.625 284.372 164.221 279.372C164.409 279.164 164.702 278.893 165.1 278.664C166.523 277.789 168.051 278.018 168.554 278.101C170.354 278.393 172.594 279.997 173.159 282.185C170.605 286.039 167.863 289.747 165.058 293.248C162.776 296.102 160.516 298.873 158.255 301.54C157.376 300.977 155.952 300.206 154.026 299.789C152.352 299.414 150.949 299.435 149.986 299.539Z" fill="#8F1D3E"/>
<path fill-rule="evenodd" clip-rule="evenodd" d="M177.785 250.08C178.141 250.33 178.706 250.642 179.46 250.809C180.988 251.163 182.244 250.642 182.704 250.434C183.374 249.809 184.274 248.934 185.3 247.851C186.598 246.475 188.231 244.58 190.408 241.475C194.259 235.996 196.876 230.912 197.19 230.287C199.409 225.954 202.067 219.87 204.161 212.183C204.244 211.703 204.265 211.078 204.077 210.433C203.344 208.057 200.309 207.495 200.183 207.474C199.618 209.433 198.781 212.058 197.671 215.141C194.531 223.85 191.266 230.017 190.533 231.392C186.472 238.975 182.642 244.059 181.804 245.163C180.213 247.226 178.811 248.892 177.785 250.08Z" fill="#8F1D3E"/>
<path fill-rule="evenodd" clip-rule="evenodd" d="M186.346 204.932C186.073 207.891 186.032 210.537 185.759 213.495C185.571 213.829 185.257 214.329 184.838 214.891C182.892 217.349 180.359 218.266 179.459 218.579C178.789 218.808 177.805 219.1 176.591 219.225C176.905 220.558 177.344 222.537 177.805 224.954C178.705 229.662 179.145 232.017 179.019 234.017C178.789 237.434 177.679 240.413 176.884 242.517C176.444 243.705 176.005 244.684 175.67 245.371C175.502 245.746 175.251 246.455 175.398 247.309C175.691 249.246 177.658 250.101 177.805 250.163C178.726 249.059 179.982 247.517 181.426 245.642C181.426 245.642 185.09 240.829 188.104 235.85C191.307 230.579 195.996 221.329 200.099 208.099C199.282 207.578 198.361 207.016 197.314 206.578C193.023 204.745 188.816 204.599 186.346 204.932Z" fill="#C63C56"/>
<path fill-rule="evenodd" clip-rule="evenodd" d="M180.108 235.204C180.757 235.308 181.532 235.475 182.327 235.766C184.274 236.475 185.656 237.558 186.514 238.35C185.404 240.017 184.232 241.704 182.997 243.433C181.281 245.788 179.585 248.017 177.889 250.079C177.492 249.954 176.801 249.642 176.215 248.975C175.964 248.684 175.252 247.871 175.294 246.663C175.336 245.788 175.754 245.163 175.943 244.913C176.173 244.35 176.508 243.558 176.864 242.6C177.408 241.162 177.743 240.287 178.078 239.183C178.329 238.329 178.622 237.141 178.81 235.683C179.229 235.516 179.669 235.35 180.108 235.204Z" fill="#E46379"/>
<path fill-rule="evenodd" clip-rule="evenodd" d="M177.659 218.995C178.35 218.682 178.831 218.516 180.004 218.078C181.113 217.432 181.95 217.453 182.285 217.641C182.62 219.557 182.913 221.599 183.164 223.745C183.478 226.474 183.667 229.058 183.772 231.495C183.772 232.037 183.709 232.787 183.437 233.62C183.018 234.954 182.264 235.829 181.804 236.308C181.511 236.558 181.113 236.871 180.59 237.141C179.69 237.579 178.852 237.683 178.371 237.704C178.476 237.246 178.685 236.183 178.79 235.725C180.213 232.245 178.224 223.87 177.659 218.995Z" fill="#E46379"/>
<path d="M173.577 207.412C174.351 208.662 175.189 210.266 175.88 212.183C176.863 214.933 177.219 217.391 177.345 219.245C178.287 219.183 178.496 218.808 180.066 218.058C180.82 217.725 181.301 217.537 182.327 217.662C184.378 216.37 185.467 214.662 185.906 213.87C186.116 211.037 186.325 208.183 186.534 205.349C186.304 204.828 185.885 203.932 185.425 203.016C180.736 195.349 170.102 199.953 173.577 207.412Z" fill="#F7B2B2"/>
<path fill-rule="evenodd" clip-rule="evenodd" d="M178.789 235.662C179.25 235.558 179.92 235.35 180.548 234.829C182.264 233.412 182.055 231.016 182.034 230.766C182.076 229.12 181.029 220.537 180.38 218.62C180.108 217.933 179.543 217.558 178.957 217.37C177.596 216.933 176.382 217.62 176.173 217.745C176.424 218.912 178.957 231.725 178.957 233.079C178.978 234.037 178.915 234.912 178.789 235.662Z" fill="#8F1D3E"/>
<path fill-rule="evenodd" clip-rule="evenodd" d="M210.043 186.64C207.531 185.89 203.554 184.599 198.886 182.474C190.973 178.869 188.629 176.348 175.943 168.702C168.345 164.119 164.535 161.827 163.321 161.181C156.392 157.556 152.477 156.285 150.489 151.993C150.091 151.16 148.647 148.035 149.861 144.681C150.866 141.93 153.126 140.535 153.859 140.097C157.062 138.18 160.578 138.493 163.97 139.055C173.41 140.618 180.465 143.993 180.611 144.056C186.326 146.785 194.657 150.431 205.877 154.285C207.95 155.139 211.236 156.785 214.292 159.91C216.072 161.723 220.112 165.869 220.614 172.223C220.761 174.036 221.221 180.098 216.825 183.911C214.313 186.036 211.466 186.515 210.043 186.64Z" fill="#015B93"/>
<path fill-rule="evenodd" clip-rule="evenodd" d="M255.657 166.056C255.887 170.723 255.698 174.619 255.447 177.494C254.673 186.515 252.998 188.619 252.098 189.557C251.03 190.661 249.398 191.807 245.839 192.682C233.175 195.807 219.736 189.932 209.709 185.411C207.971 184.64 206.59 183.952 205.732 183.536C204.832 182.952 203.534 181.973 202.382 180.411C200.394 177.723 200.08 174.994 199.87 173.348C198.928 165.41 203.199 155.264 203.848 153.805C207.574 153.993 211.488 154.326 215.549 154.847C231.374 156.889 244.855 161.327 255.657 166.056Z" fill="#015B93"/>
<path d="M216.932 177.556L214.901 176.931C214.901 176.931 211.468 171.452 208.203 167.452C205.419 164.056 200.039 157.452 200.499 157.035C200.897 156.681 205.795 160.806 209.94 166.014C213.457 170.431 215.613 174.619 216.932 177.556Z" fill="#161616" fill-opacity="0.3"/>
<path d="M214.711 174.369C213.246 172.056 211.257 168.598 209.289 164.181C208.159 161.639 205.856 156.118 206.359 155.868C206.84 155.639 209.75 159.827 211.78 164.389C213.56 168.348 214.334 171.91 214.711 174.369Z" fill="#161616" fill-opacity="0.3"/>
<path d="M176.74 169.181C179.776 170.807 194.575 182.14 207.428 185.786C208.663 184.62 213.101 180.39 216.911 177.557C214.629 176.828 212.201 175.807 209.898 174.994C196.71 170.473 184.381 165.369 172.889 159.931C174.71 164.16 175.861 166.911 176.74 169.181Z" fill="#161616" fill-opacity="0.3"/>
<path fill-rule="evenodd" clip-rule="evenodd" d="M200.706 255.83C197.085 261.789 197.42 265.976 196.038 267.81C195.348 268.747 194.133 269.893 191.852 270.726C191.915 270.914 192.71 273.581 190.868 275.789C188.921 278.123 185.907 277.685 185.781 277.664C186.912 275.393 188.251 272.997 189.821 270.518C193.485 264.83 197.148 259.33 200.706 255.83Z" fill="#015B93"/>
<path fill-rule="evenodd" clip-rule="evenodd" d="M220.782 174.787C220.782 174.787 212.785 180.183 207.845 185.329C206.066 187.162 204.705 188.766 203.847 189.808C203.261 190.6 202.465 191.871 201.942 193.579C200.707 197.683 201.189 203.829 205.312 207.517C208.662 210.517 213.392 210.975 217.307 208.705C218.437 207.934 220.258 206.725 222.582 205.392C225.429 203.767 243.536 195.246 246.739 193.371C253.416 190.037 253.688 187.391 254.944 182.412C256.619 172.016 247.094 169.661 244.541 169.141C235.037 167.203 225.994 171.453 220.782 174.787Z" fill="#0178B4"/>
<path fill-rule="evenodd" clip-rule="evenodd" d="M202.275 192.703C200.936 196.766 198.947 202.683 196.351 209.746C194.467 214.871 191.265 223.288 181.426 246.164C178.642 252.664 174.916 261.206 170.437 271.289C172.216 271.248 175.523 271.373 179.228 272.998C182.515 274.435 184.671 276.435 185.822 277.685C187.664 274.685 190.658 269.935 194.614 264.268C201.647 254.164 203.406 253.08 207.132 246.809C212.344 238.038 214.814 230.225 215.924 226.163C218.101 218.142 218.708 211.079 218.771 205.725C218.75 203.975 218.457 201.224 217.012 198.266C215.484 195.183 211.402 189.307 206.692 189.953C205.876 190.057 204.118 190.495 202.275 192.703Z" fill="#0178B4"/>
<path fill-rule="evenodd" clip-rule="evenodd" d="M217.327 208.703C218.458 207.933 220.279 206.724 222.602 205.391C225.449 203.766 243.556 195.245 246.759 193.37C253.436 190.036 253.708 187.39 254.964 182.411C255.718 178.286 254.692 176.161 253.771 174.369C250.422 186.453 229.426 195.161 218.541 203.349C218.541 203.349 217.871 206.099 217.327 208.703Z" fill="#015B93"/>
<path fill-rule="evenodd" clip-rule="evenodd" d="M183.33 275.393C184.419 276.227 185.256 277.039 185.821 277.664C187.663 274.664 190.657 269.914 194.613 264.247C201.646 254.142 203.405 253.059 207.131 246.788C212.343 238.017 214.813 230.204 215.923 226.141C218.1 218.12 218.707 211.058 218.769 205.703C218.769 204.974 218.937 204.203 218.769 203.203C213.515 207.12 208.868 245.663 183.33 275.393Z" fill="#015B93"/>
<g style="mix-blend-mode:lighten">
<path d="M226.85 171.556C222.663 173.306 219.356 175.577 215.253 178.765C210.668 182.306 207.152 185.931 204.535 189.015C207.173 187.452 209.936 185.661 212.741 183.619C218.309 179.577 223.103 175.41 226.85 171.556Z" fill="white" fill-opacity="0.3"/>
</g>
<g style="mix-blend-mode:lighten">
<path d="M200.999 196.578C199.617 200.62 197.461 206.516 194.782 213.537C194.154 215.162 192.228 220.204 187.267 232.246C184.985 237.767 181.698 245.455 177.889 254.372C182.243 247.789 187.141 239.33 191.307 229.475C196.54 217.079 199.45 205.683 200.999 196.578Z" fill="white" fill-opacity="0.3"/>
</g>
<path d="M216.153 199.724C216.112 199.724 216.07 199.703 216.07 199.662C216.049 199.62 216.07 199.558 216.112 199.516C228.734 193.182 237.212 187.745 240.938 184.765C243.638 182.62 245.92 180.432 245.941 180.411C247.783 178.64 249.541 176.765 251.153 174.807C251.195 174.765 251.258 174.765 251.3 174.786C251.342 174.828 251.342 174.89 251.321 174.932C249.688 176.89 247.93 178.786 246.087 180.557C246.067 180.578 243.764 182.786 241.064 184.932C237.317 187.911 228.818 193.349 216.195 199.703C216.195 199.703 216.174 199.724 216.153 199.724Z" fill="#161616" fill-opacity="0.3"/>
<path d="M182.662 271.852C182.641 271.852 182.62 271.852 182.599 271.831C182.558 271.789 182.537 271.727 182.578 271.685C188.419 263.226 193.652 254.268 198.111 245.08C203.783 233.371 208.389 220.871 211.466 208.933C212.073 206.599 212.638 204.224 213.14 201.87C213.161 201.807 213.203 201.787 213.266 201.787C213.329 201.807 213.35 201.849 213.35 201.912C212.847 204.266 212.282 206.641 211.675 208.974C208.598 220.933 203.972 233.454 198.299 245.163C193.84 254.372 188.607 263.33 182.746 271.81C182.725 271.852 182.704 271.852 182.662 271.852Z" fill="#161616" fill-opacity="0.3"/>
<path d="M249.353 177.057C249.332 177.057 249.311 177.057 249.29 177.036C247.134 175.473 244.413 172.765 243.618 168.869C243.555 168.515 243.492 168.16 243.45 167.806C243.45 167.744 243.492 167.702 243.534 167.702C243.597 167.702 243.639 167.744 243.639 167.785C243.68 168.14 243.722 168.494 243.806 168.827C244.581 172.661 247.281 175.327 249.395 176.869C249.437 176.911 249.458 176.973 249.416 177.015C249.416 177.036 249.395 177.057 249.353 177.057Z" fill="#161616" fill-opacity="0.3"/>
<path fill-rule="evenodd" clip-rule="evenodd" d="M180.063 183.181C180.21 184.536 180.545 185.952 181.256 187.348C181.905 188.619 182.408 189.036 182.805 190.119C183.182 191.203 183.329 192.619 182.805 194.494C183.413 194.953 184.417 195.849 185.108 197.265C186.385 199.911 185.673 202.432 185.464 203.078C184.166 201.515 182.575 199.203 181.403 196.14C179.268 190.619 179.666 185.702 180.063 183.181Z" fill="#0178B4"/>
<path fill-rule="evenodd" clip-rule="evenodd" d="M156.242 139.243C154.254 139.472 152.516 141.097 151.846 141.743C149.021 144.41 148.518 147.889 148.288 149.431C148.141 150.389 147.911 152.597 148.916 156.91C150.151 162.264 152.16 166.098 152.474 166.681C155.635 172.702 163.025 187.64 173.156 207.828C174.621 207.433 176.15 206.933 177.74 206.37C180.629 205.349 183.204 204.203 185.465 203.037C184.606 201.287 183.392 198.578 182.325 195.141C180.064 187.807 180.525 183.848 178.976 176.848C177.887 171.89 176.485 168.494 174.58 163.952C172.444 158.785 163.946 138.326 156.242 139.243Z" fill="#0178B4"/>
<g style="mix-blend-mode:lighten">
<path d="M151.115 142.367C150.487 143.159 149.629 144.388 148.98 146.055C147.996 148.597 148.017 150.763 148.059 152.159C148.08 152.659 148.122 154.576 149.085 157.972C149.922 160.972 150.906 163.18 151.68 164.91C154.129 170.264 155.93 173.493 158.546 178.681C159.404 180.369 160.598 182.723 161.979 185.619C160.891 182.889 158.881 177.764 156.327 171.202C152.559 161.555 151.408 158.514 150.843 154.013C150.257 149.159 150.654 145.076 151.115 142.367Z" fill="white" fill-opacity="0.3"/>
</g>
<path d="M210.104 172.494C210.083 172.494 210.083 172.494 210.062 172.494C199.47 168.952 189.234 164.327 179.689 158.764C176.633 156.973 173.576 155.056 170.625 153.077C170.583 153.035 170.562 152.972 170.604 152.931C170.646 152.889 170.709 152.868 170.75 152.91C173.681 154.889 176.737 156.806 179.793 158.598C189.339 164.16 199.533 168.765 210.125 172.306C210.188 172.327 210.209 172.39 210.188 172.431C210.188 172.452 210.146 172.494 210.104 172.494Z" fill="#161616" fill-opacity="0.3"/>
<path fill-rule="evenodd" clip-rule="evenodd" d="M157.943 95.7837C156.519 96.9712 153.735 99.0338 153.735 99.0338C153.735 99.0338 153.442 98.9296 153.212 98.7838C154.259 97.9088 155.305 97.0337 156.352 96.1587C156.938 95.992 157.357 95.9295 157.943 95.7837Z" fill="#8F1D3E"/>
<path fill-rule="evenodd" clip-rule="evenodd" d="M156.352 96.6791L157.859 95.8666C158.027 95.7832 158.09 95.5749 158.006 95.429C156.729 92.9081 147.623 75.0117 146.577 72.8866C146.472 72.6782 146.263 72.5741 146.032 72.5949L144.441 72.8032L156.352 96.6791Z" fill="#8F1D3E"/>
<path fill-rule="evenodd" clip-rule="evenodd" d="M139.731 78.1781L150.595 100.616C150.679 100.804 150.93 100.866 151.097 100.741L156.309 96.7205C156.435 96.6163 156.477 96.4496 156.414 96.3038L144.775 72.9696C144.671 72.7613 144.378 72.7196 144.231 72.8863L139.793 77.8031C139.689 77.9073 139.668 78.0531 139.731 78.1781Z" fill="#C63C56"/>
<path d="M161.501 108.451C161.563 108.221 161.522 108.117 161.459 108.075C161.208 107.805 160.182 108.367 159.931 108.534C160.287 108.992 160.642 109.471 160.998 109.93C161.166 109.43 161.333 108.951 161.501 108.451Z" fill="#262F69"/>
<path d="M153.799 115.076C152.668 113.805 150.512 110.659 149.361 109.388C147.351 106.534 146.954 103.096 145.593 98.4505C144.881 96.6796 144.17 94.9503 143.437 93.2628C143.249 90.7419 143.06 88.2209 142.872 85.7208C142.558 84.825 142.055 83.4083 141.679 82.3874C141.26 81.1582 141.553 80.7415 141.93 80.1165C142.432 79.2831 143.123 78.1581 143.542 77.3455C144.316 75.8872 145.237 73.9496 145.237 73.9496C145.237 73.9496 145.949 73.0537 146.242 73.1371C147.184 73.3871 147.33 74.0538 147.477 74.9913C147.31 75.783 147.037 76.8455 146.807 77.283C146.075 78.6373 145.509 80.0123 144.777 81.3874C145.53 80.3248 146.556 79.1164 147.917 77.9289C148.691 77.2414 149.445 76.6789 150.135 76.1997C150.198 76.1788 151.182 75.8455 151.726 76.3455C152.313 76.8455 152.313 78.1581 151.308 79.1164C150.512 79.9706 149.738 80.8248 148.942 81.679C148.168 82.6999 147.414 83.7208 146.64 84.7208C146.556 85.3458 146.451 85.9709 146.368 86.5959C147.226 85.9709 148.168 85.3042 149.214 84.6583C150.303 83.9916 151.371 83.4083 152.354 82.9291C153.171 82.6791 153.987 82.4291 154.783 82.1582C155.348 82.0124 155.934 82.1374 156.248 82.5124C156.708 83.0541 156.583 84.075 155.766 84.6583C154.531 85.2625 153.317 85.8667 152.082 86.45C151.308 87.3459 149.047 89.3668 149.047 89.3668C149.047 89.3668 151.496 87.9501 152.564 87.1584C153.192 86.9292 153.82 86.7 154.448 86.4709C154.887 86.3042 155.327 86.1375 155.766 85.9917C156.018 85.9709 156.457 85.95 156.667 86.2C157.001 86.575 156.813 87.4917 155.976 88.2834C155.076 88.9293 154.176 89.5751 153.254 90.221C152.752 91.0335 152.229 91.8461 151.726 92.6378C152.145 93.492 152.585 94.6378 152.836 96.0337C152.982 96.8254 153.045 97.5546 153.045 98.1796C153.736 98.9088 154.573 99.9088 155.348 101.221C155.976 102.326 156.394 103.346 156.667 104.201C157.629 107.784 159.765 108.159 161.481 109.701C161.083 110.493 159.493 113.451 156.311 114.534C155.369 114.784 154.531 115.076 153.799 115.076Z" fill="#F7B2B2"/>
<path d="M142.934 86.1578C142.871 86.1578 142.829 86.1162 142.829 86.0537V84.5119C142.829 84.0119 142.997 83.5327 143.29 83.1369C143.541 82.8036 143.792 82.4494 144.064 82.116C144.399 81.6785 144.734 81.241 145.09 80.8243C145.132 80.7826 145.195 80.7826 145.236 80.8035C145.278 80.8451 145.278 80.9077 145.257 80.9493C144.922 81.366 144.567 81.8035 144.232 82.241C143.959 82.5744 143.708 82.9286 143.457 83.2619C143.185 83.6369 143.038 84.0744 143.038 84.5119V86.0537C143.038 86.1162 142.976 86.1578 142.934 86.1578Z" fill="#F69797"/>
<path d="M145.027 92.2622C145.006 92.2622 145.006 92.2622 145.027 92.2622C144.964 92.2622 144.922 92.1997 144.922 92.1372C145.299 89.4912 145.864 87.8453 146.366 86.387C146.387 86.3245 146.45 86.3036 146.492 86.3245C146.555 86.3453 146.576 86.4078 146.555 86.4495C146.052 87.887 145.487 89.5329 145.11 92.158C145.11 92.2205 145.068 92.2622 145.027 92.2622Z" fill="#F69797"/>
<path d="M181.723 126.972C180.886 126.326 179.651 125.409 178.165 124.263C174.857 121.722 171.906 119.451 170.022 117.826C167.719 115.826 164.621 112.742 161.46 108.054C161.397 109.554 155.787 115.242 153.568 114.867C156.059 118.951 165.5 132.347 174.606 140.681C175.632 141.618 178.667 144.327 182.749 144.639C184.319 144.764 185.051 144.452 185.47 144.222C188.296 142.618 187.877 137.493 187.773 136.535C187.208 131.243 183.021 127.93 181.723 126.972Z" fill="#2C3C82"/>
<path d="M206.925 87.0747C206.214 87.3455 204.016 88.5123 202.823 89.5748C200.625 91.5124 199.892 93.9291 199.683 94.5541C198.72 97.4292 194.156 105.93 181.722 126.347C181.136 127.284 180.403 128.701 179.838 130.514C179.378 131.993 178.331 135.618 179.629 139.66C180.068 141.035 180.906 143.598 182.978 144.223C183.941 144.514 184.904 144.306 185.281 144.223C186.955 143.848 188.002 142.806 188.421 142.347C189.656 141.243 191.372 139.514 193.005 137.16C195.663 133.347 196.731 129.868 197.589 126.972C200.08 118.617 201.315 114.451 202.383 109.305C203.555 103.825 205.858 95.8667 206.925 87.0747Z" fill="#2C3C82"/>
<path d="M185.282 144.223C186.957 143.848 188.004 142.806 188.422 142.348C189.657 141.243 191.374 139.514 193.006 137.16C195.665 133.347 196.733 129.868 197.591 126.972C200.082 118.618 201.317 114.451 202.384 109.305C203.096 105.909 204.247 101.555 205.294 96.6377C198.093 104.492 195.665 127.951 185.282 144.223Z" fill="#172A65"/>
<path d="M154.552 108.117C154.51 108.117 154.489 108.096 154.468 108.076C154.426 108.034 154.447 107.971 154.489 107.93C154.866 107.659 156.687 106.2 156.54 104.2C156.52 103.846 156.415 103.471 156.268 103.117C156.247 103.055 156.268 103.013 156.331 102.971C156.394 102.95 156.436 102.971 156.478 103.034C156.645 103.409 156.729 103.784 156.771 104.18C156.917 106.284 155.033 107.805 154.636 108.076C154.594 108.117 154.573 108.117 154.552 108.117Z" fill="#F69797"/>
<path d="M145.717 75.8035C145.424 75.8035 145.11 75.616 145.005 75.3452C144.963 75.241 144.942 75.0952 144.942 74.9702C144.942 74.9077 145.005 74.866 145.068 74.8868C145.131 74.8868 145.173 74.9493 145.152 75.0118C145.131 75.116 145.152 75.1993 145.194 75.2827C145.298 75.5327 145.633 75.6577 145.843 75.5952C145.989 75.5535 146.094 75.4285 146.136 75.3869C146.45 74.9702 146.701 74.366 146.868 73.9285C146.889 73.866 146.952 73.8451 146.994 73.866C147.057 73.8868 147.078 73.9493 147.057 73.991C146.889 74.4493 146.638 75.0743 146.303 75.491C146.261 75.5535 146.115 75.7202 145.905 75.7827C145.822 75.8035 145.78 75.8035 145.717 75.8035Z" fill="#F69797"/>
<path d="M150.239 78.4076C150.176 78.4076 150.114 78.4076 150.072 78.3868C149.842 78.3243 149.653 78.1784 149.528 77.9284C149.465 77.8034 149.423 77.6784 149.423 77.5326C149.423 77.4701 149.465 77.4284 149.528 77.4284C149.59 77.4284 149.632 77.4701 149.632 77.5326C149.632 77.6367 149.653 77.7409 149.716 77.8242C149.821 78.0118 149.946 78.1368 150.135 78.1784C150.449 78.2618 150.7 78.0326 150.721 78.0118L151.767 77.1992C151.809 77.1576 151.872 77.1784 151.914 77.2201C151.956 77.2617 151.935 77.3242 151.893 77.3659L150.846 78.1784C150.825 78.1993 150.574 78.4076 150.239 78.4076Z" fill="#F69797"/>
<path d="M154.636 84.1998C154.594 84.1998 154.552 84.1998 154.51 84.1998C154.343 84.1789 154.176 84.1581 154.008 84.0331C153.715 83.7831 153.736 83.3872 153.757 83.3247C153.778 83.1789 153.82 83.0331 153.924 82.908C153.966 82.8664 154.029 82.8455 154.071 82.8872C154.113 82.9289 154.134 82.9914 154.092 83.0331C154.029 83.1164 153.987 83.2414 153.966 83.3456C153.966 83.3664 153.924 83.6789 154.155 83.8664C154.259 83.9498 154.364 83.9706 154.531 83.9914C155.055 84.0539 155.976 83.5539 156.06 83.4706C156.101 83.4289 156.164 83.4289 156.206 83.4706C156.248 83.5122 156.248 83.5747 156.206 83.6164C156.101 83.7206 155.243 84.1998 154.636 84.1998Z" fill="#F69797"/>
<path d="M155.369 87.6793C155.264 87.6793 155.181 87.6584 155.118 87.6167C154.95 87.5333 154.888 87.3665 154.846 87.2622C154.825 87.1997 154.846 87.158 154.909 87.1371C154.971 87.1163 155.013 87.1371 155.034 87.1997C155.055 87.2622 155.118 87.3874 155.223 87.4291C155.327 87.4916 155.474 87.4708 155.578 87.4291C155.955 87.3248 156.248 87.0329 156.416 86.8243C156.458 86.7826 156.52 86.7618 156.562 86.8035C156.604 86.8452 156.625 86.9078 156.583 86.9495C156.395 87.1997 156.06 87.5125 155.641 87.6376C155.537 87.6793 155.453 87.6793 155.369 87.6793Z" fill="#F69797"/>
<path d="M156.687 104.033C156.708 104.325 156.708 104.679 156.624 105.075C156.436 106.033 155.912 106.7 155.619 107.012C156.017 107.575 156.436 108.158 156.833 108.783C157.524 109.825 158.152 110.867 158.696 111.846C159.031 111.492 159.387 111.158 159.722 110.763C160.183 110.263 160.58 109.742 160.978 109.179C158.592 106.887 157.65 106.804 156.687 104.033Z" fill="#F69797"/>
<path d="M153.567 114.867C153.546 114.867 153.504 114.846 153.483 114.825C152.918 114.18 152.144 113.159 151.39 112.159C150.616 111.138 149.841 110.075 149.276 109.45C147.769 107.325 147.183 104.95 146.408 101.929C146.136 100.846 145.843 99.6999 145.487 98.4707C144.796 96.7415 144.064 94.9914 143.331 93.283C143.331 93.2622 143.331 93.2622 143.331 93.2414L142.766 85.6994L141.698 82.6785C141.028 81.2201 141.552 80.4909 141.929 79.9701C142.473 79.095 142.996 78.1783 143.478 77.2408C143.666 76.8866 143.854 76.4491 144.064 75.9907C144.754 74.4907 145.466 72.949 146.283 72.949C147.057 73.0115 147.622 74.0532 147.58 74.8865C147.539 75.4491 147.308 76.3658 146.952 77.2825C146.576 77.97 146.241 78.6575 145.927 79.3034C145.78 79.6159 145.613 79.9492 145.445 80.2826C146.178 79.3659 146.994 78.5117 147.873 77.7408C148.627 77.0533 149.234 76.6158 149.946 76.1366C150.281 75.9282 151.118 75.5116 151.83 76.1366C152.102 76.3658 152.248 76.7616 152.269 77.1991C152.29 77.8658 151.976 78.5325 151.432 79.0742L149.067 81.6368C148.815 81.9701 148.481 82.3868 148.146 82.7827C147.559 83.5118 146.827 84.4077 146.785 84.6161L146.534 86.2411C147.392 85.6161 148.292 85.0119 149.192 84.4494C150.218 83.8244 151.265 83.241 152.332 82.7202L154.781 81.9493C155.409 81.7826 156.016 81.9285 156.351 82.3243C156.582 82.5951 156.665 82.9702 156.623 83.366C156.561 83.866 156.268 84.3244 155.849 84.6161L152.165 86.4078C151.662 86.9703 150.616 87.9703 149.883 88.637C150.699 88.1578 151.872 87.4287 152.521 86.9286L152.542 86.9078C153.169 86.6786 153.797 86.4495 154.425 86.2203L155.744 85.7411H155.765C156.079 85.6994 156.519 85.6994 156.77 85.9911C157.126 86.4078 156.958 87.3662 156.058 88.2203L153.358 90.1579L151.872 92.5122C152.395 93.5955 152.751 94.7206 152.96 95.8873C153.086 96.5956 153.149 97.304 153.169 98.0124C154.049 98.9291 154.823 99.9499 155.451 101.054C155.995 101.992 156.456 103.013 156.791 104.054C157.147 105.554 158.068 106.388 159.345 107.513C159.826 107.95 160.391 108.429 160.957 109.013C160.998 109.054 160.998 109.117 160.957 109.159C160.915 109.2 160.852 109.2 160.81 109.159C160.245 108.575 159.68 108.096 159.198 107.659C157.942 106.533 156.937 105.658 156.582 104.096C156.247 103.075 155.807 102.075 155.263 101.137C154.635 100.033 153.86 99.0124 152.981 98.1165C152.96 98.0957 152.96 98.0749 152.96 98.054C152.96 97.3457 152.876 96.6165 152.751 95.929C152.542 94.7622 152.165 93.6372 151.641 92.5538C151.62 92.5122 151.62 92.4913 151.641 92.4497L153.169 90.0329C153.169 90.0121 153.19 90.0121 153.19 90.0121L155.912 88.0745C156.749 87.2828 156.854 86.4495 156.582 86.1578C156.393 85.9494 155.995 85.9494 155.786 85.9911L154.467 86.4703C153.839 86.6995 153.232 86.9286 152.604 87.1578C151.537 87.9703 149.109 89.3662 149.088 89.3662C149.046 89.3871 148.983 89.3871 148.941 89.3454C148.92 89.3037 148.92 89.2412 148.962 89.1995C148.983 89.1787 151.223 87.1786 151.997 86.3036C151.997 86.2828 152.018 86.2828 152.039 86.2828L155.723 84.491C156.1 84.2202 156.351 83.8244 156.393 83.3868C156.435 83.0535 156.351 82.7202 156.163 82.5118C155.891 82.1785 155.347 82.0535 154.802 82.1993L152.374 82.9702C151.327 83.491 150.281 84.0744 149.255 84.6994C148.292 85.3036 147.329 85.9494 146.408 86.637C146.366 86.6578 146.324 86.6578 146.283 86.637C146.241 86.6161 146.22 86.5745 146.241 86.5328L146.513 84.6577C146.555 84.4077 147.078 83.7619 147.915 82.7202C148.25 82.3243 148.585 81.9076 148.836 81.5534L151.202 78.9909C151.704 78.5117 151.997 77.8866 151.997 77.2825C151.997 76.9074 151.851 76.5741 151.641 76.3658C151.034 75.8241 150.302 76.1991 150.009 76.3866C149.297 76.8658 148.711 77.3033 147.957 77.97C146.806 78.9909 145.759 80.1576 144.838 81.4076C144.796 81.4493 144.754 81.4701 144.692 81.4284C144.65 81.4076 144.629 81.3451 144.65 81.2826C145.027 80.5951 145.341 79.9284 145.655 79.2617C145.969 78.595 146.304 77.9075 146.68 77.2408C147.036 76.3449 147.266 75.4699 147.287 74.9074C147.329 74.1782 146.827 73.2407 146.178 73.199C145.508 73.199 144.754 74.824 144.168 76.1158C143.959 76.5741 143.75 77.0116 143.561 77.3658C143.08 78.2825 142.536 79.22 141.991 80.1159C141.615 80.6367 141.175 81.2618 141.782 82.6368L142.871 85.6786V85.6994L143.436 93.2414C144.168 94.9498 144.901 96.6998 145.592 98.429C145.948 99.6791 146.241 100.804 146.513 101.908C147.266 104.908 147.873 107.263 149.339 109.346C149.904 109.971 150.699 111.034 151.474 112.055C152.228 113.055 152.981 114.075 153.546 114.721C153.588 114.763 153.588 114.825 153.546 114.867C153.609 114.867 153.588 114.867 153.567 114.867Z" fill="#F69797"/>
<path d="M147.644 95.1372C147.644 95.1372 147.623 95.1372 147.644 95.1372C147.581 95.1372 147.539 95.0747 147.539 95.0122C147.916 92.3662 148.481 90.7203 148.983 89.262C149.004 89.1995 149.067 89.1786 149.109 89.1995C149.172 89.2203 149.193 89.2828 149.172 89.3245C148.669 90.762 148.104 92.4079 147.727 95.033C147.727 95.0955 147.686 95.1372 147.644 95.1372Z" fill="#F69797"/>
<path fill-rule="evenodd" clip-rule="evenodd" d="M212.157 85.1991C219.818 82.574 225.093 83.9699 232.043 82.9282C231.729 90.0118 232.357 95.5537 232.88 98.9288C236.334 121.471 249.857 145.264 251.05 147.347C251.762 148.597 253.729 151.993 254.818 156.91C255.697 160.952 255.823 171.661 255.655 173.744C250.861 166.056 234.68 166.244 227.249 166.056C222.183 165.931 218.541 165.827 214.501 163.973C208.556 161.223 205.751 156.577 204.265 153.847C211.361 145.264 207.761 131.888 207.196 126.555C206.547 125.409 205.772 123.805 205.102 121.784C204.725 120.596 203.7 117.138 203.846 112.429C203.972 108.742 204.746 106.033 205.521 103.491C206.944 98.8038 209.791 92.0535 212.157 85.1991Z" fill="white"/>
<path d="M212.158 85.1989C213.686 84.6781 213.058 84.8031 214.419 84.5322C213.582 88.9699 212.367 91.47 210.902 95.6159C200.038 124.159 215.507 128.992 210.609 161.618C207.239 159.035 205.376 155.889 204.287 153.847C211.384 145.264 207.783 131.888 207.218 126.555C206.569 125.409 205.795 123.804 205.125 121.784C204.748 120.596 203.722 117.138 203.869 112.429C203.994 108.741 204.769 106.033 205.543 103.491C206.946 98.8036 209.793 92.0533 212.158 85.1989Z" fill="#A8ADBE"/>
<path d="M223.254 101.72C223.673 95.2826 224.51 87.8032 232.046 82.928C231.732 90.0116 232.36 95.5534 232.883 98.9285C236.337 121.471 249.86 145.264 251.053 147.347C251.764 148.597 253.732 151.993 254.821 156.91C255.7 160.952 255.825 171.66 255.658 173.744C252.246 168.264 243.056 166.785 235.374 166.327C236.421 134.555 223.882 122.909 223.254 101.72Z" fill="#A8ADBE"/>
<path d="M206.905 115.513C207.324 122.159 210.17 124.388 215.257 127.076C218.858 129.826 214.671 132.784 214.127 132.659C205.942 132.117 205.754 118.242 206.905 115.513Z" fill="#A8ADBE"/>
<path d="M255.637 173.827C254.506 172.473 253.208 171.306 251.764 170.327C249.964 169.14 247.284 168.119 243.998 167.39C240.837 166.681 238.493 166.556 234.913 166.369C232.338 166.223 230.873 166.244 229.575 166.244C228.152 166.265 226.896 166.265 224.614 166.077C220.428 165.744 218.334 165.577 215.948 164.681C211.552 163.014 208.684 160.181 207.365 158.639C206.088 157.139 205.021 155.452 204.184 153.618L204.372 153.535C205.188 155.327 206.235 157.014 207.512 158.493C208.81 160.014 211.657 162.827 216.011 164.473C218.355 165.348 220.448 165.515 224.614 165.848C226.896 166.035 228.131 166.015 229.554 166.015C230.852 166.015 232.338 165.994 234.913 166.14C238.493 166.327 240.858 166.452 244.019 167.16C247.326 167.89 250.027 168.91 251.848 170.14C253.313 171.119 254.632 172.306 255.762 173.661L255.637 173.827Z" fill="#A8ADBE"/>
<path d="M214.082 84.5742C213.496 86.1576 212.554 88.616 211.361 91.637C205.96 105.408 204.348 107.783 202.799 113.471C201.104 119.617 200.936 124.305 200.706 130.513C200.371 139.493 202.381 153.035 202.381 153.035C202.381 153.035 198.759 151.847 196.959 151.097C195.954 147.097 194.887 141.076 195.284 133.847C195.745 125.596 197.88 120.68 200.915 109.533C202.339 104.346 204.223 96.7621 205.939 87.5535C207.446 86.616 212.847 84.6784 214.082 84.5742Z" fill="#2C3C82"/>
<path d="M182.051 222.504C182.338 222.469 182.529 222.098 182.477 221.676C182.425 221.253 182.15 220.939 181.863 220.974C181.575 221.009 181.384 221.38 181.436 221.802C181.488 222.225 181.763 222.539 182.051 222.504Z" fill="white"/>
<path d="M182.449 225.837C182.737 225.802 182.928 225.431 182.876 225.008C182.824 224.585 182.549 224.271 182.261 224.306C181.973 224.341 181.782 224.712 181.834 225.135C181.886 225.557 182.161 225.872 182.449 225.837Z" fill="white"/>
<path d="M182.763 229.131C183.052 229.115 183.267 228.757 183.243 228.332C183.219 227.907 182.965 227.576 182.676 227.592C182.387 227.608 182.172 227.966 182.196 228.391C182.22 228.816 182.473 229.147 182.763 229.131Z" fill="white"/>
<path d="M183.402 231.907C183.433 231.482 183.224 231.121 182.935 231.1C182.646 231.079 182.387 231.407 182.356 231.831C182.325 232.256 182.534 232.617 182.823 232.638C183.112 232.659 183.371 232.332 183.402 231.907Z" fill="white"/>
<path fill-rule="evenodd" clip-rule="evenodd" d="M178.916 232.726C178.874 232.726 178.832 232.705 178.812 232.664C178.791 232.601 178.812 232.559 178.874 232.518C179.649 232.184 182.035 231.788 182.768 231.767C182.81 231.767 182.873 231.809 182.873 231.871C182.873 231.934 182.831 231.976 182.768 231.976C182.035 231.996 179.712 232.372 178.958 232.705C178.937 232.705 178.937 232.726 178.916 232.726Z" fill="white"/>
<path fill-rule="evenodd" clip-rule="evenodd" d="M178.371 229.371C178.329 229.371 178.287 229.35 178.266 229.288C178.245 229.225 178.287 229.184 178.35 229.163C178.936 229.017 179.522 228.871 180.108 228.746C180.946 228.579 181.804 228.454 182.662 228.371C182.725 228.371 182.767 228.413 182.767 228.454C182.767 228.517 182.725 228.559 182.683 228.559C181.825 228.642 180.987 228.767 180.15 228.934C179.564 229.059 178.978 229.184 178.413 229.35C178.392 229.371 178.371 229.371 178.371 229.371Z" fill="white"/>
<path fill-rule="evenodd" clip-rule="evenodd" d="M177.806 226.163C177.764 226.163 177.722 226.142 177.701 226.1C177.68 226.038 177.701 225.996 177.764 225.975C178.413 225.746 179.062 225.538 179.732 225.371C180.59 225.142 181.469 224.975 182.348 224.871C182.411 224.871 182.453 224.913 182.474 224.954C182.474 225.017 182.432 225.059 182.39 225.079C181.532 225.204 180.653 225.371 179.795 225.579C179.146 225.746 178.497 225.954 177.848 226.184C177.827 226.163 177.806 226.163 177.806 226.163Z" fill="white"/>
<path fill-rule="evenodd" clip-rule="evenodd" d="M177.198 223.017C177.157 223.017 177.115 222.996 177.094 222.954C177.073 222.892 177.094 222.85 177.157 222.829C177.952 222.559 178.768 222.309 179.585 222.079C180.359 221.871 181.134 221.704 181.908 221.579C181.971 221.579 182.013 221.6 182.034 221.663C182.034 221.725 182.013 221.767 181.95 221.788C181.176 221.934 180.401 222.1 179.648 222.288C178.831 222.496 178.036 222.746 177.24 223.017C177.219 223.017 177.219 223.017 177.198 223.017Z" fill="white"/>
<path fill-rule="evenodd" clip-rule="evenodd" d="M180.904 221.913C180.862 221.913 180.841 221.892 180.82 221.85C180.025 220.433 179.02 219.433 177.869 218.871C177.429 218.662 177.053 218.537 176.676 218.433C176.069 218.267 175.504 218.079 174.813 217.537C174.373 217.183 173.452 216.454 173.243 215.225C173.013 213.975 173.62 212.558 174.708 211.766C176.341 210.579 178.497 211.287 179.523 211.891C181.197 212.891 182.139 214.933 182.139 217.621C182.139 219.058 181.742 220.517 180.967 221.829C180.967 221.892 180.946 221.913 180.904 221.913ZM176.801 211.35C176.132 211.35 175.441 211.516 174.834 211.954C173.808 212.704 173.243 214.037 173.452 215.204C173.661 216.35 174.52 217.058 174.938 217.392C175.587 217.912 176.132 218.079 176.718 218.246C177.094 218.35 177.492 218.475 177.953 218.683C179.104 219.246 180.088 220.204 180.904 221.579C181.595 220.35 181.951 218.975 181.951 217.642C181.93 215.037 181.051 213.058 179.418 212.079C178.832 211.746 177.827 211.35 176.801 211.35Z" fill="white"/>
<path fill-rule="evenodd" clip-rule="evenodd" d="M180.987 221.913C180.966 221.913 180.924 221.913 180.903 221.892C179.145 220.162 177.01 219.621 174.581 220.287C174.498 220.308 174.414 220.329 174.309 220.371C172.677 220.829 168.364 222.079 167.422 218.996C167.066 216.912 168.113 215.704 169.202 214.829C171.86 213.141 176.612 213.954 179.019 216.496C180.757 218.329 181.071 220.621 181.092 221.829C181.092 221.871 181.071 221.913 181.029 221.933C181.029 221.913 181.008 221.913 180.987 221.913ZM176.549 219.808C178.161 219.808 179.605 220.392 180.861 221.579C180.798 220.35 180.422 218.308 178.852 216.641C176.507 214.162 171.881 213.35 169.306 214.996C167.862 216.204 167.339 217.392 167.611 218.954C168.49 221.829 172.677 220.642 174.246 220.183C174.351 220.162 174.435 220.121 174.519 220.1C175.23 219.892 175.9 219.808 176.549 219.808Z" fill="white"/>
<path fill-rule="evenodd" clip-rule="evenodd" d="M180.946 221.85C180.925 221.85 180.925 221.85 180.946 221.85C180.883 221.85 180.841 221.808 180.841 221.746C180.883 219.933 180.464 218.162 179.627 216.662C177.638 213.058 173.326 210.87 169.119 211.349C166.502 211.641 164.513 212.912 163.32 213.933C163.278 213.975 163.216 213.975 163.174 213.912C163.132 213.87 163.132 213.808 163.195 213.766C164.409 212.725 166.418 211.433 169.098 211.141C173.389 210.662 177.785 212.891 179.815 216.558C180.653 218.079 181.092 219.871 181.05 221.746C181.029 221.808 180.988 221.85 180.946 221.85Z" fill="white"/>
<path fill-rule="evenodd" clip-rule="evenodd" d="M180.945 221.808H180.924C180.861 221.787 180.84 221.725 180.861 221.683C181.427 219.704 181.573 217.683 181.28 215.704C181.05 214.099 180.652 211.391 178.412 209.224C175.837 206.703 172.446 206.516 171.107 206.557C171.065 206.557 171.002 206.516 171.002 206.453C171.002 206.391 171.044 206.349 171.107 206.349C172.467 206.307 175.921 206.495 178.559 209.078C180.84 211.308 181.238 214.037 181.468 215.683C181.761 217.704 181.636 219.745 181.05 221.745C181.029 221.787 180.987 221.808 180.945 221.808Z" fill="white"/>
<path d="M173.32 286.257C173.724 285.695 173.8 285.06 173.489 284.839C173.179 284.618 172.6 284.894 172.196 285.455C171.791 286.017 171.716 286.651 172.026 286.873C172.336 287.094 172.916 286.818 173.32 286.257Z" fill="white"/>
<path d="M170.192 290.721C170.62 290.134 170.701 289.466 170.373 289.23C170.045 288.993 169.433 289.277 169.005 289.864C168.577 290.451 168.496 291.119 168.824 291.356C169.152 291.593 169.765 291.308 170.192 290.721Z" fill="white"/>
<path d="M166.651 295.314C167.089 294.721 167.172 294.04 166.836 293.795C166.501 293.549 165.873 293.832 165.435 294.426C164.997 295.02 164.914 295.7 165.25 295.945C165.585 296.191 166.213 295.908 166.651 295.314Z" fill="white"/>
<path d="M162.988 299.98C163.474 299.394 163.601 298.7 163.271 298.428C162.942 298.157 162.28 298.411 161.793 298.997C161.307 299.582 161.18 300.277 161.509 300.549C161.839 300.82 162.501 300.566 162.988 299.98Z" fill="white"/>
<path fill-rule="evenodd" clip-rule="evenodd" d="M162.316 299.728C162.295 299.728 162.274 299.728 162.253 299.707C159.741 297.832 155.743 296.644 152.54 296.852C152.477 296.852 152.436 296.811 152.436 296.748C152.436 296.686 152.477 296.644 152.54 296.644C155.806 296.436 159.846 297.644 162.4 299.54C162.441 299.582 162.462 299.644 162.421 299.686C162.379 299.707 162.358 299.728 162.316 299.728Z" fill="white"/>
<path fill-rule="evenodd" clip-rule="evenodd" d="M165.937 295.019C165.916 295.019 165.895 295.019 165.874 294.998C163.948 293.811 161.855 292.977 159.678 292.561C158.547 292.332 157.375 292.227 156.224 292.207C156.161 292.207 156.119 292.165 156.119 292.102C156.119 292.04 156.161 291.998 156.224 291.998C157.396 291.998 158.568 292.123 159.72 292.352C161.918 292.79 164.032 293.623 165.979 294.832C166.02 294.853 166.041 294.936 166.02 294.978C165.999 294.998 165.979 295.019 165.937 295.019Z" fill="white"/>
<path fill-rule="evenodd" clip-rule="evenodd" d="M169.308 290.477C169.288 290.477 169.267 290.477 169.246 290.457C167.404 289.311 165.436 288.456 163.364 287.936C162.149 287.623 160.998 287.561 159.972 287.519C159.826 287.519 159.658 287.498 159.512 287.498C159.449 287.498 159.407 287.436 159.407 287.394C159.407 287.331 159.47 287.29 159.512 287.29C159.658 287.29 159.805 287.311 159.972 287.311C160.998 287.373 162.17 287.436 163.405 287.748C165.499 288.269 167.508 289.123 169.35 290.29C169.392 290.311 169.413 290.394 169.392 290.436C169.371 290.457 169.35 290.477 169.308 290.477Z" fill="white"/>
<path fill-rule="evenodd" clip-rule="evenodd" d="M172.657 285.935C172.636 285.935 172.615 285.935 172.594 285.915C170.71 284.727 168.68 283.894 166.544 283.394C165.163 283.081 163.719 282.894 162.295 282.894C162.232 282.894 162.19 282.852 162.19 282.789C162.19 282.727 162.232 282.685 162.295 282.685C163.739 282.706 165.184 282.873 166.586 283.206C168.742 283.706 170.794 284.56 172.699 285.769C172.741 285.79 172.762 285.873 172.741 285.915C172.72 285.915 172.678 285.935 172.657 285.935Z" fill="white"/>
<path fill-rule="evenodd" clip-rule="evenodd" d="M172.049 285.519C172.028 285.519 172.028 285.519 172.007 285.519C171.965 285.498 171.923 285.456 171.944 285.415C172.489 281.352 171.275 278.31 168.365 276.373C168.135 276.227 167.8 276.06 167.402 275.893C166.648 275.56 165.706 275.122 164.995 274.414C163.215 272.247 162.776 269.893 163.76 267.956C164.66 266.206 166.606 265.08 168.595 265.185C171.065 265.435 173.033 266.664 174.268 268.706C176.34 272.164 175.922 277.039 174.645 280.102C174.038 281.977 173.179 283.789 172.133 285.477C172.112 285.498 172.091 285.519 172.049 285.519ZM168.365 265.372C166.544 265.372 164.785 266.414 163.948 268.039C163.383 269.122 162.818 271.393 165.141 274.247C165.811 274.914 166.732 275.331 167.465 275.664C167.862 275.852 168.197 275.998 168.449 276.164C171.316 278.081 172.572 281.019 172.175 284.935C173.096 283.373 173.87 281.727 174.414 279.998C175.67 276.977 176.089 272.164 174.059 268.768C172.865 266.768 170.961 265.601 168.553 265.351C168.532 265.372 168.449 265.372 168.365 265.372Z" fill="white"/>
<path fill-rule="evenodd" clip-rule="evenodd" d="M172.112 285.54C172.091 285.54 172.07 285.54 172.049 285.519C172.008 285.498 172.008 285.456 172.008 285.415C172.866 282.456 173.075 279.706 172.657 277.248C172.594 276.852 172.238 274.81 172.008 272.164C171.84 270.268 171.861 269.581 172.112 268.789C172.405 267.852 173.159 266.185 174.959 265.393C176.969 264.518 179.167 265.206 180.36 266.247C182.704 268.268 182.055 272.039 181.783 273.644C180.674 280.144 174.687 284.123 172.175 285.54C172.133 285.519 172.133 285.54 172.112 285.54ZM176.885 265.185C176.278 265.185 175.629 265.31 175.022 265.56C173.305 266.31 172.573 267.935 172.301 268.831C172.07 269.581 172.049 270.268 172.217 272.123C172.447 274.769 172.803 276.81 172.866 277.185C173.285 279.623 173.096 282.311 172.28 285.206C174.875 283.706 180.506 279.81 181.574 273.581C181.846 272.018 182.474 268.331 180.213 266.372C179.418 265.706 178.204 265.185 176.885 265.185Z" fill="white"/>
<path fill-rule="evenodd" clip-rule="evenodd" d="M172.091 285.56C172.07 285.56 172.07 285.56 172.049 285.56C171.986 285.539 171.965 285.477 171.986 285.435C173.724 280.706 172.133 275.393 168.135 272.539C164.492 269.935 159.615 269.831 155.722 272.268C155.68 272.289 155.617 272.289 155.575 272.226C155.554 272.185 155.554 272.122 155.617 272.081C159.594 269.601 164.555 269.726 168.26 272.352C172.342 275.268 173.975 280.664 172.196 285.498C172.175 285.539 172.133 285.56 172.091 285.56Z" fill="white"/>
<path fill-rule="evenodd" clip-rule="evenodd" d="M172.008 285.56C171.987 285.56 171.945 285.54 171.924 285.519C171.882 285.477 171.882 285.415 171.924 285.373C173.892 283.498 175.42 281.331 176.445 278.935C179.753 271.31 177.094 263.914 175.797 261.101C175.776 261.039 175.797 260.997 175.838 260.955C175.901 260.935 175.943 260.955 175.985 260.997C177.304 263.851 179.983 271.289 176.634 278.998C175.587 281.414 174.038 283.602 172.071 285.498C172.05 285.54 172.029 285.56 172.008 285.56Z" fill="white"/>
<path d="M228.923 73.1781C228.714 74.1365 228.567 75.3032 228.546 76.5949C228.525 79.4492 229.237 81.7409 229.844 83.241C229.195 84.0952 228.19 85.2411 226.788 86.3869C224.067 88.5745 221.492 89.3662 220.571 89.6162C218.75 90.1162 215.589 90.9913 214.165 89.4287C213.747 88.9704 213.558 88.4287 213.558 87.887C213.788 87.012 213.956 86.1578 214.082 85.0744C214.437 81.8451 213.977 79.0742 213.433 77.1366C215.296 73.7407 217.452 71.6156 218.917 70.3864C220.906 68.7197 221.743 64.6987 223.564 64.9279C225.636 65.2195 228.065 70.178 228.923 73.1781Z" fill="#F69797"/>
<path d="M214.082 80.7002C213.935 79.346 213.684 78.1376 213.412 77.1376C215.275 73.7416 221.722 64.6997 223.523 64.9497C224.569 65.0955 226.83 67.0956 227.814 68.7415C226.621 77.4293 216.092 80.3252 214.082 80.7002Z" fill="#161616" fill-opacity="0.3"/>
<path d="M230.976 41.8437C232.001 40.9895 233.55 39.8436 235.581 38.8227C237.632 37.8019 242.321 35.8435 250.611 36.5102C258.67 37.156 259.8 39.4478 272.192 42.3437C277.698 43.6354 280.461 44.2813 283.35 44.3438C287.934 44.4688 296.663 43.5521 307.444 34.7393C306.899 37.0102 305.79 40.1769 303.508 43.4271C298.798 50.0731 292.204 52.5107 289.651 53.3232C291.514 53.5316 294.151 53.6149 297.207 53.0107C299.573 52.5524 301.54 51.8024 302.985 51.1148C301.226 53.0107 298.945 55.1983 296.077 57.3025C293.565 59.1568 291.179 60.5527 289.085 61.6152C290.76 61.6569 292.435 61.6985 294.109 61.7402C292.623 63.0319 290.362 64.7195 287.327 66.0737C278.807 69.8655 270.727 68.0529 266.729 67.1779C253.416 64.2195 245.231 55.1983 242.258 51.5523C241.714 50.6356 240.395 48.7606 237.925 47.5105C236.481 46.7813 235.141 46.5313 234.241 46.4272C233.153 44.9063 232.064 43.3646 230.976 41.8437Z" fill="#32313A"/>
<path fill-rule="evenodd" clip-rule="evenodd" d="M228.421 42.6564C228.63 42.3647 229.007 41.9688 229.593 41.7188C231.184 41.0521 232.838 42.2189 233.256 42.5314C233.633 42.8022 235.601 44.1773 235.412 46.2815C235.308 47.4065 234.638 48.1982 234.324 48.5316C233.842 47.7399 233.194 46.8232 232.356 45.9065C230.975 44.3648 229.53 43.3231 228.421 42.6564Z" fill="white"/>
<path d="M204.056 56.6985C203.721 55.9484 202.904 54.3442 202.883 52.865C202.842 49.3649 205.165 46.9065 206.149 45.8648C209.687 42.1355 214.376 41.4896 216.511 41.1979C219.295 40.8229 225.114 40.0104 230.285 43.8855C235.246 47.594 236.188 53.0525 236.292 53.8234C237.339 60.4486 233.571 65.2404 232.943 66.0113C231.959 66.928 229.552 70.7615 228.903 73.1991C225.261 70.824 226.161 65.7405 224.151 65.3238C218.583 62.282 218.102 59.1569 212.45 56.8443C210.67 56.1151 208.2 55.8859 204.056 56.6985Z" fill="#32313A"/>
<path d="M206.651 50.4899C206.17 50.1982 205.563 50.4065 205.354 50.9274C205.186 51.3649 205.019 51.8024 204.872 52.2816C204.098 54.6358 203.553 56.7609 203.449 58.6777C203.365 61.4486 204.851 62.9695 204.851 62.9695L203.26 67.1571C203.051 67.6988 203.323 68.303 203.846 68.553L205.5 69.2614C206.044 69.5114 205.228 70.5114 205.354 71.2823C205.437 71.7823 205.898 72.1156 206.4 72.4281C206.149 73.0948 206.316 73.8032 207.091 74.2615C207.363 74.4282 207.51 74.6991 207.489 75.0116C207.321 77.4075 208.473 78.8034 210.419 78.9492C213.685 79.0325 219.148 76.1574 219.63 75.8658C220.697 75.2199 222.414 74.0115 223.628 71.9073C224.737 69.9697 224.8 67.3238 224.758 66.2196C225.03 66.2613 225.554 66.2821 226.224 65.5529C227.626 64.2612 228.359 57.3859 225.072 57.5735C224.151 57.5735 223.544 58.136 222.895 59.511C222.539 60.3652 222.058 60.5111 221.828 60.5944C220.488 55.7817 215.255 53.365 213.308 53.0316C211.612 52.7399 209.331 52.0941 206.651 50.4899Z" fill="#F7B2B2"/>
<path d="M209.292 62.8196C209.752 62.7806 210.087 62.2935 210.039 61.7318C209.991 61.17 209.578 60.7462 209.117 60.7853C208.657 60.8243 208.322 61.3114 208.37 61.8732C208.418 62.4349 208.831 62.8587 209.292 62.8196Z" fill="#353437"/>
<path d="M204.224 62.8442C204.329 63.1567 204.518 63.4067 204.664 63.4901C204.727 63.5109 204.895 62.6776 204.874 62.6151C204.727 62.1775 204.455 61.8859 204.287 61.9484C204.098 62.0109 204.077 62.4067 204.224 62.8442Z" fill="#353437"/>
<path d="M207.886 62.0733C207.865 62.0733 207.844 62.0733 207.823 62.0733C207.719 62.0316 207.656 61.9275 207.677 61.8025C207.782 61.4691 207.949 61.1983 208.158 61.0108C208.64 60.5732 209.226 60.6357 209.812 60.6982C210.398 60.7608 210.963 60.9274 211.487 61.2191C211.591 61.2816 211.633 61.4066 211.57 61.5108C211.508 61.6149 211.382 61.6566 211.277 61.5941C210.796 61.3441 210.294 61.1774 209.749 61.1149C209.142 61.0524 208.744 61.0316 208.43 61.3233C208.263 61.4691 208.137 61.6774 208.054 61.9275C208.054 62.0108 207.97 62.0733 207.886 62.0733Z" fill="#353437"/>
<path d="M204.371 64.574C204.351 64.574 204.351 64.574 204.33 64.574C204.267 64.5531 204.246 64.4906 204.267 64.449L204.875 62.6572C204.896 62.5947 204.958 62.5739 205 62.5947C205.063 62.6156 205.084 62.6781 205.063 62.7197L204.455 64.5115C204.476 64.5531 204.434 64.574 204.371 64.574Z" fill="#F69797"/>
<path d="M207.489 59.8236L207.803 59.5111C208.075 59.2402 208.472 59.0944 208.87 59.1569C209.31 59.2194 209.812 59.3027 210.356 59.4486C210.901 59.6153 211.466 59.7819 211.926 59.9694C212.052 60.0319 212.178 59.8444 212.073 59.7403C211.696 59.4069 211.173 59.0111 210.587 58.6777C209.854 58.261 209.142 58.0735 208.598 57.9902C208.137 57.9277 207.656 58.136 207.426 58.5319C207.384 58.6152 207.342 58.6986 207.3 58.8027C207.175 59.0944 207.133 59.3652 207.112 59.5944C207.049 59.8653 207.321 59.9903 207.489 59.8236Z" fill="#353437"/>
<path d="M206.023 69.2616C205.96 69.2616 205.898 69.2616 205.835 69.2616C205.73 69.2407 205.646 69.1574 205.646 69.0324C205.667 68.9282 205.751 68.8241 205.877 68.8449C206.4 68.9074 206.861 68.6782 207.007 68.3032C207.091 68.0949 207.049 67.8865 206.986 67.7407C206.944 67.6365 207.007 67.5115 207.112 67.4698C207.216 67.4282 207.342 67.4907 207.384 67.5948C207.468 67.8032 207.53 68.1157 207.405 68.4282C207.216 68.9491 206.651 69.2616 206.023 69.2616Z" fill="#161616" fill-opacity="0.3"/>
<path d="M206.568 72.553C206.484 72.553 206.421 72.553 206.337 72.553C206.212 72.553 206.128 72.4489 206.128 72.3447C206.128 72.2197 206.233 72.1363 206.337 72.1363C207.133 72.1572 207.907 72.0322 208.619 71.7405C208.933 71.6155 209.247 71.4488 209.54 71.2405C209.645 71.178 209.77 71.1988 209.833 71.303C209.896 71.4072 209.875 71.5322 209.77 71.5947C209.456 71.803 209.121 71.9905 208.786 72.1155C208.117 72.4072 207.363 72.553 206.568 72.553Z" fill="#161616" fill-opacity="0.3"/>
<path d="M204.059 62.5743C204.038 62.5743 204.017 62.5743 203.996 62.5743C203.892 62.5535 203.829 62.4284 203.85 62.3241C203.933 62.0322 204.08 61.8445 204.31 61.7611C204.687 61.6151 205.106 61.8445 205.315 61.9905C205.42 62.053 205.441 62.1781 205.378 62.2824C205.315 62.3867 205.189 62.4075 205.085 62.345C204.896 62.2199 204.624 62.0947 204.457 62.1573C204.373 62.199 204.31 62.2824 204.268 62.4284C204.227 62.5118 204.143 62.5743 204.059 62.5743Z" fill="#353437"/>
<path d="M204.308 59.6779C204.434 59.8863 204.329 60.1779 204.141 60.1779C204.099 60.1779 204.036 60.1779 203.994 60.1779C203.742 60.1988 203.721 60.3029 203.596 60.3654C203.449 60.2196 203.239 59.9696 203.26 59.5321C203.281 59.2404 203.344 59.0946 203.47 58.8862C203.617 58.9279 203.742 59.0529 203.931 59.2196C204.078 59.3446 204.204 59.5113 204.308 59.6779Z" fill="#353437"/>
<path d="M225.157 64.6987C225.115 64.6987 225.052 64.6571 225.052 64.6154C225.052 64.5529 225.094 64.5112 225.136 64.4904C225.408 64.4487 225.743 64.0946 225.89 63.782C225.911 63.7612 226.79 61.657 226.308 60.1152C226.204 59.7819 225.743 58.886 224.927 59.0944C224.801 59.1152 224.592 59.1985 224.362 59.3861C224.32 59.4277 224.257 59.4277 224.215 59.3861C224.173 59.3444 224.173 59.2819 224.215 59.2402C224.466 59.011 224.738 58.9277 224.864 58.9069C225.827 58.6569 226.371 59.6777 226.497 60.0527C226.999 61.6986 226.078 63.8445 226.057 63.8654C225.911 64.2404 225.534 64.6362 225.157 64.6987C225.178 64.6987 225.157 64.6987 225.157 64.6987Z" fill="#F69797"/>
<path d="M224.362 62.511C224.299 62.511 224.258 62.4693 224.258 62.4068C224.258 62.3443 224.299 62.3027 224.362 62.3027C224.593 62.2818 224.886 62.136 224.97 61.9068C225.054 61.6776 224.907 61.3651 224.53 61.0526C223.922 60.5318 223.943 60.0109 223.985 59.7401C224.006 59.6776 224.048 59.6567 224.111 59.6567C224.174 59.6776 224.195 59.7192 224.195 59.7817C224.153 60.0109 224.153 60.4484 224.656 60.9068C225.201 61.4068 225.222 61.761 225.138 61.9902C225.033 62.3027 224.677 62.4902 224.362 62.511Z" fill="#F69797"/>
<path d="M213.643 78.4076C216.427 77.5742 219.274 76.0742 219.629 75.8658C220.697 75.22 222.413 74.0116 223.628 71.9074C224.737 69.9698 224.8 67.3239 224.758 66.2197C224.444 66.2405 223.921 66.053 223.69 65.8655C221.178 68.2614 219.567 73.5116 213.643 78.4076Z" fill="#F69797"/>
<path d="M229.384 82.1157C228.673 83.1158 227.877 84.5533 227.04 86.4492C225.993 88.8035 225.051 91.9702 224.947 97.2621C224.821 103.679 226.035 108.825 226.83 111.804C228.547 118.179 231.875 130.722 241.798 143.285C244.54 146.743 248.098 150.868 253.98 155.243C256.723 157.285 257.56 157.493 265.263 162.723C272.883 167.89 274.495 169.598 276.127 172.494C278.116 176.807 277.069 179.494 276.546 181.64C277.949 181.015 281.968 174.744 275.897 167.619C273.909 165.452 271.794 163.577 269.241 160.639C266.624 157.639 262.898 152.556 259.423 142.555C254.943 129.68 253.897 117.263 253.792 108.679C253.625 104.742 251.469 90.0535 250.506 87.8451C249.396 85.97 246.047 82.6574 239.306 82.3032C236.229 82.2824 233.78 82.2199 229.384 82.1157Z" fill="#2C3C82"/>
<path d="M233.152 129.493C234.22 131.68 235.455 133.951 236.878 136.264C242.258 132.472 245.335 129.847 247.136 127.493C248.81 139.972 254.378 152.848 265.263 162.744C272.883 167.911 274.495 169.619 276.128 172.515C278.116 176.828 277.07 179.515 276.546 181.661C277.949 181.036 281.968 174.765 275.897 167.64C273.909 165.473 271.794 163.598 269.241 160.66C266.624 157.66 262.898 152.577 259.423 142.576C254.943 129.701 253.897 117.284 253.792 108.7C253.75 107.513 253.499 105.325 253.185 102.804C249.354 112.805 243.514 118.617 233.152 129.493Z" fill="#172A65"/>
<path d="M202.38 152.952C202.338 152.952 202.297 152.91 202.276 152.869C201.376 148.139 201.124 143.868 200.936 140.452C200.915 140.077 200.894 139.702 200.873 139.347C200.434 131.826 200.748 125.951 201.02 123.68C201.48 119.659 202.213 115.68 203.113 112.451C203.72 110.284 204.285 108.721 204.934 106.909C207.341 101.492 208.242 99.2418 209.853 95.1583C210.251 94.1583 210.691 93.0749 211.193 91.804C212.135 89.4498 213.056 86.9914 213.914 84.533C213.935 84.4705 213.998 84.4496 214.04 84.4705C214.103 84.4913 214.124 84.5538 214.103 84.5955C213.245 87.0539 212.323 89.5123 211.381 91.8666C210.879 93.1374 210.439 94.2416 210.042 95.2208C208.409 99.3043 207.53 101.554 205.123 106.971C204.474 108.763 203.929 110.326 203.322 112.492C202.422 115.722 201.69 119.701 201.229 123.701C200.978 125.972 200.664 131.826 201.083 139.347C201.103 139.702 201.124 140.077 201.145 140.452C201.334 143.868 201.564 148.119 202.464 152.848C202.485 152.89 202.443 152.931 202.38 152.952Z" fill="#161616" fill-opacity="0.3"/>
<path d="M276.609 181.64H276.588C276.525 181.619 276.504 181.578 276.504 181.515C277.153 179.099 277.572 175.536 275.855 172.265C275.018 170.682 273.909 169.577 272.632 168.327C271.25 166.973 270.266 166.286 266.708 163.91C261.077 160.14 259.109 158.848 259.088 158.827C255.509 156.452 253.52 155.16 253.227 154.952C249.438 152.181 246.947 149.452 245.147 147.452C241.902 143.91 238.846 139.743 236.313 135.43C233.236 130.18 231.687 126.097 229.719 120.909C228.338 117.284 227.061 113.867 225.993 109.075C224.737 103.325 224.633 99.3457 224.695 97.5123C224.737 95.7622 224.821 93.1371 225.721 89.8245C226.475 87.0536 227.626 84.4077 229.175 81.9493C229.196 81.9076 229.28 81.8868 229.322 81.9076C229.364 81.9284 229.384 82.0118 229.364 82.0534C227.835 84.491 226.684 87.1161 225.951 89.887C225.051 93.1788 224.989 95.8039 224.926 97.5331C224.863 99.3665 224.968 103.325 226.224 109.054C227.27 113.846 228.568 117.263 229.929 120.867C231.896 126.034 233.445 130.138 236.502 135.347C239.035 139.66 242.07 143.806 245.314 147.347C247.115 149.327 249.606 152.056 253.374 154.806C253.667 155.014 255.634 156.327 259.214 158.681C259.235 158.702 261.182 159.994 266.833 163.765C270.392 166.161 271.376 166.827 272.778 168.202C274.076 169.473 275.207 170.577 276.044 172.202C277.781 175.536 277.363 179.161 276.693 181.599C276.693 181.599 276.651 181.64 276.609 181.64Z" fill="#161616" fill-opacity="0.3"/>
<path d="M167.463 89.5111C167.421 89.5944 167.338 89.7819 167.401 90.1986C167.547 91.3445 168.28 92.157 168.74 92.5945C170.059 92.407 171.357 92.2195 172.676 92.032C171.901 91.0528 171.106 90.0528 170.331 89.0736C168.908 88.761 167.777 88.9277 167.463 89.5111Z" fill="#F69797"/>
<path d="M187.435 111.533C185.698 109.429 183.96 107.324 182.244 105.22C182.034 104.97 181.888 104.679 181.783 104.366C181.302 102.637 180.82 100.824 180.402 98.9075C179.92 96.7199 179.522 94.6365 179.208 92.6364C179.125 92.0948 178.79 91.6156 178.308 91.3239C176.047 90.0322 173.808 88.7196 171.547 87.4279C171.317 87.3029 171.086 87.2196 170.814 87.1987L166.335 86.7612C166.209 86.7404 166.083 86.7404 165.937 86.7612C165.1 86.8654 163.613 87.0529 162.964 87.1362C162.776 87.1571 162.629 87.3238 162.65 87.5113C162.65 87.7821 162.692 88.1363 162.839 88.3655C163.237 89.0113 164.304 88.7821 165.916 88.9696C167.36 89.1363 168.365 89.5947 169.349 89.678C169.935 90.2197 170.542 90.7614 171.128 91.3239C170.458 91.3239 169.768 91.3239 169.098 91.3239C168.909 91.3239 167.884 91.4697 167.632 92.5323C167.298 93.7615 167.779 94.699 167.863 95.1365C167.507 95.824 167.486 96.5949 167.57 97.2408C167.716 98.3241 168.449 99.1158 168.637 99.2617C168.595 99.6159 168.533 100.053 168.512 100.595C168.47 101.741 168.449 102.366 168.826 102.928C168.909 103.053 169.182 103.428 169.642 103.616C169.851 103.699 170.019 103.72 170.396 103.741C170.772 103.762 171.275 103.783 171.861 103.803C172.049 104.199 172.301 104.658 172.615 105.137C172.866 105.512 173.138 105.845 173.368 106.137L174.059 110.554C174.164 110.762 174.352 111.095 174.687 111.366C175.294 111.866 175.964 111.929 176.215 111.929C176.696 112.366 177.178 112.825 177.68 113.325C179.376 115.033 180.778 116.741 181.93 118.367C182.704 118.012 183.772 117.387 184.777 116.346C186.619 114.575 187.226 112.512 187.435 111.533Z" fill="#F7B2B2"/>
<path d="M173.848 92.0957C173.828 92.0957 173.828 92.0957 173.807 92.0957C173.514 91.9706 173.2 91.8663 172.865 91.762C172.258 91.5952 171.63 91.491 170.981 91.4492C170.918 91.4492 170.876 91.4075 170.876 91.345C170.876 91.2824 170.918 91.2407 170.981 91.2407C171.63 91.2824 172.278 91.3867 172.906 91.5535C173.22 91.6369 173.555 91.762 173.869 91.8872C173.932 91.908 173.953 91.9706 173.932 92.0331C173.932 92.0748 173.89 92.0957 173.848 92.0957Z" fill="#F69797"/>
<path d="M173.305 95.5957H173.284C172.154 95.2412 170.982 95.0535 169.809 95.0535C169.202 95.0535 168.574 95.0952 167.967 95.1786C167.905 95.1786 167.863 95.1578 167.842 95.0952C167.842 95.0326 167.863 94.9909 167.926 94.9701C168.554 94.8867 169.182 94.845 169.809 94.845C171.003 94.8658 172.196 95.0535 173.347 95.408C173.41 95.4288 173.431 95.4914 173.41 95.5331C173.389 95.554 173.347 95.5957 173.305 95.5957Z" fill="#F69797"/>
<path d="M173.534 99.4915C172.571 99.3246 171.587 99.2412 170.625 99.2412C169.976 99.2412 169.306 99.2829 168.657 99.3664C168.594 99.3664 168.552 99.3246 168.531 99.2829C168.531 99.2204 168.573 99.1787 168.615 99.1578C169.264 99.0744 169.934 99.0327 170.604 99.0327C171.587 99.0327 172.571 99.1161 173.534 99.2829C173.597 99.2829 173.639 99.3455 173.618 99.4081C173.639 99.4706 173.597 99.4915 173.534 99.4915Z" fill="#F69797"/>
<path d="M214.5 129.68C215.86 128.305 217.702 126.346 219.712 123.867C221.91 121.179 226.201 115.846 229.739 108.283C233.528 100.199 234.951 95.8034 234.951 95.8034C235.286 94.7617 236.186 91.9491 238.51 89.1573C240.54 86.7198 242.173 86.0739 242.905 85.8239C243.324 85.6781 245.166 85.1364 247.092 85.6156C250.755 86.5531 252.451 90.7616 253.142 92.47C256.847 101.658 251.09 113.346 249.583 116.367C244.141 127.409 236.019 134.18 228.692 140.263C224.233 143.993 220.235 146.743 217.409 148.576C216.865 148.889 215.839 149.347 214.479 149.409C214.479 149.409 212.302 149.514 210.501 148.368C208.01 146.764 207.194 141.555 209.455 135.888C211.171 133.846 212.846 131.763 214.5 129.68Z" fill="#485BA3"/>
<path d="M187.141 110.346C190.679 113.242 194.363 116.158 198.215 119.075C203.469 123.075 208.618 126.805 213.663 130.305C214.312 130.846 215.149 131.68 215.966 132.805C216.782 133.93 218.582 136.805 218.687 140.701C218.708 141.284 218.792 148.118 215.338 149.43C208.158 150.535 202.904 142.43 198.424 137.784C194.614 133.847 195.347 134.888 191.956 131.346C188.879 128.138 184.964 123.825 180.673 118.45C181.112 118.617 182.808 117.346 184.022 116.158C186.806 113.408 187.267 110.992 187.141 110.346Z" fill="#485BA3"/>
<path d="M181.573 117.971C181.531 117.971 181.511 117.95 181.49 117.929C180.317 116.346 179.04 114.825 177.638 113.45C177.177 112.992 176.696 112.533 176.215 112.096C175.901 112.075 174.351 111.908 173.954 110.304L173.326 106.346C173.305 106.283 173.284 106.2 173.242 106.158C173.012 105.866 172.782 105.554 172.572 105.241C172.3 104.825 172.049 104.408 171.84 103.97C171.379 103.95 170.898 103.929 170.437 103.908C170.081 103.887 169.872 103.866 169.642 103.783C169.307 103.637 169.014 103.387 168.762 103.054C168.344 102.45 168.386 101.762 168.427 100.658C168.448 100.241 168.49 99.8037 168.553 99.387C168.281 99.137 167.611 98.3453 167.486 97.3244C167.381 96.5119 167.486 95.8035 167.779 95.1785C167.758 95.116 167.737 95.0118 167.695 94.9285C167.527 94.4285 167.276 93.5951 167.548 92.5743C167.779 91.5326 168.783 91.3034 169.097 91.3034H170.856L169.307 89.8658C168.846 89.8242 168.365 89.6992 167.862 89.5533C167.297 89.4075 166.648 89.2408 165.895 89.1575C165.413 89.095 164.974 89.0741 164.597 89.0741C163.697 89.0325 163.027 89.0116 162.734 88.5116C162.566 88.2616 162.524 87.8658 162.524 87.5949C162.524 87.3449 162.692 87.1366 162.943 87.1157L165.916 86.7407C166.041 86.7199 166.188 86.7199 166.334 86.7407L170.814 87.1782C171.086 87.1991 171.337 87.2824 171.588 87.4282L178.35 91.3242C178.873 91.6159 179.208 92.1159 179.292 92.6993C179.627 94.7827 180.024 96.8869 180.485 98.9703C180.903 100.783 181.364 102.616 181.866 104.429C181.95 104.721 182.097 105.012 182.306 105.241C183.08 106.179 183.813 107.054 184.525 107.929C185.258 108.804 185.969 109.679 186.744 110.617C186.786 110.658 186.765 110.721 186.723 110.762C186.681 110.804 186.618 110.783 186.576 110.742C185.802 109.804 185.069 108.929 184.357 108.054C183.625 107.179 182.913 106.304 182.139 105.366C181.929 105.096 181.762 104.804 181.678 104.471C181.176 102.679 180.694 100.825 180.296 99.012C179.836 96.9494 179.438 94.8243 179.103 92.7409C179.02 92.2201 178.706 91.7826 178.245 91.5117L171.484 87.5324C171.274 87.4074 171.044 87.3449 170.793 87.3032L166.313 86.8657C166.188 86.8449 166.062 86.8449 165.957 86.8657L162.985 87.2407C162.838 87.2616 162.755 87.3657 162.755 87.5116C162.755 87.7616 162.797 88.1158 162.943 88.3241C163.194 88.72 163.759 88.7616 164.639 88.7825C165.015 88.8033 165.455 88.8241 165.957 88.8866C166.711 88.97 167.381 89.1366 167.946 89.3033C168.448 89.4283 168.93 89.5742 169.39 89.6158C169.411 89.6158 169.432 89.6367 169.453 89.6367L171.232 91.2825C171.274 91.3034 171.274 91.3659 171.253 91.3867C171.232 91.4076 171.191 91.4492 171.149 91.4492H169.118C169.118 91.4492 168.009 91.5117 167.758 92.5743C167.486 93.5535 167.737 94.3243 167.904 94.8243C167.946 94.9493 167.967 95.0535 167.988 95.1369C167.988 95.1577 167.988 95.1785 167.988 95.1994C167.695 95.7827 167.59 96.4702 167.695 97.2619C167.82 98.2828 168.511 99.0328 168.741 99.2203C168.762 99.2412 168.783 99.2828 168.783 99.3245C168.721 99.762 168.679 100.2 168.658 100.637C168.616 101.825 168.595 102.387 168.951 102.908C169.16 103.22 169.432 103.45 169.725 103.554C169.914 103.637 170.081 103.658 170.458 103.679C170.939 103.7 171.421 103.72 171.902 103.741C171.944 103.741 171.986 103.762 171.986 103.804C172.216 104.262 172.468 104.7 172.74 105.116C172.949 105.429 173.158 105.721 173.41 106.012C173.472 106.096 173.535 106.2 173.535 106.304L174.163 110.262C174.54 111.783 176.089 111.887 176.277 111.887C176.298 111.887 176.319 111.887 176.34 111.908C176.843 112.367 177.324 112.825 177.805 113.304C179.187 114.7 180.506 116.221 181.657 117.804C181.699 117.846 181.678 117.908 181.636 117.95C181.636 117.971 181.594 117.971 181.573 117.971Z" fill="#F69797"/>
<path d="M162.944 88.3241C162.881 88.3241 162.839 88.2824 162.839 88.2199C162.839 88.1574 162.881 88.1158 162.923 88.1158L164.199 87.9908C164.241 87.9699 164.367 87.9283 164.472 87.8241C164.597 87.6782 164.618 87.4491 164.513 87.2616C164.493 87.1991 164.513 87.1574 164.576 87.1157C164.639 87.0949 164.681 87.1157 164.723 87.1782C164.848 87.4491 164.807 87.7407 164.639 87.9491C164.513 88.1158 164.346 88.1783 164.241 88.1991L162.944 88.3241Z" fill="#F69797"/>
<path fill-rule="evenodd" clip-rule="evenodd" d="M314.226 134.756L298.087 147.173L299.552 150.528C299.615 150.861 299.887 151.132 300.285 151.132L321.05 150.694C321.574 150.673 321.909 150.153 321.699 149.694L315.252 134.902C315.043 134.444 314.582 134.381 314.226 134.756Z" fill="#8F1D3E"/>
<path fill-rule="evenodd" clip-rule="evenodd" d="M312.699 131.569L298.256 146.444C297.816 146.903 298.151 147.674 298.779 147.653L319.565 147.278C320.068 147.278 320.424 146.736 320.214 146.278L313.892 131.798C313.683 131.319 313.055 131.194 312.699 131.569Z" fill="#C63C56"/>
<path fill-rule="evenodd" clip-rule="evenodd" d="M267.064 80.7035L266.373 79.3076L258.209 83.6203L258.858 85.0995C258.9 85.162 258.942 85.2037 259.025 85.2453L266.457 88.3704C266.729 88.4746 266.959 88.3288 266.98 88.0371L267.085 80.8285C267.105 80.7868 267.085 80.7452 267.064 80.7035Z" fill="#8F1D3E"/>
<path fill-rule="evenodd" clip-rule="evenodd" d="M265.994 79.2047L258.354 83.2465C258.124 83.3715 258.145 83.684 258.375 83.7881L265.848 86.8716C266.036 86.9549 266.267 86.8091 266.267 86.6007L266.434 79.4547C266.434 79.2463 266.183 79.1005 265.994 79.2047Z" fill="#C63C56"/>
<path fill-rule="evenodd" clip-rule="evenodd" d="M260.03 253.107C260.03 253.107 249.48 250.482 248.915 250.127C248.727 251.086 248.58 251.898 248.392 252.857C248.371 252.919 248.371 253.003 248.392 253.086L250.925 262.336C251.008 262.607 251.343 262.711 251.553 262.545L259.381 256.128C259.465 256.065 259.507 255.982 259.507 255.898C259.675 254.961 260.03 253.107 260.03 253.107Z" fill="#8F1D3E"/>
<path fill-rule="evenodd" clip-rule="evenodd" d="M248.893 250.357L251.426 259.607C251.51 259.878 251.845 259.982 252.054 259.815L259.883 253.398C260.134 253.19 260.051 252.794 259.737 252.711L249.375 249.877C249.082 249.794 248.81 250.065 248.893 250.357Z" fill="#C63C56"/>
<path d="M123.539 124.274L112.738 116.357L110.854 117.878C110.644 117.982 110.519 118.191 110.602 118.441L114.622 131.441C114.726 131.754 115.124 131.879 115.375 131.67L123.623 124.941C123.895 124.732 123.832 124.42 123.539 124.274Z" fill="#A8ADBE"/>
<path fill-rule="evenodd" clip-rule="evenodd" d="M125.295 122.732L113.238 116.315C112.861 116.107 112.442 116.461 112.568 116.857L116.545 129.878C116.65 130.19 117.026 130.315 117.299 130.107L125.358 123.523C125.63 123.294 125.588 122.898 125.295 122.732Z" fill="white"/>
<path d="M237.946 5.41095L238.051 1.24414L213.308 1.47332L213.036 5.78597V5.8068C213.036 5.97347 213.12 6.18182 213.266 6.34849L227.25 23.0782C227.773 23.6408 228.359 23.3908 228.631 22.9116L237.863 5.78597C237.925 5.66096 237.946 5.53596 237.946 5.41095Z" fill="#A8ADBE"/>
<path fill-rule="evenodd" clip-rule="evenodd" d="M237.234 0.51416L214.083 0.743335C213.392 0.743335 213.036 1.53503 213.476 2.07671L227.375 18.5773C227.731 19.0148 228.422 18.9523 228.715 18.4523L237.946 1.72254C238.26 1.16002 237.862 0.51416 237.234 0.51416Z" fill="white"/>
<path fill-rule="evenodd" clip-rule="evenodd" d="M133.658 206.042L132.318 207.167L139.289 214.834L140.733 213.709C140.796 213.647 140.817 213.584 140.838 213.48L142.22 204.542C142.261 204.23 142.031 204.021 141.717 204.063L133.784 205.938C133.742 205.959 133.679 206 133.658 206.042Z" fill="#8F1D3E"/>
<path fill-rule="evenodd" clip-rule="evenodd" d="M132.298 207.625L138.829 214.792C139.017 215.001 139.373 214.897 139.415 214.605L140.734 205.646C140.776 205.417 140.545 205.209 140.315 205.271L132.444 207.063C132.235 207.125 132.13 207.438 132.298 207.625Z" fill="#C63C56"/>
<path d="M121.538 260.19L119.487 258.482L109.753 270.878L111.804 272.732C111.888 272.795 112.014 272.837 112.181 272.837L126.143 272.524C126.646 272.482 126.73 272.087 126.604 271.774L121.664 260.378C121.664 260.295 121.601 260.232 121.538 260.19Z" fill="#A8ADBE"/>
<path fill-rule="evenodd" clip-rule="evenodd" d="M118.794 258.586L109.71 270.211C109.437 270.544 109.689 271.044 110.128 271.044L123.944 270.69C124.3 270.69 124.551 270.315 124.404 269.982L119.674 258.731C119.527 258.336 119.046 258.273 118.794 258.586Z" fill="white"/>
</svg>
