<svg width="304" height="326" viewBox="0 0 304 326" fill="none" xmlns="http://www.w3.org/2000/svg">
<path d="M261.952 6.70126C263.247 6.70126 264.296 5.65655 264.296 4.36784C264.296 3.07913 263.247 2.03442 261.952 2.03442C260.657 2.03442 259.607 3.07913 259.607 4.36784C259.607 5.65655 260.657 6.70126 261.952 6.70126Z" fill="#A2D6FC" fill-opacity="0.72"/>
<path d="M86.6744 228.399C87.6455 228.399 88.4327 227.615 88.4327 226.648C88.4327 225.682 87.6455 224.898 86.6744 224.898C85.7033 224.898 84.916 225.682 84.916 226.648C84.916 227.615 85.7033 228.399 86.6744 228.399Z" fill="#A2D6FC" fill-opacity="0.72"/>
<path d="M121.955 237.415C124.799 237.415 127.105 235.12 127.105 232.289C127.105 229.459 124.799 227.164 121.955 227.164C119.111 227.164 116.806 229.459 116.806 232.289C116.806 235.12 119.111 237.415 121.955 237.415Z" fill="#A2D6FC" fill-opacity="0.72"/>
<path d="M5.1495 170.586C7.99348 170.586 10.299 168.292 10.299 165.461C10.299 162.631 7.99348 160.336 5.1495 160.336C2.30551 160.336 0 162.631 0 165.461C0 168.292 2.30551 170.586 5.1495 170.586Z" fill="#A2D6FC" fill-opacity="0.72"/>
<path d="M294.015 286.838C297.714 286.838 300.713 283.854 300.713 280.172C300.713 276.49 297.714 273.505 294.015 273.505C290.315 273.505 287.316 276.49 287.316 280.172C287.316 283.854 290.315 286.838 294.015 286.838Z" fill="#A2D6FC" fill-opacity="0.72"/>
<path d="M285.307 27.1207C288.163 27.1207 290.478 24.8167 290.478 21.9746C290.478 19.1326 288.163 16.8286 285.307 16.8286C282.452 16.8286 280.137 19.1326 280.137 21.9746C280.137 24.8167 282.452 27.1207 285.307 27.1207Z" fill="#A2D6FC" fill-opacity="0.72"/>
<path d="M99.2763 176.355C100.895 176.355 102.207 175.049 102.207 173.438C102.207 171.828 100.895 170.522 99.2763 170.522C97.6578 170.522 96.3457 171.828 96.3457 173.438C96.3457 175.049 97.6578 176.355 99.2763 176.355Z" fill="#A2D6FC" fill-opacity="0.72"/>
<path d="M70.4413 41.4959C72.0599 41.4959 73.372 40.19 73.372 38.5791C73.372 36.9682 72.0599 35.6624 70.4413 35.6624C68.8228 35.6624 67.5107 36.9682 67.5107 38.5791C67.5107 40.19 68.8228 41.4959 70.4413 41.4959Z" fill="#A2D6FC" fill-opacity="0.72"/>
<path d="M170.154 325.485C192.698 325.485 210.973 323.415 210.973 320.86C210.973 318.306 192.698 316.235 170.154 316.235C147.61 316.235 129.335 318.306 129.335 320.86C129.335 323.415 147.61 325.485 170.154 325.485Z" fill="#8EA2C0" fill-opacity="0.48"/>
<path d="M160.587 324.152C173.443 324.152 183.864 322.66 183.864 320.819C183.864 318.978 173.443 317.485 160.587 317.485C147.731 317.485 137.31 318.978 137.31 320.819C137.31 322.66 147.731 324.152 160.587 324.152Z" fill="#8EA2C0" fill-opacity="0.48"/>
<path d="M255.622 259.546C304.941 259.546 344.922 255.199 344.922 249.837C344.922 244.475 304.941 240.128 255.622 240.128C206.303 240.128 166.322 244.475 166.322 249.837C166.322 255.199 206.303 259.546 255.622 259.546Z" fill="#8EA2C0" fill-opacity="0.48"/>
<path d="M180.452 117.978C180.201 117.749 180.452 117.061 180.85 116.686C182.211 114.54 186.02 109.727 186.9 109.852C188.135 111.082 184.199 116.499 181.98 117.769C181.436 117.999 181.038 118.186 180.452 117.978Z" fill="#262F69"/>
<path d="M185.665 277.171C185.372 277.109 184.723 277.046 184.221 276.921C177.166 275.234 169.924 271.921 170.217 270.775C170.321 270.379 171.326 270.317 172.582 270.254C177.648 269.984 184.618 271.879 185.498 275.838C185.56 276.171 185.707 276.692 185.665 277.171Z" fill="#161616" fill-opacity="0.3"/>
<path d="M290.057 189.21H188.993V252.025H290.057V189.21Z" fill="#5287AD"/>
<path fill-rule="evenodd" clip-rule="evenodd" d="M275.866 179.668H202.37L188.994 189.21H290.079L275.866 179.668Z" fill="#5287AD"/>
<g style="mix-blend-mode:lighten">
<path d="M243.9 188.439C256.582 188.439 266.863 186.602 266.863 184.335C266.863 182.068 256.582 180.231 243.9 180.231C231.218 180.231 220.937 182.068 220.937 184.335C220.937 186.602 231.218 188.439 243.9 188.439Z" fill="#8BB8D8"/>
</g>
<path fill-rule="evenodd" clip-rule="evenodd" d="M290.079 252.025H215.307C226.589 218.419 248.716 217.586 256.796 189.21H290.079V252.025Z" fill="#8BB8D8"/>
<path d="M276.284 180.918C268.35 172.605 249.971 174.48 240.782 176.147C240.258 168.626 250.202 155.209 246.203 144.979C244.78 141.312 243.21 138 241.619 135C244.215 137.333 266.801 160.313 272.328 165.355C273.981 166.855 281.517 174.48 276.284 180.918Z" fill="#262F69"/>
<path d="M205.489 98.4146C203.354 103.206 201.26 109.061 199.858 115.873C196.53 131.874 198.455 145.541 200.486 154.125C203.27 154.687 206.054 155.229 208.838 155.792C210.241 148.729 211.371 139.52 210.931 128.77C210.408 116.269 207.917 105.915 205.489 98.4146Z" fill="#262F69"/>
<path d="M172.248 267.858C171.808 268.858 171.327 269.879 170.825 270.9C169.422 273.733 167.915 276.296 166.429 278.567C168.103 278.796 171.013 280.692 174.927 283.588C176.791 284.963 181.479 286.65 182.652 283.838C182.966 282.087 183.552 279.879 184.682 277.504C185.268 276.275 185.917 275.191 186.545 274.275C187.487 270.775 186.189 267.17 183.489 265.358C180.098 263.108 174.99 264.024 172.248 267.858Z" fill="#F7B2B2"/>
<path d="M178.277 285.129C180.099 285.588 181.962 285.484 182.652 283.838C182.966 282.088 183.552 279.879 184.683 277.504C185.269 276.275 185.918 275.192 186.546 274.275C186.902 272.983 186.944 271.671 186.713 270.441C181.04 276.817 178.78 281.421 178.277 285.129Z" fill="#F69797"/>
<path fill-rule="evenodd" clip-rule="evenodd" d="M140.304 309.255C139.949 309.755 139.488 310.505 139.132 311.485C138.944 311.985 138.399 313.485 138.588 315.131C138.944 318.318 141.832 320.277 142.795 320.839C144.449 321.818 145.935 322.006 147.798 322.235C148.301 322.298 150.562 322.548 153.597 322.068C156.192 321.652 158.035 320.902 159.479 320.318C161.53 319.464 165.005 318.006 168.417 314.985C168.585 314.839 170.511 312.547 174.383 307.964C176.121 305.922 177.67 304.068 180.098 301.901C181.103 301.005 181.961 300.297 182.589 299.818C182.903 299.463 183.217 299.005 183.51 298.484C184.577 296.422 184.264 294.338 184.075 293.442C181.668 294.276 179.24 295.109 176.832 295.963C164.419 300.276 152.257 304.714 140.304 309.255Z" fill="#8F1D3E"/>
<path fill-rule="evenodd" clip-rule="evenodd" d="M161.007 295.63C163.917 292.109 166.178 289.192 171.641 282.546C171.788 282.358 172.144 281.962 172.73 281.775C173.86 281.4 174.823 282.087 174.949 282.171C175.953 282.858 176.958 283.525 177.963 284.213C178.298 284.421 178.842 284.65 179.533 284.713C181.291 284.858 182.526 283.65 182.736 283.442C184.473 286.629 184.703 291.546 183.992 293.505C183.364 293.9 182.485 294.463 181.459 295.171C180.663 295.734 177.733 297.817 173.462 302.151C171.432 304.213 168.941 306.942 166.303 310.359C165.508 311.088 164.378 312.068 162.87 313.005C161.866 313.651 158.684 315.547 154.037 316.339C153.116 316.484 150.248 316.922 146.647 316.422C143.863 316.026 142.838 315.38 142.21 314.859C141.833 314.547 140.2 313.193 140.116 311.13C140.074 310.047 140.472 309.234 140.828 308.526C141.623 306.88 142.775 305.922 143.089 305.672C145.496 303.63 147.464 301.088 149.808 298.963C151.734 297.213 154.413 294.546 157.386 290.775C158.495 292.463 160.924 295.692 161.007 295.63Z" fill="#C63C56"/>
<path fill-rule="evenodd" clip-rule="evenodd" d="M149.809 298.963C150.521 298.88 154.875 298.755 158.015 301.005C163.395 304.463 165.76 307.942 166.535 310.151C165.865 310.838 164.86 311.776 163.541 312.693C160.464 314.818 157.596 315.568 156.047 315.964C152.258 316.901 149.244 316.714 148.407 316.651C146.313 316.484 144.597 316.068 143.362 315.672C142.88 315.443 142.022 314.963 141.289 314.026C140.996 313.651 140.347 312.818 140.18 311.526C139.992 310.234 140.389 309.234 140.62 308.713C140.996 307.797 141.499 307.213 142.504 306.109C143.194 305.338 143.362 305.276 144.869 303.817C145.895 302.817 145.957 302.713 147.381 301.317C147.988 300.734 148.804 299.921 149.809 298.963Z" fill="#E46379"/>
<path fill-rule="evenodd" clip-rule="evenodd" d="M172.835 281.65C173.023 281.608 173.316 281.566 173.672 281.608C174.216 281.671 174.635 281.858 174.928 282.066C175.263 282.316 175.598 282.566 175.954 282.796C176.058 282.879 176.163 282.941 176.268 283.025C174.509 286.212 166.513 296.713 161.007 303.255C160.086 304.067 158.705 303.963 157.993 303.109C157.386 302.38 157.365 301.234 158.035 300.421C162.954 294.192 167.894 287.921 172.835 281.65Z" fill="#E46379"/>
<path fill-rule="evenodd" clip-rule="evenodd" d="M149.745 299.025C150.98 297.692 152.236 296.296 153.471 294.796C157.993 289.317 161.384 283.858 163.979 278.858C164.168 278.65 164.461 278.379 164.859 278.15C166.282 277.275 167.81 277.504 168.313 277.587C170.113 277.879 172.353 279.483 172.918 281.671C170.364 285.525 167.622 289.233 164.817 292.733C162.535 295.588 160.274 298.359 158.014 301.025C157.134 300.463 155.711 299.692 153.785 299.275C152.111 298.9 150.708 298.921 149.745 299.025Z" fill="#8F1D3E"/>
<path fill-rule="evenodd" clip-rule="evenodd" d="M177.544 249.566C177.9 249.816 178.465 250.128 179.219 250.295C180.747 250.649 182.003 250.128 182.463 249.92C183.133 249.295 184.033 248.42 185.059 247.336C186.357 245.961 187.989 244.065 190.166 240.961C194.018 235.482 196.635 230.398 196.949 229.773C199.168 225.44 201.826 219.356 203.919 211.668C204.003 211.189 204.024 210.564 203.836 209.918C203.103 207.543 200.068 206.981 199.942 206.96C199.377 208.918 198.54 211.543 197.43 214.627C194.29 223.336 191.025 229.502 190.292 230.877C186.231 238.461 182.4 243.545 181.563 244.649C179.972 246.711 178.57 248.378 177.544 249.566Z" fill="#8F1D3E"/>
<path fill-rule="evenodd" clip-rule="evenodd" d="M186.104 204.418C185.832 207.377 185.79 210.023 185.518 212.981C185.33 213.314 185.016 213.814 184.597 214.377C182.65 216.835 180.118 217.752 179.217 218.065C178.548 218.294 177.564 218.585 176.35 218.71C176.664 220.044 177.103 222.023 177.564 224.44C178.464 229.148 178.903 231.503 178.778 233.503C178.548 236.919 177.438 239.899 176.643 242.003C176.203 243.19 175.764 244.17 175.429 244.857C175.261 245.232 175.01 245.941 175.156 246.795C175.45 248.732 177.417 249.586 177.564 249.649C178.485 248.545 179.741 247.003 181.185 245.128C181.185 245.128 184.848 240.315 187.863 235.336C191.065 230.065 195.754 220.815 199.857 207.585C199.041 207.064 198.12 206.502 197.073 206.064C192.782 204.231 188.574 204.085 186.104 204.418Z" fill="#C63C56"/>
<path fill-rule="evenodd" clip-rule="evenodd" d="M179.867 234.69C180.516 234.794 181.291 234.961 182.086 235.252C184.033 235.961 185.414 237.044 186.273 237.836C185.163 239.502 183.991 241.19 182.756 242.919C181.039 245.273 179.344 247.503 177.648 249.565C177.251 249.44 176.56 249.128 175.974 248.461C175.722 248.169 175.011 247.357 175.053 246.148C175.094 245.273 175.513 244.648 175.701 244.398C175.932 243.836 176.267 243.044 176.623 242.086C177.167 240.648 177.502 239.773 177.837 238.669C178.088 237.815 178.381 236.627 178.569 235.169C178.988 235.002 179.428 234.836 179.867 234.69Z" fill="#E46379"/>
<path fill-rule="evenodd" clip-rule="evenodd" d="M177.418 218.481C178.109 218.168 178.59 218.002 179.762 217.564C180.872 216.918 181.709 216.939 182.044 217.127C182.379 219.043 182.672 221.085 182.923 223.231C183.237 225.96 183.426 228.544 183.53 230.981C183.53 231.523 183.468 232.273 183.195 233.106C182.777 234.44 182.023 235.315 181.563 235.794C181.27 236.044 180.872 236.356 180.349 236.627C179.448 237.065 178.611 237.169 178.13 237.19C178.234 236.731 178.444 235.669 178.548 235.211C179.972 231.731 177.983 223.356 177.418 218.481Z" fill="#E46379"/>
<path d="M173.336 206.898C174.11 208.148 174.948 209.752 175.638 211.669C176.622 214.419 176.978 216.877 177.104 218.731C178.046 218.669 178.255 218.294 179.825 217.544C180.579 217.21 181.06 217.023 182.086 217.148C184.137 215.856 185.226 214.148 185.665 213.356C185.875 210.523 186.084 207.668 186.293 204.835C186.063 204.314 185.644 203.418 185.184 202.502C180.495 194.835 169.861 199.439 173.336 206.898Z" fill="#F7B2B2"/>
<path fill-rule="evenodd" clip-rule="evenodd" d="M178.548 235.148C179.009 235.044 179.679 234.836 180.307 234.315C182.023 232.898 181.814 230.502 181.793 230.252C181.835 228.606 180.788 220.023 180.139 218.106C179.867 217.418 179.302 217.043 178.716 216.856C177.355 216.418 176.141 217.106 175.932 217.231C176.183 218.398 178.716 231.211 178.716 232.565C178.737 233.523 178.674 234.398 178.548 235.148Z" fill="#8F1D3E"/>
<path fill-rule="evenodd" clip-rule="evenodd" d="M209.802 186.126C207.29 185.376 203.312 184.084 198.644 181.959C190.732 178.355 188.387 175.834 175.702 168.188C168.103 163.605 164.294 161.313 163.079 160.667C156.151 157.042 152.236 155.771 150.248 151.479C149.85 150.646 148.405 147.521 149.62 144.166C150.624 141.416 152.885 140.02 153.618 139.583C156.821 137.666 160.337 137.979 163.728 138.541C173.169 140.104 180.223 143.479 180.37 143.541C186.085 146.271 194.416 149.917 205.636 153.771C207.708 154.625 210.995 156.271 214.051 159.396C215.83 161.209 219.87 165.355 220.373 171.709C220.519 173.522 220.98 179.584 216.584 183.397C214.072 185.522 211.225 186.001 209.802 186.126Z" fill="#015B93"/>
<path fill-rule="evenodd" clip-rule="evenodd" d="M255.415 165.542C255.646 170.209 255.457 174.104 255.206 176.98C254.432 186.001 252.757 188.105 251.857 189.043C250.789 190.147 249.156 191.293 245.598 192.168C232.933 195.293 219.495 189.418 209.468 184.897C207.73 184.126 206.349 183.438 205.49 183.021C204.59 182.438 203.292 181.459 202.141 179.896C200.153 177.209 199.839 174.48 199.629 172.834C198.687 164.896 202.958 154.75 203.606 153.291C207.333 153.479 211.247 153.812 215.308 154.333C231.133 156.375 244.614 160.812 255.415 165.542Z" fill="#015B93"/>
<path d="M216.691 177.042L214.66 176.417C214.66 176.417 211.227 170.938 207.962 166.938C205.177 163.542 199.798 156.937 200.258 156.521C200.656 156.167 205.554 160.292 209.699 165.5C213.216 169.917 215.372 174.105 216.691 177.042Z" fill="#161616" fill-opacity="0.3"/>
<path d="M214.47 173.855C213.004 171.542 211.016 168.084 209.048 163.667C207.918 161.125 205.615 155.604 206.118 155.354C206.599 155.125 209.509 159.312 211.539 163.875C213.318 167.834 214.093 171.396 214.47 173.855Z" fill="#161616" fill-opacity="0.3"/>
<path d="M176.499 168.667C179.534 170.292 194.334 181.626 207.187 185.272C208.422 184.105 212.86 179.876 216.669 177.043C214.388 176.313 211.959 175.293 209.657 174.48C196.469 169.959 184.14 164.855 172.647 159.417C174.469 163.646 175.62 166.396 176.499 168.667Z" fill="#161616" fill-opacity="0.3"/>
<path fill-rule="evenodd" clip-rule="evenodd" d="M200.465 255.316C196.844 261.274 197.179 265.462 195.797 267.296C195.106 268.233 193.892 269.379 191.611 270.212C191.673 270.4 192.469 273.067 190.627 275.275C188.68 277.608 185.666 277.171 185.54 277.15C186.67 274.879 188.01 272.483 189.58 270.004C193.243 264.316 196.907 258.816 200.465 255.316Z" fill="#015B93"/>
<path fill-rule="evenodd" clip-rule="evenodd" d="M220.541 174.273C220.541 174.273 212.544 179.669 207.604 184.815C205.825 186.648 204.464 188.252 203.606 189.294C203.02 190.086 202.224 191.356 201.701 193.065C200.466 197.169 200.947 203.315 205.071 207.003C208.42 210.003 213.151 210.461 217.066 208.19C218.196 207.42 220.017 206.211 222.341 204.878C225.188 203.253 243.295 194.732 246.497 192.856C253.175 189.523 253.447 186.877 254.703 181.898C256.378 171.502 246.853 169.147 244.299 168.626C234.796 166.689 225.753 170.939 220.541 174.273Z" fill="#0178B4"/>
<path fill-rule="evenodd" clip-rule="evenodd" d="M202.034 192.189C200.695 196.252 198.706 202.169 196.11 209.231C194.226 214.357 191.024 222.774 181.185 245.649C178.401 252.15 174.675 260.692 170.195 270.775C171.975 270.734 175.282 270.859 178.987 272.484C182.274 273.921 184.43 275.921 185.581 277.171C187.423 274.171 190.416 269.421 194.373 263.754C201.406 253.65 203.165 252.566 206.891 246.295C212.103 237.524 214.573 229.711 215.682 225.649C217.86 217.628 218.467 210.565 218.529 205.21C218.508 203.46 218.215 200.71 216.771 197.752C215.243 194.668 211.161 188.793 206.451 189.439C205.635 189.543 203.876 189.981 202.034 192.189Z" fill="#0178B4"/>
<path fill-rule="evenodd" clip-rule="evenodd" d="M217.086 208.189C218.216 207.418 220.037 206.21 222.361 204.877C225.208 203.252 243.315 194.73 246.518 192.855C253.195 189.522 253.467 186.876 254.723 181.897C255.477 177.772 254.451 175.646 253.53 173.855C250.181 185.938 229.185 194.647 218.3 202.835C218.3 202.835 217.63 205.585 217.086 208.189Z" fill="#015B93"/>
<path fill-rule="evenodd" clip-rule="evenodd" d="M183.089 274.879C184.177 275.712 185.015 276.525 185.58 277.15C187.422 274.15 190.415 269.4 194.372 263.733C201.405 253.628 203.164 252.545 206.89 246.274C212.102 237.503 214.572 229.69 215.681 225.627C217.858 217.606 218.465 210.543 218.528 205.189C218.528 204.46 218.696 203.689 218.528 202.689C213.274 206.606 208.627 245.149 183.089 274.879Z" fill="#015B93"/>
<g style="mix-blend-mode:lighten">
<path d="M226.608 171.042C222.422 172.792 219.114 175.063 215.012 178.25C210.427 181.792 206.911 185.417 204.294 188.501C206.931 186.938 209.695 185.146 212.5 183.105C218.068 179.063 222.861 174.896 226.608 171.042Z" fill="white" fill-opacity="0.3"/>
</g>
<g style="mix-blend-mode:lighten">
<path d="M200.757 196.064C199.376 200.106 197.22 206.002 194.54 213.023C193.912 214.648 191.986 219.69 187.025 231.732C184.744 237.253 181.457 244.941 177.647 253.858C182.002 247.274 186.9 238.816 191.065 228.961C196.299 216.565 199.208 205.169 200.757 196.064Z" fill="white" fill-opacity="0.3"/>
</g>
<path d="M215.912 199.21C215.87 199.21 215.829 199.189 215.829 199.148C215.808 199.106 215.829 199.043 215.87 199.002C228.493 192.668 236.971 187.231 240.697 184.251C243.397 182.105 245.679 179.918 245.7 179.897C247.542 178.126 249.3 176.251 250.912 174.293C250.954 174.251 251.017 174.251 251.059 174.272C251.1 174.313 251.1 174.376 251.08 174.418C249.447 176.376 247.688 178.272 245.846 180.043C245.825 180.064 243.523 182.272 240.822 184.418C237.075 187.397 228.577 192.835 215.954 199.189C215.954 199.189 215.933 199.21 215.912 199.21Z" fill="#161616" fill-opacity="0.3"/>
<path d="M182.421 271.337C182.4 271.337 182.379 271.337 182.358 271.317C182.316 271.275 182.295 271.212 182.337 271.171C188.178 262.712 193.411 253.753 197.869 244.566C203.542 232.857 208.147 220.356 211.225 208.419C211.832 206.085 212.397 203.71 212.899 201.356C212.92 201.293 212.962 201.272 213.025 201.272C213.088 201.293 213.109 201.335 213.109 201.397C212.606 203.752 212.041 206.127 211.434 208.46C208.357 220.419 203.731 232.94 198.058 244.649C193.599 253.858 188.366 262.816 182.505 271.296C182.484 271.337 182.463 271.337 182.421 271.337Z" fill="#161616" fill-opacity="0.3"/>
<path d="M249.112 176.542C249.091 176.542 249.07 176.542 249.049 176.522C246.893 174.959 244.172 172.251 243.376 168.355C243.314 168.001 243.251 167.646 243.209 167.292C243.209 167.23 243.251 167.188 243.293 167.188C243.356 167.188 243.397 167.23 243.397 167.271C243.439 167.626 243.481 167.98 243.565 168.313C244.339 172.146 247.04 174.813 249.154 176.355C249.196 176.397 249.217 176.459 249.175 176.501C249.175 176.522 249.154 176.542 249.112 176.542Z" fill="#161616" fill-opacity="0.3"/>
<path fill-rule="evenodd" clip-rule="evenodd" d="M179.822 182.667C179.969 184.021 180.304 185.438 181.015 186.834C181.664 188.105 182.167 188.522 182.564 189.605C182.941 190.688 183.088 192.105 182.564 193.98C183.171 194.438 184.176 195.334 184.867 196.751C186.144 199.397 185.432 201.918 185.223 202.564C183.925 201.001 182.334 198.689 181.162 195.626C179.027 190.105 179.424 185.188 179.822 182.667Z" fill="#0178B4"/>
<path fill-rule="evenodd" clip-rule="evenodd" d="M156.001 138.729C154.013 138.958 152.275 140.583 151.605 141.229C148.779 143.895 148.277 147.375 148.047 148.916C147.9 149.875 147.67 152.083 148.675 156.396C149.91 161.75 151.919 165.584 152.233 166.167C155.394 172.188 162.783 187.126 172.915 207.314C174.38 206.918 175.908 206.418 177.499 205.856C180.388 204.835 182.963 203.689 185.224 202.523C184.365 200.772 183.151 198.064 182.084 194.626C179.823 187.293 180.283 183.334 178.734 176.334C177.646 171.376 176.243 167.98 174.338 163.438C172.203 158.271 163.704 137.812 156.001 138.729Z" fill="#0178B4"/>
<g style="mix-blend-mode:lighten">
<path d="M150.874 141.853C150.246 142.645 149.388 143.874 148.739 145.541C147.755 148.082 147.776 150.249 147.818 151.645C147.839 152.145 147.88 154.062 148.843 157.458C149.681 160.458 150.664 162.666 151.439 164.395C153.888 169.75 155.688 172.979 158.305 178.167C159.163 179.854 160.356 182.209 161.738 185.105C160.649 182.375 158.64 177.25 156.086 170.687C152.318 161.041 151.167 157.999 150.602 153.499C150.016 148.645 150.413 144.561 150.874 141.853Z" fill="white" fill-opacity="0.3"/>
</g>
<path d="M209.863 171.98C209.842 171.98 209.842 171.98 209.821 171.98C199.229 168.438 188.993 163.813 179.448 158.25C176.391 156.458 173.335 154.542 170.384 152.562C170.342 152.521 170.321 152.458 170.363 152.417C170.405 152.375 170.467 152.354 170.509 152.396C173.44 154.375 176.496 156.292 179.552 158.083C189.098 163.646 199.292 168.25 209.884 171.792C209.947 171.813 209.968 171.876 209.947 171.917C209.947 171.938 209.905 171.98 209.863 171.98Z" fill="#161616" fill-opacity="0.3"/>
<path fill-rule="evenodd" clip-rule="evenodd" d="M157.702 95.2695C156.278 96.4571 153.494 98.5196 153.494 98.5196C153.494 98.5196 153.201 98.4155 152.971 98.2696C154.017 97.3946 155.064 96.5196 156.111 95.6445C156.697 95.4779 157.115 95.4154 157.702 95.2695Z" fill="#8F1D3E"/>
<path fill-rule="evenodd" clip-rule="evenodd" d="M156.111 96.1649L157.618 95.3524C157.786 95.2691 157.848 95.0607 157.765 94.9149C156.488 92.394 147.382 74.4975 146.335 72.3724C146.231 72.1641 146.021 72.0599 145.791 72.0807L144.2 72.2891L156.111 96.1649Z" fill="#8F1D3E"/>
<path fill-rule="evenodd" clip-rule="evenodd" d="M139.489 77.664L150.354 100.102C150.437 100.29 150.689 100.352 150.856 100.227L156.068 96.2063C156.194 96.1021 156.236 95.9355 156.173 95.7896L144.534 72.4555C144.43 72.2471 144.137 72.2055 143.99 72.3721L139.552 77.289C139.448 77.3931 139.427 77.539 139.489 77.664Z" fill="#C63C56"/>
<path d="M161.259 107.936C161.322 107.707 161.28 107.603 161.218 107.561C160.966 107.29 159.941 107.853 159.689 108.02C160.045 108.478 160.401 108.957 160.757 109.416C160.924 108.916 161.092 108.436 161.259 107.936Z" fill="#262F69"/>
<path d="M153.558 114.562C152.427 113.291 150.271 110.145 149.12 108.874C147.11 106.02 146.712 102.582 145.352 97.9363C144.64 96.1654 143.928 94.4362 143.196 92.7486C143.007 90.2277 142.819 87.7068 142.631 85.2067C142.317 84.3108 141.814 82.8941 141.437 81.8732C141.019 80.644 141.312 80.2273 141.689 79.6023C142.191 78.769 142.882 77.6439 143.3 76.8314C144.075 75.373 144.996 73.4354 144.996 73.4354C144.996 73.4354 145.708 72.5396 146.001 72.6229C146.943 72.8729 147.089 73.5396 147.236 74.4771C147.068 75.2688 146.796 76.3314 146.566 76.7689C145.833 78.1231 145.268 79.4981 144.535 80.8732C145.289 79.8107 146.315 78.6023 147.675 77.4147C148.45 76.7272 149.203 76.1647 149.894 75.6855C149.957 75.6647 150.941 75.3313 151.485 75.8314C152.071 76.3314 152.071 77.6439 151.067 78.6023C150.271 79.4565 149.497 80.3107 148.701 81.1649C147.927 82.1857 147.173 83.2066 146.398 84.2066C146.315 84.8317 146.21 85.4567 146.126 86.0817C146.985 85.4567 147.927 84.79 148.973 84.1441C150.062 83.4775 151.129 82.8941 152.113 82.4149C152.93 82.1649 153.746 81.9149 154.541 81.6441C155.107 81.4982 155.693 81.6232 156.007 81.9982C156.467 82.5399 156.342 83.5608 155.525 84.1441C154.29 84.7483 153.076 85.3525 151.841 85.9359C151.067 86.8317 148.806 88.8526 148.806 88.8526C148.806 88.8526 151.255 87.4359 152.323 86.6442C152.95 86.4151 153.578 86.1859 154.206 85.9567C154.646 85.79 155.086 85.6234 155.525 85.4775C155.776 85.4567 156.216 85.4359 156.425 85.6859C156.76 86.0609 156.572 86.9776 155.735 87.7693C154.834 88.4151 153.934 89.061 153.013 89.7068C152.511 90.5194 151.988 91.3319 151.485 92.1236C151.904 92.9778 152.343 94.1237 152.595 95.5195C152.741 96.3112 152.804 97.0404 152.804 97.6655C153.495 98.3946 154.332 99.3947 155.107 100.707C155.735 101.811 156.153 102.832 156.425 103.687C157.388 107.27 159.523 107.645 161.24 109.187C160.842 109.978 159.251 112.937 156.069 114.02C155.128 114.27 154.29 114.562 153.558 114.562Z" fill="#F7B2B2"/>
<path d="M142.693 85.6437C142.63 85.6437 142.588 85.602 142.588 85.5395V83.9978C142.588 83.4978 142.755 83.0186 143.048 82.6227C143.3 82.2894 143.551 81.9352 143.823 81.6019C144.158 81.1644 144.493 80.7268 144.849 80.3102C144.891 80.2685 144.953 80.2685 144.995 80.2893C145.037 80.331 145.037 80.3935 145.016 80.4352C144.681 80.8518 144.325 81.2894 143.99 81.7269C143.718 82.0602 143.467 82.4144 143.216 82.7477C142.944 83.1228 142.797 83.5603 142.797 83.9978V85.5395C142.797 85.602 142.734 85.6437 142.693 85.6437Z" fill="#F69797"/>
<path d="M144.785 91.748C144.764 91.748 144.764 91.748 144.785 91.748C144.723 91.748 144.681 91.6855 144.681 91.623C145.057 88.9771 145.623 87.3312 146.125 85.8728C146.146 85.8103 146.209 85.7895 146.251 85.8103C146.313 85.8311 146.334 85.8936 146.313 85.9353C145.811 87.3729 145.246 89.0187 144.869 91.6438C144.869 91.7063 144.827 91.748 144.785 91.748Z" fill="#F69797"/>
<path d="M181.482 126.458C180.645 125.812 179.41 124.895 177.923 123.749C174.616 121.207 171.664 118.937 169.78 117.311C167.478 115.311 164.38 112.228 161.219 107.54C161.156 109.04 155.546 114.728 153.327 114.353C155.818 118.437 165.259 131.833 174.365 140.166C175.39 141.104 178.426 143.812 182.508 144.125C184.078 144.25 184.81 143.937 185.229 143.708C188.055 142.104 187.636 136.979 187.532 136.02C186.966 130.729 182.78 127.416 181.482 126.458Z" fill="#2C3C82"/>
<path d="M206.684 86.5605C205.972 86.8314 203.774 87.9981 202.581 89.0606C200.383 90.9982 199.651 93.415 199.441 94.04C198.478 96.9151 193.915 105.415 181.481 125.833C180.895 126.77 180.162 128.187 179.597 130C179.136 131.479 178.09 135.104 179.388 139.146C179.827 140.521 180.665 143.083 182.737 143.708C183.7 144 184.663 143.792 185.04 143.708C186.714 143.333 187.761 142.292 188.179 141.833C189.415 140.729 191.131 139 192.764 136.646C195.422 132.833 196.49 129.354 197.348 126.458C199.839 118.103 201.074 113.937 202.142 108.791C203.314 103.311 205.617 95.3525 206.684 86.5605Z" fill="#2C3C82"/>
<path d="M185.041 143.709C186.716 143.334 187.762 142.292 188.181 141.833C189.416 140.729 191.132 139 192.765 136.646C195.424 132.833 196.491 129.354 197.35 126.458C199.841 118.103 201.076 113.937 202.143 108.791C202.855 105.395 204.006 101.04 205.053 96.1235C197.852 103.978 195.424 127.437 185.041 143.709Z" fill="#172A65"/>
<path d="M154.311 107.603C154.269 107.603 154.248 107.582 154.227 107.561C154.185 107.52 154.206 107.457 154.248 107.416C154.625 107.145 156.446 105.686 156.299 103.686C156.278 103.332 156.174 102.957 156.027 102.603C156.006 102.54 156.027 102.499 156.09 102.457C156.153 102.436 156.195 102.457 156.236 102.52C156.404 102.895 156.488 103.27 156.53 103.665C156.676 105.77 154.792 107.291 154.394 107.561C154.353 107.603 154.332 107.603 154.311 107.603Z" fill="#F69797"/>
<path d="M145.476 75.2894C145.183 75.2894 144.869 75.1019 144.764 74.831C144.722 74.7269 144.701 74.581 144.701 74.456C144.701 74.3935 144.764 74.3518 144.827 74.3727C144.89 74.3727 144.931 74.4352 144.911 74.4977C144.89 74.6019 144.911 74.6852 144.952 74.7685C145.057 75.0185 145.392 75.1435 145.601 75.081C145.748 75.0394 145.852 74.9144 145.894 74.8727C146.208 74.456 146.46 73.8518 146.627 73.4143C146.648 73.3518 146.711 73.331 146.753 73.3518C146.815 73.3726 146.836 73.4351 146.815 73.4768C146.648 73.9352 146.397 74.5602 146.062 74.9769C146.02 75.0394 145.873 75.206 145.664 75.2685C145.58 75.2894 145.538 75.2894 145.476 75.2894Z" fill="#F69797"/>
<path d="M149.998 77.8934C149.935 77.8934 149.872 77.8934 149.831 77.8726C149.6 77.8101 149.412 77.6643 149.286 77.4143C149.224 77.2893 149.182 77.1643 149.182 77.0184C149.182 76.9559 149.224 76.9142 149.286 76.9142C149.349 76.9142 149.391 76.9559 149.391 77.0184C149.391 77.1226 149.412 77.2268 149.475 77.3101C149.579 77.4976 149.705 77.6226 149.893 77.6643C150.207 77.7476 150.459 77.5184 150.479 77.4976L151.526 76.6851C151.568 76.6434 151.631 76.6642 151.673 76.7059C151.715 76.7476 151.694 76.8101 151.652 76.8517L150.605 77.6643C150.584 77.6851 150.333 77.8934 149.998 77.8934Z" fill="#F69797"/>
<path d="M154.395 83.6856C154.353 83.6856 154.311 83.6856 154.269 83.6856C154.102 83.6648 153.934 83.6439 153.767 83.5189C153.474 83.2689 153.495 82.8731 153.516 82.8106C153.537 82.6647 153.578 82.5189 153.683 82.3939C153.725 82.3522 153.788 82.3314 153.83 82.3731C153.872 82.4147 153.892 82.4772 153.851 82.5189C153.788 82.6022 153.746 82.7272 153.725 82.8314C153.725 82.8522 153.683 83.1648 153.913 83.3523C154.018 83.4356 154.123 83.4564 154.29 83.4773C154.814 83.5398 155.735 83.0397 155.818 82.9564C155.86 82.9147 155.923 82.9147 155.965 82.9564C156.007 82.9981 156.007 83.0606 155.965 83.1022C155.86 83.2064 155.002 83.6856 154.395 83.6856Z" fill="#F69797"/>
<path d="M155.128 87.1651C155.023 87.1651 154.939 87.1443 154.877 87.1026C154.709 87.0192 154.646 86.8524 154.605 86.7481C154.584 86.6855 154.605 86.6438 154.667 86.623C154.73 86.6021 154.772 86.623 154.793 86.6855C154.814 86.7481 154.877 86.8732 154.981 86.9149C155.086 86.9775 155.233 86.9566 155.337 86.9149C155.714 86.8106 156.007 86.5187 156.175 86.3102C156.216 86.2685 156.279 86.2476 156.321 86.2893C156.363 86.331 156.384 86.3936 156.342 86.4353C156.154 86.6855 155.819 86.9983 155.4 87.1234C155.295 87.1651 155.212 87.1651 155.128 87.1651Z" fill="#F69797"/>
<path d="M156.446 103.519C156.466 103.811 156.466 104.165 156.383 104.561C156.194 105.519 155.671 106.186 155.378 106.498C155.776 107.061 156.194 107.644 156.592 108.269C157.283 109.311 157.911 110.353 158.455 111.332C158.79 110.978 159.146 110.644 159.481 110.248C159.941 109.748 160.339 109.228 160.737 108.665C158.35 106.373 157.408 106.29 156.446 103.519Z" fill="#F69797"/>
<path d="M153.326 114.353C153.305 114.353 153.263 114.332 153.242 114.311C152.677 113.665 151.903 112.645 151.149 111.645C150.374 110.624 149.6 109.561 149.035 108.936C147.528 106.811 146.941 104.436 146.167 101.415C145.895 100.332 145.602 99.1858 145.246 97.9565C144.555 96.2273 143.822 94.4773 143.09 92.7689C143.09 92.748 143.09 92.748 143.09 92.7272L142.525 85.1853L141.457 82.1643C140.787 80.7059 141.311 79.9767 141.687 79.4559C142.232 78.5809 142.755 77.6642 143.236 76.7266C143.425 76.3725 143.613 75.9349 143.822 75.4766C144.513 73.9765 145.225 72.4348 146.041 72.4348C146.816 72.4973 147.381 73.539 147.339 74.3724C147.297 74.9349 147.067 75.8516 146.711 76.7683C146.334 77.4558 145.999 78.1433 145.686 78.7892C145.539 79.1017 145.372 79.4351 145.204 79.7684C145.937 78.8517 146.753 77.9975 147.632 77.2267C148.386 76.5391 148.993 76.1016 149.705 75.6224C150.04 75.4141 150.877 74.9974 151.589 75.6224C151.861 75.8516 152.007 76.2474 152.028 76.685C152.049 77.3517 151.735 78.0183 151.191 78.56L148.825 81.1226C148.574 81.456 148.239 81.8726 147.904 82.2685C147.318 82.9977 146.586 83.8936 146.544 84.1019L146.293 85.727C147.151 85.1019 148.051 84.4977 148.951 83.9352C149.977 83.3102 151.023 82.7268 152.091 82.206L154.54 81.4351C155.168 81.2685 155.775 81.4143 156.11 81.8101C156.34 82.081 156.424 82.456 156.382 82.8518C156.319 83.3519 156.026 83.8102 155.608 84.1019L151.924 85.8936C151.421 86.4561 150.374 87.4562 149.642 88.1229C150.458 87.6437 151.63 86.9145 152.279 86.4145L152.3 86.3936C152.928 86.1645 153.556 85.9353 154.184 85.7061L155.503 85.2269H155.524C155.838 85.1853 156.278 85.1853 156.529 85.4769C156.885 85.8936 156.717 86.852 155.817 87.7062L153.117 89.6438L151.63 91.998C152.154 93.0814 152.51 94.2064 152.719 95.3731C152.845 96.0815 152.907 96.7898 152.928 97.4982C153.807 98.4149 154.582 99.4358 155.21 100.54C155.754 101.478 156.215 102.498 156.55 103.54C156.906 105.04 157.827 105.873 159.103 106.999C159.585 107.436 160.15 107.915 160.715 108.499C160.757 108.54 160.757 108.603 160.715 108.644C160.673 108.686 160.611 108.686 160.569 108.644C160.004 108.061 159.438 107.582 158.957 107.144C157.701 106.019 156.696 105.144 156.34 103.582C156.005 102.561 155.566 101.561 155.022 100.623C154.394 99.5191 153.619 98.4982 152.74 97.6024C152.719 97.5815 152.719 97.5607 152.719 97.5399C152.719 96.8315 152.635 96.1023 152.51 95.4148C152.3 94.2481 151.924 93.123 151.4 92.0397C151.379 91.998 151.379 91.9772 151.4 91.9355L152.928 89.5187C152.928 89.4979 152.949 89.4979 152.949 89.4979L155.67 87.5603C156.508 86.7687 156.612 85.9353 156.34 85.6436C156.152 85.4353 155.754 85.4353 155.545 85.4769L154.226 85.9561C153.598 86.1853 152.991 86.4145 152.363 86.6437C151.296 87.4562 148.867 88.8521 148.846 88.8521C148.805 88.8729 148.742 88.8729 148.7 88.8312C148.679 88.7896 148.679 88.7271 148.721 88.6854C148.742 88.6646 150.982 86.6645 151.756 85.7895C151.756 85.7686 151.777 85.7686 151.798 85.7686L155.482 83.9769C155.859 83.706 156.11 83.3102 156.152 82.8727C156.194 82.5393 156.11 82.206 155.922 81.9977C155.65 81.6643 155.105 81.5393 154.561 81.6851L152.133 82.456C151.086 82.9769 150.04 83.5602 149.014 84.1852C148.051 84.7894 147.088 85.4353 146.167 86.1228C146.125 86.1436 146.083 86.1436 146.041 86.1228C145.999 86.102 145.979 86.0603 145.999 86.0186L146.272 84.1436C146.313 83.8936 146.837 83.2477 147.674 82.206C148.009 81.8101 148.344 81.3935 148.595 81.0393L150.961 78.4767C151.463 77.9975 151.756 77.3725 151.756 76.7683C151.756 76.3933 151.61 76.0599 151.4 75.8516C150.793 75.3099 150.06 75.6849 149.767 75.8724C149.056 76.3516 148.47 76.7891 147.716 77.4558C146.565 78.4767 145.518 79.6434 144.597 80.8934C144.555 80.9351 144.513 80.9559 144.45 80.9143C144.409 80.8934 144.388 80.8309 144.409 80.7684C144.785 80.0809 145.099 79.4142 145.413 78.7475C145.727 78.0808 146.062 77.3933 146.439 76.7266C146.795 75.8308 147.025 74.9557 147.046 74.3932C147.088 73.664 146.586 72.7265 145.937 72.6848C145.267 72.6848 144.513 74.3099 143.927 75.6016C143.718 76.0599 143.508 76.4975 143.32 76.8516C142.839 77.7683 142.294 78.7059 141.75 79.6017C141.373 80.1226 140.934 80.7476 141.541 82.1227L142.629 85.1644V85.1853L143.194 92.7272C143.927 94.4356 144.66 96.1857 145.351 97.9149C145.706 99.1649 145.999 100.29 146.272 101.394C147.025 104.394 147.632 106.749 149.098 108.832C149.663 109.457 150.458 110.519 151.233 111.54C151.986 112.54 152.74 113.561 153.305 114.207C153.347 114.249 153.347 114.311 153.305 114.353C153.368 114.353 153.347 114.353 153.326 114.353Z" fill="#F69797"/>
<path d="M147.403 94.623C147.403 94.623 147.382 94.623 147.403 94.623C147.34 94.623 147.298 94.5605 147.298 94.498C147.675 91.8521 148.24 90.2062 148.742 88.7478C148.763 88.6853 148.826 88.6645 148.868 88.6853C148.931 88.7061 148.952 88.7686 148.931 88.8103C148.428 90.2479 147.863 91.8937 147.486 94.5188C147.486 94.5813 147.444 94.623 147.403 94.623Z" fill="#F69797"/>
<path fill-rule="evenodd" clip-rule="evenodd" d="M211.915 84.685C219.577 82.0599 224.852 83.4558 231.802 82.4141C231.488 89.4976 232.116 95.0395 232.639 98.4146C236.093 120.957 249.616 144.75 250.809 146.833C251.52 148.083 253.488 151.479 254.577 156.396C255.456 160.438 255.581 171.146 255.414 173.23C250.62 165.542 234.439 165.73 227.008 165.542C221.942 165.417 218.3 165.313 214.26 163.459C208.315 160.708 205.51 156.062 204.024 153.333C211.12 144.75 207.519 131.374 206.954 126.041C206.305 124.895 205.531 123.291 204.861 121.27C204.484 120.082 203.459 116.624 203.605 111.915C203.731 108.227 204.505 105.519 205.28 102.977C206.703 98.2896 209.55 91.5394 211.915 84.685Z" fill="white"/>
<path d="M211.917 84.6848C213.445 84.1639 212.817 84.2889 214.178 84.0181C213.34 88.4557 212.126 90.9558 210.661 95.1018C199.797 123.644 215.266 128.478 210.368 161.104C206.998 158.521 205.135 155.375 204.046 153.333C211.142 144.749 207.542 131.374 206.977 126.04C206.328 124.895 205.553 123.29 204.883 121.269C204.507 120.082 203.481 116.623 203.627 111.915C203.753 108.227 204.528 105.519 205.302 102.977C206.705 98.2894 209.552 91.5392 211.917 84.6848Z" fill="#A8ADBE"/>
<path d="M223.013 101.206C223.431 94.7684 224.269 87.289 231.805 82.4138C231.491 89.4974 232.118 95.0393 232.642 98.4144C236.096 120.957 249.618 144.749 250.812 146.833C251.523 148.083 253.491 151.479 254.579 156.396C255.459 160.437 255.584 171.146 255.417 173.23C252.005 167.75 242.815 166.271 235.133 165.813C236.179 134.041 223.641 122.394 223.013 101.206Z" fill="#A8ADBE"/>
<path d="M206.664 114.999C207.082 121.645 209.929 123.874 215.016 126.561C218.616 129.312 214.43 132.27 213.885 132.145C205.701 131.603 205.512 117.728 206.664 114.999Z" fill="#A8ADBE"/>
<path d="M255.395 173.313C254.265 171.959 252.967 170.792 251.523 169.813C249.723 168.625 247.043 167.605 243.757 166.875C240.596 166.167 238.251 166.042 234.672 165.855C232.097 165.709 230.632 165.73 229.334 165.73C227.911 165.75 226.655 165.75 224.373 165.563C220.186 165.23 218.093 165.063 215.707 164.167C211.311 162.5 208.443 159.667 207.124 158.125C205.847 156.625 204.78 154.937 203.942 153.104L204.131 153.021C204.947 154.812 205.994 156.5 207.271 157.979C208.569 159.5 211.415 162.313 215.769 163.959C218.114 164.834 220.207 165 224.373 165.334C226.655 165.521 227.89 165.5 229.313 165.5C230.611 165.5 232.097 165.48 234.672 165.625C238.251 165.813 240.617 165.938 243.778 166.646C247.085 167.375 249.785 168.396 251.607 169.626C253.072 170.605 254.391 171.792 255.521 173.146L255.395 173.313Z" fill="#A8ADBE"/>
<path d="M213.841 84.0601C213.255 85.6434 212.313 88.1019 211.12 91.1228C205.719 104.894 204.107 107.269 202.558 112.957C200.863 119.103 200.695 123.791 200.465 129.999C200.13 138.979 202.14 152.521 202.14 152.521C202.14 152.521 198.518 151.333 196.718 150.583C195.713 146.583 194.646 140.562 195.043 133.333C195.504 125.082 197.639 120.165 200.674 109.019C202.098 103.832 203.982 96.248 205.698 87.0393C207.205 86.1018 212.606 84.1642 213.841 84.0601Z" fill="#2C3C82"/>
<path d="M181.809 221.99C182.097 221.955 182.288 221.584 182.236 221.161C182.184 220.739 181.909 220.425 181.621 220.46C181.334 220.495 181.143 220.866 181.195 221.288C181.247 221.711 181.522 222.025 181.809 221.99Z" fill="white"/>
<path d="M182.208 225.322C182.495 225.287 182.686 224.916 182.634 224.494C182.583 224.071 182.307 223.757 182.02 223.792C181.732 223.827 181.541 224.198 181.593 224.621C181.645 225.043 181.92 225.357 182.208 225.322Z" fill="white"/>
<path d="M182.522 228.617C182.811 228.601 183.026 228.243 183.002 227.818C182.978 227.393 182.724 227.062 182.435 227.078C182.146 227.094 181.931 227.452 181.954 227.877C181.978 228.302 182.232 228.633 182.522 228.617Z" fill="white"/>
<path d="M183.161 231.393C183.192 230.968 182.983 230.607 182.694 230.586C182.405 230.565 182.146 230.892 182.115 231.317C182.084 231.742 182.293 232.103 182.582 232.124C182.871 232.145 183.13 231.817 183.161 231.393Z" fill="white"/>
<path fill-rule="evenodd" clip-rule="evenodd" d="M178.675 232.212C178.633 232.212 178.591 232.191 178.57 232.15C178.549 232.087 178.57 232.045 178.633 232.004C179.408 231.67 181.794 231.274 182.527 231.253C182.569 231.253 182.631 231.295 182.631 231.357C182.631 231.42 182.589 231.461 182.527 231.461C181.794 231.482 179.47 231.858 178.717 232.191C178.696 232.191 178.696 232.212 178.675 232.212Z" fill="white"/>
<path fill-rule="evenodd" clip-rule="evenodd" d="M178.13 228.857C178.088 228.857 178.046 228.836 178.025 228.774C178.004 228.711 178.046 228.669 178.109 228.649C178.695 228.503 179.281 228.357 179.867 228.232C180.704 228.065 181.563 227.94 182.421 227.857C182.484 227.857 182.526 227.899 182.526 227.94C182.526 228.003 182.484 228.044 182.442 228.044C181.584 228.128 180.746 228.253 179.909 228.419C179.323 228.544 178.737 228.669 178.172 228.836C178.151 228.857 178.13 228.857 178.13 228.857Z" fill="white"/>
<path fill-rule="evenodd" clip-rule="evenodd" d="M177.565 225.649C177.523 225.649 177.481 225.628 177.46 225.586C177.439 225.524 177.46 225.482 177.523 225.461C178.172 225.232 178.821 225.024 179.49 224.857C180.349 224.628 181.228 224.461 182.107 224.357C182.17 224.357 182.212 224.399 182.233 224.44C182.233 224.503 182.191 224.544 182.149 224.565C181.291 224.69 180.412 224.857 179.553 225.065C178.904 225.232 178.255 225.44 177.607 225.669C177.586 225.649 177.565 225.649 177.565 225.649Z" fill="white"/>
<path fill-rule="evenodd" clip-rule="evenodd" d="M176.957 222.503C176.915 222.503 176.874 222.482 176.853 222.44C176.832 222.378 176.853 222.336 176.915 222.315C177.711 222.044 178.527 221.794 179.344 221.565C180.118 221.357 180.893 221.19 181.667 221.065C181.73 221.065 181.772 221.086 181.793 221.149C181.793 221.211 181.772 221.253 181.709 221.274C180.935 221.419 180.16 221.586 179.406 221.774C178.59 221.982 177.795 222.232 176.999 222.503C176.978 222.503 176.978 222.503 176.957 222.503Z" fill="white"/>
<path fill-rule="evenodd" clip-rule="evenodd" d="M180.663 221.398C180.621 221.398 180.6 221.378 180.579 221.336C179.784 219.919 178.779 218.919 177.628 218.357C177.188 218.148 176.811 218.023 176.435 217.919C175.828 217.752 175.262 217.565 174.572 217.023C174.132 216.669 173.211 215.94 173.002 214.711C172.771 213.461 173.378 212.044 174.467 211.252C176.1 210.065 178.256 210.773 179.281 211.377C180.956 212.377 181.898 214.419 181.898 217.107C181.898 218.544 181.5 220.003 180.726 221.315C180.726 221.378 180.705 221.398 180.663 221.398ZM176.56 210.836C175.89 210.836 175.2 211.002 174.592 211.44C173.567 212.19 173.002 213.523 173.211 214.69C173.42 215.836 174.278 216.544 174.697 216.877C175.346 217.398 175.89 217.565 176.476 217.732C176.853 217.836 177.251 217.961 177.711 218.169C178.863 218.732 179.847 219.69 180.663 221.065C181.354 219.836 181.71 218.461 181.71 217.127C181.689 214.523 180.81 212.544 179.177 211.565C178.591 211.231 177.586 210.836 176.56 210.836Z" fill="white"/>
<path fill-rule="evenodd" clip-rule="evenodd" d="M180.746 221.398C180.725 221.398 180.683 221.398 180.662 221.378C178.904 219.648 176.768 219.107 174.34 219.773C174.256 219.794 174.173 219.815 174.068 219.857C172.435 220.315 168.123 221.565 167.181 218.482C166.825 216.398 167.872 215.19 168.96 214.315C171.619 212.627 176.371 213.44 178.778 215.981C180.515 217.815 180.829 220.107 180.85 221.315C180.85 221.357 180.829 221.398 180.788 221.419C180.788 221.398 180.767 221.398 180.746 221.398ZM176.308 219.294C177.92 219.294 179.364 219.877 180.62 221.065C180.557 219.836 180.18 217.794 178.61 216.127C176.266 213.648 171.64 212.836 169.065 214.481C167.621 215.69 167.097 216.877 167.37 218.44C168.249 221.315 172.435 220.127 174.005 219.669C174.11 219.648 174.194 219.607 174.277 219.586C174.989 219.377 175.659 219.294 176.308 219.294Z" fill="white"/>
<path fill-rule="evenodd" clip-rule="evenodd" d="M180.705 221.336C180.684 221.336 180.684 221.336 180.705 221.336C180.642 221.336 180.6 221.294 180.6 221.232C180.642 219.419 180.223 217.648 179.386 216.148C177.397 212.544 173.085 210.356 168.877 210.835C166.261 211.127 164.272 212.398 163.079 213.419C163.037 213.46 162.974 213.46 162.932 213.398C162.891 213.356 162.891 213.294 162.953 213.252C164.168 212.21 166.177 210.919 168.857 210.627C173.148 210.148 177.544 212.377 179.574 216.044C180.411 217.565 180.851 219.356 180.809 221.232C180.788 221.294 180.746 221.336 180.705 221.336Z" fill="white"/>
<path fill-rule="evenodd" clip-rule="evenodd" d="M180.704 221.294H180.683C180.62 221.273 180.599 221.21 180.62 221.169C181.185 219.19 181.332 217.169 181.039 215.189C180.809 213.585 180.411 210.877 178.171 208.71C175.596 206.189 172.205 206.002 170.865 206.043C170.824 206.043 170.761 206.002 170.761 205.939C170.761 205.877 170.803 205.835 170.865 205.835C172.226 205.793 175.68 205.981 178.318 208.564C180.599 210.793 180.997 213.523 181.227 215.169C181.52 217.19 181.395 219.231 180.809 221.231C180.788 221.273 180.746 221.294 180.704 221.294Z" fill="white"/>
<path d="M173.079 285.742C173.483 285.181 173.559 284.546 173.248 284.325C172.938 284.104 172.358 284.379 171.954 284.941C171.55 285.503 171.474 286.137 171.785 286.358C172.095 286.58 172.675 286.304 173.079 285.742Z" fill="white"/>
<path d="M169.951 290.207C170.379 289.62 170.46 288.952 170.132 288.715C169.804 288.479 169.192 288.763 168.764 289.35C168.336 289.937 168.255 290.605 168.583 290.842C168.911 291.078 169.523 290.794 169.951 290.207Z" fill="white"/>
<path d="M166.41 294.8C166.848 294.206 166.931 293.526 166.595 293.281C166.259 293.035 165.632 293.318 165.194 293.912C164.756 294.505 164.673 295.186 165.008 295.431C165.344 295.677 165.972 295.394 166.41 294.8Z" fill="white"/>
<path d="M162.747 299.466C163.233 298.88 163.36 298.185 163.03 297.914C162.7 297.642 162.038 297.897 161.552 298.482C161.065 299.068 160.938 299.763 161.268 300.034C161.598 300.306 162.26 300.051 162.747 299.466Z" fill="white"/>
<path fill-rule="evenodd" clip-rule="evenodd" d="M162.075 299.213C162.054 299.213 162.033 299.213 162.012 299.193C159.5 297.318 155.502 296.13 152.299 296.338C152.236 296.338 152.194 296.297 152.194 296.234C152.194 296.172 152.236 296.13 152.299 296.13C155.565 295.922 159.605 297.13 162.158 299.026C162.2 299.068 162.221 299.13 162.179 299.172C162.137 299.193 162.117 299.213 162.075 299.213Z" fill="white"/>
<path fill-rule="evenodd" clip-rule="evenodd" d="M165.695 294.505C165.675 294.505 165.654 294.505 165.633 294.484C163.707 293.297 161.614 292.463 159.437 292.047C158.306 291.817 157.134 291.713 155.983 291.692C155.92 291.692 155.878 291.651 155.878 291.588C155.878 291.526 155.92 291.484 155.983 291.484C157.155 291.484 158.327 291.609 159.478 291.838C161.676 292.276 163.791 293.109 165.737 294.318C165.779 294.338 165.8 294.422 165.779 294.463C165.758 294.484 165.737 294.505 165.695 294.505Z" fill="white"/>
<path fill-rule="evenodd" clip-rule="evenodd" d="M169.067 289.963C169.046 289.963 169.025 289.963 169.004 289.942C167.162 288.797 165.195 287.942 163.122 287.421C161.908 287.109 160.757 287.046 159.731 287.005C159.585 287.005 159.417 286.984 159.271 286.984C159.208 286.984 159.166 286.921 159.166 286.88C159.166 286.817 159.229 286.776 159.271 286.776C159.417 286.776 159.564 286.796 159.731 286.796C160.757 286.859 161.929 286.921 163.164 287.234C165.257 287.755 167.267 288.609 169.109 289.776C169.151 289.797 169.172 289.88 169.151 289.922C169.13 289.942 169.109 289.963 169.067 289.963Z" fill="white"/>
<path fill-rule="evenodd" clip-rule="evenodd" d="M172.416 285.421C172.395 285.421 172.374 285.421 172.353 285.4C170.469 284.213 168.438 283.38 166.303 282.88C164.922 282.567 163.477 282.379 162.054 282.379C161.991 282.379 161.949 282.338 161.949 282.275C161.949 282.213 161.991 282.171 162.054 282.171C163.498 282.192 164.943 282.359 166.345 282.692C168.501 283.192 170.553 284.046 172.458 285.255C172.499 285.275 172.52 285.359 172.499 285.4C172.478 285.4 172.437 285.421 172.416 285.421Z" fill="white"/>
<path fill-rule="evenodd" clip-rule="evenodd" d="M171.808 285.005C171.787 285.005 171.787 285.005 171.766 285.005C171.724 284.984 171.682 284.942 171.703 284.9C172.247 280.838 171.033 277.796 168.124 275.858C167.893 275.713 167.558 275.546 167.161 275.379C166.407 275.046 165.465 274.608 164.753 273.9C162.974 271.733 162.535 269.379 163.518 267.441C164.419 265.691 166.365 264.566 168.354 264.67C170.824 264.92 172.792 266.15 174.027 268.191C176.099 271.65 175.68 276.525 174.404 279.588C173.796 281.463 172.938 283.275 171.892 284.963C171.871 284.984 171.85 285.005 171.808 285.005ZM168.124 264.858C166.302 264.858 164.544 265.9 163.707 267.525C163.142 268.608 162.576 270.879 164.9 273.733C165.57 274.4 166.491 274.817 167.224 275.15C167.621 275.338 167.956 275.483 168.207 275.65C171.075 277.567 172.331 280.504 171.933 284.421C172.854 282.859 173.629 281.213 174.173 279.484C175.429 276.463 175.848 271.65 173.817 268.254C172.624 266.254 170.719 265.087 168.312 264.837C168.291 264.858 168.207 264.858 168.124 264.858Z" fill="white"/>
<path fill-rule="evenodd" clip-rule="evenodd" d="M171.871 285.026C171.85 285.026 171.829 285.026 171.808 285.005C171.766 284.984 171.766 284.942 171.766 284.901C172.625 281.942 172.834 279.192 172.415 276.734C172.353 276.338 171.997 274.296 171.766 271.65C171.599 269.754 171.62 269.067 171.871 268.275C172.164 267.338 172.918 265.671 174.718 264.879C176.728 264.004 178.925 264.692 180.119 265.733C182.463 267.754 181.814 271.525 181.542 273.129C180.433 279.63 174.446 283.609 171.934 285.026C171.892 285.005 171.892 285.026 171.871 285.026ZM176.644 264.671C176.037 264.671 175.388 264.796 174.781 265.046C173.064 265.796 172.332 267.421 172.059 268.317C171.829 269.067 171.808 269.754 171.976 271.609C172.206 274.254 172.562 276.296 172.625 276.671C173.043 279.109 172.855 281.796 172.039 284.692C174.634 283.192 180.265 279.296 181.333 273.067C181.605 271.504 182.233 267.817 179.972 265.858C179.177 265.192 177.963 264.671 176.644 264.671Z" fill="white"/>
<path fill-rule="evenodd" clip-rule="evenodd" d="M171.85 285.046C171.829 285.046 171.829 285.046 171.808 285.046C171.745 285.025 171.724 284.963 171.745 284.921C173.483 280.192 171.892 274.879 167.894 272.025C164.251 269.421 159.374 269.316 155.48 271.754C155.438 271.775 155.376 271.775 155.334 271.712C155.313 271.671 155.313 271.608 155.376 271.566C159.353 269.087 164.314 269.212 168.019 271.837C172.101 274.754 173.734 280.15 171.955 284.984C171.934 285.025 171.892 285.046 171.85 285.046Z" fill="white"/>
<path fill-rule="evenodd" clip-rule="evenodd" d="M171.766 285.046C171.746 285.046 171.704 285.025 171.683 285.005C171.641 284.963 171.641 284.9 171.683 284.859C173.65 282.984 175.179 280.817 176.204 278.421C179.512 270.796 176.853 263.4 175.555 260.587C175.534 260.525 175.555 260.483 175.597 260.441C175.66 260.42 175.702 260.441 175.744 260.483C177.063 263.337 179.742 270.775 176.393 278.484C175.346 280.9 173.797 283.088 171.829 284.984C171.808 285.025 171.787 285.046 171.766 285.046Z" fill="white"/>
<path d="M228.681 72.664C228.471 73.6224 228.325 74.7891 228.304 76.0808C228.283 78.935 228.995 81.2268 229.602 82.7268C228.953 83.581 227.948 84.7269 226.546 85.8728C223.824 88.0604 221.25 88.8521 220.329 89.1021C218.507 89.6021 215.347 90.4771 213.923 88.9146C213.504 88.4562 213.316 87.9145 213.316 87.3728C213.546 86.4978 213.714 85.6436 213.839 84.5602C214.195 81.331 213.735 78.56 213.19 76.6225C215.053 73.2265 217.21 71.1014 218.675 69.8722C220.663 68.2055 221.501 64.1845 223.322 64.4137C225.394 64.7054 227.823 69.6639 228.681 72.664Z" fill="#F69797"/>
<path d="M213.84 80.1861C213.693 78.8318 213.442 77.6235 213.17 76.6234C215.033 73.2275 221.48 64.1855 223.281 64.4355C224.327 64.5813 226.588 66.5814 227.572 68.2273C226.379 76.9151 215.849 79.811 213.84 80.1861Z" fill="#161616" fill-opacity="0.3"/>
<path d="M230.733 41.3295C231.759 40.4753 233.308 39.3294 235.339 38.3086C237.39 37.2877 242.079 35.3293 250.368 35.996C258.428 36.6418 259.558 38.9336 271.95 41.8295C277.456 43.1212 280.219 43.7671 283.108 43.8296C287.692 43.9546 296.421 43.0379 307.201 34.2251C306.657 36.496 305.548 39.6628 303.266 42.9129C298.556 49.559 291.962 51.9966 289.408 52.8091C291.271 53.0174 293.909 53.1008 296.965 52.4966C299.331 52.0382 301.298 51.2882 302.743 50.6007C300.984 52.4966 298.703 54.6841 295.835 56.7884C293.323 58.6426 290.936 60.0385 288.843 61.101C290.518 61.1427 292.192 61.1844 293.867 61.226C292.381 62.5178 290.12 64.2053 287.085 65.5595C278.565 69.3513 270.485 67.5388 266.487 66.6637C253.173 63.7053 244.989 54.6841 242.016 51.0382C241.472 50.1215 240.153 48.2464 237.683 46.9964C236.239 46.2672 234.899 46.0172 233.999 45.913C232.91 44.3921 231.822 42.8504 230.733 41.3295Z" fill="#32313A"/>
<path fill-rule="evenodd" clip-rule="evenodd" d="M228.179 42.1422C228.388 41.8505 228.765 41.4547 229.351 41.2047C230.942 40.538 232.596 41.7047 233.014 42.0172C233.391 42.2881 235.359 43.6631 235.17 45.7673C235.066 46.8924 234.396 47.6841 234.082 48.0174C233.6 47.2257 232.951 46.309 232.114 45.3923C230.733 43.8506 229.288 42.8089 228.179 42.1422Z" fill="white"/>
<path d="M203.813 56.1843C203.478 55.4343 202.662 53.8301 202.641 52.3508C202.599 48.8507 204.923 46.3923 205.907 45.3506C209.444 41.6213 214.133 40.9754 216.269 40.6838C219.053 40.3087 224.872 39.4962 230.042 43.3714C235.003 47.0798 235.945 52.5383 236.05 53.3092C237.097 59.9344 233.329 64.7263 232.701 65.4971C231.717 66.4138 229.31 70.2473 228.661 72.6849C225.018 70.3098 225.919 65.2263 223.909 64.8096C218.341 61.7678 217.859 58.6427 212.208 56.3301C210.428 55.601 207.958 55.3718 203.813 56.1843Z" fill="#32313A"/>
<path d="M206.409 49.9757C205.928 49.684 205.321 49.8924 205.111 50.4132C204.944 50.8507 204.776 51.2883 204.63 51.7674C203.855 54.1217 203.311 56.2468 203.206 58.1635C203.123 60.9344 204.609 62.4553 204.609 62.4553L203.018 66.643C202.809 67.1847 203.081 67.7888 203.604 68.0388L205.258 68.7472C205.802 68.9972 204.986 69.9973 205.111 70.7681C205.195 71.2681 205.656 71.6015 206.158 71.914C205.907 72.5807 206.074 73.289 206.849 73.7474C207.121 73.9141 207.267 74.1849 207.247 74.4974C207.079 76.8933 208.23 78.2892 210.177 78.435C213.443 78.5184 218.906 75.6433 219.388 75.3516C220.455 74.7057 222.172 73.4974 223.386 71.3931C224.495 69.4556 224.558 66.8096 224.516 65.7054C224.788 65.7471 225.312 65.7679 225.981 65.0387C227.384 63.747 228.117 56.8718 224.83 57.0593C223.909 57.0593 223.302 57.6218 222.653 58.9969C222.297 59.8511 221.816 59.9969 221.586 60.0802C220.246 55.2676 215.013 52.8508 213.066 52.5175C211.37 52.2258 209.089 51.5799 206.409 49.9757Z" fill="#F7B2B2"/>
<path d="M209.049 62.3055C209.51 62.2664 209.845 61.7794 209.797 61.2176C209.749 60.6558 209.336 60.2321 208.875 60.2711C208.415 60.3101 208.08 60.7972 208.128 61.359C208.176 61.9208 208.589 62.3445 209.049 62.3055Z" fill="#353437"/>
<path d="M203.982 62.3301C204.087 62.6426 204.276 62.8926 204.422 62.9759C204.485 62.9968 204.653 62.1634 204.632 62.1009C204.485 61.6634 204.213 61.3717 204.045 61.4342C203.856 61.4967 203.835 61.8926 203.982 62.3301Z" fill="#353437"/>
<path d="M207.644 61.5591C207.623 61.5591 207.602 61.5591 207.581 61.5591C207.477 61.5175 207.414 61.4133 207.435 61.2883C207.539 60.9549 207.707 60.6841 207.916 60.4966C208.398 60.0591 208.984 60.1216 209.57 60.1841C210.156 60.2466 210.721 60.4133 211.245 60.7049C211.349 60.7674 211.391 60.8924 211.328 60.9966C211.265 61.1008 211.14 61.1425 211.035 61.08C210.554 60.8299 210.051 60.6633 209.507 60.6008C208.9 60.5383 208.502 60.5174 208.188 60.8091C208.021 60.9549 207.895 61.1633 207.811 61.4133C207.811 61.4966 207.728 61.5591 207.644 61.5591Z" fill="#353437"/>
<path d="M204.129 64.0598C204.108 64.0598 204.108 64.0598 204.087 64.0598C204.024 64.039 204.003 63.9765 204.024 63.9348L204.632 62.1431C204.653 62.0806 204.716 62.0597 204.758 62.0806C204.821 62.1014 204.842 62.1639 204.821 62.2056L204.213 63.9973C204.234 64.039 204.192 64.0598 204.129 64.0598Z" fill="#F69797"/>
<path d="M207.246 59.3094L207.56 58.9969C207.833 58.7261 208.23 58.5802 208.628 58.6427C209.068 58.7052 209.57 58.7886 210.114 58.9344C210.658 59.1011 211.224 59.2678 211.684 59.4553C211.81 59.5178 211.935 59.3303 211.831 59.2261C211.454 58.8928 210.931 58.4969 210.344 58.1636C209.612 57.7469 208.9 57.5594 208.356 57.476C207.895 57.4135 207.414 57.6219 207.184 58.0177C207.142 58.1011 207.1 58.1844 207.058 58.2886C206.932 58.5802 206.891 58.8511 206.87 59.0803C206.807 59.3511 207.079 59.4761 207.246 59.3094Z" fill="#353437"/>
<path d="M205.781 68.7474C205.718 68.7474 205.655 68.7474 205.593 68.7474C205.488 68.7266 205.404 68.6432 205.404 68.5182C205.425 68.4141 205.509 68.3099 205.635 68.3307C206.158 68.3932 206.618 68.1641 206.765 67.789C206.849 67.5807 206.807 67.3724 206.744 67.2265C206.702 67.1224 206.765 66.9973 206.87 66.9557C206.974 66.914 207.1 66.9765 207.142 67.0807C207.225 67.289 207.288 67.6015 207.163 67.914C206.974 68.4349 206.409 68.7474 205.781 68.7474Z" fill="#161616" fill-opacity="0.3"/>
<path d="M206.325 72.0389C206.242 72.0389 206.179 72.0389 206.095 72.0389C205.969 72.0389 205.886 71.9347 205.886 71.8305C205.886 71.7055 205.99 71.6222 206.095 71.6222C206.891 71.643 207.665 71.518 208.377 71.2263C208.691 71.1013 209.005 70.9347 209.298 70.7263C209.402 70.6638 209.528 70.6847 209.591 70.7888C209.654 70.893 209.633 71.018 209.528 71.0805C209.214 71.2888 208.879 71.4763 208.544 71.6014C207.874 71.893 207.121 72.0389 206.325 72.0389Z" fill="#161616" fill-opacity="0.3"/>
<path d="M203.817 62.0602C203.796 62.0602 203.775 62.0602 203.754 62.0602C203.649 62.0393 203.587 61.9142 203.608 61.81C203.691 61.518 203.838 61.3304 204.068 61.2469C204.445 61.101 204.863 61.3304 205.073 61.4763C205.177 61.5389 205.198 61.664 205.136 61.7682C205.073 61.8725 204.947 61.8934 204.843 61.8308C204.654 61.7057 204.382 61.5806 204.215 61.6431C204.131 61.6848 204.068 61.7682 204.026 61.9142C203.984 61.9976 203.901 62.0602 203.817 62.0602Z" fill="#353437"/>
<path d="M204.066 59.1638C204.192 59.3721 204.087 59.6638 203.899 59.6638C203.857 59.6638 203.794 59.6638 203.752 59.6638C203.5 59.6846 203.479 59.7888 203.353 59.8513C203.207 59.7055 202.997 59.4554 203.018 59.0179C203.039 58.7262 203.102 58.5804 203.228 58.3721C203.374 58.4137 203.5 58.5387 203.689 58.7054C203.836 58.8304 203.961 58.9971 204.066 59.1638Z" fill="#353437"/>
<path d="M224.915 64.1846C224.873 64.1846 224.81 64.1429 224.81 64.1012C224.81 64.0387 224.852 63.9971 224.894 63.9762C225.166 63.9346 225.501 63.5804 225.647 63.2679C225.668 63.2471 226.548 61.1428 226.066 59.6011C225.961 59.2677 225.501 58.3719 224.685 58.5802C224.559 58.6011 224.35 58.6844 224.119 58.8719C224.077 58.9136 224.015 58.9136 223.973 58.8719C223.931 58.8302 223.931 58.7677 223.973 58.7261C224.224 58.4969 224.496 58.4135 224.622 58.3927C225.585 58.1427 226.129 59.1636 226.255 59.5386C226.757 61.1845 225.836 63.3304 225.815 63.3512C225.668 63.7262 225.292 64.1221 224.915 64.1846C224.936 64.1846 224.915 64.1846 224.915 64.1846Z" fill="#F69797"/>
<path d="M224.12 61.9968C224.057 61.9968 224.015 61.9552 224.015 61.8927C224.015 61.8302 224.057 61.7885 224.12 61.7885C224.351 61.7677 224.644 61.6218 224.728 61.3927C224.812 61.1635 224.665 60.851 224.288 60.5385C223.68 60.0176 223.701 59.4968 223.743 59.2259C223.764 59.1634 223.806 59.1426 223.869 59.1426C223.931 59.1634 223.952 59.2051 223.952 59.2676C223.911 59.4968 223.911 59.9343 224.414 60.3926C224.959 60.8926 224.98 61.2468 224.896 61.476C224.791 61.7885 224.435 61.976 224.12 61.9968Z" fill="#F69797"/>
<path d="M213.4 77.8934C216.184 77.0601 219.031 75.56 219.387 75.3517C220.455 74.7058 222.171 73.4974 223.385 71.3932C224.495 69.4556 224.558 66.8097 224.516 65.7055C224.202 65.7263 223.678 65.5388 223.448 65.3513C220.936 67.7472 219.324 72.9974 213.4 77.8934Z" fill="#F69797"/>
<path d="M229.143 81.6016C228.431 82.6016 227.636 84.0391 226.799 85.935C225.752 88.2893 224.81 91.4561 224.705 96.7479C224.58 103.165 225.794 108.311 226.589 111.29C228.306 117.665 231.634 130.207 241.556 142.77C244.299 146.229 247.857 150.354 253.739 154.729C256.481 156.771 257.319 156.979 265.022 162.209C272.642 167.375 274.253 169.084 275.886 171.98C277.875 176.292 276.828 178.98 276.305 181.126C277.707 180.501 281.727 174.23 275.656 167.105C273.667 164.938 271.553 163.063 268.999 160.125C266.383 157.125 262.657 152.042 259.182 142.041C254.702 129.166 253.656 116.749 253.551 108.165C253.383 104.227 251.227 89.5393 250.264 87.3309C249.155 85.4559 245.806 82.1432 239.065 81.7891C235.988 81.7682 233.539 81.7057 229.143 81.6016Z" fill="#2C3C82"/>
<path d="M232.911 128.978C233.979 131.166 235.214 133.437 236.637 135.75C242.017 131.958 245.094 129.333 246.894 126.978C248.569 139.458 254.137 152.333 265.022 162.23C272.642 167.397 274.254 169.105 275.886 172.001C277.875 176.314 276.828 179.001 276.305 181.147C277.708 180.522 281.727 174.251 275.656 167.126C273.667 164.959 271.553 163.084 268.999 160.146C266.383 157.146 262.657 152.063 259.182 142.062C254.702 129.187 253.656 116.77 253.551 108.186C253.509 106.999 253.258 104.811 252.944 102.29C249.113 112.29 243.273 118.103 232.911 128.978Z" fill="#172A65"/>
<path d="M202.139 152.438C202.097 152.438 202.055 152.396 202.034 152.355C201.134 147.625 200.883 143.354 200.695 139.937C200.674 139.562 200.653 139.187 200.632 138.833C200.192 131.312 200.506 125.437 200.778 123.166C201.239 119.145 201.972 115.166 202.872 111.936C203.479 109.77 204.044 108.207 204.693 106.395C207.1 100.978 208 98.7277 209.612 94.6442C210.01 93.6441 210.449 92.5608 210.952 91.2899C211.894 88.9356 212.815 86.4772 213.673 84.0188C213.694 83.9563 213.757 83.9355 213.799 83.9563C213.862 83.9771 213.882 84.0396 213.862 84.0813C213.003 86.5397 212.082 88.9981 211.14 91.3524C210.638 92.6233 210.198 93.7275 209.801 94.7067C208.168 98.7902 207.289 101.04 204.881 106.457C204.232 108.249 203.688 109.811 203.081 111.978C202.181 115.207 201.448 119.187 200.988 123.187C200.737 125.458 200.423 131.312 200.841 138.833C200.862 139.187 200.883 139.562 200.904 139.937C201.092 143.354 201.323 147.604 202.223 152.334C202.244 152.375 202.202 152.417 202.139 152.438Z" fill="#161616" fill-opacity="0.3"/>
<path d="M276.368 181.126H276.347C276.284 181.105 276.263 181.064 276.263 181.001C276.912 178.584 277.331 175.022 275.614 171.751C274.777 170.167 273.667 169.063 272.391 167.813C271.009 166.459 270.025 165.771 266.467 163.396C260.836 159.625 258.868 158.334 258.847 158.313C255.267 155.938 253.279 154.646 252.986 154.438C249.197 151.667 246.706 148.937 244.906 146.937C241.661 143.396 238.605 139.229 236.072 134.916C232.995 129.666 231.446 125.582 229.478 120.395C228.097 116.77 226.82 113.353 225.752 108.561C224.496 102.811 224.391 98.8315 224.454 96.9981C224.496 95.2481 224.58 92.623 225.48 89.3104C226.234 86.5394 227.385 83.8935 228.934 81.4351C228.955 81.3934 229.039 81.3726 229.08 81.3934C229.122 81.4143 229.143 81.4976 229.122 81.5393C227.594 83.9769 226.443 86.6019 225.71 89.3729C224.81 92.6647 224.747 95.2898 224.685 97.019C224.622 98.8524 224.726 102.811 225.982 108.54C227.029 113.332 228.327 116.749 229.688 120.353C231.655 125.52 233.204 129.624 236.26 134.833C238.793 139.145 241.829 143.291 245.073 146.833C246.873 148.812 249.364 151.542 253.132 154.292C253.425 154.5 255.393 155.813 258.973 158.167C258.994 158.188 260.94 159.48 266.592 163.25C270.151 165.646 271.135 166.313 272.537 167.688C273.835 168.959 274.965 170.063 275.803 171.688C277.54 175.022 277.121 178.647 276.452 181.084C276.452 181.084 276.41 181.126 276.368 181.126Z" fill="#161616" fill-opacity="0.3"/>
<path d="M167.222 88.9969C167.18 89.0802 167.097 89.2678 167.159 89.6844C167.306 90.8303 168.038 91.6428 168.499 92.0804C169.818 91.8928 171.116 91.7053 172.434 91.5178C171.66 90.5386 170.864 89.5386 170.09 88.5594C168.666 88.2469 167.536 88.4136 167.222 88.9969Z" fill="#F69797"/>
<path d="M187.194 111.019C185.456 108.915 183.719 106.81 182.002 104.706C181.793 104.456 181.647 104.164 181.542 103.852C181.06 102.123 180.579 100.31 180.16 98.3933C179.679 96.2058 179.281 94.1223 178.967 92.1223C178.883 91.5806 178.549 91.1014 178.067 90.8097C175.806 89.518 173.566 88.2055 171.306 86.9138C171.075 86.7888 170.845 86.7054 170.573 86.6846L166.093 86.2471C165.968 86.2262 165.842 86.2262 165.696 86.2471C164.858 86.3512 163.372 86.5387 162.723 86.6221C162.535 86.6429 162.388 86.8096 162.409 86.9971C162.409 87.2679 162.451 87.6221 162.598 87.8513C162.995 88.4972 164.063 88.268 165.675 88.4555C167.119 88.6222 168.124 89.0805 169.108 89.1638C169.694 89.7055 170.301 90.2472 170.887 90.8097C170.217 90.8097 169.526 90.8097 168.857 90.8097C168.668 90.8097 167.642 90.9556 167.391 92.0181C167.056 93.2473 167.538 94.1848 167.622 94.6224C167.266 95.3099 167.245 96.0808 167.328 96.7266C167.475 97.81 168.208 98.6017 168.396 98.7475C168.354 99.1017 168.291 99.5392 168.27 100.081C168.229 101.227 168.208 101.852 168.584 102.414C168.668 102.539 168.94 102.914 169.401 103.102C169.61 103.185 169.778 103.206 170.154 103.227C170.531 103.248 171.034 103.269 171.62 103.289C171.808 103.685 172.059 104.144 172.373 104.623C172.624 104.998 172.897 105.331 173.127 105.623L173.818 110.04C173.922 110.248 174.111 110.581 174.446 110.852C175.053 111.352 175.723 111.415 175.974 111.415C176.455 111.852 176.937 112.31 177.439 112.811C179.135 114.519 180.537 116.227 181.688 117.852C182.463 117.498 183.531 116.873 184.535 115.831C186.377 114.061 186.984 111.998 187.194 111.019Z" fill="#F7B2B2"/>
<path d="M173.607 91.5815C173.586 91.5815 173.586 91.5815 173.565 91.5815C173.272 91.4564 172.958 91.3521 172.623 91.2479C172.016 91.0811 171.388 90.9768 170.739 90.9351C170.677 90.9351 170.635 90.8934 170.635 90.8308C170.635 90.7683 170.677 90.7266 170.739 90.7266C171.388 90.7683 172.037 90.8725 172.665 91.0394C172.979 91.1228 173.314 91.2479 173.628 91.373C173.691 91.3938 173.712 91.4564 173.691 91.519C173.691 91.5607 173.649 91.5815 173.607 91.5815Z" fill="#F69797"/>
<path d="M173.064 95.0815H173.043C171.913 94.727 170.741 94.5393 169.568 94.5393C168.961 94.5393 168.333 94.581 167.726 94.6645C167.663 94.6645 167.622 94.6436 167.601 94.581C167.601 94.5185 167.622 94.4768 167.684 94.4559C168.312 94.3725 168.94 94.3308 169.568 94.3308C170.761 94.3517 171.955 94.5393 173.106 94.8938C173.169 94.9147 173.19 94.9772 173.169 95.0189C173.148 95.0398 173.106 95.0815 173.064 95.0815Z" fill="#F69797"/>
<path d="M173.293 98.9773C172.33 98.8105 171.346 98.7271 170.383 98.7271C169.734 98.7271 169.065 98.7688 168.416 98.8522C168.353 98.8522 168.311 98.8105 168.29 98.7688C168.29 98.7062 168.332 98.6645 168.374 98.6437C169.023 98.5603 169.693 98.5186 170.362 98.5186C171.346 98.5186 172.33 98.602 173.293 98.7688C173.356 98.7688 173.398 98.8313 173.377 98.8939C173.398 98.9565 173.356 98.9773 173.293 98.9773Z" fill="#F69797"/>
<path d="M214.258 129.165C215.619 127.79 217.461 125.832 219.471 123.353C221.669 120.665 225.96 115.332 229.497 107.769C233.286 99.6852 234.71 95.2893 234.71 95.2893C235.045 94.2476 235.945 91.435 238.268 88.6432C240.299 86.2056 241.932 85.5597 242.664 85.3097C243.083 85.1639 244.925 84.6222 246.851 85.1014C250.514 86.0389 252.21 90.2474 252.9 91.9558C256.606 101.144 250.849 112.832 249.342 115.852C243.899 126.895 235.777 133.666 228.451 139.749C223.992 143.478 219.994 146.229 217.168 148.062C216.624 148.374 215.598 148.833 214.237 148.895C214.237 148.895 212.06 148.999 210.26 147.854C207.769 146.249 206.953 141.041 209.213 135.374C210.93 133.332 212.605 131.249 214.258 129.165Z" fill="#485BA3"/>
<path d="M186.9 109.832C190.438 112.727 194.122 115.644 197.973 118.561C203.228 122.561 208.377 126.29 213.422 129.791C214.071 130.332 214.908 131.166 215.724 132.291C216.541 133.416 218.341 136.291 218.446 140.187C218.467 140.77 218.55 147.604 215.097 148.916C207.917 150.02 202.662 141.916 198.183 137.27C194.373 133.332 195.106 134.374 191.714 130.832C188.637 127.624 184.723 123.311 180.432 117.936C180.871 118.103 182.567 116.832 183.781 115.644C186.565 112.894 187.026 110.477 186.9 109.832Z" fill="#485BA3"/>
<path d="M181.332 117.457C181.29 117.457 181.269 117.436 181.248 117.415C180.076 115.832 178.799 114.311 177.397 112.936C176.936 112.477 176.455 112.019 175.973 111.582C175.659 111.561 174.11 111.394 173.713 109.79L173.085 105.831C173.064 105.769 173.043 105.686 173.001 105.644C172.771 105.352 172.54 105.04 172.331 104.727C172.059 104.311 171.808 103.894 171.598 103.456C171.138 103.435 170.656 103.415 170.196 103.394C169.84 103.373 169.631 103.352 169.4 103.269C169.065 103.123 168.772 102.873 168.521 102.54C168.103 101.935 168.144 101.248 168.186 100.144C168.207 99.727 168.249 99.2895 168.312 98.8728C168.04 98.6228 167.37 97.8311 167.244 96.8103C167.14 95.9977 167.244 95.2894 167.537 94.6644C167.516 94.6019 167.495 94.4977 167.454 94.4144C167.286 93.9143 167.035 93.081 167.307 92.0601C167.537 91.0184 168.542 90.7892 168.856 90.7892H170.614L169.065 89.3517C168.605 89.31 168.123 89.185 167.621 89.0392C167.056 88.8933 166.407 88.7267 165.653 88.6433C165.172 88.5808 164.732 88.56 164.356 88.56C163.455 88.5183 162.786 88.4975 162.493 87.9975C162.325 87.7474 162.283 87.3516 162.283 87.0808C162.283 86.8308 162.451 86.6224 162.702 86.6016L165.674 86.2266C165.8 86.2057 165.946 86.2057 166.093 86.2266L170.573 86.6641C170.845 86.6849 171.096 86.7682 171.347 86.9141L178.108 90.8101C178.632 91.1017 178.967 91.6018 179.05 92.1851C179.385 94.2685 179.783 96.3728 180.244 98.4562C180.662 100.269 181.123 102.102 181.625 103.915C181.709 104.206 181.855 104.498 182.065 104.727C182.839 105.665 183.572 106.54 184.284 107.415C185.016 108.29 185.728 109.165 186.503 110.102C186.544 110.144 186.523 110.207 186.482 110.248C186.44 110.29 186.377 110.269 186.335 110.227C185.561 109.29 184.828 108.415 184.116 107.54C183.384 106.665 182.672 105.79 181.897 104.852C181.688 104.581 181.521 104.29 181.437 103.956C180.934 102.165 180.453 100.31 180.055 98.4978C179.595 96.4353 179.197 94.3102 178.862 92.2268C178.778 91.7059 178.464 91.2684 178.004 90.9976L171.242 87.0183C171.033 86.8933 170.803 86.8308 170.552 86.7891L166.072 86.3516C165.946 86.3307 165.821 86.3307 165.716 86.3516L162.744 86.7266C162.597 86.7474 162.513 86.8516 162.513 86.9974C162.513 87.2474 162.555 87.6016 162.702 87.81C162.953 88.2058 163.518 88.2475 164.397 88.2683C164.774 88.2891 165.214 88.31 165.716 88.3725C166.47 88.4558 167.14 88.6225 167.705 88.7892C168.207 88.9142 168.689 89.06 169.149 89.1017C169.17 89.1017 169.191 89.1225 169.212 89.1225L170.991 90.7684C171.033 90.7892 171.033 90.8517 171.012 90.8726C170.991 90.8934 170.949 90.9351 170.908 90.9351H168.877C168.877 90.9351 167.768 90.9976 167.516 92.0601C167.244 93.0393 167.495 93.8102 167.663 94.3102C167.705 94.4352 167.726 94.5394 167.747 94.6227C167.747 94.6435 167.747 94.6644 167.747 94.6852C167.454 95.2685 167.349 95.9561 167.454 96.7478C167.579 97.7686 168.27 98.5187 168.5 98.7062C168.521 98.727 168.542 98.7687 168.542 98.8103C168.479 99.2479 168.437 99.6854 168.417 100.123C168.375 101.31 168.354 101.873 168.71 102.394C168.919 102.706 169.191 102.935 169.484 103.04C169.673 103.123 169.84 103.144 170.217 103.165C170.698 103.185 171.18 103.206 171.661 103.227C171.703 103.227 171.745 103.248 171.745 103.29C171.975 103.748 172.226 104.186 172.498 104.602C172.708 104.915 172.917 105.206 173.168 105.498C173.231 105.581 173.294 105.686 173.294 105.79L173.922 109.748C174.299 111.269 175.848 111.373 176.036 111.373C176.057 111.373 176.078 111.373 176.099 111.394C176.601 111.852 177.083 112.311 177.564 112.79C178.946 114.186 180.265 115.707 181.416 117.29C181.458 117.332 181.437 117.394 181.395 117.436C181.395 117.457 181.353 117.457 181.332 117.457Z" fill="#F69797"/>
<path d="M162.702 87.8099C162.64 87.8099 162.598 87.7683 162.598 87.7058C162.598 87.6433 162.64 87.6016 162.681 87.6016L163.958 87.4766C164 87.4558 164.126 87.4141 164.23 87.3099C164.356 87.1641 164.377 86.9349 164.272 86.7474C164.251 86.6849 164.272 86.6432 164.335 86.6016C164.398 86.5807 164.44 86.6016 164.482 86.6641C164.607 86.9349 164.565 87.2266 164.398 87.4349C164.272 87.6016 164.105 87.6641 164 87.6849L162.702 87.8099Z" fill="#F69797"/>
<path fill-rule="evenodd" clip-rule="evenodd" d="M313.985 134.242L297.846 146.659L299.311 150.013C299.374 150.347 299.646 150.618 300.044 150.618L320.809 150.18C321.332 150.159 321.667 149.638 321.458 149.18L315.011 134.388C314.801 133.93 314.341 133.867 313.985 134.242Z" fill="#8F1D3E"/>
<path fill-rule="evenodd" clip-rule="evenodd" d="M312.458 131.055L298.014 145.93C297.575 146.389 297.91 147.16 298.538 147.139L319.324 146.764C319.826 146.764 320.182 146.222 319.973 145.764L313.651 131.284C313.442 130.805 312.814 130.68 312.458 131.055Z" fill="#C63C56"/>
<path fill-rule="evenodd" clip-rule="evenodd" d="M266.822 80.1893L266.132 78.7935L257.968 83.1061L258.617 84.5853C258.659 84.6478 258.7 84.6895 258.784 84.7312L266.215 87.8563C266.487 87.9604 266.718 87.8146 266.739 87.5229L266.843 80.3143C266.864 80.2727 266.843 80.231 266.822 80.1893Z" fill="#8F1D3E"/>
<path fill-rule="evenodd" clip-rule="evenodd" d="M265.753 78.6905L258.113 82.7323C257.883 82.8573 257.903 83.1698 258.134 83.274L265.607 86.3574C265.795 86.4408 266.025 86.2949 266.025 86.0866L266.193 78.9405C266.193 78.7322 265.942 78.5863 265.753 78.6905Z" fill="#C63C56"/>
<path fill-rule="evenodd" clip-rule="evenodd" d="M259.789 252.593C259.789 252.593 249.239 249.967 248.674 249.613C248.485 250.572 248.339 251.384 248.15 252.343C248.13 252.405 248.13 252.488 248.15 252.572L250.683 261.822C250.767 262.093 251.102 262.197 251.311 262.03L259.14 255.613C259.224 255.551 259.266 255.468 259.266 255.384C259.433 254.447 259.789 252.593 259.789 252.593Z" fill="#8F1D3E"/>
<path fill-rule="evenodd" clip-rule="evenodd" d="M248.652 249.842L251.185 259.093C251.269 259.364 251.604 259.468 251.813 259.301L259.642 252.884C259.893 252.676 259.809 252.28 259.495 252.197L249.134 249.363C248.84 249.28 248.568 249.551 248.652 249.842Z" fill="#C63C56"/>
<path d="M123.298 123.76L112.496 115.843L110.612 117.364C110.403 117.468 110.277 117.676 110.361 117.926L114.38 130.927C114.485 131.239 114.883 131.364 115.134 131.156L123.381 124.427C123.654 124.218 123.591 123.906 123.298 123.76Z" fill="#A8ADBE"/>
<path fill-rule="evenodd" clip-rule="evenodd" d="M125.054 122.218L112.996 115.801C112.62 115.592 112.201 115.947 112.326 116.342L116.304 129.364C116.408 129.676 116.785 129.801 117.057 129.593L125.116 123.009C125.389 122.78 125.347 122.384 125.054 122.218Z" fill="white"/>
<path d="M237.705 4.89679L237.81 0.72998L213.067 0.959155L212.795 5.27181V5.29264C212.795 5.45931 212.879 5.66765 213.025 5.83433L227.008 22.5641C227.532 23.1266 228.118 22.8766 228.39 22.3974L237.621 5.27181C237.684 5.1468 237.705 5.0218 237.705 4.89679Z" fill="#A8ADBE"/>
<path fill-rule="evenodd" clip-rule="evenodd" d="M236.993 0L213.841 0.229175C213.151 0.229175 212.795 1.02087 213.234 1.56255L227.134 18.0631C227.49 18.5006 228.18 18.4381 228.473 17.9381L237.705 1.20838C238.019 0.645856 237.621 0 236.993 0Z" fill="white"/>
<path fill-rule="evenodd" clip-rule="evenodd" d="M133.417 205.528L132.077 206.653L139.048 214.32L140.492 213.195C140.555 213.132 140.576 213.07 140.597 212.966L141.978 204.028C142.02 203.715 141.79 203.507 141.476 203.549L133.542 205.424C133.501 205.445 133.438 205.486 133.417 205.528Z" fill="#8F1D3E"/>
<path fill-rule="evenodd" clip-rule="evenodd" d="M132.057 207.111L138.588 214.278C138.776 214.487 139.132 214.382 139.174 214.091L140.493 205.132C140.534 204.903 140.304 204.695 140.074 204.757L132.203 206.549C131.994 206.611 131.889 206.924 132.057 207.111Z" fill="#C63C56"/>
<path d="M121.297 259.676L119.246 257.968L109.512 270.364L111.563 272.218C111.647 272.281 111.772 272.322 111.94 272.322L125.902 272.01C126.405 271.968 126.488 271.572 126.363 271.26L121.423 259.864C121.423 259.78 121.36 259.718 121.297 259.676Z" fill="#A8ADBE"/>
<path fill-rule="evenodd" clip-rule="evenodd" d="M118.553 258.071L109.468 269.697C109.196 270.03 109.447 270.53 109.887 270.53L123.703 270.176C124.059 270.176 124.31 269.801 124.163 269.468L119.432 258.217C119.286 257.821 118.804 257.759 118.553 258.071Z" fill="white"/>
</svg>
