<svg width="24" height="24" viewBox="0 0 24 24" fill="none" xmlns="http://www.w3.org/2000/svg">
<g clip-path="url(#clip0)">
<path d="M23.8538 23.1459L16.5518 15.844C18.0678 14.16 18.9998 11.9401 18.9998 9.50004C18.9998 4.2621 14.7378 0.00012207 9.49988 0.00012207C4.26193 0.00012207 0 4.2621 0 9.50004C0 14.738 4.26197 19 9.49992 19C11.9399 19 14.1599 18.068 15.8439 16.551L23.1458 23.8529C23.2438 23.951 23.3718 23.9999 23.4998 23.9999C23.6278 23.9999 23.7558 23.951 23.8538 23.8539C24.0487 23.6579 24.0487 23.3419 23.8538 23.1459ZM9.49992 18C4.81298 18 1.00002 14.187 1.00002 9.50009C1.00002 4.81315 4.81294 1.00014 9.49992 1.00014C14.1869 1.00014 17.9998 4.81311 17.9998 9.50004C17.9998 14.187 14.1869 18 9.49992 18Z" fill="black"/>
</g>
<defs>
<clipPath id="clip0">
<rect width="24" height="24" fill="white"/>
</clipPath>
</defs>
</svg>
